<svg xmlns="http://www.w3.org/2000/svg" width="42.313" height="42.313" viewBox="0 0 42.313 42.313">
  <path id="Icon_ionic-ios-arrow-dropdown-circle" data-name="Icon ionic-ios-arrow-dropdown-circle" d="M3.375,24.531A21.156,21.156,0,1,0,24.531,3.375,21.153,21.153,0,0,0,3.375,24.531ZM32.78,20.117a1.971,1.971,0,0,1,2.777,0,1.939,1.939,0,0,1,.57,1.383,1.973,1.973,0,0,1-.58,1.393l-9.592,9.561a1.961,1.961,0,0,1-2.706-.061l-9.734-9.7a1.963,1.963,0,0,1,2.777-2.777l8.249,8.33Z" transform="translate(-3.375 45.688) rotate(-90)" fill="#fff"/>
</svg>
