<svg xmlns="http://www.w3.org/2000/svg" width="12.874" height="12.874" viewBox="0 0 12.874 12.874">
  <g id="Layer_2" data-name="Layer 2" transform="translate(-2.146 -2.146)">
    <g id="external-link">
      <path id="Path_7604" data-name="Path 7604" d="M15.159,8.722a.715.715,0,0,0-.715.715v4.291a.715.715,0,0,1-.715.715H5.146a.715.715,0,0,1-.715-.715V5.146a.715.715,0,0,1,.715-.715H9.437a.715.715,0,0,0,0-1.43H5.146A2.146,2.146,0,0,0,3,5.146v8.583a2.146,2.146,0,0,0,2.146,2.146h8.583a2.146,2.146,0,0,0,2.146-2.146V9.437A.715.715,0,0,0,15.159,8.722Z" transform="translate(-0.854 -0.854)" fill="#16697a"/>
      <path id="Path_7605" data-name="Path 7605" d="M14.574,4.43H15.7l-4.5,4.492a.718.718,0,1,0,1.016,1.016l4.5-4.492v1.13a.715.715,0,0,0,1.43,0V3.715A.715.715,0,0,0,17.435,3H14.574a.715.715,0,0,0,0,1.43Z" transform="translate(-3.131 -0.854)" fill="#16697a"/>
    </g>
  </g>
</svg>
