<svg xmlns="http://www.w3.org/2000/svg" width="13.174" height="11.292" viewBox="0 0 13.174 11.292">
  <path id="quote-svgrepo-com" d="M1,11.415A6.717,6.717,0,0,0,3.281,9.568a4.816,4.816,0,0,0,.96-2.592,2.106,2.106,0,0,1-.72.119A2.427,2.427,0,0,1,1.78,6.439a2.371,2.371,0,0,1-.69-1.758,2.606,2.606,0,0,1,.72-1.937A2.437,2.437,0,0,1,3.641,2,2.691,2.691,0,0,1,5.921,3.132,4.961,4.961,0,0,1,6.762,6.2a7.214,7.214,0,0,1-1.23,4.141,8.591,8.591,0,0,1-3.541,2.95Zm7.412,0a6.717,6.717,0,0,0,2.281-1.847,4.817,4.817,0,0,0,.96-2.592,2.107,2.107,0,0,1-.72.119,2.427,2.427,0,0,1-1.74-.655A2.371,2.371,0,0,1,8.5,4.681a2.606,2.606,0,0,1,.72-1.937A2.437,2.437,0,0,1,11.053,2a2.691,2.691,0,0,1,2.281,1.132,4.961,4.961,0,0,1,.84,3.069,7.214,7.214,0,0,1-1.23,4.141A8.591,8.591,0,0,1,9.4,13.292Z" transform="translate(-1 -2)" fill="#16697a"/>
</svg>
