<svg id="Group_2591" data-name="Group 2591" xmlns="http://www.w3.org/2000/svg" width="21.123" height="21.123" viewBox="0 0 21.123 21.123">
  <path id="Path_7601" data-name="Path 7601" d="M10.562,0A10.562,10.562,0,1,0,21.123,10.562,10.573,10.573,0,0,0,10.562,0Zm0,19.2A8.641,8.641,0,1,1,19.2,10.562,8.651,8.651,0,0,1,10.562,19.2Z" fill="#16697a"/>
  <path id="Path_7602" data-name="Path 7602" d="M100.34,64.3l-2.027,2.027V60.96a.96.96,0,0,0-1.92,0v5.363L94.366,64.3a.96.96,0,0,0-1.358,1.358l3.666,3.666a.96.96,0,0,0,1.358,0l3.666-3.666A.96.96,0,1,0,100.34,64.3Z" transform="translate(-86.791 -56.159)" fill="#16697a"/>
  <path id="Path_7603" data-name="Path 7603" d="M124.8,240H120.96a.96.96,0,1,0,0,1.92H124.8a.96.96,0,1,0,0-1.92Z" transform="translate(-112.319 -224.638)" fill="#16697a"/>
</svg>
