<svg id="Group_2318" data-name="Group 2318" xmlns="http://www.w3.org/2000/svg" width="16.301" height="17.27" viewBox="0 0 16.301 17.27">
  <g id="Group_2317" data-name="Group 2317">
    <path id="Path_7518" data-name="Path 7518" d="M16.78,2.312H15.72v-.09a1.183,1.183,0,1,0-2.366,0v.09H8.242v-.13a1.183,1.183,0,0,0-2.366,0v.13H5a2.335,2.335,0,0,0-2.26,2.4V15.871A2.335,2.335,0,0,0,5,18.27H16.78a2.335,2.335,0,0,0,2.259-2.4V4.711A2.335,2.335,0,0,0,16.78,2.312Zm-2.87-.09a.626.626,0,1,1,1.252,0v.852a.626.626,0,1,1-1.252,0ZM6.433,2.183a.626.626,0,0,1,1.252,0v.853a.626.626,0,0,1-1.252,0Zm12.05,13.688a1.778,1.778,0,0,1-1.7,1.842H5a1.779,1.779,0,0,1-1.7-1.842V5.7H18.483Zm0-10.73H3.3V4.711A1.779,1.779,0,0,1,5,2.87h.876v.166a1.183,1.183,0,0,0,2.366,0V2.87h5.112v.2a1.183,1.183,0,1,0,2.366,0v-.2h1.061a1.778,1.778,0,0,1,1.7,1.842v.429Z" transform="translate(-2.739 -1)"/>
    <path id="Path_7519" data-name="Path 7519" d="M10.71,32.366H22.168a.278.278,0,0,0,.279-.279V23.493a.278.278,0,0,0-.279-.279H10.71a.278.278,0,0,0-.279.279v8.594A.278.278,0,0,0,10.71,32.366Zm11.18-3.422H19.582V26.637H21.89Zm-2.865,0H16.718V26.637h2.307Zm-2.865,0H13.853V26.637h2.307Zm-2.865,0H10.989V26.637H13.3Zm-2.307.557H13.3v2.308H10.989Zm2.865,0h2.307v2.308H13.853Zm2.865,0h2.307v2.308H16.718Zm5.172,2.308H19.582V29.5H21.89Zm0-5.729H19.582V23.772H21.89Zm-2.865,0H16.718V23.772h2.307Zm-2.865,0H13.853V23.772h2.307Zm-5.172-2.308H13.3V26.08H10.989Z" transform="translate(-8.289 -17.027)"/>
  </g>
</svg>
