<svg xmlns="http://www.w3.org/2000/svg" width="22.454" height="18.938" viewBox="0 0 22.454 18.938">
  <g id="calendar-with-marked-days-svgrepo-com" transform="translate(0 -3.581)">
    <g id="Group_2335" data-name="Group 2335" transform="translate(0 3.581)">
      <path id="Path_7575" data-name="Path 7575" d="M19.022,4.663H18.8V4.345a.755.755,0,0,0-.747-.764H16.313a.764.764,0,0,0-.757.764v.318H6.9V4.345a.776.776,0,0,0-.771-.764H4.384a.771.771,0,0,0-.766.764v.318h-.2A3.431,3.431,0,0,0,0,8.1V19.079a3.434,3.434,0,0,0,3.418,3.439h15.6a3.446,3.446,0,0,0,3.432-3.439V8.1A3.443,3.443,0,0,0,19.022,4.663Zm.422,14.076a.916.916,0,0,1-.9.9H3.9a.9.9,0,0,1-.891-.9V8.438a.9.9,0,0,1,.891-.9H18.54a.912.912,0,0,1,.9.9v10.3Z" transform="translate(0 -3.581)"/>
      <path id="Path_7576" data-name="Path 7576" d="M19.816,15.152H17.968a.75.75,0,0,0-.75.75V17.75a.75.75,0,0,0,.75.75h1.847a.751.751,0,0,0,.75-.75V15.9A.749.749,0,0,0,19.816,15.152Z" transform="translate(-8.764 -9.471)"/>
      <path id="Path_7577" data-name="Path 7577" d="M31.525,15.152H29.678a.75.75,0,0,0-.75.75V17.75a.75.75,0,0,0,.75.75h1.847a.75.75,0,0,0,.75-.75V15.9A.75.75,0,0,0,31.525,15.152Z" transform="translate(-14.725 -9.471)"/>
      <path id="Path_7578" data-name="Path 7578" d="M31.525,25.827H29.678a.75.75,0,0,0-.75.75v1.848a.75.75,0,0,0,.75.75h1.847a.75.75,0,0,0,.75-.75V26.578A.751.751,0,0,0,31.525,25.827Z" transform="translate(-14.725 -14.904)"/>
    </g>
  </g>
</svg>
