<svg xmlns="http://www.w3.org/2000/svg" width="20.756" height="17.319" viewBox="0 0 20.756 17.319">
  <g id="computer-svgrepo-com_3_" data-name="computer-svgrepo-com (3)" transform="translate(0 -40.5)">
    <g id="Group_2334" data-name="Group 2334" transform="translate(0 40.5)">
      <g id="Group_2333" data-name="Group 2333" transform="translate(0 0)">
        <g id="Group_2332" data-name="Group 2332">
          <path id="Path_7574" data-name="Path 7574" d="M6.975,57.819h6.805a.6.6,0,0,0,.6-.6V55.609h4.7a1.677,1.677,0,0,0,1.676-1.676V42.176A1.677,1.677,0,0,0,19.08,40.5H1.676A1.677,1.677,0,0,0,0,42.176V53.933a1.677,1.677,0,0,0,1.676,1.676h4.7v1.608A.6.6,0,0,0,6.975,57.819ZM2.287,53.3V42.783H18.469V53.3Z" transform="translate(0 -40.5)" fill="#202124"/>
        </g>
      </g>
    </g>
  </g>
</svg>
