<svg xmlns="http://www.w3.org/2000/svg" width="26.688" height="26.685" viewBox="0 0 26.688 26.685">
  <g id="network-svgrepo-com" transform="translate(0.05 0.022)">
    <path id="Tracé_7659" data-name="Tracé 7659" d="M131.584,8.2h2.137V9.685h-.8a.429.429,0,1,0,0,.858h5.986a.429.429,0,0,0,0-.858h-.8V8.2h2.137a1.529,1.529,0,0,0,1.527-1.527V1.555A1.529,1.529,0,0,0,140.247.028h-8.663a1.529,1.529,0,0,0-1.527,1.527v5.12A1.529,1.529,0,0,0,131.584,8.2Zm5.668,1.483h-2.674V8.2h2.674Zm-6.338-8.13a.67.67,0,0,1,.669-.669h8.663a.67.67,0,0,1,.669.669v5.12a.67.67,0,0,1-.669.669h-8.663a.67.67,0,0,1-.669-.669Z" transform="translate(-122.621)" stroke="#000" stroke-width="0.1"/>
    <path id="Tracé_7660" data-name="Tracé 7660" d="M10.19,281.115H1.527A1.529,1.529,0,0,0,0,282.642v5.12a1.529,1.529,0,0,0,1.527,1.527H3.664v1.483h-.8a.429.429,0,1,0,0,.858H8.851a.429.429,0,1,0,0-.858h-.8v-1.483H10.19a1.529,1.529,0,0,0,1.527-1.527v-5.12A1.529,1.529,0,0,0,10.19,281.115ZM7.2,290.772H4.521v-1.483H7.2Zm3.664-3.01a.67.67,0,0,1-.669.669H1.527a.67.67,0,0,1-.669-.669v-5.12a.67.67,0,0,1,.669-.669H10.19a.67.67,0,0,1,.669.669Z" transform="translate(0 -265.017)" stroke="#000" stroke-width="0.1"/>
    <path id="Tracé_7661" data-name="Tracé 7661" d="M270.3,281.115h-8.663a1.529,1.529,0,0,0-1.527,1.527v5.12a1.529,1.529,0,0,0,1.527,1.527h2.137v1.483h-.8a.429.429,0,1,0,0,.858h5.986a.429.429,0,1,0,0-.858h-.8v-1.483H270.3a1.529,1.529,0,0,0,1.527-1.527v-5.12A1.529,1.529,0,0,0,270.3,281.115Zm-2.995,9.657h-2.674v-1.483h2.674Zm3.664-3.01a.67.67,0,0,1-.669.669h-8.663a.67.67,0,0,1-.669-.669v-5.12a.67.67,0,0,1,.669-.669H270.3a.67.67,0,0,1,.669.669v5.12Z" transform="translate(-245.243 -265.017)" stroke="#000" stroke-width="0.1"/>
    <path id="Tracé_7662" data-name="Tracé 7662" d="M109.842,202.353a.429.429,0,0,0,.858,0v-1.491a.429.429,0,0,0-.429-.429h-7.007V199.37a.429.429,0,1,0-.858,0v1.063H95.4a.429.429,0,0,0-.429.429v1.491a.429.429,0,0,0,.858,0V201.29h14.014Z" transform="translate(-89.541 -187.541)" stroke="#000" stroke-width="0.1"/>
  </g>
</svg>
