<svg xmlns="http://www.w3.org/2000/svg" width="68.632" height="68.632" viewBox="0 0 68.632 68.632">
  <g id="Group_2286" data-name="Group 2286" transform="translate(0 0)">
    <path id="Oval" d="M34.316,0A34.316,34.316,0,1,1,0,34.316,34.316,34.316,0,0,1,34.316,0Z" fill="#16697a"/>
    <g id="triangle-right-17" transform="translate(29.414 24.511)">
      <path id="Path" d="M.7.088A.425.425,0,0,0,.24.049.459.459,0,0,0,0,.457v20.1a.459.459,0,0,0,.24.407A.423.423,0,0,0,.7,20.922L13.828,10.873a.47.47,0,0,0,0-.737Z" transform="translate(0 0)" fill="#fff"/>
    </g>
  </g>
</svg>
