<svg xmlns="http://www.w3.org/2000/svg" width="18.001" height="18.001" viewBox="0 0 18.001 18.001">
  <path id="course-tile-sort-svgrepo-com" d="M6,18H1a1,1,0,0,1-1-1V12a1,1,0,0,1,1-1H6a1,1,0,0,1,1,1v5A1,1,0,0,1,6,18Zm11,0H12a1,1,0,0,1-1-1V12a1,1,0,0,1,1-1h5a1,1,0,0,1,1,1v5A1,1,0,0,1,17,18ZM6,7H1A1,1,0,0,1,0,6V1A1,1,0,0,1,1,0H6A1,1,0,0,1,7,1V6A1,1,0,0,1,6,7ZM17.708,5.24,14.173,8.775a1,1,0,0,1-1.414,0L9.224,5.24a1,1,0,0,1,0-1.413L12.76.292a1,1,0,0,1,1.414,0l3.535,3.535a1,1,0,0,1,0,1.414Z" transform="translate(0 0.001)" fill="#f1c40f"/>
</svg>
