<svg xmlns="http://www.w3.org/2000/svg" width="19.135" height="25.269" viewBox="0 0 19.135 25.269">
  <g id="curriculum-resume-svgrepo-com" transform="translate(-47.788 0.05)">
    <g id="Groupe_2616" data-name="Groupe 2616" transform="translate(50.474 20.829)">
      <g id="Groupe_2615" data-name="Groupe 2615" transform="translate(0)">
        <path id="Tracé_7671" data-name="Tracé 7671" d="M102,324.849H89.655a.7.7,0,1,0,0,1.4H102a.7.7,0,1,0,0-1.4Z" transform="translate(-88.954 -324.849)" fill="#5a5a5a" stroke="#5a5a5a" stroke-width="0.1"/>
      </g>
    </g>
    <g id="Groupe_2618" data-name="Groupe 2618" transform="translate(50.474 17.762)">
      <g id="Groupe_2617" data-name="Groupe 2617" transform="translate(0)">
        <path id="Tracé_7672" data-name="Tracé 7672" d="M102,277.01H89.655a.7.7,0,1,0,0,1.4H102a.7.7,0,1,0,0-1.4Z" transform="translate(-88.954 -277.01)" fill="#5a5a5a" stroke="#5a5a5a" stroke-width="0.1"/>
      </g>
    </g>
    <g id="Groupe_2620" data-name="Groupe 2620" transform="translate(54.333 2.939)">
      <g id="Groupe_2619" data-name="Groupe 2619" transform="translate(0)">
        <path id="Tracé_7673" data-name="Tracé 7673" d="M152.153,45.834a3.011,3.011,0,1,0,3.014,3.009A3.019,3.019,0,0,0,152.153,45.834Zm0,4.618a1.608,1.608,0,1,1,1.608-1.608A1.615,1.615,0,0,1,152.153,50.452Z" transform="translate(-149.139 -45.834)" fill="#5a5a5a" stroke="#5a5a5a" stroke-width="0.1"/>
      </g>
    </g>
    <g id="Groupe_2622" data-name="Groupe 2622" transform="translate(51.958 9.729)">
      <g id="Groupe_2621" data-name="Groupe 2621" transform="translate(0)">
        <path id="Tracé_7674" data-name="Tracé 7674" d="M121.485,152.472a11.073,11.073,0,0,0-7.992,0,2.232,2.232,0,0,0-1.4,2.077v2.844a.7.7,0,0,0,.7.7h9.389a.7.7,0,0,0,.7-.7v-2.844A2.232,2.232,0,0,0,121.485,152.472Zm0,4.224h-7.992v-2.143a.824.824,0,0,1,.506-.771,9.7,9.7,0,0,1,6.98,0,.824.824,0,0,1,.506.771V156.7Z" transform="translate(-112.096 -151.726)" fill="#5a5a5a" stroke="#5a5a5a" stroke-width="0.1"/>
      </g>
    </g>
    <g id="Groupe_2624" data-name="Groupe 2624" transform="translate(47.838)">
      <g id="Groupe_2623" data-name="Groupe 2623" transform="translate(0)">
        <path id="Tracé_7675" data-name="Tracé 7675" d="M64.846,0H53.2a2,2,0,0,0-1.426.589L48.427,3.938a2,2,0,0,0-.589,1.426V23.146a2.026,2.026,0,0,0,2.023,2.023H64.85a2.026,2.026,0,0,0,2.023-2.023V2.023A2.043,2.043,0,0,0,64.846,0ZM51.954,2.388V4.12H50.221Zm13.509,5.1h-2.6a.7.7,0,1,0,0,1.4h2.6v1.244H64.51a.7.7,0,0,0,0,1.4h.953V23.151a.62.62,0,0,1-.618.622h-15a.619.619,0,0,1-.618-.618V5.517h3.424a.7.7,0,0,0,.7-.7V1.393h11.49a.619.619,0,0,1,.618.618Z" transform="translate(-47.838)" fill="#5a5a5a" stroke="#5a5a5a" stroke-width="0.1"/>
      </g>
    </g>
  </g>
</svg>
