<svg xmlns="http://www.w3.org/2000/svg" width="22.78" height="24.119" viewBox="0 0 22.78 24.119">
  <g id="_x31_0_date" transform="translate(-2.614 -0.875)">
    <g id="Group_2318" data-name="Group 2318" transform="translate(2.739 1)">
      <g id="Group_2317" data-name="Group 2317">
        <path id="Path_7518" data-name="Path 7518" d="M22.146,2.814H20.68V2.689a1.635,1.635,0,1,0-3.27,0v.125H10.345V2.635a1.635,1.635,0,0,0-3.27,0v.179H5.863A3.228,3.228,0,0,0,2.739,6.13V21.553a3.228,3.228,0,0,0,3.124,3.316H22.146a3.227,3.227,0,0,0,3.123-3.316V6.13A3.227,3.227,0,0,0,22.146,2.814ZM18.18,2.689a.865.865,0,1,1,1.731,0V3.867a.865.865,0,1,1-1.731,0ZM7.844,2.635a.865.865,0,0,1,1.731,0V3.814a.865.865,0,0,1-1.731,0ZM24.5,21.553A2.458,2.458,0,0,1,22.146,24.1H5.863a2.458,2.458,0,0,1-2.354-2.546V7.493H24.5Zm0-14.831H3.509V6.13A2.458,2.458,0,0,1,5.863,3.584H7.074v.23a1.635,1.635,0,0,0,3.27,0v-.23H17.41v.283a1.635,1.635,0,1,0,3.27,0V3.584h1.466A2.458,2.458,0,0,1,24.5,6.13v.593Z" transform="translate(-2.739 -1)" fill="#16697a" stroke="#16697a" stroke-width="0.25"/>
        <path id="Path_7519" data-name="Path 7519" d="M10.817,35.863H26.654a.385.385,0,0,0,.385-.385V23.6a.385.385,0,0,0-.385-.385H10.817a.385.385,0,0,0-.385.385V35.478A.385.385,0,0,0,10.817,35.863Zm15.452-4.729H23.079V27.944h3.189Zm-3.959,0H19.12V27.944h3.189Zm-3.959,0H15.161V27.944H18.35Zm-3.959,0H11.2V27.944h3.189ZM11.2,31.9h3.189v3.189H11.2Zm3.959,0H18.35v3.189H15.161Zm3.959,0h3.189v3.189H19.12Zm7.149,3.189H23.079V31.9h3.189Zm0-7.919H23.079V23.985h3.189Zm-3.959,0H19.12V23.985h3.189Zm-3.959,0H15.161V23.985H18.35ZM11.2,23.985h3.189v3.189H11.2Z" transform="translate(-7.47 -14.662)" fill="#16697a" stroke="#16697a" stroke-width="0.25"/>
      </g>
    </g>
  </g>
</svg>
