<svg xmlns="http://www.w3.org/2000/svg" width="19.817" height="20.98" viewBox="0 0 19.817 20.98">
  <g id="Group_2593" data-name="Group 2593" transform="translate(0.125 0.125)">
    <path id="Path_7518" data-name="Path 7518" d="M19.594,2.575H18.321V2.467a1.42,1.42,0,1,0-2.84,0v.108H9.344V2.42a1.42,1.42,0,0,0-2.84,0v.156H5.452a2.8,2.8,0,0,0-2.713,2.88v13.4a2.8,2.8,0,0,0,2.713,2.88H19.594a2.8,2.8,0,0,0,2.712-2.88V5.455A2.8,2.8,0,0,0,19.594,2.575Zm-3.445-.108a.751.751,0,1,1,1.5,0V3.49a.751.751,0,1,1-1.5,0ZM7.173,2.42a.751.751,0,0,1,1.5,0V3.444a.751.751,0,0,1-1.5,0ZM21.638,18.851a2.134,2.134,0,0,1-2.043,2.211H5.452a2.135,2.135,0,0,1-2.044-2.211V6.639h18.23Zm0-12.88H3.408V5.455A2.135,2.135,0,0,1,5.452,3.244H6.5v.2a1.42,1.42,0,0,0,2.84,0v-.2h6.136V3.49a1.42,1.42,0,1,0,2.84,0V3.244h1.273a2.134,2.134,0,0,1,2.043,2.211V5.97Z" transform="translate(-2.739 -1)" fill="#16697a" stroke="#16697a" stroke-width="0.25"/>
    <path id="Path_7519" data-name="Path 7519" d="M10.766,34.2H24.521a.334.334,0,0,0,.334-.334V23.549a.334.334,0,0,0-.334-.334H10.766a.334.334,0,0,0-.334.334V33.866A.334.334,0,0,0,10.766,34.2Zm13.42-4.108h-2.77v-2.77h2.77Zm-3.439,0h-2.77v-2.77h2.77Zm-3.439,0h-2.77v-2.77h2.77Zm-3.439,0H11.1v-2.77h2.77Zm-2.77.669h2.77v2.77H11.1Zm3.439,0h2.77v2.77h-2.77Zm3.439,0h2.77v2.77h-2.77Zm6.209,2.77h-2.77v-2.77h2.77Zm0-6.878h-2.77v-2.77h2.77Zm-3.439,0h-2.77v-2.77h2.77Zm-3.439,0h-2.77v-2.77h2.77ZM11.1,23.884h2.77v2.77H11.1Z" transform="translate(-7.859 -15.787)" fill="#16697a" stroke="#16697a" stroke-width="0.25"/>
  </g>
</svg>
