<svg xmlns="http://www.w3.org/2000/svg" width="16.943" height="16.943" viewBox="0 0 16.943 16.943">
  <g id="time-svgrepo-com" transform="translate(0.249 0.25)">
    <path id="Tracé_7650" data-name="Tracé 7650" d="M8.223,0a8.222,8.222,0,1,0,8.222,8.222A8.231,8.231,0,0,0,8.223,0Zm0,15.255a7.033,7.033,0,1,1,7.033-7.033A7.041,7.041,0,0,1,8.223,15.255Z" stroke="#000" stroke-width="0.5"/>
    <path id="Tracé_7651" data-name="Tracé 7651" d="M41.732,24.668h-.01l-1.93.029V19.646a.646.646,0,1,0-1.292,0v5.706s0,0,0,0,0,0,0,.006a.63.63,0,0,0,.009.076c0,.016,0,.032.005.047a.611.611,0,0,0,.025.08c0,.014.008.028.013.041a.668.668,0,0,0,.041.075c.007.011.012.023.019.034a.681.681,0,0,0,.055.067c.008.009.015.019.023.028a.679.679,0,0,0,.068.056c.009.007.018.016.028.022a.625.625,0,0,0,.081.044c.01,0,.018.011.028.015a.663.663,0,0,0,.1.031l.019.006a.656.656,0,0,0,.129.013h.01l2.586-.039a.646.646,0,0,0-.009-1.292Z" transform="translate(-31.055 -15.447)" stroke="#000" stroke-width="0.5"/>
  </g>
</svg>
