<svg xmlns="http://www.w3.org/2000/svg" width="15.152" height="15.152" viewBox="0 0 15.152 15.152">
  <path id="Icon_metro-earth" data-name="Icon metro-earth" d="M10.147,1.928A7.576,7.576,0,1,0,17.723,9.5a7.576,7.576,0,0,0-7.576-7.576Zm0,14.2a6.607,6.607,0,0,1-2.622-.539l3.45-3.881a.474.474,0,0,0,.12-.315V9.977A.473.473,0,0,0,10.62,9.5c-1.672,0-3.436-1.738-3.453-1.755a.473.473,0,0,0-.335-.139H4.938a.474.474,0,0,0-.473.473v2.841a.473.473,0,0,0,.262.424l1.632.816v2.78a6.633,6.633,0,0,1-2.2-8.281H5.885a.474.474,0,0,0,.335-.139L8.114,4.63A.474.474,0,0,0,8.253,4.3V3.15a6.647,6.647,0,0,1,4.8.394c-.061.052-.121.106-.178.163a2.841,2.841,0,0,0,2.007,4.85q.07,0,.141,0a11.119,11.119,0,0,1-.124,5.509.472.472,0,0,0-.012.077,6.608,6.608,0,0,1-4.737,1.992Z" transform="translate(-2.571 -1.928)" fill="#16697a"/>
</svg>
