<svg xmlns="http://www.w3.org/2000/svg" width="21.143" height="20.007" viewBox="0 0 21.143 20.007">
  <g id="desk-education-svgrepo-com_1_" data-name="desk-education-svgrepo-com (1)" transform="translate(1.25 -12.832)">
    <g id="Groupe_2593" data-name="Groupe 2593" transform="translate(-1 13.082)">
      <g id="Groupe_2592" data-name="Groupe 2592" transform="translate(0 0)">
        <path id="Tracé_7648" data-name="Tracé 7648" d="M19.3,20.892h-.344v-.344a1.035,1.035,0,0,0-1.032-1.032h-.2l1.153-2.882a.327.327,0,0,0,.01-.455l-2.152-2.37a1.552,1.552,0,0,0-.222-.279,1.657,1.657,0,0,0-1.1-.447,1.453,1.453,0,0,0-1.1.447l-.619.619a.333.333,0,0,0,0,.482l1.72,1.72a.312.312,0,0,0,.241.1.371.371,0,0,0,.241-.1l.619-.619a1.779,1.779,0,0,0,.389-.689l1.292,1.423-1.22,3.05h-.427a1.035,1.035,0,0,0-1.032,1.032v.344H12.737l-.457-5.814a2,2,0,0,0-.895-1.411,2.376,2.376,0,0,0-1.239-.344H8.668a2.377,2.377,0,0,0-1.411.447,1.8,1.8,0,0,0-.791,1.307L5.91,20.892H4.291a.487.487,0,0,1-.131-.344.543.543,0,0,1,.134-.344h.554a.33.33,0,0,0,.31-.241.388.388,0,0,0-.1-.378.49.49,0,0,1-.206-.413.538.538,0,0,1,.206-.413.388.388,0,0,0,.1-.378.33.33,0,0,0-.31-.241H.72A1.014,1.014,0,0,0-.312,19.172a1.073,1.073,0,0,0,.068.379,1.01,1.01,0,0,0-.756,1,1.064,1.064,0,0,0,.093.44A.345.345,0,0,0-1,21.236v1.376a.325.325,0,0,0,.344.344h.344v9.289a.325.325,0,0,0,.344.344H1.408a.325.325,0,0,0,.344-.344v-1.72H8.874a1.184,1.184,0,0,1-.069.1,3.044,3.044,0,0,1-2.236.585,3.725,3.725,0,0,0-2.167.482.684.684,0,0,0-.241.55.344.344,0,1,0,.688,0,.107.107,0,0,1,.034-.069A3.047,3.047,0,0,1,6.569,31.9a3.6,3.6,0,0,0,2.752-.826,3.6,3.6,0,0,0,2.752.826,3.047,3.047,0,0,1,1.686.275.107.107,0,0,1,.034.069.325.325,0,0,0,.344.344.318.318,0,0,0,.344-.31.685.685,0,0,0-.241-.55,3.775,3.775,0,0,0-2.167-.482,3.044,3.044,0,0,1-2.236-.585.673.673,0,0,1-.107-.138h7.16v1.72a.325.325,0,0,0,.344.344H18.61a.325.325,0,0,0,.344-.344V22.956H19.3a.325.325,0,0,0,.344-.344V21.236A.325.325,0,0,0,19.3,20.892Zm-3.062-6.3a.829.829,0,0,1-.241.619l-.378.378-1.2-1.2.378-.413a.9.9,0,0,1,1.127-.066.476.476,0,0,0,.077.134l.149.164A.88.88,0,0,1,16.237,14.6ZM16.2,20.548a.345.345,0,0,1,.344-.344h1.376a.345.345,0,0,1,.344.344v.344H16.2v-.344ZM7.119,15.112a1.154,1.154,0,0,1,.516-.791,1.859,1.859,0,0,1,1.032-.31h1.479a1.408,1.408,0,0,1,.86.241,1.2,1.2,0,0,1,.585.895l.447,5.746H6.6ZM.72,18.827H4.229a1.223,1.223,0,0,0-.069.344,1.171,1.171,0,0,0,.034.344H.72a.344.344,0,0,1,0-.688ZM.032,20.2H3.541a1.223,1.223,0,0,0-.069.344,1.171,1.171,0,0,0,.034.344H.032a.344.344,0,1,1,0-.688ZM1.064,31.9H.376V30.525h.688Zm17.2,0h-.688V30.525h.688V31.9Zm0-2.064H.376V22.956h17.89v6.881Zm.688-7.569H-.312V21.58H18.955v.688Z" transform="translate(1 -13.082)" fill="#16697a" stroke="#16697a" stroke-width="0.5"/>
        <path id="Tracé_7649" data-name="Tracé 7649" d="M68.815,288.4H80.857a1.588,1.588,0,0,0,1.583-1.514v-1.755a1.542,1.542,0,0,0-1.548-1.548H68.815a1.542,1.542,0,0,0-1.548,1.548v1.755A1.535,1.535,0,0,0,68.815,288.4Zm-.86-3.268a.852.852,0,0,1,.86-.86H80.891a.852.852,0,0,1,.86.86v1.755a.852.852,0,0,1-.86.86H68.815a.852.852,0,0,1-.86-.86Z" transform="translate(-64.515 -272.68)" fill="#16697a" stroke="#16697a" stroke-width="0.5"/>
      </g>
    </g>
  </g>
</svg>
