<svg xmlns="http://www.w3.org/2000/svg" width="72" height="72" viewBox="0 0 72 72">
  <g id="Group_2591" data-name="Group 2591" transform="translate(-294 -3916)">
    <circle id="Ellipse_194" data-name="Ellipse 194" cx="36" cy="36" r="36" transform="translate(294 3916)" fill="#069a8e" opacity="0.2"/>
    <g id="calendar-svgrepo-com_3_" data-name="calendar-svgrepo-com (3)" transform="translate(305.508 3933)">
      <path id="Path_7606" data-name="Path 7606" d="M142.061,24.424h-17.08a1.074,1.074,0,0,1,0-2.148h17.08a1.074,1.074,0,0,1,0,2.148Z" transform="translate(-108.822 -20.646)" fill="#16697a"/>
      <circle id="Ellipse_195" data-name="Ellipse 195" cx="3.779" cy="3.779" r="3.779" transform="translate(10.331 1.074)" fill="#cff09e"/>
      <path id="Path_7607" data-name="Path 7607" d="M49.119,9.706a4.853,4.853,0,1,1,4.853-4.853A4.859,4.859,0,0,1,49.119,9.706Zm0-7.558a2.7,2.7,0,1,0,2.7,2.7A2.708,2.708,0,0,0,49.119,2.148Z" transform="translate(-35.009)" fill="#16697a"/>
      <circle id="Ellipse_196" data-name="Ellipse 196" cx="3.779" cy="3.779" r="3.779" transform="translate(31.17 1.074)" fill="#cff09e"/>
      <g id="Group_2521" data-name="Group 2521" transform="translate(6.492)">
        <path id="Path_7608" data-name="Path 7608" d="M333.851,9.706A4.853,4.853,0,1,1,338.7,4.853,4.859,4.859,0,0,1,333.851,9.706Zm0-7.558a2.7,2.7,0,1,0,2.7,2.7A2.708,2.708,0,0,0,333.851,2.148Z" transform="translate(-305.394)" fill="#16697a"/>
        <path id="Path_7609" data-name="Path 7609" d="M38.986,117.518H10.52a4.033,4.033,0,0,1-4.028-4.028v-22.1a5.032,5.032,0,0,1,5.026-5.026h26.47a5.032,5.032,0,0,1,5.026,5.026v11.462a1.074,1.074,0,0,1-2.148,0V91.392a2.881,2.881,0,0,0-2.878-2.878H11.518A2.881,2.881,0,0,0,8.64,91.392v22.1a1.882,1.882,0,0,0,1.88,1.88H38.986a1.882,1.882,0,0,0,1.88-1.88V108.36a1.074,1.074,0,0,1,2.148,0v5.129A4.033,4.033,0,0,1,38.986,117.518Z" transform="translate(-6.492 -80.045)" fill="#16697a"/>
      </g>
      <path id="Path_7610" data-name="Path 7610" d="M55.542,109.07v-4.076a3.952,3.952,0,0,0-3.952-3.952H25.12a3.952,3.952,0,0,0-3.952,3.952v4.076Z" transform="translate(-13.602 -93.647)" fill="#cff09e"/>
      <path id="Path_7611" data-name="Path 7611" d="M41.94,96.542H7.566a1.074,1.074,0,0,1-1.074-1.074V91.392a5.032,5.032,0,0,1,5.026-5.026h26.47a5.032,5.032,0,0,1,5.026,5.026v4.076A1.074,1.074,0,0,1,41.94,96.542ZM8.64,94.394H40.866v-3a2.881,2.881,0,0,0-2.878-2.878H11.518A2.881,2.881,0,0,0,8.64,91.392v3Z" transform="translate(0 -80.045)" fill="#16697a"/>
      <path id="Path_7612" data-name="Path 7612" d="M96.516,281.466v.931a1.289,1.289,0,0,1-1.289,1.289H91.074a1.289,1.289,0,0,1-1.289-1.289V274.3a1.289,1.289,0,0,1,1.289-1.289h4.153a1.289,1.289,0,0,1,1.289,1.289v7.161Z" transform="translate(-77.197 -253.034)" fill="#cff09e"/>
      <g id="Group_2522" data-name="Group 2522" transform="translate(11.514 18.908)">
        <path id="Path_7613" data-name="Path 7613" d="M81.625,271.157H77.471a2.366,2.366,0,0,1-2.363-2.363V260.7a2.366,2.366,0,0,1,2.363-2.363h4.153a2.366,2.366,0,0,1,2.363,2.363v8.092A2.366,2.366,0,0,1,81.625,271.157Zm-4.153-10.67a.215.215,0,0,0-.215.215v8.092a.215.215,0,0,0,.215.215h4.153a.215.215,0,0,0,.215-.215V260.7a.215.215,0,0,0-.215-.215Z" transform="translate(-75.108 -258.339)" fill="#16697a"/>
        <path id="Path_7614" data-name="Path 7614" d="M238.143,263.5a1.074,1.074,0,0,1-1.074-1.074v-1.45h-2.041v1.45a1.074,1.074,0,0,1-2.148,0v-1.638a1.963,1.963,0,0,1,1.96-1.96h2.417a1.963,1.963,0,0,1,1.96,1.96v1.638A1.074,1.074,0,0,1,238.143,263.5Z" transform="translate(-221.333 -258.789)" fill="#16697a"/>
        <path id="Path_7615" data-name="Path 7615" d="M355.561,263.5a1.074,1.074,0,0,1-1.074-1.074v-1.45h-2.041v1.45a1.074,1.074,0,0,1-2.148,0v-1.638a1.963,1.963,0,0,1,1.96-1.96h2.417a1.963,1.963,0,0,1,1.96,1.96v1.638A1.074,1.074,0,0,1,355.561,263.5Z" transform="translate(-330.157 -258.789)" fill="#16697a"/>
        <path id="Path_7616" data-name="Path 7616" d="M238.143,374.31a1.074,1.074,0,0,1-1.074-1.074v-1.45h-2.041v1.45a1.074,1.074,0,1,1-2.148,0V371.6a1.963,1.963,0,0,1,1.96-1.96h2.417a1.963,1.963,0,0,1,1.96,1.96v1.638A1.074,1.074,0,0,1,238.143,374.31Z" transform="translate(-221.333 -361.491)" fill="#16697a"/>
        <path id="Path_7617" data-name="Path 7617" d="M355.561,374.31a1.074,1.074,0,0,1-1.074-1.074v-1.45h-2.041v1.45a1.074,1.074,0,0,1-2.148,0V371.6a1.963,1.963,0,0,1,1.96-1.96h2.417a1.963,1.963,0,0,1,1.96,1.96v1.638A1.074,1.074,0,0,1,355.561,374.31Z" transform="translate(-330.157 -361.491)" fill="#16697a"/>
      </g>
    </g>
  </g>
</svg>
