<svg xmlns="http://www.w3.org/2000/svg" width="22" height="21" viewBox="0 0 22 21">
  <g id="Group_2666" data-name="Group 2666" transform="translate(-2 -0.992)">
    <path id="Path_7632" data-name="Path 7632" d="M9.677,7.417a.677.677,0,0,0,.677-.677V2.677A.677.677,0,1,0,9,2.677V6.74A.677.677,0,0,0,9.677,7.417Z" transform="translate(-2.26 -0.323)" fill="#5a5a5a"/>
    <path id="Path_7633" data-name="Path 7633" d="M20.961,11.079A5.079,5.079,0,0,1,15.882,6H8.907V8.031a1.49,1.49,0,0,1-2.98,0V6H3.219A1.205,1.205,0,0,0,2,7.226V22.381a1.205,1.205,0,0,0,1.185,1.226h19.3a1.205,1.205,0,0,0,1.185-1.226V10.293A5.045,5.045,0,0,1,20.961,11.079Zm-2.749,2.086-6.548,6.548-3.569-3.6A.921.921,0,0,1,9.381,14.8l2.289,2.289L16.9,11.864A.924.924,0,1,1,18.2,13.171Z" transform="translate(0 -1.614)" fill="#5a5a5a"/>
    <ellipse id="Ellipse_199" data-name="Ellipse 199" cx="3" cy="3.5" rx="3" ry="3.5" transform="translate(18 0.992)" fill="#5a5a5a"/>
  </g>
</svg>
