<svg id="Group_449" data-name="Group 449" xmlns="http://www.w3.org/2000/svg" width="17.184" height="17.184" viewBox="0 0 17.184 17.184">
  <path id="Path_633" data-name="Path 633" d="M639.874,619.506a8.592,8.592,0,1,1-8.591-8.592A8.592,8.592,0,0,1,639.874,619.506Z" transform="translate(-622.69 -610.914)" fill="#3c5b9b"/>
  <g id="Group_446" data-name="Group 446" transform="translate(6.086 3.222)">
    <path id="Path_634" data-name="Path 634" d="M640.765,630.654h2.148v-5.37h1.594l.2-2.148H643v-.859a.455.455,0,0,1,.475-.516h1.205v-1.84l-1.659-.007a2.1,2.1,0,0,0-2.26,2.251v.971h-1.065v2.148h1.074Z" transform="translate(-639.691 -619.914)" fill="#fff"/>
  </g>
  <path id="Path_635" data-name="Path 635" d="M639.874,619.506a8.592,8.592,0,1,1-8.591-8.592A8.592,8.592,0,0,1,639.874,619.506Z" transform="translate(-622.69 -610.914)" fill="#3c5b9b"/>
  <g id="Group_447" data-name="Group 447" transform="translate(6.086 3.222)">
    <path id="Path_636" data-name="Path 636" d="M640.765,630.654h2.148v-5.37h1.594l.2-2.148H643v-.859a.455.455,0,0,1,.475-.516h1.205v-1.84l-1.659-.007a2.1,2.1,0,0,0-2.26,2.251v.971h-1.065v2.148h1.074Z" transform="translate(-639.691 -619.914)" fill="#fff"/>
  </g>
  <path id="Path_637" data-name="Path 637" d="M639.874,619.506a8.592,8.592,0,1,1-8.591-8.592A8.592,8.592,0,0,1,639.874,619.506Z" transform="translate(-622.69 -610.914)" fill="#3c5b9b"/>
  <g id="Group_448" data-name="Group 448" transform="translate(6.086 3.222)">
    <path id="Path_638" data-name="Path 638" d="M640.765,630.654h2.148v-5.37h1.594l.2-2.148H643v-.859a.455.455,0,0,1,.475-.516h1.205v-1.84l-1.659-.007a2.1,2.1,0,0,0-2.26,2.251v.971h-1.065v2.148h1.074Z" transform="translate(-639.691 -619.914)" fill="#fff"/>
  </g>
</svg>
