<svg xmlns="http://www.w3.org/2000/svg" width="19.914" height="19.918" viewBox="0 0 19.914 19.918">
  <g id="geography-svgrepo-com" transform="translate(-0.047)">
    <g id="Group_2290" data-name="Group 2290" transform="translate(0.047)">
      <g id="Group_2289" data-name="Group 2289" transform="translate(0)">
        <path id="Path_7509" data-name="Path 7509" d="M14.821,9.638a5.135,5.135,0,0,0-.686.051,6.74,6.74,0,1,0-6.061,3.8,6.679,6.679,0,0,0,1.845-.262,5.089,5.089,0,0,0-.163.7A7.381,7.381,0,0,1,2.85,1.522L2.4,1.067a8.017,8.017,0,0,0,4.715,13.64V17.99H4.22v1.928h7.71v-.894a5.139,5.139,0,1,0,2.891-9.386ZM8.075,12.85A6.1,6.1,0,0,1,2.11,5.461H3.9V5.65l-.643.643V8.353H5.333L7.26,11.244H9.525l1.762-2.467V6.746H9.879l-.52-1.04V3.38L7.545,1.928h-1.4V2.57H7.319l1.4,1.118v2.17l.765,1.53h1.162V8.571L9.194,10.6H7.6L5.676,7.71H3.9V6.558l.643-.643v-1.1H2.288A6.1,6.1,0,0,1,3.635,2.57H5.5V1.928H4.342a6.065,6.065,0,0,1,7.844.321l-.429.643H10.413L10,4.124v.893l1.928.964V7.068h1.285V6.425h-.643V5.584L10.645,4.62V4.228l.232-.695H12.1l.545-.818a6.068,6.068,0,0,1,1.515,3.709h-.3v.643h.31a6.078,6.078,0,0,1-.856,2.8,5.161,5.161,0,0,0-3.063,2.578A6.071,6.071,0,0,1,8.075,12.85Zm.964,1.86q.327-.039.651-.106c0,.058-.009.115-.009.173a5.113,5.113,0,0,0,1.134,3.213H9.038Zm-1.285.051c.109,0,.219.008.328.008s.209-.006.314-.01V17.99H7.753Zm3.534,4.514H4.862v-.643h6.425Zm6.929-1.557-.442-.442-.454.454.442.442a4.477,4.477,0,0,1-5.832.045v-.094l.393-.393-.454-.454-.442.442a4.473,4.473,0,0,1,0-5.881l.442.442.454-.454-.442-.442a4.473,4.473,0,0,1,5.882,0l-.442.442.454.454.442-.442a4.473,4.473,0,0,1,0,5.881Z" transform="translate(-0.047 0)"/>
        <path id="Path_7510" data-name="Path 7510" d="M337.843,280h-1.21l-.332,2.661a1.27,1.27,0,0,0,0,1.746l.332,2.661h1.21l.332-2.661a1.27,1.27,0,0,0,0-1.746Zm-.643.643h.075l.2,1.631a1.207,1.207,0,0,0-.483,0Zm.075,5.783H337.2l-.2-1.631a1.207,1.207,0,0,0,.483,0Zm-.038-2.249a.642.642,0,1,1,.643-.642A.643.643,0,0,1,337.238,284.176Z" transform="translate(-322.464 -268.756)"/>
      </g>
    </g>
  </g>
</svg>
