<svg xmlns="http://www.w3.org/2000/svg" width="24.672" height="24.063" viewBox="0 0 24.672 24.063">
  <path id="Octicons-mark-github" d="M12.336,0a12.337,12.337,0,0,0-3.9,24.04c.617.108.848-.262.848-.586,0-.293-.015-1.264-.015-2.3-3.1.571-3.9-.756-4.148-1.449a4.486,4.486,0,0,0-1.264-1.742c-.432-.231-1.049-.8-.015-.817a2.469,2.469,0,0,1,1.9,1.264,2.637,2.637,0,0,0,3.593,1.018,2.6,2.6,0,0,1,.786-1.65C7.371,17.471,4.5,16.407,4.5,11.688A4.8,4.8,0,0,1,5.767,8.373,4.433,4.433,0,0,1,5.89,5.1S6.924,4.78,9.283,6.368a11.63,11.63,0,0,1,6.168,0C17.81,4.765,18.843,5.1,18.843,5.1a4.433,4.433,0,0,1,.123,3.269,4.773,4.773,0,0,1,1.264,3.315c0,4.734-2.884,5.783-5.628,6.091a2.921,2.921,0,0,1,.833,2.282c0,1.65-.015,2.976-.015,3.392,0,.324.231.709.848.586A12.343,12.343,0,0,0,12.336,0Z" fill="#1b1f23" fill-rule="evenodd"/>
</svg>
