<svg xmlns="http://www.w3.org/2000/svg" width="22.907" height="20.208" viewBox="0 0 22.907 20.208">
  <g id="history-svgrepo-com" transform="translate(0 -27.696)">
    <path id="Path_7504" data-name="Path 7504" d="M20,31.47v1.466a.366.366,0,0,0,.366.366h.122v2.071a.366.366,0,0,0,.366.366H40.1a.366.366,0,0,0,.366-.366V33.3h.122a.366.366,0,0,0,.366-.366V30.011a.366.366,0,1,0-.731,0v1.019l-9.382-1.809v-1.16a.366.366,0,1,0-.731,0v1.16l-9.382,1.809V30.011a.366.366,0,1,0-.731,0Zm19.739,3.537H21.218V33.3H39.739ZM30.479,29.9l9.748,1.879v.795h-19.5v-.795Z" transform="translate(-19.025 0)"/>
    <path id="Path_7505" data-name="Path 7505" d="M22.542,216.936h-.609v-1.1a.366.366,0,0,0-.366-.366h-1.1v-7.048h.122a.366.366,0,0,0,0-.731H18.155a.366.366,0,0,0,0,.731h.122v7.048H16.51v-7.048h.122a.366.366,0,0,0,0-.731H14.2a.366.366,0,0,0,0,.731h.122v7.048H12.55v-7.048h.122a.366.366,0,0,0,0-.731H10.235a.366.366,0,0,0,0,.731h.122v7.048H8.59v-7.048h.122a.366.366,0,0,0,0-.731H6.275a.366.366,0,0,0,0,.731H6.4v7.048H4.63v-7.048h.122a.366.366,0,0,0,0-.731H2.315a.366.366,0,0,0,0,.731h.122v7.048H1.34a.366.366,0,0,0-.366.366v1.1H.366A.366.366,0,0,0,0,217.3v1.462a.366.366,0,0,0,.366.366H22.542a.366.366,0,0,0,.366-.366V217.3A.366.366,0,0,0,22.542,216.936Zm-3.534-8.51h.731v7.048h-.731Zm-3.96,0h.731v7.048h-.731Zm-3.96,0h.731v7.048h-.731Zm-3.96,0h.731v7.048H7.128Zm-3.96,0H3.9v7.048H3.168ZM22.176,218.4H.731v-.731H4.265a.366.366,0,0,0,0-.731H1.706v-.731H21.2v.731H5.727a.366.366,0,0,0,0,.731H22.176Z" transform="translate(0 -171.226)"/>
  </g>
</svg>
