<svg xmlns="http://www.w3.org/2000/svg" width="273.38" height="285.511" viewBox="0 0 273.38 285.511">
  <g id="Groupe_2732" data-name="Groupe 2732" transform="translate(-70.729 -158.695)">
    <g id="looking-for-job-svgrepo-com" transform="translate(81.953 419.132) rotate(-40)" opacity="0.5">
      <g id="Groupe_2603" data-name="Groupe 2603" transform="translate(0 0)">
        <g id="Groupe_2602" data-name="Groupe 2602">
          <path id="Tracé_7652" data-name="Tracé 7652" d="M4.22,32.732c-.041-.039-.081-.078-.121-.118a6.035,6.035,0,0,1-1.779-4.3V1.657A3.292,3.292,0,0,1,2.766,0H1.657A1.657,1.657,0,0,0,0,1.657V28.319A4.417,4.417,0,0,0,4.22,32.732Z" transform="translate(0 0)" fill="#fff"/>
          <path id="Tracé_7653" data-name="Tracé 7653" d="M3.426,0C1.338,0,0,1.8,0,4.764,0,7.744,1.338,9.65,3.426,9.65S6.852,7.744,6.852,4.764C6.852,1.8,5.514,0,3.426,0Z" transform="translate(22.332 5.85)" fill="#fff"/>
          <path id="Tracé_7654" data-name="Tracé 7654" d="M0,3.423a12.965,12.965,0,0,1,2.694.8c1.5-.164,2.333-.886,2.333-2.193C5.028.649,3.973,0,1.987,0H0V3.423Z" transform="translate(36.624 11.222)" fill="#fff"/>
          <path id="Tracé_7655" data-name="Tracé 7655" d="M4.318,1.723C4.318.507,3.446,0,1.723,0H0V3.669H1.683C3.527,3.669,4.318,2.96,4.318,1.723Z" transform="translate(36.624 5.871)" fill="#fff"/>
          <path id="Tracé_7656" data-name="Tracé 7656" d="M4.418,32.737h13.9c-.02-.045-.04-.089-.059-.134a12.984,12.984,0,0,1-1.025-4.814H6.28a.828.828,0,1,1,0-1.657H17.3a12.94,12.94,0,0,1,.826-3.391H6.28a.828.828,0,1,1,0-1.657H18.914a13.056,13.056,0,0,1,2.143-2.818q.377-.377.78-.719h-.055c-3.446,0-5.838-2.635-5.838-6.933,0-4.277,2.392-6.811,5.838-6.811,3.466,0,5.859,2.534,5.859,6.811a8.176,8.176,0,0,1-1.113,4.376,13.03,13.03,0,0,1,3.768-.554V4.046h4.237c2.737,0,4.744.831,4.744,3.264a2.9,2.9,0,0,1-2.27,2.879v.081c1.906.324,2.96,1.358,2.96,3.142a3.459,3.459,0,0,1-2.2,3.362,13.127,13.127,0,0,1,4.417,5.273c.057.124.113.249.166.375a13.114,13.114,0,0,1,0,10.181l-.042.1a4.418,4.418,0,0,0,3.852-4.38V1.657A1.657,1.657,0,0,0,44.5,0H1.657A1.657,1.657,0,0,0,0,1.657V28.319A4.418,4.418,0,0,0,4.418,32.737ZM7.044,14.1a2.318,2.318,0,0,0,2.068,1.4c1.237,0,1.865-.669,1.865-2.554v-8.9h2.352v9.1c0,2.412-1.176,4.4-3.953,4.4A4.192,4.192,0,0,1,5.422,15.3Z" transform="translate(3.977 0)" fill="#fff"/>
          <path id="Tracé_7657" data-name="Tracé 7657" d="M2.119,2.119A13.1,13.1,0,0,1,0,3.838L5.649,9.487A2.714,2.714,0,1,0,9.487,5.649L3.838,0A13.1,13.1,0,0,1,2.119,2.119Z" transform="translate(41.407 34.64)" fill="#fff"/>
          <path id="Tracé_7658" data-name="Tracé 7658" d="M1.043,6.648a11.342,11.342,0,0,0-.959,3.391A11.546,11.546,0,0,0,0,11.42q0,.138,0,.276a11.361,11.361,0,0,0,1.259,4.948q.219.425.472.828.268.427.571.828a11.416,11.416,0,0,0,18.228,0q.3-.4.571-.828c.026-.042.053-.084.079-.127q.209-.343.393-.7A11.419,11.419,0,0,0,11.42,0h-.007A11.435,11.435,0,0,0,1.043,6.648Z" transform="translate(22.86 16.093)" fill="#fff"/>
        </g>
      </g>
    </g>
    <g id="looking-for-job-svgrepo-com-2" data-name="looking-for-job-svgrepo-com" transform="matrix(0.819, -0.574, 0.574, 0.819, 35.584, 145.958)" opacity="0.5">
      <g id="Groupe_2603-2" data-name="Groupe 2603" transform="translate(0 61.273)">
        <g id="Groupe_2602-2" data-name="Groupe 2602" transform="translate(0 0)">
          <path id="Tracé_7652-2" data-name="Tracé 7652" d="M4.22,94c-.041-.039-.081-.078-.121-.118a6.034,6.034,0,0,1-1.779-4.3V62.93a3.292,3.292,0,0,1,.446-1.657H1.657A1.657,1.657,0,0,0,0,62.93V89.592A4.417,4.417,0,0,0,4.22,94Z" transform="translate(0 -61.273)" fill="#fff"/>
          <path id="Tracé_7653-2" data-name="Tracé 7653" d="M407.826,167.209c-2.088,0-3.426,1.8-3.426,4.764,0,2.98,1.338,4.886,3.426,4.886s3.426-1.906,3.426-4.886C411.252,169.013,409.914,167.209,407.826,167.209Z" transform="translate(-382.068 -161.359)" fill="#fff"/>
          <path id="Tracé_7654-2" data-name="Tracé 7654" d="M663.2,267.911a12.966,12.966,0,0,1,2.694.8c1.5-.164,2.333-.886,2.333-2.193,0-1.378-1.054-2.027-3.041-2.027H663.2v3.423Z" transform="translate(-626.579 -253.266)" fill="#fff"/>
          <path id="Tracé_7655-2" data-name="Tracé 7655" d="M667.523,169.3c0-1.216-.872-1.723-2.595-1.723H663.2v3.669h1.683C666.732,171.245,667.523,170.536,667.523,169.3Z" transform="translate(-626.581 -161.706)" fill="#fff"/>
          <path id="Tracé_7656-2" data-name="Tracé 7656" d="M76.425,94.009h13.9c-.02-.045-.04-.089-.059-.134a12.983,12.983,0,0,1-1.025-4.814H78.287a.828.828,0,1,1,0-1.657H89.306a12.94,12.94,0,0,1,.826-3.391H78.287a.828.828,0,1,1,0-1.657H90.92a13.056,13.056,0,0,1,2.143-2.818q.377-.377.78-.719h-.055c-3.446,0-5.838-2.635-5.838-6.933,0-4.277,2.392-6.811,5.838-6.811,3.466,0,5.859,2.534,5.859,6.811a8.176,8.176,0,0,1-1.113,4.375,13.03,13.03,0,0,1,3.768-.554V65.319h4.237c2.737,0,4.744.831,4.744,3.264a2.9,2.9,0,0,1-2.27,2.879v.081c1.906.324,2.96,1.358,2.96,3.142a3.459,3.459,0,0,1-2.2,3.362,13.127,13.127,0,0,1,4.417,5.273c.057.124.113.249.166.375a13.114,13.114,0,0,1,0,10.181l-.042.1a4.417,4.417,0,0,0,3.852-4.38V62.93a1.657,1.657,0,0,0-1.657-1.657H73.664a1.657,1.657,0,0,0-1.657,1.657V89.592A4.418,4.418,0,0,0,76.425,94.009Zm2.626-18.636a2.318,2.318,0,0,0,2.068,1.4c1.237,0,1.865-.669,1.865-2.554v-8.9h2.352v9.1c0,2.412-1.176,4.4-3.953,4.4a4.191,4.191,0,0,1-3.953-2.25Z" transform="translate(-68.031 -61.273)" fill="#fff"/>
          <path id="Tracé_7657-2" data-name="Tracé 7657" d="M751.937,690.66a13.1,13.1,0,0,1-2.119,1.719l5.649,5.649a2.714,2.714,0,0,0,3.838-3.838l-5.649-5.649A13.1,13.1,0,0,1,751.937,690.66Z" transform="translate(-708.411 -653.902)" fill="#fff"/>
          <path id="Tracé_7658-2" data-name="Tracé 7658" d="M415,359.327a11.341,11.341,0,0,0-.959,3.391,11.546,11.546,0,0,0-.083,1.381q0,.138,0,.276a11.361,11.361,0,0,0,1.259,4.948q.219.425.472.828.268.427.571.828a11.416,11.416,0,0,0,18.227,0q.3-.4.571-.828c.026-.042.053-.084.079-.127q.209-.343.393-.7a11.418,11.418,0,0,0-10.157-16.644h-.007A11.435,11.435,0,0,0,415,359.327Z" transform="translate(-391.094 -336.587)" fill="#fff"/>
        </g>
      </g>
    </g>
    <g id="looking-for-job-svgrepo-com-3" data-name="looking-for-job-svgrepo-com" transform="translate(323.229 102.72) rotate(24)" opacity="0.5">
      <g id="Groupe_2603-3" data-name="Groupe 2603" transform="translate(0 61.273)">
        <g id="Groupe_2602-3" data-name="Groupe 2602" transform="translate(0 0)">
          <path id="Tracé_7652-3" data-name="Tracé 7652" d="M4.22,94c-.041-.039-.081-.078-.121-.118a6.034,6.034,0,0,1-1.779-4.3V62.93a3.292,3.292,0,0,1,.446-1.657H1.657A1.657,1.657,0,0,0,0,62.93V89.592A4.417,4.417,0,0,0,4.22,94Z" transform="translate(0 -61.273)" fill="#fff"/>
          <path id="Tracé_7653-3" data-name="Tracé 7653" d="M407.826,167.209c-2.088,0-3.426,1.8-3.426,4.764,0,2.98,1.338,4.886,3.426,4.886s3.426-1.906,3.426-4.886C411.252,169.013,409.914,167.209,407.826,167.209Z" transform="translate(-382.068 -161.359)" fill="#fff"/>
          <path id="Tracé_7654-3" data-name="Tracé 7654" d="M663.2,267.911a12.966,12.966,0,0,1,2.694.8c1.5-.164,2.333-.886,2.333-2.193,0-1.378-1.054-2.027-3.041-2.027H663.2v3.423Z" transform="translate(-626.579 -253.266)" fill="#fff"/>
          <path id="Tracé_7655-3" data-name="Tracé 7655" d="M667.523,169.3c0-1.216-.872-1.723-2.595-1.723H663.2v3.669h1.683C666.732,171.245,667.523,170.536,667.523,169.3Z" transform="translate(-626.581 -161.706)" fill="#fff"/>
          <path id="Tracé_7656-3" data-name="Tracé 7656" d="M76.425,94.009h13.9c-.02-.045-.04-.089-.059-.134a12.983,12.983,0,0,1-1.025-4.814H78.287a.828.828,0,1,1,0-1.657H89.306a12.94,12.94,0,0,1,.826-3.391H78.287a.828.828,0,1,1,0-1.657H90.92a13.056,13.056,0,0,1,2.143-2.818q.377-.377.78-.719h-.055c-3.446,0-5.838-2.635-5.838-6.933,0-4.277,2.392-6.811,5.838-6.811,3.466,0,5.859,2.534,5.859,6.811a8.176,8.176,0,0,1-1.113,4.375,13.03,13.03,0,0,1,3.768-.554V65.319h4.237c2.737,0,4.744.831,4.744,3.264a2.9,2.9,0,0,1-2.27,2.879v.081c1.906.324,2.96,1.358,2.96,3.142a3.459,3.459,0,0,1-2.2,3.362,13.127,13.127,0,0,1,4.417,5.273c.057.124.113.249.166.375a13.114,13.114,0,0,1,0,10.181l-.042.1a4.417,4.417,0,0,0,3.852-4.38V62.93a1.657,1.657,0,0,0-1.657-1.657H73.664a1.657,1.657,0,0,0-1.657,1.657V89.592A4.418,4.418,0,0,0,76.425,94.009Zm2.626-18.636a2.318,2.318,0,0,0,2.068,1.4c1.237,0,1.865-.669,1.865-2.554v-8.9h2.352v9.1c0,2.412-1.176,4.4-3.953,4.4a4.191,4.191,0,0,1-3.953-2.25Z" transform="translate(-68.031 -61.273)" fill="#fff"/>
          <path id="Tracé_7657-3" data-name="Tracé 7657" d="M751.937,690.66a13.1,13.1,0,0,1-2.119,1.719l5.649,5.649a2.714,2.714,0,0,0,3.838-3.838l-5.649-5.649A13.1,13.1,0,0,1,751.937,690.66Z" transform="translate(-708.411 -653.902)" fill="#fff"/>
          <path id="Tracé_7658-3" data-name="Tracé 7658" d="M415,359.327a11.341,11.341,0,0,0-.959,3.391,11.546,11.546,0,0,0-.083,1.381q0,.138,0,.276a11.361,11.361,0,0,0,1.259,4.948q.219.425.472.828.268.427.571.828a11.416,11.416,0,0,0,18.227,0q.3-.4.571-.828c.026-.042.053-.084.079-.127q.209-.343.393-.7a11.418,11.418,0,0,0-10.157-16.644h-.007A11.435,11.435,0,0,0,415,359.327Z" transform="translate(-391.094 -336.587)" fill="#fff"/>
        </g>
      </g>
    </g>
  </g>
</svg>
