<svg xmlns="http://www.w3.org/2000/svg" width="66.81" height="65.671" viewBox="0 0 66.81 65.671">
  <path id="university-svgrepo-com_1_" data-name="university-svgrepo-com (1)" d="M65.937,41.987v1.665a.832.832,0,0,1-.832.832h-2.5v1.248a1.248,1.248,0,0,1-1.248,1.248H20.578a1.248,1.248,0,0,1-1.248-1.248V44.484h-2.5A.832.832,0,0,1,16,43.652V41.987a.832.832,0,0,1,.514-.769L40.65,32.063a.832.832,0,0,1,.636,0l24.136,9.155A.832.832,0,0,1,65.937,41.987Zm-2.5,31.627H18.5a2.5,2.5,0,0,0-2.5,2.5v1.665a.832.832,0,0,0,.832.832H65.105a.832.832,0,0,0,.832-.832V76.111A2.5,2.5,0,0,0,63.441,73.614ZM24.323,48.646V68.621H20.578a1.248,1.248,0,0,0-1.248,1.248V71.95H62.608V69.869a1.248,1.248,0,0,0-1.248-1.248H57.615V48.646H50.956V68.621H44.3V48.646H37.64V68.621H30.981V48.646Z" transform="translate(26.771 -35.67) rotate(31)" fill="#e8e8e8"/>
</svg>
