<svg xmlns="http://www.w3.org/2000/svg" width="1257.569" height="599.5" viewBox="0 0 1257.569 599.5">
  <g id="Group_2286" data-name="Group 2286" transform="translate(-53.501 -893)">
    <path id="Icon_material-computer" data-name="Icon material-computer" d="M46.757,38.73a4.669,4.669,0,0,0,4.652-4.676l.023-23.378A4.689,4.689,0,0,0,46.757,6H9.351a4.689,4.689,0,0,0-4.676,4.676V34.054A4.689,4.689,0,0,0,9.351,38.73H0v4.676H56.108V38.73ZM9.351,10.676H46.757V34.054H9.351Z" transform="translate(1181.892 887)" fill="#87c3cf" opacity="0.53"/>
    <path id="Icon_awesome-question-circle" data-name="Icon awesome-question-circle" d="M47.563,24.063a23.5,23.5,0,1,1-23.5-23.5A23.5,23.5,0,0,1,47.563,24.063ZM24.693,8.333c-5.164,0-8.458,2.175-11.044,6.042a1.139,1.139,0,0,0,.257,1.541l3.288,2.493a1.137,1.137,0,0,0,1.579-.2c1.693-2.147,2.853-3.392,5.43-3.392,1.936,0,4.33,1.246,4.33,3.123,0,1.419-1.171,2.148-3.083,3.219-2.229,1.25-5.179,2.8-5.179,6.7v.379a1.137,1.137,0,0,0,1.137,1.137h5.306a1.137,1.137,0,0,0,1.137-1.137v-.126c0-2.7,7.883-2.809,7.883-10.108C35.735,12.5,30.034,8.333,24.693,8.333Zm-.631,23.5a4.359,4.359,0,1,0,4.359,4.359A4.364,4.364,0,0,0,24.063,31.833Z" transform="translate(1263.508 1133.719)" fill="#87c3cf" opacity="0.53"/>
    <path id="Icon_awesome-question-circle-2" data-name="Icon awesome-question-circle" d="M47.563,24.063a23.5,23.5,0,1,1-23.5-23.5A23.5,23.5,0,0,1,47.563,24.063ZM24.693,8.333c-5.164,0-8.458,2.175-11.044,6.042a1.139,1.139,0,0,0,.257,1.541l3.288,2.493a1.137,1.137,0,0,0,1.579-.2c1.693-2.147,2.853-3.392,5.43-3.392,1.936,0,4.33,1.246,4.33,3.123,0,1.419-1.171,2.148-3.083,3.219-2.229,1.25-5.179,2.8-5.179,6.7v.379a1.137,1.137,0,0,0,1.137,1.137h5.306a1.137,1.137,0,0,0,1.137-1.137v-.126c0-2.7,7.883-2.809,7.883-10.108C35.735,12.5,30.034,8.333,24.693,8.333Zm-.631,23.5a4.359,4.359,0,1,0,4.359,4.359A4.364,4.364,0,0,0,24.063,31.833Z" transform="matrix(0.891, 0.454, -0.454, 0.891, 74.593, 1428.529)" fill="#87c3cf" opacity="0.53"/>
    <path id="Icon_awesome-university" data-name="Icon awesome-university" d="M48.383,11.7v1.575a.788.788,0,0,1-.788.788H45.232v1.181a1.181,1.181,0,0,1-1.181,1.181H5.457a1.181,1.181,0,0,1-1.181-1.181V14.064H1.913a.788.788,0,0,1-.788-.788V11.7a.788.788,0,0,1,.486-.728L24.453,2.31a.787.787,0,0,1,.6,0L47.9,10.974A.788.788,0,0,1,48.383,11.7ZM46.02,41.632H3.488a2.363,2.363,0,0,0-2.363,2.363V45.57a.788.788,0,0,0,.788.788H47.6a.788.788,0,0,0,.788-.788V43.994A2.363,2.363,0,0,0,46.02,41.632ZM9,18v18.9H5.457a1.181,1.181,0,0,0-1.181,1.181v1.969H45.232V38.087a1.181,1.181,0,0,0-1.181-1.181H40.507V18h-6.3v18.9H27.9V18H21.6v18.9H15.3V18Z" transform="translate(1215.688 1446.143)" fill="#87c3cf" opacity="0.53"/>
    <path id="Icon_material-business-center" data-name="Icon material-business-center" d="M20.827,33.469V31.241H5.251l-.022,8.914a4.441,4.441,0,0,0,4.457,4.457h31.2a4.441,4.441,0,0,0,4.457-4.457V31.241h-15.6v2.228ZM43.111,13.414H34.175V8.957L29.719,4.5H20.8L16.348,8.957v4.457H7.457A4.47,4.47,0,0,0,3,17.87v6.685a4.441,4.441,0,0,0,4.457,4.457h13.37V24.556h8.914v4.457h13.37a4.47,4.47,0,0,0,4.457-4.457V17.87A4.47,4.47,0,0,0,43.111,13.414Zm-13.37,0H20.827V8.957h8.914Z" transform="translate(136 888.5)" fill="#b3dde1"/>
    <g id="Ellipse_170" data-name="Ellipse 170" transform="translate(55 1134)" fill="none" stroke="#b3dde1" stroke-width="1">
      <circle cx="22.5" cy="22.5" r="22.5" stroke="none"/>
      <circle cx="22.5" cy="22.5" r="22" fill="none"/>
    </g>
    <circle id="Ellipse_171" data-name="Ellipse 171" cx="16.5" cy="16.5" r="16.5" transform="translate(61 1140)" fill="#b3dde1"/>
  </g>
</svg>
