<svg xmlns="http://www.w3.org/2000/svg" width="284.601" height="332.963" viewBox="0 0 284.601 332.963">
  <g id="Group_2566" data-name="Group 2566" transform="translate(-58.307 -189.971)">
    <path id="Path_7597" data-name="Path 7597" d="M79.944,4.13a2.493,2.493,0,0,0,.57-.636.521.521,0,0,0-.446-.778c-.07.008-.14.026-.21.041a8.569,8.569,0,0,0-2.9-1.018A22.576,22.576,0,0,1,72.464.05a.437.437,0,0,0-.587.185.692.692,0,0,0-.112.034C68.5,1.63,65.577,3.29,61.928,3.179a.358.358,0,0,0-.292.569.237.237,0,0,0,.142.211c1.681.711,3.443,1.524,5.252,2.132.09,3.519.823,8.038,5.349,7.63,2.022-.182,3.549-1.988,4.414-3.666.6-1.171,1.169-3.239.5-4.57a14.939,14.939,0,0,0,2.016-.919c.771,1.656.558,3.751.527,5.516a.559.559,0,0,0,.4.531.433.433,0,0,0,.293,0,.561.561,0,0,0,.4-.531C80.966,8.242,81.14,5.712,79.944,4.13ZM71.624,11.8a1.592,1.592,0,0,1-.851-.269C71.06,11.614,71.347,11.7,71.624,11.8Z" transform="matrix(0.966, 0.259, -0.259, 0.966, 262.817, 452.728)" fill="#e8e8e8"/>
    <path id="university-svgrepo-com_2_" data-name="university-svgrepo-com (2)" d="M37.984,34.625c-8.332,0-15.412,2.423-20.036,6.221V47.91H58.023V40.846C53.4,37.048,46.318,34.625,37.984,34.625ZM74.778,31,37.887,14,1.012,31l6.147,2.813v4.327c-1.541.319-1.546,1.127-1.546,2.087a2.577,2.577,0,0,0,.546,1.629L4.05,46.368h7.522l-2.09-4.516a2.48,2.48,0,0,0,.64-1.551c0-.959-1.421-1.845-1.421-2.164v-3.6L16.407,38V37.69c4.624-4.021,12.748-6.574,21.576-6.574S54.94,33.669,59.565,37.69V38l15.213-7Z" transform="translate(50.229 216.484) rotate(-31)" fill="#e8e8e8"/>
    <path id="Path_7596" data-name="Path 7596" d="M31.374,23.324,32.8,15.857H19.992l1.431,7.5a6.1,6.1,0,0,1,1.951-.469,3.907,3.907,0,0,1,3.26-6.068A3.91,3.91,0,0,1,29.888,22.9,6.046,6.046,0,0,1,31.374,23.324ZM18.018,12.754H34.772v2.463H18.018ZM26.551,0a2.563,2.563,0,1,1-2.563,2.563A2.563,2.563,0,0,1,26.551,0ZM20.3,12.286h2.166V9.2h.679l-.005,3.088h6.486V9.166l.7,0v3.116h2.164V8.726c-.238-2.81-3.5-2.771-3.5-2.771H27.253l-.7,1.147-.7-1.147h-2c-3.678.068-3.55,2.771-3.55,2.771Zm-7.915,5.576a2.911,2.911,0,1,1-2.911,2.911A2.912,2.912,0,0,1,12.387,17.861Zm14.218,0a2.911,2.911,0,1,1-2.911,2.911A2.912,2.912,0,0,1,26.6,17.861Zm14.223,5.454a2.913,2.913,0,1,0-2.915-2.91A2.913,2.913,0,0,0,40.828,23.316Zm-18.862,7.2H33.351v-2.75c-.267-3.188-3.972-3.146-3.972-3.146H23.545c-4.185.08-4.039,3.146-4.039,3.146v2.75Zm-16.668,0H19.136v-2.75c-.263-3.188-3.968-3.146-3.968-3.146H9.327C5.147,24.7,5.3,27.769,5.3,27.769l0,2.75ZM52.111,36.6V31.783H.748V36.6H6.059v14.59H3.974V53.86h44.6V51.192H46.792V36.6ZM33.733,27.4v3.118H47.576V27.4c-.265-3.19-3.973-3.145-3.973-3.145H37.765C33.581,24.338,33.733,27.4,33.733,27.4Z" transform="translate(66.592 456.987) rotate(-31)" fill="#e8e8e8"/>
    <path id="Path_7598" data-name="Path 7598" d="M64.67,74.352a.756.756,0,0,0-.024-.106.683.683,0,0,0-.057-.215c-1.458-3.165-4.065-5.85-6.237-8.536a8.564,8.564,0,0,0-6.769-3.532c-1.828-.074-3.713-.07-5.541-.026A4.243,4.243,0,0,0,42.385,63.6c-1.148,1.786-1.721,3.924-2.728,5.8-1.054,1.965-2.181,3.851-3.046,5.909a3.268,3.268,0,0,0-1.65,1.988,15.343,15.343,0,0,0-2.638.505.442.442,0,0,0-.277.234,2.762,2.762,0,0,0-.556,2.347,4.155,4.155,0,0,0,.85,2.064c-.827,2.676-1.068,5.8,2.27,6.527a17.773,17.773,0,0,0,4.985.054c1.078-.079,2.744.071,3.769-.4-.05.291-.1.582-.148.876-.231,1.4-.751,3.578.044,4.889a2.169,2.169,0,0,0,2.766.8c1.131-.677,1.488-2.07,1.722-3.281a25.186,25.186,0,0,0,.335-4.869,38.61,38.61,0,0,1,.585-7.025l.92-.41a2.933,2.933,0,0,1,.294.824,7.515,7.515,0,0,1,.167,1.451c.045.757.017,1.517.031,2.274.017.906.021,1.813.031,2.72.027,2.354.031,5.006,1.009,7.193.777,1.739,2.739,1.246,3.506-.229,1.321-2.539.424-6.544.194-9.24-.215-2.513-.3-5.047-.45-7.567a35.945,35.945,0,0,1-.027-4.673,7.248,7.248,0,0,1,.219-1.421.694.694,0,0,0,.278-.5c.012-.108.017-.216.026-.324a2.523,2.523,0,0,0,.311.251c1.279.871,8.217,8.1,9.465,4.906A1.961,1.961,0,0,0,64.67,74.352ZM32.939,85.9c-.007-.09-.013-.181-.015-.275a2.861,2.861,0,0,0,.3.365C33.121,85.957,33.027,85.926,32.939,85.9Zm1.926-2.866c.464.005.933-.008,1.4-.033a.545.545,0,0,0,0,.113,3.962,3.962,0,0,1-.05,1.517.5.5,0,0,1-.172.256c.024-.022-.053-.008-.057-.009C35.326,84.743,35.038,83.731,34.865,83.03ZM36.4,87.394c-.176,0-.349,0-.518-.015a4.185,4.185,0,0,0,.563-.126A.642.642,0,0,0,36.4,87.394Zm-.1-10.2a2.066,2.066,0,0,1,1.535-.917,2.225,2.225,0,0,1,1.18.2.346.346,0,0,0,.494.358,1.283,1.283,0,0,1,.212.326c-.148,0-.292.005-.426,0C38.306,77.144,37.3,77.142,36.294,77.193Zm4.044,7.382c-.005.016-.007.025-.01.033l-.011.023a1.294,1.294,0,0,1-.069.123l-.008.015-.007.008c-.014.016-.031.03-.047.045s-.031.023-.045.032l-.027.01a.325.325,0,0,0-.061-.007c.184.011-.063-.057-.033-.028-.02-.011-.04-.022-.06-.035h0l-.017-.016a1.021,1.021,0,0,1-.271-.412A3.435,3.435,0,0,1,39.49,82.8c.286,0,.588,0,.9,0a5.862,5.862,0,0,0,.051,1.089A1.86,1.86,0,0,1,40.339,84.576Zm4.034-7.15a8.039,8.039,0,0,0-3.3-.323,2.554,2.554,0,0,0-.9-1.4c.961-1.632,2.8-4.333,3.615-3.1C44.586,73.816,44.434,75.907,44.372,77.426Z" transform="matrix(0.966, 0.259, -0.259, 0.966, 296.423, 414.009)" fill="#e8e8e8"/>
  </g>
</svg>
