<svg id="Group_2542" data-name="Group 2542" xmlns="http://www.w3.org/2000/svg" width="26.903" height="23.38" viewBox="0 0 26.903 23.38">
  <g id="Group_2541" data-name="Group 2541" transform="translate(0 0)">
    <path id="Path_7636" data-name="Path 7636" d="M2.2,78.309l-.063-.061a3.141,3.141,0,0,1-.926-2.236V62.135a1.713,1.713,0,0,1,.232-.862H.862A.862.862,0,0,0,0,62.135V76.012A2.3,2.3,0,0,0,2.2,78.309Z" transform="translate(0 -61.273)" fill="#5a5a5a"/>
    <path id="Path_7637" data-name="Path 7637" d="M406.183,167.209c-1.087,0-1.783.939-1.783,2.48s.7,2.543,1.783,2.543,1.783-.992,1.783-2.543S407.27,167.209,406.183,167.209Z" transform="translate(-392.777 -164.164)" fill="#5a5a5a"/>
    <path id="Path_7638" data-name="Path 7638" d="M663.2,266.27a6.751,6.751,0,0,1,1.4.415c.781-.085,1.214-.461,1.214-1.142,0-.717-.549-1.055-1.583-1.055H663.2v1.782Z" transform="translate(-644.141 -258.647)" fill="#5a5a5a"/>
    <path id="Path_7639" data-name="Path 7639" d="M665.452,168.473c0-.633-.454-.9-1.351-.9h-.9v1.91h.876C665.041,169.486,665.452,169.116,665.452,168.473Z" transform="translate(-644.143 -164.521)" fill="#5a5a5a"/>
    <path id="Path_7640" data-name="Path 7640" d="M74.306,78.312h7.232l-.031-.07a6.758,6.758,0,0,1-.533-2.506h-5.7a.431.431,0,0,1,0-.862h5.735a6.735,6.735,0,0,1,.43-1.765H75.276a.431.431,0,0,1,0-.862h6.575a6.8,6.8,0,0,1,1.115-1.467q.2-.2.406-.374h-.029c-1.794,0-3.039-1.372-3.039-3.608s1.245-3.545,3.039-3.545,3.049,1.319,3.049,3.545a4.255,4.255,0,0,1-.579,2.277,6.782,6.782,0,0,1,1.961-.288V63.379h2.205c1.424,0,2.469.433,2.469,1.7a1.509,1.509,0,0,1-1.182,1.5v.042a1.585,1.585,0,0,1,1.54,1.635A1.8,1.8,0,0,1,91.664,70a6.833,6.833,0,0,1,2.3,2.744c.03.065.059.13.087.2a6.826,6.826,0,0,1,0,5.3l-.022.05a2.3,2.3,0,0,0,2.005-2.28V62.135a.862.862,0,0,0-.862-.862h-22.3a.862.862,0,0,0-.862.862V76.012A2.3,2.3,0,0,0,74.306,78.312Zm1.367-9.7a1.206,1.206,0,0,0,1.076.728c.644,0,.971-.348.971-1.329V63.379h1.224v4.737a2.009,2.009,0,0,1-2.057,2.29,2.182,2.182,0,0,1-2.057-1.171Z" transform="translate(-69.937 -61.273)" fill="#5a5a5a"/>
    <path id="Path_7641" data-name="Path 7641" d="M750.921,689.644a6.817,6.817,0,0,1-1.1.895l2.94,2.94a1.412,1.412,0,0,0,2-2l-2.94-2.94A6.817,6.817,0,0,1,750.921,689.644Z" transform="translate(-728.267 -670.512)" fill="#5a5a5a"/>
    <path id="Path_7642" data-name="Path 7642" d="M414.5,356.139a5.9,5.9,0,0,0-.5,1.765,6,6,0,0,0-.043.719c0,.048,0,.1,0,.144a5.913,5.913,0,0,0,.656,2.576q.114.221.246.431t.3.431a5.942,5.942,0,0,0,9.487,0q.158-.209.3-.431l.041-.066q.109-.178.2-.365a5.943,5.943,0,0,0-5.286-8.663h0a5.951,5.951,0,0,0-5.4,3.46Z" transform="translate(-402.056 -344.303)" fill="#5a5a5a"/>
  </g>
</svg>
