<svg xmlns="http://www.w3.org/2000/svg" width="257.644" height="191.975" viewBox="0 0 257.644 191.975">
  <g id="jobs" transform="translate(0 -55)">
    <g id="freepik--background-complete--inject-36" transform="translate(0 55)">
      <rect id="Rectangle_1005" data-name="Rectangle 1005" width="257.643" height="0.129" transform="translate(0 168.705)" fill="#ebebeb"/>
      <rect id="Rectangle_1006" data-name="Rectangle 1006" width="17.066" height="0.129" transform="translate(214.761 176.996)" fill="#ebebeb"/>
      <rect id="Rectangle_1007" data-name="Rectangle 1007" width="4.478" height="0.129" transform="translate(166.195 178.397)" fill="#ebebeb"/>
      <rect id="Rectangle_1008" data-name="Rectangle 1008" width="9.888" height="0.129" transform="translate(204.357 172.214)" fill="#ebebeb"/>
      <rect id="Rectangle_1009" data-name="Rectangle 1009" width="22.255" height="0.129" transform="translate(27.032 173.079)" fill="#ebebeb"/>
      <rect id="Rectangle_1010" data-name="Rectangle 1010" width="3.262" height="0.129" transform="translate(53.878 173.079)" fill="#ebebeb"/>
      <rect id="Rectangle_1011" data-name="Rectangle 1011" width="48.272" height="0.129" transform="translate(67.745 175.254)" fill="#ebebeb"/>
      <path id="Path_7093" data-name="Path 7093" d="M140.644,200.723h-99.5a2.942,2.942,0,0,1-2.937-2.942V57.917A2.942,2.942,0,0,1,41.147,55h99.5a2.942,2.942,0,0,1,2.942,2.942V197.781A2.942,2.942,0,0,1,140.644,200.723ZM41.147,55.1a2.813,2.813,0,0,0-2.808,2.813V197.781a2.813,2.813,0,0,0,2.808,2.813h99.5a2.819,2.819,0,0,0,2.813-2.813V57.917a2.819,2.819,0,0,0-2.813-2.813Z" transform="translate(-18.521 -55)" fill="#ebebeb"/>
      <path id="Path_7094" data-name="Path 7094" d="M356.944,200.723h-99.5a2.947,2.947,0,0,1-2.942-2.942V57.917A2.947,2.947,0,0,1,257.442,55h99.5a2.942,2.942,0,0,1,2.932,2.917V197.781A2.942,2.942,0,0,1,356.944,200.723ZM257.442,55.1a2.819,2.819,0,0,0-2.813,2.813V197.781a2.819,2.819,0,0,0,2.813,2.813h99.5a2.819,2.819,0,0,0,2.813-2.813V57.917a2.819,2.819,0,0,0-2.813-2.813Z" transform="translate(-123.36 -55)" fill="#ebebeb"/>
      <g id="Business_deal-cuate" data-name="Business deal-cuate" transform="translate(10.075 -29.435)">
        <g id="freepik--background-complete--inject-43" transform="translate(36.541 50.324)">
          <circle id="Ellipse_178" data-name="Ellipse 178" cx="10.832" cy="10.832" r="10.832" transform="matrix(0.16, -0.987, 0.987, 0.16, 92.218, 21.387)" fill="#ebebeb"/>
          <circle id="Ellipse_179" data-name="Ellipse 179" cx="10.308" cy="10.308" r="10.308" transform="matrix(0.161, -0.987, 0.987, 0.161, 93.374, 21.609)" fill="#dbdbdb"/>
          <circle id="Ellipse_180" data-name="Ellipse 180" cx="9.701" cy="9.701" r="9.701" transform="translate(93.14 7.567) rotate(-22.225)" fill="#fff"/>
          <rect id="Rectangle_1758" data-name="Rectangle 1758" width="0.247" height="1.466" transform="translate(105.092 4.144)" fill="#ebebeb"/>
          <rect id="Rectangle_1759" data-name="Rectangle 1759" width="0.247" height="1.466" transform="matrix(0.866, -0.5, 0.5, 0.866, 100.635, 5.418)" fill="#ebebeb"/>
          <rect id="Rectangle_1760" data-name="Rectangle 1760" width="0.248" height="1.471" transform="translate(97.518 8.274) rotate(-60.113)" fill="#ebebeb"/>
          <rect id="Rectangle_1761" data-name="Rectangle 1761" width="1.466" height="0.247" transform="translate(96.262 12.978)" fill="#ebebeb"/>
          <rect id="Rectangle_1762" data-name="Rectangle 1762" width="1.466" height="0.247" transform="translate(97.403 17.478) rotate(-30.01)" fill="#ebebeb"/>
          <rect id="Rectangle_1763" data-name="Rectangle 1763" width="1.466" height="0.247" transform="translate(100.633 20.792) rotate(-60.03)" fill="#ebebeb"/>
          <rect id="Rectangle_1764" data-name="Rectangle 1764" width="0.247" height="1.466" transform="translate(105.092 20.593)" fill="#ebebeb"/>
          <rect id="Rectangle_1765" data-name="Rectangle 1765" width="0.247" height="1.466" transform="translate(108.859 19.661) rotate(-30)" fill="#ebebeb"/>
          <rect id="Rectangle_1766" data-name="Rectangle 1766" width="0.247" height="1.462" transform="translate(111.638 16.954) rotate(-60)" fill="#ebebeb"/>
          <rect id="Rectangle_1767" data-name="Rectangle 1767" width="1.466" height="0.247" transform="translate(112.707 12.978)" fill="#ebebeb"/>
          <rect id="Rectangle_1768" data-name="Rectangle 1768" width="1.462" height="0.247" transform="translate(111.641 9.245) rotate(-30)" fill="#ebebeb"/>
          <rect id="Rectangle_1769" data-name="Rectangle 1769" width="1.466" height="0.247" transform="translate(108.864 6.558) rotate(-60.03)" fill="#ebebeb"/>
          <rect id="Rectangle_1770" data-name="Rectangle 1770" width="9.344" height="0.247" transform="translate(102.41 18.332) rotate(-63.04)" fill="#ebebeb"/>
          <rect id="Rectangle_1771" data-name="Rectangle 1771" width="0.328" height="9.202" transform="translate(104.401 9.846) rotate(-11.32)" fill="#dbdbdb"/>
          <path id="Path_7315" data-name="Path 7315" d="M124.825,136.826H55.32V56.56h69.505Zm-67.89-1.619h66.271V58.179H56.939Z" transform="translate(-51.336 -54.035)" fill="#ebebeb"/>
          <rect id="Rectangle_1772" data-name="Rectangle 1772" width="1.619" height="77.412" transform="translate(37.295 4.569)" fill="#ebebeb"/>
          <rect id="Rectangle_1773" data-name="Rectangle 1773" width="72.449" height="2.255" transform="translate(2.514 5.8)" fill="#ebebeb"/>
          <rect id="Rectangle_1774" data-name="Rectangle 1774" width="72.449" height="2.255" transform="translate(2.514 8.338)" fill="#ebebeb"/>
          <rect id="Rectangle_1775" data-name="Rectangle 1775" width="72.449" height="2.255" transform="translate(2.514 10.873)" fill="#ebebeb"/>
          <rect id="Rectangle_1776" data-name="Rectangle 1776" width="72.449" height="2.255" transform="translate(2.514 13.411)" fill="#ebebeb"/>
          <rect id="Rectangle_1777" data-name="Rectangle 1777" width="72.449" height="2.255" transform="translate(2.514 15.95)" fill="#ebebeb"/>
          <rect id="Rectangle_1778" data-name="Rectangle 1778" width="72.449" height="2.255" transform="translate(2.514 18.484)" fill="#ebebeb"/>
          <rect id="Rectangle_1779" data-name="Rectangle 1779" width="72.449" height="2.255" transform="translate(2.514 21.023)" fill="#ebebeb"/>
          <rect id="Rectangle_1780" data-name="Rectangle 1780" width="72.449" height="2.255" transform="translate(2.514 23.561)" fill="#ebebeb"/>
          <rect id="Rectangle_1781" data-name="Rectangle 1781" width="72.449" height="2.255" transform="translate(2.514 26.095)" fill="#ebebeb"/>
          <rect id="Rectangle_1782" data-name="Rectangle 1782" width="0.405" height="51.979" transform="translate(69.748 5.342)" fill="#263238"/>
          <path id="Path_7316" data-name="Path 7316" d="M217.917,193.535H216.48l.36-2.065h.717Z" transform="translate(-147.25 -134.326)" fill="#263238"/>
          <rect id="Rectangle_1783" data-name="Rectangle 1783" width="0.405" height="75.194" transform="translate(71.206 5.342)" fill="#263238"/>
          <path id="Path_7317" data-name="Path 7317" d="M221.523,249.965H220.09l.356-2.065h.721Z" transform="translate(-149.398 -167.91)" fill="#263238"/>
          <rect id="Rectangle_1784" data-name="Rectangle 1784" width="77.473" height="4.717" transform="translate(0 2.209)" fill="#dbdbdb"/>
          <rect id="Rectangle_1785" data-name="Rectangle 1785" width="43.676" height="54.999" transform="translate(123.934 20.784)" fill="#ebebeb"/>
          <rect id="Rectangle_1786" data-name="Rectangle 1786" width="32.708" height="1.04" transform="translate(129.343 32.148)" fill="#dbdbdb"/>
          <rect id="Rectangle_1787" data-name="Rectangle 1787" width="27.696" height="1.04" transform="translate(129.343 34.326)" fill="#dbdbdb"/>
          <rect id="Rectangle_1788" data-name="Rectangle 1788" width="21.121" height="1.04" transform="translate(129.343 36.5)" fill="#dbdbdb"/>
          <rect id="Rectangle_1789" data-name="Rectangle 1789" width="31.567" height="1.04" transform="translate(129.343 38.678)" fill="#dbdbdb"/>
          <rect id="Rectangle_1790" data-name="Rectangle 1790" width="28.882" height="1.04" transform="translate(129.343 40.852)" fill="#dbdbdb"/>
          <rect id="Rectangle_1791" data-name="Rectangle 1791" width="29.971" height="1.04" transform="translate(129.343 45.204)" fill="#dbdbdb"/>
          <rect id="Rectangle_1792" data-name="Rectangle 1792" width="11.482" height="1.04" transform="translate(129.343 47.383)" fill="#dbdbdb"/>
          <rect id="Rectangle_1793" data-name="Rectangle 1793" width="23.154" height="1.04" transform="translate(129.343 49.557)" fill="#dbdbdb"/>
          <rect id="Rectangle_1794" data-name="Rectangle 1794" width="31.567" height="1.04" transform="translate(129.343 51.735)" fill="#dbdbdb"/>
          <rect id="Rectangle_1795" data-name="Rectangle 1795" width="27.218" height="1.04" transform="translate(129.343 53.909)" fill="#dbdbdb"/>
          <rect id="Rectangle_1796" data-name="Rectangle 1796" width="29.494" height="1.04" transform="translate(129.343 58.261)" fill="#dbdbdb"/>
          <rect id="Rectangle_1797" data-name="Rectangle 1797" width="17.854" height="1.04" transform="translate(129.343 60.439)" fill="#dbdbdb"/>
          <rect id="Rectangle_1798" data-name="Rectangle 1798" width="17.854" height="1.04" transform="translate(129.343 67.026)" fill="#dbdbdb"/>
          <circle id="Ellipse_181" data-name="Ellipse 181" cx="3.308" cy="3.308" r="3.308" transform="translate(155.986 64.759)" fill="#16697a"/>
          <path id="Path_7318" data-name="Path 7318" d="M374.488,112.13a1.789,1.789,0,0,1,1.1.377.121.121,0,0,1-.146.194,1.526,1.526,0,0,0-.951-.332,1.486,1.486,0,0,0,0,2.972,1.457,1.457,0,0,0,.943-.328.131.131,0,0,1,.17.2,1.806,1.806,0,0,1-1.1.368,1.725,1.725,0,0,1,0-3.449Z" transform="translate(-240.271 -87.108)" fill="#a6a6a6"/>
          <path id="Path_7319" data-name="Path 7319" d="M383.258,112.127a1.729,1.729,0,1,1-1.64,1.725,1.672,1.672,0,0,1,1.64-1.725Zm0,3.21a1.486,1.486,0,1,0-1.4-1.486,1.445,1.445,0,0,0,1.4,1.486Z" transform="translate(-245.531 -87.104)" fill="#a6a6a6"/>
          <path id="Path_7320" data-name="Path 7320" d="M392.141,112.775v2.781a.117.117,0,1,1-.231,0v-3.117a.113.113,0,0,1,.041-.13.121.121,0,0,1,.166.028l2.061,2.834v-2.765a.117.117,0,1,1,.235,0v3.13a.117.117,0,0,1-.121.117.113.113,0,0,1-.089-.045.032.032,0,0,1-.02-.02Z" transform="translate(-251.653 -87.202)" fill="#a6a6a6"/>
          <path id="Path_7321" data-name="Path 7321" d="M401.5,112.489h-1.024a.119.119,0,0,1,0-.239h2.283a.119.119,0,0,1,0,.239h-1.024v3.045a.117.117,0,1,1-.235,0Z" transform="translate(-256.685 -87.179)" fill="#a6a6a6"/>
          <path id="Path_7322" data-name="Path 7322" d="M410.423,114.893a.615.615,0,0,0-.275-.514,1.178,1.178,0,0,0-.4-.17h-.834v1.344a.121.121,0,0,1-.239,0v-3.166a.125.125,0,0,1,.105-.117h.972a.972.972,0,0,1,.4,1.85.183.183,0,0,0,.049.024.871.871,0,0,1,.457.757,1.347,1.347,0,0,0,.04.4.186.186,0,0,0,.049.081.13.13,0,0,1,.134.077.138.138,0,0,1-.077.158h-.069a.267.267,0,0,1-.219-.158A1.157,1.157,0,0,1,410.423,114.893Zm-.68-2.393H408.9v1.466h.858a.733.733,0,1,0-.02-1.466Z" transform="translate(-261.631 -87.191)" fill="#a6a6a6"/>
          <path id="Path_7323" data-name="Path 7323" d="M417.822,114.814h-1.551l-.3.81a.117.117,0,0,1-.109.077h-.045a.126.126,0,0,1-.069-.158l1.178-3.15a.13.13,0,0,1,.117-.073.121.121,0,0,1,.117.073l1.178,3.15a.126.126,0,0,1-.061.158h-.045a.126.126,0,0,1-.113-.077Zm-1.462-.239h1.376l-.688-1.826Z" transform="translate(-265.84 -87.22)" fill="#a6a6a6"/>
          <path id="Path_7324" data-name="Path 7324" d="M425.038,112.13a1.79,1.79,0,0,1,1.1.377.121.121,0,0,1-.146.194,1.526,1.526,0,0,0-.951-.332,1.486,1.486,0,1,0,0,2.972,1.457,1.457,0,0,0,.943-.328.131.131,0,0,1,.17.2,1.806,1.806,0,0,1-1.1.368,1.725,1.725,0,0,1,0-3.449Z" transform="translate(-270.356 -87.108)" fill="#a6a6a6"/>
          <path id="Path_7325" data-name="Path 7325" d="M433.322,112.489H432.3a.119.119,0,0,1,0-.239h2.283a.122.122,0,0,1,.117.117.117.117,0,0,1-.117.121h-1.024v3.044a.117.117,0,1,1-.235,0Z" transform="translate(-275.623 -87.179)" fill="#a6a6a6"/>
          <path id="Path_7326" data-name="Path 7326" d="M254.538,317.767h80.206l1.668-32.907H252.87Z" transform="translate(-168.907 -189.907)" fill="#ebebeb"/>
          <path id="Path_7327" data-name="Path 7327" d="M395.492,305.275H361.958l-.628-11.425h34.894Zm-33.15-.4h32.769l.68-10.615H361.759Z" transform="translate(-233.457 -195.257)" fill="#dbdbdb"/>
          <path id="Path_7328" data-name="Path 7328" d="M396.973,339.372h-31.6l-.514-10.312h32.757Zm-31.214-.4h30.834l.6-9.5h-31.9Z" transform="translate(-235.558 -216.212)" fill="#dbdbdb"/>
          <path id="Path_7329" data-name="Path 7329" d="M403.468,306.947h-5.636l-.352-2.757h6.344Zm-5.263-.4h4.923l.251-1.947h-5.425Z" transform="translate(-254.971 -201.411)" fill="#dbdbdb"/>
          <path id="Path_7330" data-name="Path 7330" d="M403.468,341.147h-5.636l-.352-2.757h6.344Zm-5.263-.4h4.923l.251-1.947h-5.425Z" transform="translate(-254.971 -221.765)" fill="#dbdbdb"/>
          <path id="Path_7331" data-name="Path 7331" d="M298.072,305.275H264.538l-.628-11.425H298.8Zm-33.149-.4h32.769l.668-10.615H264.351Z" transform="translate(-175.478 -195.257)" fill="#dbdbdb"/>
          <path id="Path_7332" data-name="Path 7332" d="M299.553,339.372h-31.6l-.514-10.312H300.2Zm-31.214-.4h30.834l.6-9.5h-31.9Z" transform="translate(-177.579 -216.212)" fill="#dbdbdb"/>
          <path id="Path_7333" data-name="Path 7333" d="M306.048,306.947h-5.636l-.352-2.757H306.4Zm-5.263-.4H305.7l.251-1.947H300.53Z" transform="translate(-196.992 -201.411)" fill="#dbdbdb"/>
          <path id="Path_7334" data-name="Path 7334" d="M306.048,341.147h-5.636l-.352-2.757H306.4Zm-5.263-.4H305.7l.251-1.947H300.53Z" transform="translate(-196.992 -221.765)" fill="#dbdbdb"/>
          <path id="Path_7335" data-name="Path 7335" d="M269.618,366.14l-.506,3.587-1.012,7.2h-1.98V366.14Z" transform="translate(-176.793 -238.28)" fill="#ebebeb"/>
          <path id="Path_7336" data-name="Path 7336" d="M269.618,366.14l-.506,3.587H266.12V366.14Z" transform="translate(-176.793 -238.28)" fill="#dbdbdb"/>
          <path id="Path_7337" data-name="Path 7337" d="M437.33,366.14l.5,3.587,1.016,7.2h1.98V366.14Z" transform="translate(-278.688 -238.28)" fill="#ebebeb"/>
          <path id="Path_7338" data-name="Path 7338" d="M437.33,366.14l.5,3.587h3V366.14Z" transform="translate(-278.688 -238.28)" fill="#dbdbdb"/>
        </g>
        <g id="freepik--Shadow--inject-43" transform="translate(30.46 190.997)">
          <ellipse id="Ellipse_182" data-name="Ellipse 182" cx="73.052" cy="9.518" rx="73.052" ry="9.518" transform="translate(15.83 11.376)" fill="#ebebeb"/>
          <ellipse id="Ellipse_183" data-name="Ellipse 183" cx="21.87" cy="5.239" rx="21.87" ry="5.239" fill="#ebebeb"/>
        </g>
        <g id="freepik--Floor--inject-43" transform="translate(31.65 188.774)">
          <path id="Path_7339" data-name="Path 7339" d="M33.4,392.5l21.923-.1,21.923-.036,43.846-.065,43.846.065,21.923.036,21.923.1-21.923.1-21.923.036-43.846.065-43.846-.065L55.323,392.6Z" transform="translate(-33.4 -392.3)" fill="#263238"/>
        </g>
        <g id="freepik--Plant--inject-43" transform="translate(32.816 95.832)">
          <path id="Path_7340" data-name="Path 7340" d="M73.238,198.048s-10.887-1.522-8.344-14.668C64.894,183.38,77.06,186.113,73.238,198.048Z" transform="translate(-53.081 -175.02)" fill="#16697a"/>
          <path id="Path_7341" data-name="Path 7341" d="M73.238,198.048s-10.887-1.522-8.344-14.668C64.894,183.38,77.06,186.113,73.238,198.048Z" transform="translate(-53.081 -175.02)" opacity="0.1"/>
          <path id="Path_7342" data-name="Path 7342" d="M76.1,199.307a19.991,19.991,0,0,0-.741-1.955.748.748,0,0,0-.028-.251c0-.182-.032-.36-.045-.542-.032-.4-.057-.785-.081-1.178-.045-.785-.093-1.571-.105-2.356,0-.045-.069-.04-.069,0v2.36c0,.4.04.785.065,1.178v.263a23.393,23.393,0,0,0-2.186-3.733,17.9,17.9,0,0,0-1.146-1.51c-.433-.5-.891-.972-1.332-1.462-.028-.032-.073,0-.045.049a19.323,19.323,0,0,1,2.1,2.789c.332.5.644,1.012.943,1.534l-.1-.036-.4-.158-.891-.336c-.583-.219-1.166-.429-1.749-.652-.036,0-.061.049-.024.061.579.231,1.15.474,1.725.721l.842.364.425.174a1.215,1.215,0,0,0,.287.1c.219.4.437.789.64,1.194a28.453,28.453,0,0,1,1.328,3.138c.028.073.053.15.081.227a6.98,6.98,0,0,0-.895-.433l-1.125-.51c-.765-.352-1.522-.708-2.255-1.121a.033.033,0,1,0-.032.057c.749.4,1.482.846,2.231,1.251.377.2.753.4,1.138.587a3.478,3.478,0,0,0,1.02.4,12.871,12.871,0,0,1,.717,3.089c.121,1.486.109,2.984.146,4.474h.036c.109-1.352.17-2.717.178-4.073A11.867,11.867,0,0,0,76.1,199.307Z" transform="translate(-56.488 -179.024)" fill="#263238"/>
          <path id="Path_7343" data-name="Path 7343" d="M80.393,193.706a13.085,13.085,0,0,0-.109,2.32.016.016,0,0,0,.032,0c.045-.769.053-1.538.142-2.3C80.461,193.681,80.4,193.665,80.393,193.706Z" transform="translate(-62.462 -181.151)" fill="#263238"/>
          <path id="Path_7344" data-name="Path 7344" d="M70.75,194.35a8.64,8.64,0,0,1-1.4-.688c-.036-.024-.069.036-.032.057a5.3,5.3,0,0,0,1.417.676C70.758,194.4,70.8,194.362,70.75,194.35Z" transform="translate(-55.932 -181.135)" fill="#263238"/>
          <path id="Path_7345" data-name="Path 7345" d="M85.556,230.311c0-1.215-.032-2.4-.045-3.607-.024-4-.057-7.992-.13-11.988q-.085-4.761-.223-9.514a.049.049,0,0,0-.024-.04q0-1.3,0-2.6c0-.024-.024-.032-.053-.032s-.053,0-.049.032v2.6s-.028.02-.028.036c-.158,5.668-.3,11.291-.336,16.939v3.445q-.061,5.518-.045,11.044v1.757c0,3.368.036,6.737.036,10.121,0,.178.2.271.4.279s.506-.089.506-.3c0-3.712.024-7.429.024-11.142C85.584,235,85.584,232.651,85.556,230.311Z" transform="translate(-65.05 -186.417)" fill="#263238"/>
          <path id="Path_7346" data-name="Path 7346" d="M52.239,258.931S47,255.053,42.033,257.668,36.28,270.4,36.28,270.4s7.287,1.044,11.895-3.332C52.6,262.854,52.239,258.931,52.239,258.931Z" transform="translate(-36.28 -218.693)" fill="#16697a"/>
          <path id="Path_7347" data-name="Path 7347" d="M58.652,261.419a6.267,6.267,0,0,0-3.032-.4,4.284,4.284,0,0,0-.64-.065l-.741-.057-1.526-.105c-1.032-.077-2.069-.142-3.1-.247a.036.036,0,0,0,0,.069c1.02.13,2.024.275,3.057.377.526.053,1.053.109,1.583.146l.381.036c-.154.036-.312.073-.466.117a12.513,12.513,0,0,0-2.372.964c-.4.073-.81.19-1.215.283-.648.154-1.291.32-1.935.49-1.271.332-2.53.708-3.793,1.077-.04,0-.02.073,0,.061,1.259-.308,2.53-.591,3.793-.891l1.838-.441.482-.113a15.493,15.493,0,0,0-3.721,3.239,20.448,20.448,0,0,0-2.583,4.085c0,.036.032.073.057.036a19.919,19.919,0,0,1,3.13-4.085c-.024.069-.045.142-.069.211l-.291.923c-.194.619-.4,1.235-.575,1.854,0,.04.053.053.065,0,.223-.6.433-1.215.644-1.8.1-.3.206-.587.308-.883q.085-.231.158-.462a.555.555,0,0,1,.053-.142,19.055,19.055,0,0,1,1.854-1.583,14.331,14.331,0,0,1,2.781-1.591,1.2,1.2,0,0,1-.053.267c-.053.239-.105.478-.154.717-.1.494-.2.992-.3,1.49-.2,1.012-.32,2.024-.51,3.053,0,.045.057.061.065,0,.235-1.02.538-2.024.765-3.044.113-.51.227-1.02.336-1.53l.146-.721c.024-.134.057-.267.073-.4l.283-.117a8.216,8.216,0,0,1,4.356-.6,4.275,4.275,0,0,1,3.154,2.526c.049.113.227.04.2-.077A4.057,4.057,0,0,0,58.652,261.419Z" transform="translate(-41.267 -220.941)" fill="#263238"/>
          <path id="Path_7348" data-name="Path 7348" d="M58.236,273.335c-.146.664-.3,1.328-.441,1.992a14.412,14.412,0,0,0-.364,1.935c0,.028.032.028.04,0a14.575,14.575,0,0,0,.445-1.947c.13-.656.259-1.312.385-1.968C58.309,273.311,58.244,273.295,58.236,273.335Z" transform="translate(-48.867 -228.542)" fill="#263238"/>
          <path id="Path_7349" data-name="Path 7349" d="M43.9,277.538c-.668.336-1.312.721-2.024,1a.033.033,0,1,0,.024.061,21.227,21.227,0,0,0,2.036-1.036S43.94,277.53,43.9,277.538Z" transform="translate(-39.6 -231.057)" fill="#263238"/>
          <path id="Path_7350" data-name="Path 7350" d="M61.333,223.851s-6.4.4-9.38-3.81-2.308-10.251-2.308-10.251,6.725.81,9.393,3.85S61.333,223.851,61.333,223.851Z" transform="translate(-44.195 -190.738)" fill="#16697a"/>
          <path id="Path_7351" data-name="Path 7351" d="M67.927,233.655c-.223-.684-.5-1.36-.757-2.024s-.514-1.287-.81-1.919a39.192,39.192,0,0,0-1.915-3.769c-.453-.777-.939-1.534-1.437-2.279a2.457,2.457,0,0,0-.049-.34c-.028-.2-.057-.4-.089-.6-.065-.4-.134-.81-.2-1.215-.146-.887-.328-1.765-.47-2.648,0-.04-.073-.04-.065,0,.126.874.215,1.753.336,2.628.061.429.117.858.182,1.287l.073.466a45.461,45.461,0,0,0-3.166-4.109l-.441-.51c0-.049-.04-.1-.061-.146-.049-.121-.093-.243-.138-.368-.1-.251-.186-.506-.279-.761-.178-.5-.34-1.008-.478-1.522,0-.04-.073-.02-.061,0,.13.526.263,1.049.4,1.567.077.251.158.5.247.745a.369.369,0,0,0,.045.121c-.81-.891-1.672-1.749-2.534-2.6-.028-.028-.073,0-.045.049a45.927,45.927,0,0,1,4.534,5.555,3.864,3.864,0,0,0-.474-.117c-.494-.1-.988-.166-1.486-.231-1.045-.134-2.085-.263-3.121-.429-.045,0-.061.057,0,.065.992.194,1.972.4,2.959.648.466.105.931.194,1.4.287a8.738,8.738,0,0,1,1.125.32c.1.15.211.3.312.445.47.68.919,1.381,1.36,2.081l-.652-.126c-.494-.1-.992-.186-1.486-.267-.976-.162-1.955-.332-2.919-.551-.04,0-.057.057,0,.065.98.231,1.947.5,2.919.757.47.125.943.239,1.417.344l.708.154a1.62,1.62,0,0,0,.291.049c.935,1.514,1.81,3.069,2.623,4.652.356.7.7,1.4,1.032,2.105s.636,1.47.951,2.206A.113.113,0,1,0,67.927,233.655Z" transform="translate(-47.797 -194.226)" fill="#263238"/>
          <path id="Path_7352" data-name="Path 7352" d="M69.149,221.066c-.121-.611-.251-1.215-.4-1.83,0-.04-.073-.02-.065,0,.121.6.239,1.215.348,1.8a17.814,17.814,0,0,0,.36,1.794h0A12.693,12.693,0,0,0,69.149,221.066Z" transform="translate(-55.562 -196.345)" fill="#263238"/>
          <path id="Path_7353" data-name="Path 7353" d="M57.714,222.143c-.3-.15-.611-.267-.919-.4l-.486-.19-.247-.1a1.357,1.357,0,0,1-.271-.121c-.049-.032-.077.049-.028.057a1.134,1.134,0,0,1,.271.113l.243.109.47.206a8.639,8.639,0,0,0,.943.377C57.726,222.219,57.751,222.159,57.714,222.143Z" transform="translate(-47.86 -197.6)" fill="#263238"/>
          <path id="Path_7354" data-name="Path 7354" d="M94.79,219.6s3.874-7.235,9.765-8.356,9.5,4.943,9.5,4.943-4.3,5.49-9.717,6.449S94.79,219.6,94.79,219.6Z" transform="translate(-71.102 -191.522)" fill="#16697a"/>
          <path id="Path_7355" data-name="Path 7355" d="M102.567,216.264a15.79,15.79,0,0,0-4.623.057l.263-.142,1.308-.672a30.617,30.617,0,0,1,2.765-1.352c.045-.02,0-.081-.024-.061-.923.429-1.879.81-2.8,1.215-.466.211-.919.433-1.368.672-.291.154-.611.3-.9.486a16.146,16.146,0,0,0-3.745,1.243l.737-.81c.547-.6,1.089-1.235,1.692-1.781.032-.028,0-.073-.049-.045-.615.559-1.267,1.077-1.866,1.66-.287.283-.567.575-.838.879-.134.15-.271.3-.4.466a15.53,15.53,0,0,0-7.9,10.668c0,.04.053.061.065.02a17.814,17.814,0,0,1,4.332-7.332,17.032,17.032,0,0,1,7.9-4.547,17.266,17.266,0,0,1,5.449-.494.065.065,0,0,0,.008-.13Z" transform="translate(-65.162 -193.297)" fill="#263238"/>
          <path id="Path_7356" data-name="Path 7356" d="M114.563,222.519s-4.3,5.49-9.716,6.449a11.726,11.726,0,0,1-8.907-2.482l-.3-.49a21.8,21.8,0,0,1,8.069-3.7A23.628,23.628,0,0,1,114.563,222.519Z" transform="translate(-71.608 -197.852)" opacity="0.1"/>
          <path id="Path_7357" data-name="Path 7357" d="M116.607,213.082a14.568,14.568,0,0,0-1.308.862,8.654,8.654,0,0,0-1.138,1.04.036.036,0,0,0,.053.049c.4-.34.781-.68,1.19-1a12.179,12.179,0,0,1,1.239-.895.034.034,0,1,0-.036-.057Z" transform="translate(-82.628 -192.694)" fill="#263238"/>
          <path id="Path_7358" data-name="Path 7358" d="M126.229,216.106c-.219.093-.441.17-.66.263l-.656.271c-.045,0-.024.1.024.077l.656-.267c.223-.089.437-.19.656-.279C126.29,216.155,126.27,216.09,126.229,216.106Z" transform="translate(-89.015 -194.495)" fill="#263238"/>
          <path id="Path_7359" data-name="Path 7359" d="M92.88,252.65s1.036,7.178,6.433,9.688,11.976,0,11.976,0S108.718,246.812,92.88,252.65Z" transform="translate(-69.965 -215.464)" fill="#16697a"/>
          <path id="Path_7360" data-name="Path 7360" d="M102.932,259.01c-.494-.057-.992-.142-1.482-.231l-.729-.138-.377-.077c-.146-.134-.287-.271-.437-.4a22.075,22.075,0,0,0-3.3-2.393,18.552,18.552,0,0,0-1.976-1.016h.1l1.777.077c1.182.057,2.368.081,3.551.158.045,0,.04-.061,0-.065-1.19-.081-2.372-.211-3.559-.312l-1.725-.154-.891-.077-.227-.024c-.308-.117-.615-.227-.931-.324a8.4,8.4,0,0,0-4.571-.251,4.009,4.009,0,0,0-3.065,2.668c0,.049.065.085.085.036a3.976,3.976,0,0,1,3.032-2.049,7.287,7.287,0,0,1,2.429-.049,5.667,5.667,0,0,0,.271,1.085c.15.506.3,1.012.449,1.514.308,1.008.644,2.024.943,3.016a.032.032,0,0,0,.065,0c-.251-1.008-.466-2.024-.708-3.036-.117-.494-.243-.988-.364-1.482a9.08,9.08,0,0,0-.271-1.02,12.55,12.55,0,0,1,1.4.328,20.4,20.4,0,0,1,2.429.9c.077.51.194,1.016.312,1.522.146.632.312,1.259.51,1.879a.032.032,0,0,0,.061,0l-.024-.117h0c-.121-.587-.251-1.174-.377-1.761-.1-.474-.19-.947-.291-1.417a21.873,21.873,0,0,1,1.968,1,2.878,2.878,0,0,0,.069.429c.04.243.085.49.13.737.1.551.211,1.105.344,1.652a26.288,26.288,0,0,0,.927,3.121.032.032,0,0,0,0,.04l.032.036c.024.028.061,0,.053-.032-.247-1.065-.534-2.121-.769-3.186-.113-.534-.231-1.069-.34-1.619-.053-.267-.1-.534-.154-.81l-.036-.239a21.774,21.774,0,0,1,2.1,1.4,22.578,22.578,0,0,1,3.219,2.935c.036.045.113,0,.077-.065a19.683,19.683,0,0,0-1.283-1.567c-.271-.292-.555-.575-.842-.85h.089c.255.045.506.081.761.113.5.069,1,.117,1.5.174C102.96,259.071,102.976,259.01,102.932,259.01Z" transform="translate(-65.329 -216.796)" fill="#263238"/>
          <path id="Path_7361" data-name="Path 7361" d="M119.145,270.219h0a.379.379,0,0,0-.032-.186.8.8,0,0,1-.065-.235h0c-.109-.482-.2-.964-.292-1.449,0-.032-.057-.024-.057,0a5.959,5.959,0,0,0,.4,1.874c0,.02.045,0,.04,0Z" transform="translate(-85.332 -225.576)" fill="#263238"/>
          <path id="Path_7362" data-name="Path 7362" d="M107.253,266.853a.032.032,0,0,0-.032-.032c-.154-.636-.3-1.271-.429-1.911-.069-.336-.138-.672-.2-1.008-.036-.182-.069-.364-.1-.547a1.514,1.514,0,0,0-.117-.466.032.032,0,0,0-.061,0,3.153,3.153,0,0,0,.138.964c.065.348.134.7.211,1.049.158.708.332,1.413.534,2.109a.036.036,0,0,0,.069,0Z" transform="translate(-77.958 -222.327)" fill="#263238"/>
          <path id="Path_7363" data-name="Path 7363" d="M123.6,261.275c-.988-.134-1.972-.275-2.959-.4-.04,0-.057.061,0,.065.984.146,1.972.267,2.959.4C123.6,261.348,123.616,261.283,123.6,261.275Z" transform="translate(-86.462 -221.138)" fill="#263238"/>
          <path id="Path_7364" data-name="Path 7364" d="M85.619,183.082s-3.3-14.486,12.263-20.352C97.882,162.73,102.2,181.8,85.619,183.082Z" transform="translate(-65.469 -162.73)" fill="#16697a"/>
          <path id="Path_7365" data-name="Path 7365" d="M88.994,182.443l.166-.1.883-.494,1.806-1.008c1.186-.668,2.36-1.356,3.555-2.024.04,0,0-.077-.032-.057-1.215.652-2.429,1.263-3.623,1.9l-1.785.943-.729.4c.518-.984,1.073-1.947,1.684-2.879a43.953,43.953,0,0,1,2.632-3.579.053.053,0,1,0-.077-.073,24.534,24.534,0,0,0-3.6,4.413v-.154c0-.36.028-.721.032-1.081,0-.708-.024-1.417,0-2.121,0-.045-.065-.04-.069,0-.028.7-.113,1.393-.154,2.089,0,.344-.032.692-.045,1.04v.607q-.478.765-.919,1.551a27.2,27.2,0,0,0-1.393,2.919c0-.36-.036-.721-.057-1.081-.049-.81-.142-1.583-.178-2.376a.032.032,0,1,0-.065,0v2.381c0,.4.024.81.049,1.19a2.31,2.31,0,0,0,.028.441,26.5,26.5,0,0,0-1.174,3.984,41.751,41.751,0,0,0-.579,4.376h0a23.046,23.046,0,0,1,.81-3.9c.19-.684.4-1.364.615-2.024.648-.3,1.267-.684,1.891-1.032l1.955-1.069c1.3-.713,2.6-1.437,3.935-2.065.036,0,0-.077-.036-.057-1.356.611-2.725,1.215-4.049,1.866-.664.336-1.316.692-1.964,1.057-.538.3-1.1.607-1.619.96.15-.453.308-.9.482-1.344a37.651,37.651,0,0,1,1.623-3.6Z" transform="translate(-65.484 -170.306)" fill="#263238"/>
          <path id="Path_7366" data-name="Path 7366" d="M91.009,184.484a.036.036,0,0,0-.069,0c.057.81.085,1.652.174,2.478a.036.036,0,0,0,.073,0C91.159,186.136,91.07,185.314,91.009,184.484Z" transform="translate(-68.811 -175.662)" fill="#263238"/>
          <path id="Path_7367" data-name="Path 7367" d="M105.221,191.356c-.972.4-1.955.765-2.927,1.17-.024,0,0,.057,0,.045.984-.368,1.951-.769,2.931-1.15C105.282,191.4,105.262,191.34,105.221,191.356Z" transform="translate(-75.562 -179.765)" fill="#263238"/>
          <path id="Path_7368" data-name="Path 7368" d="M109.112,174.847a25.247,25.247,0,0,0-2.769,1.486.045.045,0,0,0,.045.073c.9-.53,1.822-1.036,2.757-1.5C109.185,174.907,109.149,174.831,109.112,174.847Z" transform="translate(-77.971 -169.94)" fill="#263238"/>
          <rect id="Rectangle_1799" data-name="Rectangle 1799" width="22.449" height="23.664" transform="translate(8.453 51.684)" fill="#455a64"/>
          <rect id="Rectangle_1800" data-name="Rectangle 1800" width="1.15" height="40.534" transform="translate(6.911 60.06)" fill="#263238"/>
          <rect id="Rectangle_1801" data-name="Rectangle 1801" width="1.15" height="40.534" transform="translate(31.182 60.06)" fill="#263238"/>
          <rect id="Rectangle_1802" data-name="Rectangle 1802" width="1.15" height="40.534" transform="translate(19.656 60.06)" fill="#263238"/>
          <rect id="Rectangle_1803" data-name="Rectangle 1803" width="24.271" height="3.275" transform="translate(7.486 73.833)" fill="#263238"/>
        </g>
        <g id="freepik--Characters--inject-43" transform="translate(62.39 63.642)">
          <path id="Path_7369" data-name="Path 7369" d="M292.324,378.5v17.449c0,3.332-.028,6.255-.194,7.765a.024.024,0,0,1,0,.024,2.312,2.312,0,0,1-.243,1.032l-.02.02c-.988.676-27.627,1.591-28.567,1.308s-.215-2.98.81-3.842,11.053-5.769,11.053-5.769l.166-17.429Z" transform="translate(-200.704 -258.955)" fill="#ad6359"/>
          <path id="Path_7370" data-name="Path 7370" d="M292.314,412.75v3.583c0,3.332-.028,6.255-.194,7.765a.024.024,0,0,1,0,.024,4.724,4.724,0,0,1-.243,1.032l-.02.02c-.988.676-27.627,1.591-28.567,1.308s-.215-2.98.81-3.842,11.052-5.769,11.052-5.769l-.049-3.644Z" transform="translate(-200.698 -279.338)" fill="#c7c7c7"/>
          <path id="Path_7371" data-name="Path 7371" d="M263.287,431.53c.939.283,27.579-.628,28.571-1.308.381-.251.474-4.142.453-8.842v-.15l-17.194.4.02.292s-10.04,4.911-11.052,5.773S262.343,431.258,263.287,431.53Z" transform="translate(-200.695 -284.385)" fill="#263238"/>
          <path id="Path_7372" data-name="Path 7372" d="M264.48,442.9c4.49-.267,22.611-.907,27.065-.81.036,0,.036.024,0,.028-4.453.356-22.567.854-27.06.87C264.391,442.968,264.387,442.9,264.48,442.9Z" transform="translate(-201.626 -296.791)" fill="#455a64"/>
          <path id="Path_7373" data-name="Path 7373" d="M289.494,422.9a6.206,6.206,0,0,1,5.32,1.02c.057.049,0,.121-.069.105a24.95,24.95,0,0,0-5.235-.9.113.113,0,0,1-.016-.223Z" transform="translate(-216.502 -285.27)" fill="#455a64"/>
          <path id="Path_7374" data-name="Path 7374" d="M286.412,424.914a6.208,6.208,0,0,1,5.32,1.02c.053.045,0,.121-.073.105a24.862,24.862,0,0,0-5.235-.9.113.113,0,0,1-.012-.223Z" transform="translate(-214.667 -286.466)" fill="#455a64"/>
          <path id="Path_7375" data-name="Path 7375" d="M283.324,426.915a6.219,6.219,0,0,1,5.32,1.02c.057.049,0,.126-.069.109a24.955,24.955,0,0,0-5.235-.907.113.113,0,0,1-.016-.223Z" transform="translate(-212.83 -287.657)" fill="#455a64"/>
          <path id="Path_7376" data-name="Path 7376" d="M310.434,203.249l-.016,1.154-.652,50.955,0,.194-.385,30.522L290.73,285.7l3.6-82.392.049-1.1.182-9.559h15.749Z" transform="translate(-217.288 -148.347)" fill="#455a64"/>
          <path id="Path_7377" data-name="Path 7377" d="M292.611,414.731c2.911-.028,2.073-.061,4.984-.053,1.425,0,10.789.036,12.117.271.028,0,.028.057,0,.061-1.336.2-10.7,0-12.121-.024-2.911-.061-2.073-.077-4.984-.17a.045.045,0,0,1,0-.085Z" transform="translate(-218.388 -280.485)" fill="#263238"/>
          <path id="Path_7378" data-name="Path 7378" d="M309.529,232.022a.032.032,0,1,0-.065,0c0,4.879-.2,7.611-.316,12.486s-.259,9.749-.4,14.619c-.263,9.745-.656,19.482-1.016,29.222q-.3,8.194-.757,16.38a.028.028,0,0,0,.057,0c.708-9.717,1.385-19.465,1.773-29.21s.664-19.486.708-29.23C309.549,240.82,309.517,237.492,309.529,232.022Z" transform="translate(-226.954 -171.76)" fill="#263238"/>
          <path id="Path_7379" data-name="Path 7379" d="M320.042,203.249l-.664,52.109-12.5-62.708h13.036Z" transform="translate(-226.9 -148.347)" fill="#263238"/>
          <path id="Path_7380" data-name="Path 7380" d="M349.654,376.17S352,393.445,352,393.457c.47,3.3.81,6.206.858,7.725v.024a2.368,2.368,0,0,1-.1,1.053.238.238,0,0,0,0,.024c-.891.81-27.166,5.3-28.133,5.15s-.611-2.923.267-3.915,10.174-7.206,10.174-7.206l-2.186-17.291Z" transform="translate(-237.12 -257.568)" fill="#ad6359"/>
          <path id="Path_7381" data-name="Path 7381" d="M351.521,410.11s.482,3.534.482,3.546c.47,3.3.81,6.206.858,7.725v.024a4.669,4.669,0,0,1-.1,1.053.222.222,0,0,0,0,.024c-.891.81-27.166,5.3-28.133,5.15s-.611-2.923.267-3.915,10.174-7.206,10.174-7.206l-.555-3.611Z" transform="translate(-237.12 -277.767)" fill="#c7c7c7"/>
          <path id="Path_7382" data-name="Path 7382" d="M324.574,432.631c.972.154,27.243-4.344,28.133-5.15.344-.3-.089-4.166-.745-8.826l-.024-.146-16.98,2.713.057.287s-9.287,6.219-10.174,7.21S323.586,432.473,324.574,432.631Z" transform="translate(-237.08 -282.766)" fill="#263238"/>
          <path id="Path_7383" data-name="Path 7383" d="M325.648,444.2c4.413-.866,22.267-3.947,26.72-4.453.036,0,.041.02,0,.028-4.352.955-22.243,3.891-26.7,4.514C325.567,444.3,325.554,444.224,325.648,444.2Z" transform="translate(-238.032 -295.407)" fill="#455a64"/>
          <path id="Path_7384" data-name="Path 7384" d="M347.625,425.959a6.267,6.267,0,0,1,5.409.291c.061.04,0,.125-.057.117a24.749,24.749,0,0,0-5.308-.19.113.113,0,0,1-.045-.219Z" transform="translate(-251.107 -286.92)" fill="#455a64"/>
          <path id="Path_7385" data-name="Path 7385" d="M344.835,428.36a6.253,6.253,0,0,1,5.409.3c.061.036,0,.121-.057.113a25,25,0,0,0-5.308-.19.113.113,0,0,1-.045-.219Z" transform="translate(-249.446 -288.349)" fill="#455a64"/>
          <path id="Path_7386" data-name="Path 7386" d="M342.055,430.769a6.268,6.268,0,0,1,5.409.292c.061.04,0,.126-.057.117a24.5,24.5,0,0,0-5.308-.19.113.113,0,0,1-.045-.219Z" transform="translate(-247.792 -289.783)" fill="#455a64"/>
          <path id="Path_7387" data-name="Path 7387" d="M304.15,192.61h0c.069.324,1.17,5.433,2.312,9.822.83,3.206,1.684,6.024,2.174,6.316.555.328,3.259,1.526,4.166,1.9l4.142,39.607,5.6,36.672,18.308-2.834-13.028-80.258L325.7,192.61Z" transform="translate(-225.275 -148.323)" fill="#455a64"/>
          <path id="Path_7388" data-name="Path 7388" d="M349.82,413.025c2.874-.462,2.024-.372,4.923-.81,1.409-.211,10.672-1.583,12.02-1.547a.029.029,0,0,1,0,.057c-1.287.4-10.575,1.619-11.988,1.8-2.887.372-2.061.235-4.951.579a.044.044,0,0,1,0-.077Z" transform="translate(-252.444 -278.099)" fill="#263238"/>
          <path id="Path_7389" data-name="Path 7389" d="M358.537,294.72c-.457-2.543-.911-5.085-1.381-7.627q-1.4-7.627-2.834-15.251-2.866-15.259-5.668-30.542c-1.045-5.749-1.02-5.21-1.931-10.988,0-.036-.073-.032-.065,0,.874,5.134.462,4.008,1.287,9.15s1.692,10.174,2.6,15.247c1.83,10.2,3.749,20.38,5.688,30.558q.81,4.283,1.656,8.555c.567,2.907,1.215,5.8,1.814,8.7,0,.065.117.061.105,0C359.392,299.923,359.011,297.315,358.537,294.72Z" transform="translate(-250.574 -170.746)" fill="#263238"/>
          <path id="Path_7390" data-name="Path 7390" d="M352.467,221.932c-.486-.126-1.008-.166-1.5-.243-.4-.065-.81-.138-1.215-.223a5.211,5.211,0,0,1-2.113-.891,5.02,5.02,0,0,1-1.372-2.13q-.3-.692-.607-1.385l-.3-.668a7.513,7.513,0,0,1-.377-.81c0-.04-.077,0-.061,0a4.751,4.751,0,0,1,.17.579c.069.223.13.445.2.668.125.4.247.81.376,1.215a9.442,9.442,0,0,0,.846,2.1,4.423,4.423,0,0,0,3.36,1.806c.376.045.757.073,1.138.093a8.066,8.066,0,0,0,1.433,0,.065.065,0,0,0,.028-.109Z" transform="translate(-249.536 -161.985)" fill="#263238"/>
          <path id="Path_7391" data-name="Path 7391" d="M311.446,230.733a35.05,35.05,0,0,1,5.575,2.6.062.062,0,0,1-.053.113c-1.879-.81-3.793-1.579-5.623-2.486a.126.126,0,0,1,.1-.227Z" transform="translate(-229.522 -171.009)" fill="#263238"/>
          <path id="Path_7392" data-name="Path 7392" d="M310.082,198.919c0-.065.121-.081.121,0a61.7,61.7,0,0,0,.316,6.275c.085.968.862,6.312,2.542,5.923.279-.065.4-.344.466-.765a6.69,6.69,0,0,0-.223-1.64c-.186-1.121-.336-2.243-.429-3.372a30.29,30.29,0,0,1,.069-6.324.053.053,0,1,1,.105,0,58.837,58.837,0,0,0,.51,8.733c.21,1.389.911,3.482-.543,3.7s-2.429-3.287-2.619-4.247A31.983,31.983,0,0,1,310.082,198.919Z" transform="translate(-228.726 -152.045)" fill="#263238"/>
          <path id="Path_7393" data-name="Path 7393" d="M316.972,229.238a9.664,9.664,0,0,1,.377,1.109,2.526,2.526,0,0,1,.158.911.065.065,0,0,1-.117.024,3.109,3.109,0,0,1-.4-.887c-.13-.34-.263-.684-.381-1.028a.2.2,0,1,1,.368-.13Z" transform="translate(-232.68 -170.044)" fill="#263238"/>
          <path id="Path_7394" data-name="Path 7394" d="M325.388,205.033c-2.219-.146-25.648-2.834-25.648-2.834l.182-9.559h23.17l2.121,11.227Z" transform="translate(-222.651 -148.341)" fill="#263238"/>
          <path id="Path_7395" data-name="Path 7395" d="M278.657,133.7c-2.68,8.389-7.219,17.048-8.53,18.753-3.518,4.583-14.089,9.1-17.316,9.68-1.4.251-4.745-8.757-3.879-10s14-6.259,14.648-6.927c.445-.466,5.988-7.607,9.716-11.915C277.956,127.939,279.361,131.505,278.657,133.7Z" transform="translate(-192.329 -111.352)" fill="#ad6359"/>
          <path id="Path_7396" data-name="Path 7396" d="M256.07,149.764l5.19,10.526s11.032-4.781,13.66-8.194,7.389-14.98,8.1-18.664-.514-6.316-5.449-.931-9.024,10.749-9.907,11.648S256.07,149.764,256.07,149.764Z" transform="translate(-196.661 -110.728)" fill="#ebebeb"/>
          <path id="Path_7397" data-name="Path 7397" d="M257.15,148.959l6.219,10.907s9.717-4.644,12.194-7.692,6.563-12.409,7.842-17.461.53-8.636-5.19-2.453-8.955,10.672-10.121,11.68C267.539,144.376,257.15,148.959,257.15,148.959Z" transform="translate(-197.303 -110.458)" fill="#37474f"/>
          <circle id="Ellipse_184" data-name="Ellipse 184" cx="0.571" cy="0.571" r="0.571" transform="translate(61.895 38.368)" fill="#263238"/>
          <circle id="Ellipse_185" data-name="Ellipse 185" cx="0.571" cy="0.571" r="0.571" transform="translate(64.587 37.129)" fill="#263238"/>
          <path id="Path_7398" data-name="Path 7398" d="M301.932,134.675c-1.279,5.053-5.36,14.4-7.842,17.461a24.406,24.406,0,0,1-5.81,4.3L300.8,129.015C302.741,128.488,302.8,131.242,301.932,134.675Z" transform="translate(-215.83 -110.436)" fill="#263238"/>
          <path id="Path_7399" data-name="Path 7399" d="M324.428,161.132c-.065.073-28.073.158-28.34-.13-.36-.4,5.968-30.769,8.842-34.5.611-.81,2.64-1.024,4.364-.81a7.613,7.613,0,0,1,1.328.271h.049a3.239,3.239,0,0,1,.976.478c4.793,3.83,8.834,17.218,9.777,21.239C323,154.318,324.659,160.869,324.428,161.132Z" transform="translate(-220.469 -108.453)" fill="#ebebeb"/>
          <path id="Path_7400" data-name="Path 7400" d="M330.2,126.78s-2.279,12.429-2.676,15.66.186,20.3.186,20.3l17.587,1.3s-3.8-11.3-3.846-12.012c0,0-3.158-13.53-6.117-19.182A20.174,20.174,0,0,0,330.2,126.78Z" transform="translate(-239.105 -109.145)" fill="#37474f"/>
          <path id="Path_7401" data-name="Path 7401" d="M351.538,165.874l-7.976-.591L337.87,129.87h0v.024l3.571,4.575c.04.073.081.146.117.219,2.959,5.668,6.117,19.182,6.117,19.182C347.736,154.578,351.538,165.874,351.538,165.874Z" transform="translate(-245.344 -110.984)" fill="#263238"/>
          <path id="Path_7402" data-name="Path 7402" d="M303.568,127.45s-1.866,12.587-2.069,13.627-3.028,21.567-3.028,21.567l-4.4.138,2.3-9.385S301.471,130.13,303.568,127.45Z" transform="translate(-219.276 -109.543)" fill="#37474f"/>
          <path id="Path_7403" data-name="Path 7403" d="M319.678,140.939l-1.247-2.429-1.611,1.757.4,1.749,1.587.206Z" transform="translate(-232.816 -116.126)" fill="#263238"/>
          <path id="Path_7404" data-name="Path 7404" d="M315.358,147.376l.761,17.87-3.348,5.911-1.741-6.652,2.741-17.336Z" transform="translate(-229.37 -121.28)" fill="#263238"/>
          <rect id="Rectangle_1804" data-name="Rectangle 1804" width="20.988" height="34.639" transform="translate(85.265 96.475) rotate(-89.94)" fill="#16697a"/>
          <rect id="Rectangle_1805" data-name="Rectangle 1805" width="9.882" height="34.639" transform="translate(85.275 85.372) rotate(-89.94)" opacity="0.1"/>
          <rect id="Rectangle_1806" data-name="Rectangle 1806" width="36.279" height="9.793" transform="translate(120.739 82.228) rotate(-179.94)" fill="#16697a"/>
          <path id="Path_7405" data-name="Path 7405" d="M343.908,248.28l-.008,5.583,2.628,0,0-3.178,10.02.012,0,3.178h2.628l0-5.587Z" transform="translate(-248.932 -181.455)" fill="#263238"/>
          <rect id="Rectangle_1807" data-name="Rectangle 1807" width="2.364" height="4.68" transform="translate(115.755 84.558) rotate(-179.94)" fill="#263238"/>
          <rect id="Rectangle_1808" data-name="Rectangle 1808" width="2.364" height="4.68" transform="translate(91.8 84.539) rotate(-179.94)" fill="#263238"/>
          <path id="Path_7406" data-name="Path 7406" d="M339.685,134.361c7.814,7.089,12.773,17.214,13.109,19.259.81,4.943,1.834,13.607,1.66,17.409-.065,1.409-10.741-.3-10.721-1.806.069-4.712-.559-15.077-.587-15.259-.19-1.267-2.514-6.964-4.858-13.142S336.4,131.385,339.685,134.361Z" transform="translate(-244.717 -112.993)" fill="#ad6359"/>
          <path id="Path_7407" data-name="Path 7407" d="M348.322,236.891a1.676,1.676,0,0,0,1.883-.344,2.486,2.486,0,0,0,1.324,1.053c.984.283,1.858-1.138,1.858-1.138a3.085,3.085,0,0,0,1.575.891c.968.174,2.057-1.134,2.057-1.134a2.717,2.717,0,0,0,1.874-.089c1.008-.474,1.862-3.364,2.073-5.028s-.757-6.583-.846-7.538l-10.672-1.433s-3.061,7.2-3.028,9.19C346.448,233.008,347.148,236.308,348.322,236.891Z" transform="translate(-250.432 -165.892)" fill="#ad6359"/>
          <path id="Path_7408" data-name="Path 7408" d="M354.818,249.5a21.818,21.818,0,0,1-.372-5.409.032.032,0,1,1,.065,0c0,1.806.332,3.591.4,5.4a.049.049,0,0,1-.1.012Z" transform="translate(-255.207 -178.943)" fill="#263238"/>
          <path id="Path_7409" data-name="Path 7409" d="M363.214,249.672a4.789,4.789,0,0,1-.032-1.251c0-.441.049-.887.085-1.328q.105-1.328.271-2.648c0-.04.065-.04.061,0-.065.883-.117,1.765-.15,2.648,0,.445-.024.887-.032,1.328a5.873,5.873,0,0,1-.081,1.251.065.065,0,0,1-.121,0Z" transform="translate(-260.392 -179.155)" fill="#263238"/>
          <path id="Path_7410" data-name="Path 7410" d="M372.553,249.779a3.42,3.42,0,0,1,.032-1.13c.04-.4.077-.81.113-1.215.073-.81.142-1.619.182-2.429a.032.032,0,0,1,.065,0c-.04.81-.069,1.644-.113,2.466l-.073,1.215a3.174,3.174,0,0,1-.166,1.089.024.024,0,0,1-.04,0Z" transform="translate(-265.966 -179.488)" fill="#263238"/>
          <path id="Path_7411" data-name="Path 7411" d="M341.622,166.852l11.834.64s-.875-12.955-1.814-16.554-8.955-15.6-13.688-19.943c-4.453-4.093-4.453-.688-2.765,4.109s5.866,16.393,6.008,17.239S341.622,166.852,341.622,166.852Z" transform="translate(-243.128 -110.566)" fill="#37474f"/>
          <path id="Path_7412" data-name="Path 7412" d="M353.876,216.324c.453-.04.911,0,1.364,0s.907.02,1.36.04c.874.036,1.749.089,2.623.146l2.619.174c.9.061,1.826.077,2.721.211a.032.032,0,0,1,0,.061c-.9.036-1.822-.045-2.725-.077l-2.672-.109c-.891-.04-1.781-.085-2.672-.142-.437-.024-.874-.057-1.308-.105s-.887-.053-1.316-.138A.031.031,0,0,1,353.876,216.324Z" transform="translate(-254.852 -162.425)" fill="#263238"/>
          <path id="Path_7413" data-name="Path 7413" d="M318.2,122.287A12.456,12.456,0,0,0,322.657,118c.065-.13-.174-1.449-.385-3.065-.126-.98-.243-2.077-.275-3.085,0-.206-.7.2-.7.2l-1.3.356-4.275,1.19a15.975,15.975,0,0,1,.737,3.85,1.948,1.948,0,0,1-.028.4.455.455,0,0,1,0,.069C316.345,118.72,317.459,122.315,318.2,122.287Z" transform="translate(-232.167 -100.226)" fill="#ad6359"/>
          <path id="Path_7414" data-name="Path 7414" d="M316.49,118.549a.455.455,0,0,1,0,.069,3.452,3.452,0,0,0,.652,0c4.251-.235,4.6-5.668,4.6-5.668l-1.68.13-4.275,1.19a15.976,15.976,0,0,1,.737,3.85,1.951,1.951,0,0,1-.036.429Z" transform="translate(-232.203 -100.914)" fill="#263238"/>
          <path id="Path_7415" data-name="Path 7415" d="M316.368,86.671c1.02,2.109.85,8.692-.506,10.364-1.96,2.429-5.668,3.2-7.854.729-2.117-2.393-1.741-10.968-.182-12.55C310.122,82.914,314.862,83.554,316.368,86.671Z" transform="translate(-226.696 -83.586)" fill="#ad6359"/>
          <path id="Path_7416" data-name="Path 7416" d="M316.825,102.7s.032,0,.032.04c-.024.441.024.955.4,1.109v.024C316.788,103.8,316.732,103.117,316.825,102.7Z" transform="translate(-232.796 -94.814)" fill="#263238"/>
          <path id="Path_7417" data-name="Path 7417" d="M317.239,101.579c.713-.04.741,1.393.077,1.429S316.64,101.611,317.239,101.579Z" transform="translate(-232.806 -94.146)" fill="#263238"/>
          <path id="Path_7418" data-name="Path 7418" d="M309.862,103s-.032.02-.032.04c.02.441-.028.955-.429,1.109v.024C309.894,104.093,309.955,103.4,309.862,103Z" transform="translate(-228.4 -94.992)" fill="#263238"/>
          <path id="Path_7419" data-name="Path 7419" d="M308.72,101.859c-.713-.04-.745,1.393-.081,1.429S309.311,101.915,308.72,101.859Z" transform="translate(-227.663 -94.312)" fill="#263238"/>
          <path id="Path_7420" data-name="Path 7420" d="M317.579,98.463c-.2-.049-.372-.121-.559-.186a.931.931,0,0,1-.534-.3.3.3,0,0,1,.045-.364.749.749,0,0,1,.753-.093,1.105,1.105,0,0,1,.644.466.324.324,0,0,1-.348.478Z" transform="translate(-232.591 -91.694)" fill="#263238"/>
          <path id="Path_7421" data-name="Path 7421" d="M307.589,98.675a5.333,5.333,0,0,0,.567-.158.964.964,0,0,0,.547-.271.3.3,0,0,0-.024-.368.745.745,0,0,0-.749-.13,1.1,1.1,0,0,0-.664.433.324.324,0,0,0,.324.494Z" transform="translate(-227.099 -91.837)" fill="#263238"/>
          <path id="Path_7422" data-name="Path 7422" d="M316.8,112.837c-.105.105-.211.251-.368.267a1.214,1.214,0,0,1-.478-.105l-.02.024a.6.6,0,0,0,.567.231.474.474,0,0,0,.34-.4C316.845,112.829,316.813,112.821,316.8,112.837Z" transform="translate(-232.286 -100.842)" fill="#263238"/>
          <path id="Path_7423" data-name="Path 7423" d="M313.069,102.6a1.506,1.506,0,0,1-1,.688,1.866,1.866,0,0,1-.542.036.442.442,0,0,1-.105,0h-.1a.109.109,0,0,1-.089-.1h0a.165.165,0,0,1,0-.045h0v-.9c-.126.065-.757.36-.749.182A22.729,22.729,0,0,1,311,97.89a.041.041,0,0,1,.081,0c0,1.425-.259,2.834-.283,4.267a2.672,2.672,0,0,1,.708-.231c.049,0-.065,1-.045,1.158a2.085,2.085,0,0,0,1.551-.514C313.061,102.538,313.093,102.567,313.069,102.6Z" transform="translate(-229.048 -91.927)" fill="#263238"/>
          <path id="Path_7424" data-name="Path 7424" d="M313.55,110.143a1.757,1.757,0,0,0,.725.543.81.81,0,0,0,.49.024c.356-.1.356-.4.287-.7a1.922,1.922,0,0,0-.166-.4,2.32,2.32,0,0,1-1.336.543Z" transform="translate(-230.87 -98.92)" fill="#263238"/>
          <path id="Path_7425" data-name="Path 7425" d="M315.34,111.28a.81.81,0,0,0,.49.024c.356-.1.356-.4.287-.7A.842.842,0,0,0,315.34,111.28Z" transform="translate(-231.935 -99.515)" fill="#ff9abb"/>
          <path id="Path_7426" data-name="Path 7426" d="M307.48,87.05c.231-.567.5-1.138.838-1.259s.575.7,1.348.741c1.04.053,1.526-.911,2.98-1.04,2.085-.186,3.036,1.542,3.146,4.506.093,2.644,1.7,2.862,1.7,2.862s.858-5.854-.81-7.757a6.288,6.288,0,0,0-7.976-.81C307.78,85,307.48,87.05,307.48,87.05Z" transform="translate(-227.257 -83.22)" fill="#263238"/>
          <path id="Path_7427" data-name="Path 7427" d="M328.67,101.687s1.17-2.271,2.182-1.883.328,3.547-.725,4.109a1.134,1.134,0,0,1-1.587-.4Z" transform="translate(-239.791 -93.063)" fill="#ad6359"/>
          <path id="Path_7428" data-name="Path 7428" d="M331.519,102.1s.024.02,0,.028A2.769,2.769,0,0,0,330.3,104.1a.624.624,0,0,1,.907-.3c.02,0,0,.045,0,.045a.7.7,0,0,0-.729.344,3.315,3.315,0,0,0-.283.664c-.024.077-.158.057-.142-.028h0C329.887,103.829,330.47,102.343,331.519,102.1Z" transform="translate(-240.676 -94.456)" fill="#263238"/>
          <path id="Path_7429" data-name="Path 7429" d="M316.238,125.708l1.526,3.749,4.632-4.737,1.32,1.514s-4.526,7.506-4.555,7.178l-1.547-3.215-2.215,2.243.166-5.623Z" transform="translate(-231.971 -107.919)" fill="#ebebeb"/>
          <path id="Path_7430" data-name="Path 7430" d="M315.1,132.439c.061-.927.093-1.866.194-2.789a.033.033,0,0,1,.065,0,51.117,51.117,0,0,1-.053,5.291h0c.093-.1,2.053-1.972,2.073-1.943.336.51,1.47,2.834,1.547,3.065.717-1.194,3.457-5.534,4.308-6.664a.032.032,0,0,1,.053.032c-.619,1.239-4.247,7.089-4.3,7.089a37.03,37.03,0,0,1-1.619-3.4,25.057,25.057,0,0,1-2.32,2.393A29.518,29.518,0,0,1,315.1,132.439Z" transform="translate(-231.75 -110.698)" fill="#263238"/>
          <path id="Path_7431" data-name="Path 7431" d="M184.469,135.794c5.093,10.053,10.267,34.234,10.749,37.469.328,2.2-11.231,4.186-11.231,2.664,0-1.951-2.332-24.777-2.109-33.8C182,137.154,183.416,133.717,184.469,135.794Z" transform="translate(-152.497 -114.142)" fill="#eb9481"/>
          <path id="Path_7432" data-name="Path 7432" d="M186.938,230.7a35.836,35.836,0,0,0,1.121,9.312c.4,1.66,2.138,6.3,3.437,6.073s.915-1.619.915-1.619,1.02,1.846,2.3,1.5.623-2.506.623-2.506,1.182,1.826,2.429,1.389.223-2.5.223-2.5,1.008,1.721,1.891.923c1.065-.959-1.146-3.915-1.518-5.773-.085-.4-1.117-8.672-1.117-8.672Z" transform="translate(-155.492 -169.879)" fill="#eb9481"/>
          <path id="Path_7433" data-name="Path 7433" d="M211.043,253.187a9.528,9.528,0,0,1-2.154-6.073.045.045,0,0,0-.085,0c-.036,2.628.158,4.235,2.138,6.166C211.039,253.365,211.12,253.288,211.043,253.187Z" transform="translate(-168.528 -180.742)" fill="#263238"/>
          <path id="Path_7434" data-name="Path 7434" d="M204.378,255.636a14.335,14.335,0,0,1-2.279-6.518c0-.041-.073-.036-.069,0,.182,2.757.4,4.356,2.215,6.571C204.325,255.794,204.447,255.745,204.378,255.636Z" transform="translate(-164.499 -181.936)" fill="#263238"/>
          <path id="Path_7435" data-name="Path 7435" d="M197.377,257.2a12.838,12.838,0,0,1-1.8-6.627.053.053,0,0,0-.1,0,9.127,9.127,0,0,0,1.822,6.664C197.4,257.355,197.458,257.339,197.377,257.2Z" transform="translate(-160.575 -182.797)" fill="#263238"/>
          <path id="Path_7436" data-name="Path 7436" d="M205.931,227.83a32.35,32.35,0,0,1,2.4,4.279c.543,1.445.6,7.506-.708,7.6-1.692.113-2.429-3.389-2.551-5.15,0,0-3.919.263-4.98-2.138S205.931,227.83,205.931,227.83Z" transform="translate(-163.282 -169.284)" fill="#eb9481"/>
          <path id="Path_7437" data-name="Path 7437" d="M207.142,246.432c-1.619-1.008-1.644-3.332-1.9-5.032a.158.158,0,0,0-.227-.125c-1.648,0-3.976-.478-4.972-1.9a.04.04,0,1,0-.069.04c.858,1.676,3.109,2.332,4.915,2.215.235,1.745.36,4.077,2.239,4.822C207.142,246.453,207.15,246.441,207.142,246.432Z" transform="translate(-163.271 -176.138)" fill="#263238"/>
          <path id="Path_7438" data-name="Path 7438" d="M195.1,170.684l-13.129,2.024s-2.093-24.376-2.17-32.558,2.862-10.186,6.016-1.818S195.1,170.684,195.1,170.684Z" transform="translate(-151.267 -112.818)" fill="#16697a"/>
          <path id="Path_7439" data-name="Path 7439" d="M184.958,223.414a114.13,114.13,0,0,1,12.21-1.814.036.036,0,1,1,0,.073c-1,.1-7.6,1.34-12.21,1.822C184.921,223.5,184.917,223.422,184.958,223.414Z" transform="translate(-154.321 -165.576)" fill="#263238"/>
          <path id="Path_7440" data-name="Path 7440" d="M212.792,408.12c-.911.3-27.611-.105-28.591-.749a44.818,44.818,0,0,1-.1-5.793l-1.3-19.648,16.895.049,1.336,17s3.789,1.749,6.915,3.279h0a37.507,37.507,0,0,1,3.98,2.105C212.933,405.209,213.7,407.829,212.792,408.12Z" transform="translate(-153.054 -260.996)" fill="#eb9481"/>
          <path id="Path_7441" data-name="Path 7441" d="M214.681,437c-.911.3-27.611-.105-28.591-.749a44.817,44.817,0,0,1-.1-5.793c6.6,1.47,24.182,3.85,24.7,2.47.206-.555-.215-1.182-.842-1.761a37.5,37.5,0,0,1,3.98,2.105C214.822,434.092,215.591,436.711,214.681,437Z" transform="translate(-154.943 -289.878)" fill="#263238"/>
          <path id="Path_7442" data-name="Path 7442" d="M165.18,205.3s4.785,50.777,4.891,51.392c0,.081.053,1.02.1,2.547.267,8.376.923,34.5.923,34.5h20.073s-1.308-30.939-2.061-38.153c-.96-9.21-6.858-50.283-6.858-50.283Z" transform="translate(-142.568 -155.875)" fill="#37474f"/>
          <path id="Path_7443" data-name="Path 7443" d="M175.426,263.989q-.927-15.814-2.789-31.579c-.7-5.911-1.555-11.8-2.4-17.7,0-.053-.089-.049-.081,0,1.555,10.49,2.652,21.052,3.6,31.623s1.619,21.117,2.024,31.7c.247,5.992.433,11.992.623,17.988a.113.113,0,0,0,.223,0C176.362,285.353,176.054,274.665,175.426,263.989Z" transform="translate(-145.531 -161.456)" fill="#263238"/>
          <path id="Path_7444" data-name="Path 7444" d="M199.794,415.415c-.526-.069-1.1-.049-1.619-.065-.6,0-1.215-.028-1.806-.049-1.162-.044-2.328-.077-3.49-.093-2.344-.04-4.692-.024-7.032.049l-1.935.069c-.688.024-1.376.089-2.065.085-.049,0-.049.061,0,.061,1.178,0,2.372.1,3.555.146s2.324.061,3.486.077c2.344.032,4.7,0,7.036-.073.644-.024,1.287-.032,1.931-.053l1.036-.053c.308,0,.611,0,.919-.028C199.85,415.487,199.846,415.423,199.794,415.415Z" transform="translate(-152.465 -280.788)" fill="#263238"/>
          <path id="Path_7445" data-name="Path 7445" d="M179.682,205.3l-9.17,66.137c-.13-4.931-.259-9.49-.344-12.2-.045-1.526-.081-2.466-.1-2.547-.113-.615-4.891-51.392-4.891-51.392Z" transform="translate(-142.568 -155.875)" fill="#263238"/>
          <path id="Path_7446" data-name="Path 7446" d="M135.438,402.251c-.955-.077-25.449-10.716-26.105-11.688a40.765,40.765,0,0,1,2.134-5.385l5.4-19.028,15.627,6.271-4.409,16.895s2.834,3.073,5.125,5.668h0a37.985,37.985,0,0,1,2.866,3.478C136.689,399.615,136.389,402.332,135.438,402.251Z" transform="translate(-109.327 -251.605)" fill="#eb9481"/>
          <path id="Path_7447" data-name="Path 7447" d="M135.438,430.223c-.955-.077-25.449-10.716-26.105-11.688a40.763,40.763,0,0,1,2.134-5.385c5.526,3.895,20.842,12.85,21.862,11.773.4-.429.255-1.174-.1-1.951a37.974,37.974,0,0,1,2.866,3.478C136.689,427.587,136.389,430.3,135.438,430.223Z" transform="translate(-109.327 -279.576)" fill="#263238"/>
          <path id="Path_7448" data-name="Path 7448" d="M110.27,287.5l19.583,6.073s9.563-33.542,10.3-41.421c.725-7.81,1.425-23.765,1.737-35.34a22.78,22.78,0,0,0,4.1-2.992c.83-1.057,1.575-4.858,3.21-8.5H125.237c-5.725,11.121-1.417,16.069-1.417,18.494,0,11.708-1.769,27.251-2.332,29.554C120.314,258.17,110.27,287.5,110.27,287.5Z" transform="translate(-109.888 -155.887)" fill="#37474f"/>
          <path id="Path_7449" data-name="Path 7449" d="M132.951,405.9c-.49-.2-1.045-.328-1.555-.486-.579-.174-1.162-.336-1.737-.514-1.109-.344-2.227-.672-3.344-.988q-3.381-.964-6.81-1.773l-1.887-.433c-.668-.154-1.352-.271-2.024-.449-.053,0-.065.045,0,.061,1.142.3,2.267.708,3.4,1.057s2.231.66,3.348.98q3.383.953,6.814,1.745c.632.142,1.255.3,1.883.449l1.008.223c.3.069.591.166.895.21a.041.041,0,1,0,.012-.081Z" transform="translate(-113.031 -272.5)" fill="#263238"/>
          <path id="Path_7450" data-name="Path 7450" d="M190.537,225.665a18.115,18.115,0,0,0-3.239,1.919c-1.073.737-2.061,1.583-3.093,2.372-.04.032,0,.1.04.069,1.089-.7,2.231-1.308,3.308-2.024a20.753,20.753,0,0,0,3.045-2.251C190.626,225.717,190.59,225.645,190.537,225.665Z" transform="translate(-153.881 -167.993)" fill="#263238"/>
          <path id="Path_7451" data-name="Path 7451" d="M194.629,208.974c-.138.745-.32,1.486-.482,2.227s-.263,1.4-.445,2.093a3.563,3.563,0,0,1-.976,1.753c-.271.255-.575.478-.866.713-.154.126-.324.243-.486.372.02-.1.036-.2.053-.3.053-.279.1-.563.146-.846.105-.628.206-1.259.3-1.887.19-1.239.364-2.49.623-3.717a.042.042,0,0,0-.081-.02c-.308,1.215-.648,2.429-.915,3.644-.134.6-.6,3.563-.623,3.773s-.04.433-.049.652a2.836,2.836,0,0,0,0,.668c0,.053.081.045.1,0h0a2.628,2.628,0,0,0,.19-.644c.053-.211.1-.425.138-.64a1.709,1.709,0,0,1,.036-.239c.292-.178.563-.4.838-.607a10.889,10.889,0,0,0,.87-.656,3.336,3.336,0,0,0,1.065-1.664,12.283,12.283,0,0,0,.352-2.134c.093-.842.162-1.688.279-2.526C194.714,208.974,194.637,208.934,194.629,208.974Z" transform="translate(-157.822 -158.052)" fill="#263238"/>
          <path id="Path_7452" data-name="Path 7452" d="M167.531,102.753a94.858,94.858,0,0,1-1.972,14.3c-.866,3.619-2.834,6.433-6.761,6.81-3.644.348-8.684-.4-11.356-3.162a4.935,4.935,0,0,1-1.19-4.611c.457-2.385,4.17-15.291,5.3-19.324a43.3,43.3,0,0,1,2.486-7.251c2.34-4.858,4.858-4.453,5.206-4.514a6.543,6.543,0,0,1,4.992.5,5.4,5.4,0,0,1,2.891,3.344C168.519,93.182,167.9,98.3,167.531,102.753Z" transform="translate(-131.227 -84.114)" fill="#263238"/>
          <path id="Path_7453" data-name="Path 7453" d="M157.278,86.868c-3.21,1-4.385,4.194-5.518,7.044-1.579,3.972-3.093,7.972-4.413,12.04q-.947,2.933-1.753,5.911a32.419,32.419,0,0,0-1.3,5.887c-.227,3.239,2.526,5.134,5.328,5.988a.111.111,0,0,0,.069-.211,8.429,8.429,0,0,1-4.235-2.6c-1.348-1.765-.887-3.765-.429-5.757.785-3.393,1.761-6.733,2.834-10.036s2.312-6.575,3.575-9.818c1.215-3.089,2.336-7.219,5.838-8.393C157.323,86.92,157.311,86.856,157.278,86.868Z" transform="translate(-130.128 -85.39)" fill="#263238"/>
          <path id="Path_7454" data-name="Path 7454" d="M192.334,94.772c-.235-2.547-1.19-5.13-3.688-6.2h0c3.215,1.53,3.53,5.316,3.555,8.441q.04,4.943-.279,9.87c-.2,3.162-.478,6.34-.968,9.47a16.1,16.1,0,0,1-3.959,8.984.054.054,0,0,0,.073.081c2.279-1.988,3.36-5.008,3.915-7.9a88.522,88.522,0,0,0,1.243-11.607A75.177,75.177,0,0,0,192.334,94.772Z" transform="translate(-155.539 -86.404)" fill="#263238"/>
          <path id="Path_7455" data-name="Path 7455" d="M175.547,120.124c.154.4,2.514,2.874,4.425,2.538.619-.113.162-3.534.162-3.534l.024-.259.332-3.644-4.506-2.13-.644-.275s-.028,1-.045,2.251v.178a1.765,1.765,0,0,0,0,.206v1.453A23.717,23.717,0,0,0,175.547,120.124Z" transform="translate(-148.586 -100.836)" fill="#eb9481"/>
          <path id="Path_7456" data-name="Path 7456" d="M175.3,115.071a7.34,7.34,0,0,0,4.858,3.8l.332-3.644-4.5-2.13-.644-.275S175.316,113.824,175.3,115.071Z" transform="translate(-148.591 -100.836)" fill="#263238"/>
          <path id="Path_7457" data-name="Path 7457" d="M182.5,94.476c.51,6.4-3.263,7.425-4.644,7.534-1.255.1-5.534.275-6.7-6.04s1.648-8.583,4.5-8.947S181.991,88.075,182.5,94.476Z" transform="translate(-145.962 -85.452)" fill="#eb9481"/>
          <path id="Path_7458" data-name="Path 7458" d="M195.573,101.117a3.912,3.912,0,0,1-.433-.089.725.725,0,0,1-.429-.174.231.231,0,0,1,0-.279.571.571,0,0,1,.555-.138.81.81,0,0,1,.526.291.243.243,0,0,1-.219.389Z" transform="translate(-160.115 -93.453)" fill="#263238"/>
          <path id="Path_7459" data-name="Path 7459" d="M185.967,101.326c.15-.02.283-.061.433-.093a.725.725,0,0,0,.4-.182.227.227,0,0,0,0-.279.567.567,0,0,0-.559-.13.838.838,0,0,0-.518.3.243.243,0,0,0,.239.385Z" transform="translate(-154.768 -93.573)" fill="#263238"/>
          <path id="Path_7460" data-name="Path 7460" d="M188.217,106.36a.033.033,0,0,0-.032.036c.028.437,0,.943-.4,1.1v.024C188.274,107.429,188.314,106.769,188.217,106.36Z" transform="translate(-156.018 -96.992)" fill="#263238"/>
          <path id="Path_7461" data-name="Path 7461" d="M187.067,105.259c-.7-.028-.713,1.381-.061,1.409S187.658,105.284,187.067,105.259Z" transform="translate(-155.273 -96.336)" fill="#263238"/>
          <path id="Path_7462" data-name="Path 7462" d="M185.954,105.38c-.125.081-.247.219-.4.235s-.3-.134-.4-.275h-.024c0,.267.093.547.4.587s.457-.2.526-.47C186.047,105.425,186,105.348,185.954,105.38Z" transform="translate(-154.435 -96.385)" fill="#263238"/>
          <path id="Path_7463" data-name="Path 7463" d="M194.809,106.12a.033.033,0,0,1,.032.036c-.02.437.028.943.425,1.093v.024C194.781,107.2,194.72,106.529,194.809,106.12Z" transform="translate(-160.181 -96.849)" fill="#263238"/>
          <path id="Path_7464" data-name="Path 7464" d="M195.216,105c.7-.04.737,1.368.085,1.409S194.625,105.035,195.216,105Z" transform="translate(-160.191 -96.181)" fill="#263238"/>
          <path id="Path_7465" data-name="Path 7465" d="M196.465,105.089c.113.069.227.2.36.211s.263-.15.36-.3h.02c0,.267-.069.551-.324.607s-.4-.174-.486-.437C196.384,105.134,196.421,105.057,196.465,105.089Z" transform="translate(-161.145 -96.182)" fill="#263238"/>
          <path id="Path_7466" data-name="Path 7466" d="M188.691,114.888c.1.109.2.255.356.275a1.215,1.215,0,0,0,.474-.085v.024a.591.591,0,0,1-.567.206.457.457,0,0,1-.324-.4C188.646,114.88,188.679,114.871,188.691,114.888Z" transform="translate(-156.524 -102.062)" fill="#263238"/>
          <path id="Path_7467" data-name="Path 7467" d="M191.047,104.757s.093.652.093.96c0,.032-.073.045-.178.053h0a1.462,1.462,0,0,1-1.425-.538.033.033,0,0,1,.049-.045,2.186,2.186,0,0,0,1.336.377c.02-.085-.2-1.113-.15-1.117a2.64,2.64,0,0,1,.7.154c-.154-1.364-.526-2.692-.664-4.049a.04.04,0,1,1,.081,0,22.322,22.322,0,0,1,.9,4.336C191.8,105.024,191.169,104.8,191.047,104.757Z" transform="translate(-157.059 -93.51)" fill="#263238"/>
          <path id="Path_7468" data-name="Path 7468" d="M194.482,104.186c-.1-1.045.385-1.943,1.073-2.024s1.332.729,1.429,1.773-.4,1.943-1.073,2.024S194.579,105.231,194.482,104.186Zm.255-.024c.085.9.6,1.6,1.15,1.547s.931-.83.846-1.733-.6-1.6-1.154-1.547S194.652,103.259,194.737,104.162Z" transform="translate(-159.999 -94.49)" fill="#263238"/>
          <path id="Path_7469" data-name="Path 7469" d="M182.749,105.6a1.777,1.777,0,1,1,1.947,1.725,1.846,1.846,0,0,1-1.947-1.725Zm.255-.024a1.522,1.522,0,1,0,1.36-1.781A1.587,1.587,0,0,0,183,105.578Z" transform="translate(-153.024 -95.456)" fill="#263238"/>
          <path id="Path_7470" data-name="Path 7470" d="M191.075,106.335c.915-.4,1.372-.15,1.376-.146l.138-.215a1.776,1.776,0,0,0-1.619.13Z" transform="translate(-157.917 -96.688)" fill="#263238"/>
          <path id="Path_7471" data-name="Path 7471" d="M174.144,106.952l.024-.255c-.17,0-4.1-.364-4.518-.348a5.01,5.01,0,0,0-1.53.769l.146.211a4.725,4.725,0,0,1,1.377-.721h.049C170,106.612,172.747,106.827,174.144,106.952Z" transform="translate(-144.318 -96.985)" fill="#263238"/>
          <path id="Path_7472" data-name="Path 7472" d="M169.691,94.176c.692-.04,2.5-1.955,2.555-5.308a25.123,25.123,0,0,1-.482,3.449c-.223.441,1.008-1.077,1.089-3.777a11.041,11.041,0,0,0,2.777,1.437,4.221,4.221,0,0,0,2.15.251c.093-.093-1.789-.684-2.3-1.267a22.462,22.462,0,0,0,4.964,1.7c.182,0,.4-3.713-2.024-5.291s-6.255.13-7.287,1.125a4.36,4.36,0,0,0-2.522,1.964C167.3,90.249,168.946,94.221,169.691,94.176Z" transform="translate(-144.318 -84.116)" fill="#263238"/>
          <path id="Path_7473" data-name="Path 7473" d="M170.263,107.865s-1.389-2.024-2.3-1.522.117,3.4,1.182,3.81a1.089,1.089,0,0,0,1.462-.571Z" transform="translate(-144.016 -96.934)" fill="#eb9481"/>
          <path id="Path_7474" data-name="Path 7474" d="M169.26,108.5v.028a2.762,2.762,0,0,1,1.4,1.729.6.6,0,0,0-.895-.17s0,.045.02.04a.664.664,0,0,1,.733.239,3.24,3.24,0,0,1,.348.6c.032.069.154.032.13-.045h0C171.017,109.945,170.284,108.605,169.26,108.5Z" transform="translate(-144.996 -98.265)" fill="#263238"/>
          <path id="Path_7475" data-name="Path 7475" d="M172.229,114.826a.47.47,0,1,1-.47-.466.47.47,0,0,1,.47.466Z" transform="translate(-146.204 -101.753)" fill="#fff"/>
          <path id="Path_7476" data-name="Path 7476" d="M169.435,159.833s-21.563.32-26.915-.057c0,0,4.364-24.737,10.121-30.988a8.772,8.772,0,0,1,.68-.668c.352-.3.3-2.656.47-2.834a50.207,50.207,0,0,1,7.251.911c.089.17.449,2.4.449,2.4,1.587,2.024,6.692,9.02,7.287,11.907s-1.279,6.073-1.279,6.073Z" transform="translate(-129.082 -108.242)" fill="#16697a"/>
          <path id="Path_7477" data-name="Path 7477" d="M162.575,140.516c-1.275,6.146-.518,19.433,2.429,21.862,4.858,3.976,16.534,5.138,19.793,5.522,1.4.166,4.2-9.028,3.239-10.214s-15.316-3.032-16-3.644c-.474-.437-2.7-8.466-4.628-12.992C164.822,134.925,163.04,138.249,162.575,140.516Z" transform="translate(-140.663 -115.557)" fill="#eb9481"/>
          <path id="Path_7478" data-name="Path 7478" d="M215.838,185.436s4.308-.045,7.125.061a17.367,17.367,0,0,1,5.4.972c1.7.854,8.255,5.51,7.158,7.125-.992,1.462-2.943-.462-2.943-.462s2.332,1.9.9,3.049-3.741-1.6-3.741-1.6,2.615,1.846.972,2.923c-1.425.939-4.417-1.943-4.417-1.943s2.959,1.619,1.591,2.741c-1.51,1.215-6.538-2.542-6.538-2.542a20.291,20.291,0,0,1-8.522.377C212.336,196.06,215.838,185.436,215.838,185.436Z" transform="translate(-170.894 -144.048)" fill="#eb9481"/>
          <path id="Path_7479" data-name="Path 7479" d="M249.914,204.1l-.587-.619a14.306,14.306,0,0,0-1.158-1.166c-.4-.348-.81-.68-1.255-1s-.947-.632-1.393-.976c-.036-.028-.077.024-.036.049a16.246,16.246,0,0,1,1.271,1.089c.4.364.81.737,1.215,1.105s.81.7,1.215,1.049c.2.174.4.356.587.538a4.479,4.479,0,0,0,.563.514c.02,0,.045,0,.032-.032A3.356,3.356,0,0,0,249.914,204.1Z" transform="translate(-190.351 -152.917)" fill="#263238"/>
          <path id="Path_7480" data-name="Path 7480" d="M256.057,199.562a21.942,21.942,0,0,0-2.105-2.21,15.149,15.149,0,0,0-2.474-1.8c-.032,0-.065.024-.04.049.761.684,1.534,1.356,2.308,2.024.377.328,2.045,1.874,2.239,2.024C256.029,199.671,256.085,199.607,256.057,199.562Z" transform="translate(-193.899 -150.073)" fill="#263238"/>
          <path id="Path_7481" data-name="Path 7481" d="M243.815,208.407a22.3,22.3,0,0,0-2.024-2.045,19.79,19.79,0,0,0-2.49-1.563c-.032,0-.065.032-.036.053.785.583,1.579,1.146,2.336,1.765.372.3,1.773,1.591,2.154,1.846C243.794,208.488,243.839,208.44,243.815,208.407Z" transform="translate(-186.652 -155.578)" fill="#263238"/>
          <path id="Path_7482" data-name="Path 7482" d="M181.035,167.6l5.138-11.98s-14.073-2.328-14.506-2.611-3-9.627-4.648-13.3-4.478-5.822-5.571,2.053.49,17.49,2.073,19.49C165.44,163.679,173.039,166.744,181.035,167.6Z" transform="translate(-140.131 -114.878)" fill="#16697a"/>
          <path id="Path_7483" data-name="Path 7483" d="M172.764,181.28a48.055,48.055,0,0,1-6.17-2.429,8.527,8.527,0,0,1-4.453-3.316,9.543,9.543,0,0,1-.927-2.749c-.223-1.069-.4-2.15-.559-3.239q-.279-1.862-.5-3.733c-.073-.64-.146-1.279-.211-1.919s-.182-1.279-.206-1.923a.032.032,0,0,0-.065,0c.045.591,0,1.186.049,1.781,0,.4.049.777.077,1.166l-.113-.247a4.487,4.487,0,0,1-.283-.883c0-.036-.069-.02-.061,0,.073.3.146.611.231.911q.061.219.146.437a2.862,2.862,0,0,0,.117.287q.146,1.745.377,3.474c.15,1.117.324,2.227.522,3.336a12.749,12.749,0,0,0,.777,2.862,6.142,6.142,0,0,0,1.644,2.255,10.822,10.822,0,0,0,2.429,1.506,42.981,42.981,0,0,0,6.1,2.275C174.181,181.92,174.942,181.867,172.764,181.28Z" transform="translate(-139.091 -130.07)" fill="#263238"/>
          <path id="Path_7484" data-name="Path 7484" d="M190.253,166.206c-.518-.069-6.644-1.356-6.883-1.425a.721.721,0,0,1-.49-.518c-.19-.494-.356-1-.534-1.5q-.462-1.287-.939-2.563a4.865,4.865,0,0,0-.057-.571c-.02-.166-.061-.453-.1-.68-.081-.49-.227-.972-.287-1.462,0-.049-.077-.032-.065,0a7.239,7.239,0,0,1,.219,1.474c.02.194.032.4.045.587-.186-.5-.377-1-.575-1.49-.231-.575-.494-1.154-.68-1.745,0-.04-.073-.02-.061,0,.211.53.36,1.093.526,1.619s.344,1.093.522,1.64c.348,1.073.717,2.138,1.089,3.206.178.514.352,1.036.543,1.547a1.1,1.1,0,0,0,.81.781c1.065.287,6.271,1.15,6.9,1.174C190.305,166.324,190.322,166.214,190.253,166.206Z" transform="translate(-151.297 -126.709)" fill="#263238"/>
          <path id="Path_7485" data-name="Path 7485" d="M210.3,184.274c-.81,1.721-1.619,3.429-2.352,5.186A53.725,53.725,0,0,0,206,194.752a.033.033,0,1,0,.061.024c.81-1.688,1.518-3.441,2.235-5.178s1.368-3.522,2.093-5.263C210.422,184.262,210.328,184.205,210.3,184.274Z" transform="translate(-166.858 -143.344)" fill="#263238"/>
          <path id="Path_7486" data-name="Path 7486" d="M242.674,180.827c-.619.348-4.166-.632-5.6.445a6.757,6.757,0,0,0-2.085,4.668c-.206,2.312,1.619,2.194,2.3,1.215a28.587,28.587,0,0,0,2.15-4.049,15.253,15.253,0,0,1,1.919.514Z" transform="translate(-184.103 -141.264)" fill="#ad6359"/>
          <path id="Path_7487" data-name="Path 7487" d="M235.631,200.583c-1.1-1.15-6.579,3.065-4.858,4.98S236.87,201.886,235.631,200.583Z" transform="translate(-181.408 -152.951)" fill="#ad6359"/>
          <path id="Path_7488" data-name="Path 7488" d="M240.151,204.653c-1.1-1.15-6.579,3.065-4.858,4.98S241.39,205.956,240.151,204.653Z" transform="translate(-184.098 -155.374)" fill="#ad6359"/>
          <path id="Path_7489" data-name="Path 7489" d="M245.234,206.212c-1.154-.895-5.551,3.7-3.708,5.2S246.542,207.224,245.234,206.212Z" transform="translate(-187.74 -156.35)" fill="#ad6359"/>
          <path id="Path_7490" data-name="Path 7490" d="M251.156,206.952c-1.324-.506-4.113,5-1.98,5.87S252.658,207.506,251.156,206.952Z" transform="translate(-192.095 -156.839)" fill="#ad6359"/>
          <path id="Path_7491" data-name="Path 7491" d="M238.244,205.544a6.629,6.629,0,0,0-.858.684,11.542,11.542,0,0,0-.854.81,9.771,9.771,0,0,0-.733.858c-.239.324-.437.676-.68.992a.032.032,0,1,0,.049.036,8.3,8.3,0,0,1,.781-.862c.263-.275.51-.563.773-.842s.5-.551.757-.81.551-.526.81-.81C238.3,205.564,238.272,205.528,238.244,205.544Z" transform="translate(-184.182 -156.018)" fill="#263238"/>
          <path id="Path_7492" data-name="Path 7492" d="M243.939,206.8c-.235.36-1.057,1.757-1.308,2.109s-.514.7-.781,1.049-.526.721-.83,1.045c-.024.028.02.073.049.045.3-.324.636-.619.923-.96s.551-.684.81-1.045a20.7,20.7,0,0,0,1.215-2.219A.044.044,0,0,0,243.939,206.8Z" transform="translate(-187.699 -156.756)" fill="#263238"/>
          <path id="Path_7493" data-name="Path 7493" d="M249.873,208.731c-.243.534-.453,1.089-.7,1.619-.121.263-.247.526-.368.81l-.17.385a2.578,2.578,0,0,1-.2.441c-.024.032.04.069.057.024a3.169,3.169,0,0,1,.283-.458c.069-.121.142-.243.206-.364q.206-.4.377-.789a11.716,11.716,0,0,0,.591-1.619.044.044,0,0,0-.073-.049Z" transform="translate(-192.112 -157.906)" fill="#263238"/>
        </g>
        <g id="freepik--speech-bubble--inject-43" transform="translate(101.601 57.279)">
          <path id="Path_7494" data-name="Path 7494" d="M228.793,78.821a10.036,10.036,0,0,1-16.769,6.348L207,85.906l2.514-4.34a10.037,10.037,0,1,1,19.279-2.745Z" transform="translate(-206.668 -67.648)" fill="#fff"/>
          <path id="Path_7495" data-name="Path 7495" d="M228.305,78.676a10.121,10.121,0,0,1-2.024,5.085,10.657,10.657,0,0,1-.907,1.049,11.168,11.168,0,0,1-1.061.895,9.717,9.717,0,0,1-2.429,1.348,9.846,9.846,0,0,1-2.7.644,9.425,9.425,0,0,1-1.393.028,8.826,8.826,0,0,1-1.389-.146,10.121,10.121,0,0,1-4.968-2.429l.121.036-5.012.737-.364.057.182-.32,2.5-4.348v.17a10.158,10.158,0,0,1,.607-8.919,10.271,10.271,0,0,1,3.142-3.348,10.121,10.121,0,0,1,15.7,9.474Zm0,0a9.968,9.968,0,0,0-15.526-9.243,10.32,10.32,0,0,0-3,3.275,9.874,9.874,0,0,0-1.275,4.247,10.069,10.069,0,0,0,.7,4.368l.036.089-.049.085L206.67,85.83l-.178-.267,5.024-.7h.069l.053.045a9.907,9.907,0,0,0,4.8,2.478,9.1,9.1,0,0,0,1.364.166,9.716,9.716,0,0,0,1.372,0,9.838,9.838,0,0,0,2.68-.591,9.271,9.271,0,0,0,2.429-1.3,8.866,8.866,0,0,0,1.972-1.919A10.121,10.121,0,0,0,228.305,78.676Z" transform="translate(-206.18 -67.504)" fill="#263238"/>
          <path id="Path_7496" data-name="Path 7496" d="M226.973,89.925l-4.283-4.34,1.437-1.421,2.506,2.534,5.2-8.158,1.7,1.089Z" transform="translate(-216.006 -74.072)" fill="#16697a"/>
        </g>
      </g>
    </g>
    <g id="freepik--Shadow--inject-36" transform="translate(28.913 235.309)">
      <ellipse id="freepik--path--inject-36" cx="99.909" cy="5.833" rx="99.909" ry="5.833" fill="#f5f5f5"/>
    </g>
  </g>
</svg>
