<svg xmlns="http://www.w3.org/2000/svg" width="242.357" height="180.585" viewBox="0 0 242.357 180.585">
  <g id="Hand_coding-rafiki" data-name="Hand coding-rafiki" transform="translate(0 -55)">
    <g id="freepik--background-complete--inject-56" transform="translate(0 55)">
      <rect id="Rectangle_984" data-name="Rectangle 984" width="242.357" height="0.121" transform="translate(0 158.695)" fill="#ebebeb"/>
      <rect id="Rectangle_985" data-name="Rectangle 985" width="16.054" height="0.121" transform="translate(202.019 166.494)" fill="#ebebeb"/>
      <rect id="Rectangle_986" data-name="Rectangle 986" width="4.212" height="0.121" transform="translate(156.335 167.813)" fill="#ebebeb"/>
      <rect id="Rectangle_987" data-name="Rectangle 987" width="9.302" height="0.121" transform="translate(192.233 161.996)" fill="#ebebeb"/>
      <rect id="Rectangle_988" data-name="Rectangle 988" width="20.935" height="0.121" transform="translate(25.428 162.811)" fill="#ebebeb"/>
      <rect id="Rectangle_989" data-name="Rectangle 989" width="3.068" height="0.121" transform="translate(50.682 162.811)" fill="#ebebeb"/>
      <rect id="Rectangle_990" data-name="Rectangle 990" width="45.408" height="0.121" transform="translate(63.725 164.856)" fill="#ebebeb"/>
      <path id="Path_6935" data-name="Path 6935" d="M134.566,192.077H40.973a2.768,2.768,0,0,1-2.763-2.768V57.743A2.768,2.768,0,0,1,40.973,55h93.593a2.768,2.768,0,0,1,2.768,2.768V189.309A2.768,2.768,0,0,1,134.566,192.077ZM40.973,55.1a2.647,2.647,0,0,0-2.642,2.647V189.309a2.647,2.647,0,0,0,2.642,2.647h93.593a2.651,2.651,0,0,0,2.647-2.647V57.743a2.651,2.651,0,0,0-2.647-2.647Z" transform="translate(-19.689 -55)" fill="#ebebeb"/>
      <path id="Path_6936" data-name="Path 6936" d="M350.866,192.077h-93.6a2.773,2.773,0,0,1-2.768-2.768V57.743A2.773,2.773,0,0,1,257.268,55h93.6a2.768,2.768,0,0,1,2.758,2.743V189.309A2.768,2.768,0,0,1,350.866,192.077ZM257.268,55.1a2.651,2.651,0,0,0-2.647,2.647V189.309a2.651,2.651,0,0,0,2.647,2.647h93.6a2.651,2.651,0,0,0,2.647-2.647V57.743a2.651,2.651,0,0,0-2.647-2.647Z" transform="translate(-131.14 -55)" fill="#ebebeb"/>
      <path id="Path_6937" data-name="Path 6937" d="M143.823,216.794l-6.713,5.613,9.563,13.9,7.639-4.265a45.117,45.117,0,0,0,14.149,9.21l-.776,8.691,16.6,3.059,2.38-8.4a44.938,44.938,0,0,0,16.48-3.538l5.613,6.713,13.9-9.563-4.256-7.62a45.04,45.04,0,0,0,9.21-14.144l8.686.776,3.068-16.592-8.4-2.385a45.078,45.078,0,0,0-3.538-16.48l6.713-5.613-9.563-13.9-7.644,4.261a45.113,45.113,0,0,0-14.144-9.21l.776-8.691-16.592-3.063-2.38,8.39a45.161,45.161,0,0,0-16.48,3.538l-5.647-6.742-13.892,9.568,4.261,7.639a45.137,45.137,0,0,0-9.21,14.149l-8.691-.776-3.063,16.592,8.39,2.38a45.04,45.04,0,0,0,3.553,16.495Zm19.345-21.681a22.84,22.84,0,1,1,18.308,26.611,22.84,22.84,0,0,1-18.308-26.611Z" transform="translate(-67.956 -101.664)" fill="#f0f0f0"/>
      <path id="Path_6938" data-name="Path 6938" d="M375.353,239.744l5.245.969.751-2.651a14.318,14.318,0,0,0,5.216-1.12l1.774,2.123,4.4-3.025-1.348-2.424a14.183,14.183,0,0,0,2.908-4.469l2.748.242.969-5.24-2.656-.756a14.164,14.164,0,0,0-1.12-5.216l2.123-1.774-3.025-4.391-2.424,1.348a14.333,14.333,0,0,0-4.469-2.908l.242-2.743-5.245-.969-.751,2.651a14.338,14.338,0,0,0-5.216,1.12l-1.76-2.123-4.4,3.025,1.348,2.424a14.183,14.183,0,0,0-2.908,4.469l-2.748-.242-.969,5.24,2.651.756a14.261,14.261,0,0,0,1.12,5.216l-2.123,1.774,3.025,4.391,2.424-1.348A14.2,14.2,0,0,0,375.61,237Zm-1.43-17.329a7.222,7.222,0,1,1,5.787,8.41,7.222,7.222,0,0,1-5.787-8.41Z" transform="translate(-187.585 -133.19)" fill="#f0f0f0"/>
      <path id="Path_6939" data-name="Path 6939" d="M74.554,278.933l3.994.742.577-2.021a10.964,10.964,0,0,0,3.97-.853l1.352,1.614,3.349-2.3-1.028-1.852a10.829,10.829,0,0,0,2.215-3.393l2.094.184.737-3.994-2.021-.553a10.794,10.794,0,0,0-.853-3.975l1.619-1.352-2.307-3.345-1.837,1.028a10.925,10.925,0,0,0-3.393-2.22l.189-2.089-4-.742-.572,2.021a10.993,10.993,0,0,0-3.975.853l-1.348-1.614-3.349,2.3L71,259.215a10.8,10.8,0,0,0-2.215,3.393l-2.094-.184-.737,3.994,2.007.572a10.794,10.794,0,0,0,.853,3.975l-1.619,1.357,2.3,3.345,1.842-1.023a10.94,10.94,0,0,0,3.393,2.215Zm-1.086-13.2a5.5,5.5,0,1,1,4.406,6.408A5.5,5.5,0,0,1,73.468,265.734Z" transform="translate(-33.983 -157.444)" fill="#f0f0f0"/>
      <path id="Path_6940" data-name="Path 6940" d="M223.93,101.78l3.025.557.441-1.527a8.109,8.109,0,0,0,3.01-.645l1.023,1.226,2.53-1.745-.776-1.391a8.24,8.24,0,0,0,1.677-2.579l1.58.141L237,92.8l-1.527-.436a8.279,8.279,0,0,0-.645-3.005l1.221-1.023-1.74-2.53-1.391.776a8.24,8.24,0,0,0-2.579-1.677l.141-1.58-3.025-.562-.431,1.532a8.066,8.066,0,0,0-3.005.645l-1.023-1.226-2.535,1.745.78,1.391a8.167,8.167,0,0,0-1.677,2.579l-1.585-.141-.557,3.02,1.527.436a8.24,8.24,0,0,0,.645,3.005l-1.221,1.023,1.745,2.53,1.391-.776a8.177,8.177,0,0,0,2.574,1.677Zm-.819-9.99a5.183,5.183,0,1,1,0,.01Z" transform="translate(-112.033 -69.304)" fill="#f0f0f0"/>
      <path id="Path_6941" data-name="Path 6941" d="M329.868,158.7l2.016.368.286-1.018a5.492,5.492,0,0,0,2.007-.431l.683.819,1.687-1.163-.519-.931a5.471,5.471,0,0,0,1.12-1.716l1.057.092.373-2.016-1.023-.291a5.482,5.482,0,0,0-.427-2l.814-.683-1.163-1.687-.926.519a5.549,5.549,0,0,0-1.721-1.12l.092-1.057-2.016-.373-.286,1.023a5.487,5.487,0,0,0-2.007.427l-.683-.814-1.687,1.163.519.926a5.55,5.55,0,0,0-1.12,1.721l-1.057-.092-.368,2.012,1.018.291a5.394,5.394,0,0,0,.431,2.007l-.819.679,1.163,1.692.931-.519a5.473,5.473,0,0,0,1.716,1.12Zm-.548-6.665a2.777,2.777,0,1,1,2.225,3.233A2.777,2.777,0,0,1,329.32,152.035Z" transform="translate(-167.736 -101.896)" fill="#f0f0f0"/>
      <path id="Path_6942" data-name="Path 6942" d="M138.148,108.585l2.016.373.286-1.018a5.593,5.593,0,0,0,2.007-.431l.683.814,1.687-1.163-.519-.926a5.5,5.5,0,0,0,1.12-1.721l1.057.1.373-2.016-1.023-.291a5.507,5.507,0,0,0-.427-2.007l.814-.679-1.163-1.692-.931.519a5.376,5.376,0,0,0-1.716-1.115l.092-1.057L140.49,95.9l-.281,1.018a5.492,5.492,0,0,0-2.007.431l-.683-.814-1.672,1.158.519.931a5.5,5.5,0,0,0-1.12,1.721l-1.057-.1-.368,2.016,1.018.291a5.371,5.371,0,0,0,.431,2l-.819.683,1.163,1.692.931-.519a5.463,5.463,0,0,0,1.716,1.115Zm-.548-6.66a2.777,2.777,0,1,1,2.225,3.233A2.777,2.777,0,0,1,137.6,101.925Z" transform="translate(-68.956 -76.075)" fill="#f0f0f0"/>
      <path id="Path_6943" data-name="Path 6943" d="M325.755,331.44a9.471,9.471,0,0,0,.751,3.5l-1.425,1.192,2.031,2.942,1.619-.9a9.578,9.578,0,0,0,3,1.939l-.165,1.842,3.519.65.485-1.779a9.665,9.665,0,0,0,3.495-.751l1.192,1.42,2.947-2.026-.882-1.609a9.54,9.54,0,0,0,1.939-3l1.842.165.679-3.514L345,331.023a9.471,9.471,0,0,0-.751-3.5l1.425-1.188-2.026-2.947-1.643.9a9.461,9.461,0,0,0-3-1.939l.16-1.847-3.514-.65-.485,1.779a9.7,9.7,0,0,0-3.5.751l-1.192-1.42-2.947,2.026.906,1.619a9.549,9.549,0,0,0-1.939,3l-1.842-.165L324,330.935Zm4.847-1.1a4.847,4.847,0,1,1,3.878,5.637,4.847,4.847,0,0,1-3.878-5.637Z" transform="translate(-166.953 -191.474)" fill="#f0f0f0"/>
      <path id="Path_6944" data-name="Path 6944" d="M382.185,298.536l-5.414,1.982,5.414,1.968V304.5l-7.755-2.942v-2.113l7.755-2.942Z" transform="translate(-192.939 -179.442)" fill="#e0e0e0"/>
      <path id="Path_6945" data-name="Path 6945" d="M396.746,288.28h2.264L393.644,303.6H391.38Z" transform="translate(-201.673 -175.206)" fill="#e0e0e0"/>
      <path id="Path_6946" data-name="Path 6946" d="M415.455,299.5v2.128l-7.755,2.942v-2.031l5.414-1.968-5.414-1.982V296.57Z" transform="translate(-210.082 -179.478)" fill="#e0e0e0"/>
      <path id="Path_6947" data-name="Path 6947" d="M109.872,345.676c.776.233,1.134.722,1.134,1.89v2.7a1.11,1.11,0,0,0,1.231,1.251h.305v2.06h-.969c-2.113,0-3.194-1.081-3.194-3.025V347.5c0-.543-.286-.795-.742-.795h-.557v-2.036h.557c.456,0,.742-.252.742-.795V340.79c0-1.939,1.081-3.02,3.194-3.02h.969v2.05h-.305a1.11,1.11,0,0,0-1.231,1.251v2.7C111.006,344.949,110.647,345.438,109.872,345.676Z" transform="translate(-55.177 -200.707)" fill="#e0e0e0"/>
      <path id="Path_6948" data-name="Path 6948" d="M134.742,344.657v2.06h-.557a.693.693,0,0,0-.746.795v3.054c0,1.939-1.081,3.025-3.189,3.025h-.969v-2.06h.305a1.11,1.11,0,0,0,1.231-1.251v-2.714c0-1.168.354-1.658,1.129-1.89-.776-.237-1.129-.727-1.129-1.9v-2.71a1.11,1.11,0,0,0-1.241-1.26h-.305v-2.06h.969c2.109,0,3.189,1.081,3.189,3.02v3.059a.693.693,0,0,0,.746.795Z" transform="translate(-66.611 -200.697)" fill="#e0e0e0"/>
      <path id="Path_6950" data-name="Path 6950" d="M130.349,148.2H127.61v2.676h-2.031V148.2H122.86V146.26h2.719v-2.68h2.031v2.68h2.739Z" transform="translate(-63.308 -100.644)" fill="#e0e0e0"/>
      <path id="Path_6951" data-name="Path 6951" d="M150.034,148.2H147.3v2.676h-2.031V148.2H142.54V146.26h2.724v-2.68H147.3v2.68h2.739Z" transform="translate(-73.449 -100.644)" fill="#e0e0e0"/>
    </g>
    <g id="freepik--Shadow--inject-56" transform="translate(27.197 224.611)">
      <ellipse id="freepik--path--inject-56" cx="93.981" cy="5.487" rx="93.981" ry="5.487" fill="#f5f5f5"/>
    </g>
    <g id="freepik--program-icons--inject-56" transform="translate(142.38 73.424)">
      <rect id="Rectangle_991" data-name="Rectangle 991" width="16.66" height="16.66" rx="2.27" transform="translate(0.044 0)" fill="#16697a"/>
      <g id="Group_2267" data-name="Group 2267" transform="translate(0.044 0)" opacity="0.4">
        <rect id="Rectangle_992" data-name="Rectangle 992" width="16.66" height="16.66" rx="2.27" fill="#fff"/>
      </g>
      <path id="Path_6954" data-name="Path 6954" d="M302.01,107.246l-2.908,1.062,2.908,1.052v1.1l-4.13-1.575v-1.125l4.13-1.575Z" transform="translate(-295.873 -99.796)" fill="#fff"/>
      <path id="Path_6955" data-name="Path 6955" d="M309.77,101.76h1.207l-2.87,8.177H306.9Z" transform="translate(-300.521 -97.519)" fill="#fff"/>
      <path id="Path_6956" data-name="Path 6956" d="M319.76,107.746v1.125l-4.13,1.585v-1.086l2.908-1.052-2.908-1.062V106.18Z" transform="translate(-305.02 -99.796)" fill="#fff"/>
      <rect id="Rectangle_993" data-name="Rectangle 993" width="16.66" height="16.66" rx="2.27" transform="translate(35.675 8.88)" fill="#16697a"/>
      <g id="Group_2269" data-name="Group 2269" transform="translate(35.675 8.88)" opacity="0.4">
        <rect id="Rectangle_994" data-name="Rectangle 994" width="16.66" height="16.66" rx="2.27" fill="#fff"/>
      </g>
      <path id="Path_6965" data-name="Path 6965" d="M377.38,124.187c.4.121.582.373.582.969v1.391a.572.572,0,0,0,.635.64h.155v1.062h-.485a1.431,1.431,0,0,1-1.638-1.556v-1.57a.359.359,0,0,0-.383-.407h-.286v-1.062h.286a.359.359,0,0,0,.383-.407v-1.57a1.431,1.431,0,0,1,1.638-1.556h.485v1.062H378.6a.572.572,0,0,0-.635.64v1.391C377.962,123.814,377.778,124.066,377.38,124.187Z" transform="translate(-336.107 -106.979)" fill="#fff"/>
      <path id="Path_6966" data-name="Path 6966" d="M390.162,123.669v1.062h-.286a.359.359,0,0,0-.383.407v1.57a1.433,1.433,0,0,1-1.638,1.556h-.485V127.2h.155a.572.572,0,0,0,.635-.64v-1.391c0-.6.179-.853.582-.969-.4-.121-.582-.373-.582-.969v-1.391a.572.572,0,0,0-.635-.64h-.155V120.14h.485a1.433,1.433,0,0,1,1.638,1.556v1.57a.359.359,0,0,0,.383.407Z" transform="translate(-341.986 -106.99)" fill="#fff"/>
    </g>
    <g id="freepik--Tabs--inject-56" transform="translate(72.004 80.68)">
      <rect id="Rectangle_995" data-name="Rectangle 995" width="59.382" height="42.984" transform="translate(0 0)"/>
      <rect id="Rectangle_996" data-name="Rectangle 996" width="59.382" height="42.984" transform="translate(0 0)" fill="#fff" opacity="0.9"/>
      <rect id="Rectangle_997" data-name="Rectangle 997" width="8.269" height="42.984" transform="translate(0 0)" opacity="0.1"/>
      <rect id="Rectangle_998" data-name="Rectangle 998" width="59.382" height="4.018" transform="translate(0 0)" fill="#16697a"/>
      <g id="Group_2271" data-name="Group 2271" transform="translate(12.51 9.113)" opacity="0.2">
        <path id="Path_6973" data-name="Path 6973" d="M185.7,127.749H174.885a.485.485,0,1,1,0-.969H185.7a.485.485,0,0,1,0,.969Z" transform="translate(-174.381 -126.78)"/>
        <path id="Path_6974" data-name="Path 6974" d="M224.147,127.749H203.135a.485.485,0,1,1,0-.969h21.012a.485.485,0,1,1,0,.969Z" transform="translate(-188.937 -126.78)"/>
        <path id="Path_6975" data-name="Path 6975" d="M206.134,134.279H177.885a.485.485,0,1,1,0-.969h28.249a.485.485,0,1,1,0,.969Z" transform="translate(-175.926 -130.145)"/>
        <path id="Path_6976" data-name="Path 6976" d="M193.081,140.8h-18.2a.485.485,0,0,1,0-.969h18.2a.485.485,0,0,1,0,.969Z" transform="translate(-174.381 -133.504)"/>
        <path id="Path_6977" data-name="Path 6977" d="M232.624,140.8H219.585a.485.485,0,0,1,0-.969h13.039a.485.485,0,1,1,0,.969Z" transform="translate(-197.414 -133.504)"/>
        <path id="Path_6978" data-name="Path 6978" d="M184.933,147.329H174.885a.485.485,0,0,1,0-.969h10.048a.485.485,0,0,1,0,.969Z" transform="translate(-174.381 -136.869)"/>
        <path id="Path_6979" data-name="Path 6979" d="M218.156,147.329H202.335a.485.485,0,0,1,0-.969h15.821a.485.485,0,0,1,0,.969Z" transform="translate(-188.525 -136.869)"/>
        <path id="Path_6980" data-name="Path 6980" d="M191.4,153.859H177.885a.485.485,0,0,1,0-.969H191.4a.485.485,0,0,1,0,.969Z" transform="translate(-175.926 -140.234)"/>
        <path id="Path_6981" data-name="Path 6981" d="M193.1,160.389h-15.21a.485.485,0,0,1,0-.969H193.1a.485.485,0,0,1,0,.969Z" transform="translate(-175.926 -143.599)"/>
        <path id="Path_6982" data-name="Path 6982" d="M230,160.389H214.485a.485.485,0,0,1,0-.969H230a.485.485,0,1,1,0,.969Z" transform="translate(-194.786 -143.599)"/>
        <path id="Path_6983" data-name="Path 6983" d="M183.57,166.909h-8.725a.485.485,0,1,1,0-.969h8.725a.485.485,0,0,1,0,.969Z" transform="translate(-174.36 -146.959)"/>
        <path id="Path_6984" data-name="Path 6984" d="M222,166.909H198.975a.485.485,0,1,1,0-.969H222a.485.485,0,1,1,0,.969Z" transform="translate(-186.794 -146.959)"/>
        <path id="Path_6985" data-name="Path 6985" d="M193,173.439H177.885a.485.485,0,0,1,0-.969H193a.485.485,0,1,1,0,.969Z" transform="translate(-175.926 -150.323)"/>
        <path id="Path_6986" data-name="Path 6986" d="M223.2,173.439h-9.782a.485.485,0,1,1,0-.969H223.2a.485.485,0,0,1,0,.969Z" transform="translate(-194.235 -150.323)"/>
        <path id="Path_6987" data-name="Path 6987" d="M195.281,179.969h-17.4a.485.485,0,0,1,0-.969h17.4a.485.485,0,0,1,0,.969Z" transform="translate(-175.926 -153.688)"/>
      </g>
      <circle id="Ellipse_172" data-name="Ellipse 172" cx="0.829" cy="0.829" r="0.829" transform="translate(55.999 1.207)" fill="#fff" opacity="0.4"/>
      <circle id="Ellipse_173" data-name="Ellipse 173" cx="0.829" cy="0.829" r="0.829" transform="translate(53.086 1.207)" fill="#fff" opacity="0.4"/>
      <circle id="Ellipse_174" data-name="Ellipse 174" cx="0.829" cy="0.829" r="0.829" transform="translate(50.178 1.207)" fill="#fff" opacity="0.4"/>
      <g id="Group_2272" data-name="Group 2272" transform="translate(3.795 9.113)" opacity="0.2">
        <path id="Path_6988" data-name="Path 6988" d="M156.865,127.749h0a.485.485,0,1,1,.485-.485A.485.485,0,0,1,156.865,127.749Z" transform="translate(-156.38 -126.78)"/>
        <path id="Path_6989" data-name="Path 6989" d="M156.865,134.279h0a.485.485,0,1,1,.485-.485A.485.485,0,0,1,156.865,134.279Z" transform="translate(-156.38 -130.145)"/>
        <path id="Path_6990" data-name="Path 6990" d="M156.865,140.8h0a.485.485,0,1,1,.485-.485A.485.485,0,0,1,156.865,140.8Z" transform="translate(-156.38 -133.504)"/>
        <path id="Path_6991" data-name="Path 6991" d="M156.865,147.329h0a.485.485,0,1,1,.485-.485A.485.485,0,0,1,156.865,147.329Z" transform="translate(-156.38 -136.869)"/>
        <path id="Path_6992" data-name="Path 6992" d="M156.865,153.859h0a.485.485,0,1,1,.485-.485A.485.485,0,0,1,156.865,153.859Z" transform="translate(-156.38 -140.234)"/>
        <path id="Path_6993" data-name="Path 6993" d="M156.865,160.389h0a.485.485,0,1,1,.485-.485A.485.485,0,0,1,156.865,160.389Z" transform="translate(-156.38 -143.599)"/>
        <path id="Path_6994" data-name="Path 6994" d="M156.865,166.909h0a.485.485,0,1,1,.485-.485A.485.485,0,0,1,156.865,166.909Z" transform="translate(-156.38 -146.959)"/>
        <path id="Path_6995" data-name="Path 6995" d="M156.865,173.439h0a.485.485,0,1,1,.485-.485A.485.485,0,0,1,156.865,173.439Z" transform="translate(-156.38 -150.323)"/>
        <path id="Path_6996" data-name="Path 6996" d="M156.865,179.969h0a.485.485,0,1,1,.485-.485A.485.485,0,0,1,156.865,179.969Z" transform="translate(-156.38 -153.688)"/>
      </g>
      <rect id="Rectangle_999" data-name="Rectangle 999" width="77.811" height="49.824" transform="translate(35.355 35.074)" fill="#263238"/>
      <rect id="Rectangle_1000" data-name="Rectangle 1000" width="77.811" height="49.824" transform="translate(35.355 35.074)" fill="#fff" opacity="0.9"/>
      <rect id="Rectangle_1001" data-name="Rectangle 1001" width="12.137" height="49.824" transform="translate(35.355 35.074)" opacity="0.1"/>
      <rect id="Rectangle_1002" data-name="Rectangle 1002" width="77.811" height="4.018" transform="translate(35.355 35.074)" fill="#16697a"/>
      <path id="Path_6997" data-name="Path 6997" d="M230.872,197.261l-1.289.485,1.289.485v.485l-1.842-.7v-.485l1.842-.7Z" transform="translate(-190.02 -153.763)" fill="#fff"/>
      <path id="Path_6998" data-name="Path 6998" d="M234.34,194.76h.538l-1.28,3.65h-.538Z" transform="translate(-192.097 -152.697)" fill="#fff"/>
      <path id="Path_6999" data-name="Path 6999" d="M238.8,197.371v.485l-1.842.7v-.485l1.289-.485-1.289-.485v-.485Z" transform="translate(-194.106 -153.655)" fill="#fff"/>
      <g id="Group_2273" data-name="Group 2273" transform="translate(38.666 48.069)" opacity="0.2">
        <path id="Path_7000" data-name="Path 7000" d="M234.078,208.119H228.8a.485.485,0,0,1,0-.969h5.274a.485.485,0,1,1,0,.969Z" transform="translate(-228.32 -207.15)"/>
        <path id="Path_7001" data-name="Path 7001" d="M234.078,214.639H228.8a.485.485,0,0,1,0-.969h5.274a.485.485,0,0,1,0,.969Z" transform="translate(-228.32 -210.51)"/>
        <path id="Path_7002" data-name="Path 7002" d="M234.078,221.169H228.8a.485.485,0,0,1,0-.969h5.274a.485.485,0,0,1,0,.969Z" transform="translate(-228.32 -213.874)"/>
        <path id="Path_7003" data-name="Path 7003" d="M234.078,227.7H228.8a.485.485,0,0,1,0-.969h5.274a.485.485,0,0,1,0,.969Z" transform="translate(-228.32 -217.239)"/>
        <path id="Path_7004" data-name="Path 7004" d="M234.078,234.229H228.8a.485.485,0,1,1,0-.969h5.274a.485.485,0,1,1,0,.969Z" transform="translate(-228.32 -220.604)"/>
        <path id="Path_7005" data-name="Path 7005" d="M234.078,240.749H228.8a.485.485,0,1,1,0-.969h5.274a.485.485,0,1,1,0,.969Z" transform="translate(-228.32 -223.964)"/>
        <path id="Path_7006" data-name="Path 7006" d="M234.078,247.279H228.8a.485.485,0,1,1,0-.969h5.274a.485.485,0,1,1,0,.969Z" transform="translate(-228.32 -227.329)"/>
        <path id="Path_7007" data-name="Path 7007" d="M234.078,253.809H228.8a.485.485,0,1,1,0-.969h5.274a.485.485,0,1,1,0,.969Z" transform="translate(-228.32 -230.693)"/>
        <path id="Path_7008" data-name="Path 7008" d="M234.078,260.339H228.8a.485.485,0,0,1,0-.969h5.274a.485.485,0,1,1,0,.969Z" transform="translate(-228.32 -234.058)"/>
      </g>
      <path id="Path_7009" data-name="Path 7009" d="M259.639,208.119H248.825a.485.485,0,0,1,0-.969h10.814a.485.485,0,0,1,0,.969Z" transform="translate(-199.97 -159.081)" fill="#16697a"/>
      <path id="Path_7010" data-name="Path 7010" d="M305.261,208.119H277.075a.485.485,0,0,1,0-.969h28.186a.485.485,0,1,1,0,.969Z" transform="translate(-214.527 -159.081)" fill="#263238"/>
      <g id="Group_2274" data-name="Group 2274" transform="translate(94.946 48.069)" opacity="0.2">
        <path id="Path_7011" data-name="Path 7011" d="M353.082,208.119h-8.167a.485.485,0,1,1,0-.969h8.167a.485.485,0,0,1,0,.969Z" transform="translate(-344.43 -207.15)" fill="#263238"/>
      </g>
      <g id="Group_2275" data-name="Group 2275" transform="translate(49.824 51.229)" opacity="0.2">
        <path id="Path_7012" data-name="Path 7012" d="M280.074,214.639H251.825a.485.485,0,0,1,0-.969h28.249a.485.485,0,0,1,0,.969Z" transform="translate(-251.34 -213.67)" fill="#263238"/>
      </g>
      <path id="Path_7013" data-name="Path 7013" d="M341.795,214.639h-26.31a.485.485,0,0,1,0-.969h26.33a.485.485,0,0,1,0,.969Z" transform="translate(-234.319 -162.441)" fill="#16697a"/>
      <path id="Path_7014" data-name="Path 7014" d="M268.567,221.169H251.825a.485.485,0,0,1,0-.969h16.742a.485.485,0,1,1,0,.969Z" transform="translate(-201.516 -165.805)" fill="#263238"/>
      <path id="Path_7015" data-name="Path 7015" d="M309.965,221.169h-16.48a.485.485,0,0,1,0-.969h16.48a.485.485,0,1,1,0,.969Z" transform="translate(-222.983 -165.805)" fill="#16697a"/>
      <path id="Path_7016" data-name="Path 7016" d="M350.843,221.169h-17.8a.485.485,0,0,1,0-.969h17.8a.485.485,0,1,1,0,.969Z" transform="translate(-243.368 -165.805)" fill="#263238"/>
      <path id="Path_7017" data-name="Path 7017" d="M278.883,227.7H268.835a.485.485,0,0,1,0-.969h10.048a.485.485,0,0,1,0,.969Z" transform="translate(-210.281 -169.17)" fill="#263238"/>
      <path id="Path_7018" data-name="Path 7018" d="M307.264,227.7H296.295a.485.485,0,0,1,0-.969h10.969a.485.485,0,0,1,0,.969Z" transform="translate(-224.431 -169.17)" fill="#263238"/>
      <g id="Group_2276" data-name="Group 2276" transform="translate(84.839 57.56)" opacity="0.2">
        <path id="Path_7019" data-name="Path 7019" d="M341.854,227.7H324.065a.485.485,0,0,1,0-.969h17.789a.485.485,0,0,1,0,.969Z" transform="translate(-323.58 -226.73)" fill="#263238"/>
      </g>
      <g id="Group_2277" data-name="Group 2277" transform="translate(49.824 60.725)" opacity="0.2">
        <path id="Path_7020" data-name="Path 7020" d="M265.343,234.229H251.825a.485.485,0,0,1,0-.969h13.519a.485.485,0,0,1,0,.969Z" transform="translate(-251.34 -233.26)" fill="#263238"/>
      </g>
      <path id="Path_7021" data-name="Path 7021" d="M267.035,240.749h-15.21a.485.485,0,1,1,0-.969h15.21a.485.485,0,1,1,0,.969Z" transform="translate(-201.516 -175.895)" fill="#16697a"/>
      <path id="Path_7022" data-name="Path 7022" d="M311.262,240.749H288.345a.485.485,0,0,1,0-.969h22.917a.485.485,0,1,1,0,.969Z" transform="translate(-220.335 -175.895)" fill="#263238"/>
      <path id="Path_7023" data-name="Path 7023" d="M355.125,240.749H341.355a.485.485,0,0,1,0-.969h13.771a.485.485,0,0,1,0,.969Z" transform="translate(-247.65 -175.895)" fill="#263238"/>
      <g id="Group_2278" data-name="Group 2278" transform="translate(54.656 67.05)" opacity="0.2">
        <path id="Path_7024" data-name="Path 7024" d="M270.52,247.279h-8.725a.485.485,0,1,1,0-.969h8.725a.485.485,0,1,1,0,.969Z" transform="translate(-261.31 -246.31)" fill="#263238"/>
      </g>
      <g id="Group_2279" data-name="Group 2279" transform="translate(66.352 67.05)" opacity="0.2">
        <path id="Path_7025" data-name="Path 7025" d="M302.628,247.279h-16.7a.485.485,0,1,1,0-.969h16.7a.485.485,0,0,1,0,.969Z" transform="translate(-285.44 -246.31)" fill="#263238"/>
      </g>
      <path id="Path_7026" data-name="Path 7026" d="M343.425,247.279H327.115a.485.485,0,0,1,0-.969h16.311a.485.485,0,0,1,0,.969Z" transform="translate(-240.312 -179.26)" fill="#263238"/>
      <path id="Path_7027" data-name="Path 7027" d="M282.1,253.809H271.835a.485.485,0,1,1,0-.969H282.1a.485.485,0,1,1,0,.969Z" transform="translate(-211.827 -182.624)" fill="#263238"/>
      <g id="Group_2280" data-name="Group 2280" transform="translate(71.898 70.216)" opacity="0.2">
        <path id="Path_7028" data-name="Path 7028" d="M307.141,253.809h-9.777a.485.485,0,0,1,0-.969h9.777a.485.485,0,0,1,0,.969Z" transform="translate(-296.88 -252.84)" fill="#263238"/>
      </g>
      <path id="Path_7029" data-name="Path 7029" d="M341.751,253.809H323.865a.485.485,0,0,1,0-.969h17.886a.485.485,0,0,1,0,.969Z" transform="translate(-238.637 -182.624)" fill="#16697a"/>
      <g id="Group_2281" data-name="Group 2281" transform="translate(59.523 73.381)" opacity="0.2">
        <path id="Path_7030" data-name="Path 7030" d="M284.384,260.339H271.835a.485.485,0,1,1,0-.969h12.549a.485.485,0,1,1,0,.969Z" transform="translate(-271.35 -259.37)" fill="#263238"/>
      </g>
      <path id="Path_7031" data-name="Path 7031" d="M375,183.664a.829.829,0,1,0,.241-.589.834.834,0,0,0-.241.589Z" transform="translate(-265.237 -146.549)" fill="#fff" opacity="0.4"/>
      <circle id="Ellipse_175" data-name="Ellipse 175" cx="0.829" cy="0.829" r="0.829" transform="translate(106.875 36.286)" fill="#fff" opacity="0.4"/>
      <circle id="Ellipse_176" data-name="Ellipse 176" cx="0.829" cy="0.829" r="0.829" transform="translate(103.961 36.286)" fill="#fff" opacity="0.4"/>
    </g>
    <g id="freepik--speech-bubble--inject-56" transform="translate(36.688 118.701)">
      <path id="Path_7032" data-name="Path 7032" d="M93.9,186.42H79.98a4.285,4.285,0,0,0-4.29,4.285v12.118a4.285,4.285,0,0,0,4.285,4.29h9.874l2.908,3.824v-3.824H93.9a4.29,4.29,0,0,0,4.29-4.29V190.7A4.285,4.285,0,0,0,93.9,186.42Z" transform="translate(-75.69 -186.42)" fill="#16697a"/>
      <path id="Path_7033" data-name="Path 7033" d="M93.9,186.42H79.98a4.285,4.285,0,0,0-4.29,4.285v12.118a4.285,4.285,0,0,0,4.285,4.29h9.874l2.908,3.824v-3.824H93.9a4.29,4.29,0,0,0,4.29-4.29V190.7A4.285,4.285,0,0,0,93.9,186.42Z" transform="translate(-75.69 -186.42)" fill="#fff" opacity="0.7"/>
      <path id="Path_7034" data-name="Path 7034" d="M93.843,207.482a.645.645,0,0,1-.485-.223l-2.71-3.17a.636.636,0,1,1,.969-.824l2.225,2.627,3.679-4.333a.635.635,0,0,1,.969.819l-4.164,4.891A.635.635,0,0,1,93.843,207.482Z" transform="translate(-83.32 -194.113)" fill="#fff"/>
      <circle id="Ellipse_177" data-name="Ellipse 177" cx="6.912" cy="6.912" r="6.912" transform="translate(1.472 10.29) rotate(-45)" fill="#16697a"/>
    </g>
    <g id="freepik--Character--inject-56" transform="translate(32.779 137.768)">
      <path id="Path_7035" data-name="Path 7035" d="M203.6,362.939l10.407-.509L213,371.48s-7.222,1.377-10.446-3.761Z" transform="translate(-137.15 -296.182)" fill="#ebb376"/>
      <path id="Path_7036" data-name="Path 7036" d="M231.821,365.585l-2.37,6.563-5.351-.669,1.013-9.05Z" transform="translate(-148.255 -296.182)" fill="#ebb376"/>
      <path id="Path_7037" data-name="Path 7037" d="M163.046,362.976a42.543,42.543,0,0,0,10.7-7.944l-.713-6.742a86.223,86.223,0,0,0-15.511,3.534s3.645-13.063.31-17.823l-9.156,1.658s-9.728,20.222-3.185,27.318Z" transform="translate(-106.584 -281.533)" fill="#16697a"/>
      <path id="Path_7038" data-name="Path 7038" d="M163.022,362.971a42.654,42.654,0,0,0,10.712-7.94l-.708-6.752a86.321,86.321,0,0,0-15.511,3.524c.121-.485,3.567-13.141.3-17.813l-9.156,1.658a71.074,71.074,0,0,0-4.464,12.632c-1.309,5.521-1.692,11.468,1.284,14.692Z" transform="translate(-106.575 -281.527)" fill="#fff" opacity="0.7"/>
      <path id="Path_7039" data-name="Path 7039" d="M155.53,366.47c3.233-20.484.368-25.69.368-25.69l-11.633,10.988c-1.309,5.521-1.692,11.468,1.284,14.692Z" transform="translate(-106.611 -285.026)" opacity="0.2"/>
      <path id="Path_7040" data-name="Path 7040" d="M124.626,350.721c2.181-10.354,4.629-26.562,4.362-28.976-.388-3.509-19.476-18.545-36.043-7.6-3.393,2.235-5.123,26.339-5.715,36.577Z" transform="translate(-77.728 -269.278)" fill="#16697a"/>
      <path id="Path_7041" data-name="Path 7041" d="M124.626,350.723c2.181-10.353,4.629-26.567,4.362-28.981-.388-3.5-19.481-18.54-36.048-7.591-1.226.819-2.235,4.518-3.068,9.4-1.105,6.65-1.871,15.482-2.327,22.142-.126,1.886-.233,3.592-.315,5.026Z" transform="translate(-77.728 -269.28)" fill="#fff" opacity="0.7"/>
      <path id="Path_7042" data-name="Path 7042" d="M125.609,226.141c-5.744-2.322-19.287,6.01-20.474,20.867s6.345,10.741,6.345,10.741,1.343,5.666,6.83,3.917c0,0,4.532,5.133,8.749,3.044,0,0,5.249,5.468,8.066,2.583,0,0,3.063,3.495,5.86.848s10.79-29.664-1.75-35.912S125.609,226.141,125.609,226.141Z" transform="translate(-86.888 -225.756)" fill="#263238"/>
      <path id="Path_7043" data-name="Path 7043" d="M145.912,340.674l-.553-.048c.64-7.154-.936-10.32-.969-10.349l.485-.257C144.967,330.131,146.566,333.316,145.912,340.674Z" transform="translate(-107.181 -279.482)" fill="#263238"/>
      <path id="Path_7044" data-name="Path 7044" d="M151.222,340.278c-3.805-8.962.485-11.051.659-11.148l.228.485-.116-.252.116.252c-.039,0-3.955,1.982-.378,10.417Z" transform="translate(-109.893 -279.023)" fill="#263238"/>
      <path id="Path_7045" data-name="Path 7045" d="M119.463,314.422a59.251,59.251,0,0,0-18.744-9.093l-3.66,1.716s-6.136-7.6,4.091-10.082,24.139,4.362,27.629,10.227-6.069,7.755-6.069,7.755S121.833,313.753,119.463,314.422Z" transform="translate(-81.852 -262.178)" fill="#16697a"/>
      <path id="Path_7046" data-name="Path 7046" d="M119.463,314.422a59.251,59.251,0,0,0-18.744-9.093l-3.66,1.716s-6.136-7.6,4.091-10.082,24.139,4.362,27.629,10.227-6.069,7.755-6.069,7.755S121.833,313.753,119.463,314.422Z" transform="translate(-81.852 -262.178)" fill="#fff" opacity="0.6"/>
      <path id="Path_7047" data-name="Path 7047" d="M153.329,351.395a.485.485,0,1,1-.485-.485A.485.485,0,0,1,153.329,351.395Z" transform="translate(-111.288 -290.246)" fill="#fff"/>
      <path id="Path_7048" data-name="Path 7048" d="M146.839,351.395a.485.485,0,1,1-.485-.485A.485.485,0,0,1,146.839,351.395Z" transform="translate(-107.944 -290.246)" fill="#fff"/>
      <path id="Path_7049" data-name="Path 7049" d="M130.5,277c-.446,5.2-2.041,14.459-6.272,16.48,0,0,4.731.969,12.118,10.329,4.2-2.947,2.613-4.959,2.613-4.959-4.915-3.223-3.64-7.2-1.653-10.664Z" transform="translate(-96.793 -252.161)" fill="#ebb376"/>
      <path id="Path_7050" data-name="Path 7050" d="M141.926,286.41l4.028,6.641a15.44,15.44,0,0,0-1.217,2.521c-1.939-1.037-4.062-4.324-3.66-6.573A7.64,7.64,0,0,1,141.926,286.41Z" transform="translate(-105.449 -257.01)" opacity="0.2"/>
      <path id="Path_7051" data-name="Path 7051" d="M134.747,244.57c-1.352,8.172-2.1,11.594.931,16.854,4.551,7.915,14.638,8.289,18.346.8,3.335-6.738,4.988-18.972-1.973-24.371A10.608,10.608,0,0,0,134.747,244.57Z" transform="translate(-101.605 -230.73)" fill="#ebb376"/>
      <path id="Path_7052" data-name="Path 7052" d="M147,228.5c5.3,2.937,10.344,12.118,2.806,9.825-1.139,2.205-5.2.184-7.557-2.462-.4,1.837-4.741,3.679-7.94.834,1.546,2.23-1.086,7.857-3.824,6.888s-8.885-2.244-3.441-10.921S141.344,225.357,147,228.5Z" transform="translate(-97.122 -225.926)" fill="#263238"/>
      <path id="Path_7053" data-name="Path 7053" d="M165.468,270.22a20.283,20.283,0,0,0,1.406,5,2.791,2.791,0,0,1-2.424-.2Z" transform="translate(-117.518 -248.668)" fill="#d58745"/>
      <path id="Path_7054" data-name="Path 7054" d="M152.477,279.477a6.3,6.3,0,0,0,1.071.407.184.184,0,0,0,.233-.145.208.208,0,0,0-.15-.252,5.787,5.787,0,0,1-3.761-3.3.2.2,0,0,0-.252-.136.2.2,0,0,0-.111.262A6.083,6.083,0,0,0,152.477,279.477Z" transform="translate(-109.81 -251.667)" fill="#263238"/>
      <path id="Path_7055" data-name="Path 7055" d="M127.336,261.844a6.645,6.645,0,0,0,3.092,4.028c1.973,1.081,3.393-.771,3.248-3.073-.15-2.079-1.362-5.143-3.524-5.264S126.749,259.7,127.336,261.844Z" transform="translate(-98.319 -242.129)" fill="#ebb376"/>
      <path id="Path_7056" data-name="Path 7056" d="M154.212,253.476a.368.368,0,0,0,.31,0,3,3,0,0,1,2.821-.048.368.368,0,0,0,.528-.145.441.441,0,0,0-.16-.567,3.713,3.713,0,0,0-3.568,0,.417.417,0,0,0-.155.553A.441.441,0,0,0,154.212,253.476Z" transform="translate(-112.103 -239.412)" fill="#263238"/>
      <path id="Path_7057" data-name="Path 7057" d="M178.729,257.834a.359.359,0,0,0,.291.029.4.4,0,0,0,.247-.514,4.251,4.251,0,0,0-2.525-2.8.368.368,0,0,0-.485.276.436.436,0,0,0,.281.514,3.393,3.393,0,0,1,1.978,2.244A.427.427,0,0,0,178.729,257.834Z" transform="translate(-123.596 -240.581)" fill="#263238"/>
      <path id="Path_7058" data-name="Path 7058" d="M158.1,264.216c-.238.65-.78,1.042-1.212.882s-.587-.81-.349-1.454.78-1.042,1.207-.882S158.335,263.572,158.1,264.216Z" transform="translate(-113.386 -244.806)" fill="#263238"/>
      <path id="Path_7059" data-name="Path 7059" d="M158.76,262.694l1.609-.034S159.235,263.581,158.76,262.694Z" transform="translate(-114.586 -244.772)" fill="#263238"/>
      <path id="Path_7060" data-name="Path 7060" d="M174.895,269.548c-.238.645-.78,1.037-1.207.882s-.591-.814-.354-1.454.78-1.037,1.212-.882S175.132,268.9,174.895,269.548Z" transform="translate(-122.04 -247.555)" fill="#263238"/>
      <path id="Path_7061" data-name="Path 7061" d="M175.56,268.014l1.6-.034S176.03,268.906,175.56,268.014Z" transform="translate(-123.243 -247.513)" fill="#263238"/>
      <path id="Path_7062" data-name="Path 7062" d="M154.424,265.92a3.563,3.563,0,0,1-1.454-.305,3.679,3.679,0,0,1-2.007-2.346,4.91,4.91,0,0,1,2.564-5.744,3.616,3.616,0,0,1,5.1,2.278,4.774,4.774,0,0,1-.247,3.335h0a4.77,4.77,0,0,1-2.322,2.424A3.877,3.877,0,0,1,154.424,265.92Zm.761-8.216a3.394,3.394,0,0,0-1.391.339,4.362,4.362,0,0,0-2.268,5.08,3.054,3.054,0,0,0,4.338,1.939,4.222,4.222,0,0,0,2.05-2.128l.252.111-.252-.111a4.227,4.227,0,0,0,.218-2.952,3.122,3.122,0,0,0-1.706-2,2.908,2.908,0,0,0-1.241-.276Z" transform="translate(-110.473 -241.929)" fill="#263238"/>
      <path id="Path_7063" data-name="Path 7063" d="M171.061,271.017a3.47,3.47,0,0,1-1.454-.305,3.7,3.7,0,0,1-2.012-2.346,4.92,4.92,0,0,1,2.569-5.744,3.606,3.606,0,0,1,5.1,2.278,4.745,4.745,0,0,1-.242,3.335h0a4.508,4.508,0,0,1-3.96,2.782Zm.771-8.24a3.393,3.393,0,0,0-1.415.32,4.251,4.251,0,0,0-2.05,2.133,4.183,4.183,0,0,0-.218,2.947,3.131,3.131,0,0,0,1.706,2.007,3.685,3.685,0,0,0,4.682-2.2h0a4.251,4.251,0,0,0,.218-2.952,3.136,3.136,0,0,0-1.706-2,3.03,3.03,0,0,0-1.217-.233Z" transform="translate(-119.044 -244.555)" fill="#263238"/>
      <path id="Path_7064" data-name="Path 7064" d="M166.728,269.164a.247.247,0,0,0-.141-.155,1.008,1.008,0,0,0-.625.092l-.242-.485a1.488,1.488,0,0,1,1.066-.112.8.8,0,0,1,.485.485Z" transform="translate(-118.172 -247.757)" fill="#263238"/>
      <rect id="Rectangle_1003" data-name="Rectangle 1003" width="0.556" height="6.874" transform="translate(35.134 16.751) rotate(-72.646)" fill="#263238"/>
      <path id="Path_7065" data-name="Path 7065" d="M111.825,348.558s-12.753,9.772-23.945,9.21c.456-6.66,1.221-15.511,2.327-22.142,1.144-1.26,1.9-2.026,1.9-2.026l6.786,5.075-1.653,2.075s10.271-.523,13.848,0Z" transform="translate(-78.063 -281.326)" opacity="0.2"/>
      <path id="Path_7066" data-name="Path 7066" d="M139.66,346.084,149.868,344l.364,9.1s-6.927,2.453-10.892-2.138Z" transform="translate(-104.579 -286.685)" fill="#ebb376"/>
      <path id="Path_7067" data-name="Path 7067" d="M168.166,346.118l-1.348,6.844-5.395.15-.364-9.1Z" transform="translate(-115.771 -286.691)" fill="#ebb376"/>
      <path id="Path_7068" data-name="Path 7068" d="M136.676,348.3l.5,7.023-2.54,1.139L133.55,348.3Z" transform="translate(-101.596 -288.901)" fill="#16697a"/>
      <path id="Path_7069" data-name="Path 7069" d="M136.676,348.3l.5,7.023-2.54,1.139L133.55,348.3Z" transform="translate(-101.596 -288.901)" fill="#fff" opacity="0.6"/>
      <path id="Path_7070" data-name="Path 7070" d="M86.493,314.78a11.808,11.808,0,0,0-7,4.052c-3.078,3.616-13.926,14.357-11.517,23.126s25.607,2.244,32.694-2.768l-1.086-8.163-16.068,1.178,4.954-3.262C91.864,319.491,86.493,314.78,86.493,314.78Z" transform="translate(-67.626 -271.629)" fill="#16697a"/>
      <path id="Path_7071" data-name="Path 7071" d="M86.493,314.78a11.808,11.808,0,0,0-7,4.052c-3.078,3.616-13.926,14.357-11.517,23.126s25.607,2.244,32.694-2.768l-1.086-8.163-16.068,1.178,4.954-3.262C91.864,319.491,86.493,314.78,86.493,314.78Z" transform="translate(-67.626 -271.629)" fill="#fff" opacity="0.7"/>
      <path id="Path_7072" data-name="Path 7072" d="M202.56,363.28l2.923-.49v7.833l-2.317.378Z" transform="translate(-137.156 -296.368)" fill="#16697a"/>
      <path id="Path_7073" data-name="Path 7073" d="M202.56,363.28l2.923-.49v7.833l-2.317.378Z" transform="translate(-137.156 -296.368)" fill="#fff" opacity="0.6"/>
      <path id="Path_7074" data-name="Path 7074" d="M183.048,374.776a9.425,9.425,0,0,1,.063-1.284l.087-.645-.625.368-.373.223a2.988,2.988,0,0,1-.378.141,1.124,1.124,0,0,1-.679,0,1.246,1.246,0,0,1-.543-.393,2.274,2.274,0,0,1-.383-.659L179.669,371l-.388,1.619c-.039.16-.063.325-.092.485a4.435,4.435,0,0,1-.141.451,1.454,1.454,0,0,1-.451.616.97.97,0,0,1-.732.063,3.02,3.02,0,0,1-.863-.378l-.843-.528.339.858a7.21,7.21,0,0,1,.349,1.125,3.416,3.416,0,0,1,.078.582.921.921,0,0,1-.126.572.931.931,0,0,0,.33-.543,2.608,2.608,0,0,0,.087-.64,4.424,4.424,0,0,0,0-.509,4.036,4.036,0,0,0,.436.213,1.721,1.721,0,0,0,1.381-.034,2.075,2.075,0,0,0,.906-1.028v-.063a1.847,1.847,0,0,0,2.157.461,3.329,3.329,0,0,0,.412-.223s0,.034,0,.053a6.485,6.485,0,0,0,.141.679,3.539,3.539,0,0,0,.242.654,1.508,1.508,0,0,0,.422.543,1.687,1.687,0,0,1-.208-.616,4.757,4.757,0,0,1-.058-.635Z" transform="translate(-123.552 -300.598)" fill="#16697a"/>
      <path id="Path_7075" data-name="Path 7075" d="M215.654,352.556a2.773,2.773,0,0,1-1.12-.121,4.064,4.064,0,0,1-1.052-.485,3.151,3.151,0,0,1-.78-.839,4.363,4.363,0,0,1-.519-1.042l-.32-.969-.543.858a4.663,4.663,0,0,1-.834.969,1.561,1.561,0,0,1-.969.446H209.4l-.145-.029a1.357,1.357,0,0,1-.3-.073,3.626,3.626,0,0,1-.587-.252,5.026,5.026,0,0,1-1.042-.776l-.843-.81.174,1.11a8.9,8.9,0,0,1,.111,1.793,2.491,2.491,0,0,1-.17.824.548.548,0,0,1-.591.339h-.218l.068.179q.213.548.436,1.091c-.044-.325-.1-.65-.155-.969h.092a1.536,1.536,0,0,0,.286-.048,2.255,2.255,0,0,0,.257-.155c.063-.068.131-.141.189-.213a2.554,2.554,0,0,0,.364-.969,6.171,6.171,0,0,0,.107-.969h0a5.529,5.529,0,0,0,.485.359,4.294,4.294,0,0,0,.717.354,2.511,2.511,0,0,0,.839.189,2.458,2.458,0,0,0,1.619-.64,4.5,4.5,0,0,0,.528-.523,5.532,5.532,0,0,0,.31.485A4.013,4.013,0,0,0,213,352.682a4.159,4.159,0,0,0,1.343.523,3.92,3.92,0,0,0,.926.068c-.039.1-.082.194-.116.3a6.589,6.589,0,0,0-.2.853,3.335,3.335,0,0,0-.039.877,1.735,1.735,0,0,0,.257.824,1.813,1.813,0,0,1-.063-.819,4.169,4.169,0,0,1,.189-.8,8.242,8.242,0,0,1,.7-1.454l.305-.519Z" transform="translate(-138.82 -289.313)" fill="#16697a"/>
    </g>
    <g id="freepik--Table--inject-56" transform="translate(28.705 219.066)">
      <path id="Path_7076" data-name="Path 7076" d="M2.152,0H172.141a2.152,2.152,0,0,1,2.152,2.152V7.387H0V2.152A2.152,2.152,0,0,1,2.152,0Z" transform="translate(180.032 10.591) rotate(180)" fill="#16697a"/>
      <rect id="Rectangle_1004" data-name="Rectangle 1004" width="174.298" height="3.694" transform="translate(180.032 6.893) rotate(180)" opacity="0.2"/>
      <path id="Path_7077" data-name="Path 7077" d="M61.3,397.644h181.6a2.084,2.084,0,0,0,2.084-2.079h0a2.084,2.084,0,0,0-2.084-2.084H61.3a2.084,2.084,0,0,0-2.084,2.084h0A2.084,2.084,0,0,0,61.3,397.644Z" transform="translate(-59.22 -393.48)" fill="#16697a"/>
    </g>
    <g id="freepik--device-2--inject-56" transform="translate(148.982 192.483)">
      <path id="Path_7078" data-name="Path 7078" d="M373.321,339.783l-5.3,24.052A1.808,1.808,0,0,1,366.3,365.2H337.331a1.168,1.168,0,0,1-1.086-1.512l5.293-23.867a1.658,1.658,0,0,1,1.721-1.178h28.967C373,338.664,373.49,339.018,373.321,339.783Z" transform="translate(-322.217 -338.638)" fill="#263238"/>
      <path id="Path_7079" data-name="Path 7079" d="M374.361,339.782l-5.3,24.052a1.808,1.808,0,0,1-1.721,1.367H339.355a1.168,1.168,0,0,1-1.091-1.512l5.3-23.867a1.643,1.643,0,0,1,1.721-1.178h27.978C374.042,338.663,374.531,339.017,374.361,339.782Z" transform="translate(-323.258 -338.637)" fill="#fff" opacity="0.4"/>
      <path id="Path_7080" data-name="Path 7080" d="M370.436,365.259l5.274-23.925c.174-.785-.315-1.139-1.1-1.139H346.637a1.653,1.653,0,0,0-1.721,1.178l-5.356,24.2Z" transform="translate(-323.952 -339.436)" fill="#16697a"/>
      <path id="Path_7081" data-name="Path 7081" d="M375.715,341.328l-2.782,12.641-2.5,11.289-16.529.17-14.338.141,5.332-24.2a1.643,1.643,0,0,1,1.716-1.178h28.012C375.4,340.194,375.89,340.552,375.715,341.328Z" transform="translate(-323.957 -339.436)" fill="#fff" opacity="0.4"/>
      <path id="Path_7082" data-name="Path 7082" d="M373.582,368.62l-2.5,11.289-16.529.17H340.83l2.244-10.324a1.454,1.454,0,0,1,1.406-1.134Z" transform="translate(-324.607 -354.087)" opacity="0.2"/>
      <path id="Path_7083" data-name="Path 7083" d="M373.4,370.606a1.643,1.643,0,0,0-1.721-1.173H343.7c-.776,0-1.265.349-1.1,1.134l2.123,9.626h-4.726a.446.446,0,1,0,0,.892h34.463a1.013,1.013,0,0,0,.969-1.236Z" transform="translate(-323.952 -354.503)" fill="#16697a"/>
      <path id="Path_7084" data-name="Path 7084" d="M373.4,370.606a1.643,1.643,0,0,0-1.721-1.173H343.7c-.776,0-1.265.349-1.1,1.134l2.123,9.626h-4.726a.446.446,0,1,0,0,.892h34.463a1.013,1.013,0,0,0,.969-1.236Z" transform="translate(-323.952 -354.503)" fill="#fff" opacity="0.4"/>
      <path id="Path_7085" data-name="Path 7085" d="M336.807,383.91h-1.624l-.2.877h1.58Z" transform="translate(-321.592 -361.966)"/>
      <path id="Path_7086" data-name="Path 7086" d="M312.314,388.83h-4.677a.271.271,0,0,1-.276-.276.276.276,0,0,1,.276-.276h4.677a5.114,5.114,0,0,0,4-1.915,5.662,5.662,0,0,1,4.435-2.123h.824a.281.281,0,0,1,.276.276.276.276,0,0,1-.276.276h-.814a5.114,5.114,0,0,0-4,1.915A5.666,5.666,0,0,1,312.314,388.83Z" transform="translate(-307.36 -362.136)"/>
    </g>
    <g id="freepik--device-1--inject-56" transform="translate(75.993 175.49)">
      <path id="Path_7087" data-name="Path 7087" d="M156.78,386.65v2.021c0,.911,1.1,1.289,2.012,1.289h71.049c.9,0,1.973-.378,1.973-1.289V386.65Z" transform="translate(-156.78 -346.385)" fill="#263238"/>
      <path id="Path_7088" data-name="Path 7088" d="M156.78,386.65v2.021c0,.911,1.1,1.289,2.012,1.289h71.049c.9,0,1.973-.378,1.973-1.289V386.65Z" transform="translate(-156.78 -346.385)" fill="#fff" opacity="0.4"/>
      <path id="Path_7089" data-name="Path 7089" d="M206.72,386.65v2.021c0,.911,1.081,1.289,1.992,1.289h46.862c.9,0,1.973-.378,1.973-1.289V386.65Z" transform="translate(-182.513 -346.385)" opacity="0.2"/>
      <path id="Path_7090" data-name="Path 7090" d="M273.173,305.4l-8.458,38.365a2.879,2.879,0,0,1-2.743,2.191H215.763a1.87,1.87,0,0,1-1.735-2.424l8.449-38.074a2.643,2.643,0,0,1,2.748-1.876h46.2C272.669,303.585,273.449,304.147,273.173,305.4Z" transform="translate(-186.249 -303.58)" fill="#263238"/>
      <path id="Path_7091" data-name="Path 7091" d="M274.835,305.4l-8.458,38.365a2.879,2.879,0,0,1-2.743,2.191H219a1.874,1.874,0,0,1-1.745-2.424l8.458-38.074a2.636,2.636,0,0,1,2.748-1.876H273.09C274.331,303.585,275.111,304.147,274.835,305.4Z" transform="translate(-187.911 -303.58)" fill="#fff" opacity="0.4"/>
      <path id="Path_7092" data-name="Path 7092" d="M278.827,341.243h0c0,3.286-3.519,5.957-6.1,5.957s-4.11-2.671-3.393-5.957,3.3-5.841,5.817-5.943c-.737,3.286.839,5.943,3.393,5.943A1.513,1.513,0,0,0,278.827,341.243Z" transform="translate(-214.685 -319.925)" opacity="0.2"/>
    </g>
  </g>
</svg>
