<svg xmlns="http://www.w3.org/2000/svg" width="22" height="22" viewBox="0 0 22 22">
  <g id="language-svgrepo-com" transform="translate(0.103 0.103)">
    <path id="Tracé_7676" data-name="Tracé 7676" d="M18.952,3H9.265V6.027h1.211V4.211h8.476a.572.572,0,0,1,.605.605v6.66a.572.572,0,0,1-.605.605h-7.87v4.238H7.873l-2.24,1.756V16.319H3.816a.572.572,0,0,1-.605-.605V9.054a.572.572,0,0,1,.605-.605h7.87V7.238H3.816A1.784,1.784,0,0,0,2,9.054v6.66A1.784,1.784,0,0,0,3.816,17.53h.605v3.088L8.236,17.53h4.056V13.292h6.66a1.784,1.784,0,0,0,1.816-1.816V4.816A1.784,1.784,0,0,0,18.952,3Z" transform="translate(-0.789 -1.184)" fill="#16697a"/>
    <path id="Tracé_7677" data-name="Tracé 7677" d="M6.2,19.388H7.653l.363-.969H9.893l.363.969h1.453L9.651,14H8.2Zm2.724-3.875L9.53,17.39H8.319Z" transform="translate(-2.446 -5.524)" fill="#16697a"/>
    <path id="Tracé_7678" data-name="Tracé 7678" d="M20,12.66a5.688,5.688,0,0,0,2.422-.605,5.9,5.9,0,0,0,2.422.605V11.449a4.149,4.149,0,0,1-1.271-.242,4.6,4.6,0,0,0,1.271-3.39V7.211H23.027V6H21.816V7.211H20V8.422h3.572a3.043,3.043,0,0,1-1.15,2.179,3.538,3.538,0,0,1-.969-1.271H20.182a4.4,4.4,0,0,0,1.09,1.877A3.479,3.479,0,0,1,20,11.449Z" transform="translate(-7.892 -2.368)" fill="#16697a"/>
    <rect id="Rectangle_1874" data-name="Rectangle 1874" width="22" height="22" transform="translate(-0.103 -0.103)" fill="rgba(0,0,0,0)"/>
  </g>
</svg>
