<svg xmlns="http://www.w3.org/2000/svg" width="32.968" height="16.484" viewBox="0 0 32.968 16.484">
  <path id="language-svgrepo-com" d="M7.835,103.222c-.18-.623-.4-1.71-.4-1.71H7.407s-.222,1.087-.4,1.71l-.572,1.932H8.4ZM31.731,96H17.308v16.484H31.731a1.233,1.233,0,0,0,1.236-1.236V97.236A1.233,1.233,0,0,0,31.731,96ZM30.5,102.181a.62.62,0,0,1-.618.618H29.29a9.23,9.23,0,0,1-2.2,3.6,15.967,15.967,0,0,0,1.344.927.62.62,0,0,1,.211.835l-.407.716a.62.62,0,0,1-.86.221,17.922,17.922,0,0,1-1.824-1.283,18.164,18.164,0,0,1-1.824,1.283.62.62,0,0,1-.86-.221l-.407-.716a.618.618,0,0,1,.216-.835,14.694,14.694,0,0,0,1.344-.927,11.952,11.952,0,0,1-1.082-1.324.616.616,0,0,1,.191-.881l.335-.2.376-.222a.623.623,0,0,1,.824.175,9.823,9.823,0,0,0,.9,1.077,7.879,7.879,0,0,0,1.545-2.225H21.223a.62.62,0,0,1-.618-.618v-.824a.62.62,0,0,1,.618-.618h3.3v-.824a.62.62,0,0,1,.618-.618h.824a.62.62,0,0,1,.618.618v.824h3.3a.62.62,0,0,1,.618.618ZM0,97.236v14.011a1.233,1.233,0,0,0,1.236,1.236H15.66V96H1.236A1.233,1.233,0,0,0,0,97.236Zm3.034,11.132L6,99.657a.616.616,0,0,1,.587-.417H8.257a.628.628,0,0,1,.587.417l2.962,8.711a.62.62,0,0,1-.587.819H10.04a.618.618,0,0,1-.592-.443L8.963,107.1h-3.1l-.469,1.638a.623.623,0,0,1-.592.448H3.621A.622.622,0,0,1,3.034,108.368Z" transform="translate(0 -96)" fill="#202020"/>
</svg>
