<svg xmlns="http://www.w3.org/2000/svg" width="19.914" height="19.914" viewBox="0 0 19.914 19.914">
  <path id="Path_7511" data-name="Path 7511" d="M19.855,10.94v0l-3.6-5.007a2.031,2.031,0,0,0-1.477-1.766L10.91,3.245V2.225a.95.95,0,0,0-.244-.636.953.953,0,1,0-1.42,0A.949.949,0,0,0,9,2.225v1.02l-3.868.919A2.031,2.031,0,0,0,3.659,5.931L.06,10.938v0A.316.316,0,0,0,0,11.123a2.015,2.015,0,0,0,2.013,2.013H5.932a2.015,2.015,0,0,0,2.013-2.013.316.316,0,0,0-.059-.184v0L4.592,6.357H8.05a.318.318,0,0,0,0-.636H4.338a1.388,1.388,0,0,1,.945-.938L9,3.9v9.449h-.53a.318.318,0,0,0-.008.635L7.6,16.756a1.593,1.593,0,0,0-1.318,1.253H4.873a.953.953,0,1,0,0,1.907H15.041a.953.953,0,0,0,0-1.907H13.632a1.593,1.593,0,0,0-1.318-1.253l-.867-2.773a.318.318,0,0,0-.008-.635h-.53V3.9l3.721.884a1.388,1.388,0,0,1,.945.938H11.864a.318.318,0,0,0,0,.636h3.458l-3.293,4.581v0a.316.316,0,0,0-.059.183,2.015,2.015,0,0,0,2.013,2.013H17.9a2.015,2.015,0,0,0,2.013-2.013A.316.316,0,0,0,19.855,10.94ZM5.932,12.5H2.013a1.379,1.379,0,0,1-1.34-1.059h6.6A1.38,1.38,0,0,1,5.932,12.5Zm1.075-1.695H.938L3.972,6.583ZM9.957.637a.318.318,0,1,1-.318.318A.318.318,0,0,1,9.957.637ZM9.639,2.225a.318.318,0,1,1,.636,0V13.348H9.639Zm3.335,15.783H7.838a.318.318,0,0,0,0,.636h7.2a.318.318,0,1,1,0,.636H4.873a.318.318,0,1,1,0-.636H6.567a.318.318,0,0,0,.318-.318.954.954,0,0,1,.953-.953h4.237A.956.956,0,0,1,12.974,18.008Zm-1.331-1.271H8.271l.861-2.754h1.651Zm4.3-10.154,3.035,4.222H12.907ZM17.9,12.5H13.982a1.379,1.379,0,0,1-1.34-1.059h6.6A1.379,1.379,0,0,1,17.9,12.5Z" transform="translate(0 -0.001)"/>
</svg>
