<svg xmlns="http://www.w3.org/2000/svg" width="258.363" height="548.507" viewBox="0 0 258.363 548.507">
  <g id="Groupe_2727" data-name="Groupe 2727" transform="translate(-81.535 -169.031)">
    <g id="people-svgrepo-com" transform="matrix(-0.914, 0.407, -0.407, -0.914, 129.899, 195.604)" opacity="0.5">
      <path id="Tracé_7644" data-name="Tracé 7644" d="M0,3.226A25.571,25.571,0,0,1,3.037,0c0,.1-.017.188-.017.285A8.537,8.537,0,0,0,8.508,8.227a1.7,1.7,0,0,1,.3,3.028A5.081,5.081,0,1,0,14.94,19.3a10.1,10.1,0,0,0,3.432,1.214A8.478,8.478,0,1,1,4.94,10.182,12,12,0,0,1,0,3.226Zm39.991,0a12,12,0,0,1-4.94,6.96A8.477,8.477,0,1,1,21.618,20.517,10.1,10.1,0,0,0,25.051,19.3a5.081,5.081,0,1,0,6.135-8.046,1.7,1.7,0,0,1,.3-3.028A8.537,8.537,0,0,0,36.971.286c0-.1-.014-.188-.017-.283A25.574,25.574,0,0,1,39.991,3.226Z" transform="translate(0 5.033)" fill="#fff"/>
      <path id="Tracé_7645" data-name="Tracé 7645" d="M23.609,1.442a11.969,11.969,0,0,1-5.237,8.681,8.488,8.488,0,1,1-13.136,0A11.97,11.97,0,0,1,0,1.441,25.331,25.331,0,0,1,3.341,0c0,.076-.024.148-.024.226A8.54,8.54,0,0,0,8.805,8.167a1.7,1.7,0,0,1,.3,3.03A5.031,5.031,0,0,0,6.712,15.5a5.093,5.093,0,0,0,10.185,0,5.032,5.032,0,0,0-2.39-4.307,1.7,1.7,0,0,1,.3-3.03A8.54,8.54,0,0,0,20.292.226c0-.078-.02-.149-.022-.226a25.327,25.327,0,0,1,3.339,1.441Z" transform="translate(8.191 0)" fill="#fff"/>
    </g>
    <g id="people-svgrepo-com-2" data-name="people-svgrepo-com" transform="matrix(0.914, 0.407, -0.407, 0.914, 304.789, 165.289)" opacity="0.5">
      <path id="Tracé_7644-2" data-name="Tracé 7644" d="M.221,24.827a25.571,25.571,0,0,0,3.037,3.225c0-.1-.017-.188-.017-.285a8.537,8.537,0,0,1,5.488-7.941,1.7,1.7,0,0,0,.3-3.028,5.081,5.081,0,1,1,6.135-8.043,10.1,10.1,0,0,1,3.432-1.214A8.477,8.477,0,1,0,5.161,17.87a12,12,0,0,0-4.94,6.956Zm39.99,0a12,12,0,0,0-4.94-6.96A8.477,8.477,0,1,0,21.839,7.536,10.1,10.1,0,0,1,25.271,8.75,5.081,5.081,0,1,1,31.406,16.8a1.7,1.7,0,0,0,.3,3.028,8.537,8.537,0,0,1,5.488,7.943c0,.1-.014.188-.017.283A25.573,25.573,0,0,0,40.211,24.827Z" transform="translate(0 0)" fill="#fff"/>
      <path id="Tracé_7645-2" data-name="Tracé 7645" d="M28.655,29.548a11.969,11.969,0,0,0-5.237-8.681,8.488,8.488,0,1,0-13.135,0,11.969,11.969,0,0,0-5.237,8.681,25.331,25.331,0,0,0,3.341,1.441c0-.076-.024-.148-.024-.226a8.54,8.54,0,0,1,5.488-7.941,1.7,1.7,0,0,0,.3-3.03,5.031,5.031,0,0,1-2.39-4.307,5.093,5.093,0,0,1,10.185,0,5.031,5.031,0,0,1-2.39,4.307,1.7,1.7,0,0,0,.3,3.03,8.54,8.54,0,0,1,5.488,7.941c0,.078-.02.149-.022.226a25.325,25.325,0,0,0,3.339-1.441Z" transform="translate(3.365 2.096)" fill="#fff"/>
    </g>
    <g id="people-svgrepo-com-3" data-name="people-svgrepo-com" transform="matrix(0.914, 0.407, -0.407, 0.914, 195.367, 678.031)" opacity="0.5">
      <path id="Tracé_7644-3" data-name="Tracé 7644" d="M0,20.83a25.57,25.57,0,0,0,3.037,3.225c0-.1-.017-.188-.017-.285a8.537,8.537,0,0,1,5.488-7.941,1.7,1.7,0,0,0,.3-3.028,5.081,5.081,0,1,1,6.135-8.043,10.1,10.1,0,0,1,3.433-1.214A8.478,8.478,0,1,0,4.94,13.873,12,12,0,0,0,0,20.83Zm39.991,0a12,12,0,0,0-4.94-6.96A8.477,8.477,0,1,0,21.619,3.538a10.1,10.1,0,0,1,3.432,1.214A5.081,5.081,0,1,1,31.186,12.8a1.7,1.7,0,0,0,.3,3.028,8.537,8.537,0,0,1,5.488,7.943c0,.1-.014.188-.017.283A25.575,25.575,0,0,0,39.991,20.829Z" transform="translate(0 0)" fill="#fff"/>
      <path id="Tracé_7645-3" data-name="Tracé 7645" d="M23.61,22.546a11.969,11.969,0,0,0-5.237-8.681,8.488,8.488,0,1,0-13.136,0A11.97,11.97,0,0,0,0,22.546a25.331,25.331,0,0,0,3.341,1.441c0-.076-.024-.148-.024-.226A8.541,8.541,0,0,1,8.805,15.82a1.7,1.7,0,0,0,.3-3.03,5.031,5.031,0,0,1-2.39-4.307,5.093,5.093,0,0,1,10.185,0,5.032,5.032,0,0,1-2.39,4.307,1.7,1.7,0,0,0,.3,3.03,8.54,8.54,0,0,1,5.488,7.941c0,.078-.02.149-.022.226a25.327,25.327,0,0,0,3.339-1.441Z" transform="translate(8.191 5.101)" fill="#fff"/>
    </g>
  </g>
</svg>
