<svg id="Group_481" data-name="Group 481" xmlns="http://www.w3.org/2000/svg" width="17.184" height="17.184" viewBox="0 0 17.184 17.184">
  <path id="Path_699" data-name="Path 699" d="M985.874,619.506a8.592,8.592,0,1,1-8.592-8.592A8.592,8.592,0,0,1,985.874,619.506Z" transform="translate(-968.69 -610.914)" fill="#0173b2"/>
  <g id="Group_478" data-name="Group 478" transform="translate(3.222 3.222)">
    <rect id="Rectangle_23" data-name="Rectangle 23" width="2.506" height="7.16" transform="translate(0 3.58)" fill="#fff"/>
    <path id="Path_700" data-name="Path 700" d="M978.943,622.42a1.253,1.253,0,1,0-1.253-1.253A1.253,1.253,0,0,0,978.943,622.42Z" transform="translate(-977.69 -619.914)" fill="#fff"/>
    <path id="Path_701" data-name="Path 701" d="M995.492,633.139c0-1.932-.417-3.225-2.669-3.225a2.243,2.243,0,0,0-2.106.966h-.031v-.966h-2v7.16h2.087v-3.549c0-.936.177-1.842,1.335-1.842,1.141,0,1.233,1.07,1.233,1.9v3.489h2.148Z" transform="translate(-984.752 -626.334)" fill="#fff"/>
  </g>
  <path id="Path_702" data-name="Path 702" d="M985.874,619.506a8.592,8.592,0,1,1-8.592-8.592A8.592,8.592,0,0,1,985.874,619.506Z" transform="translate(-968.69 -610.914)" fill="#0173b2"/>
  <g id="Group_479" data-name="Group 479" transform="translate(3.222 3.222)">
    <rect id="Rectangle_24" data-name="Rectangle 24" width="2.506" height="7.16" transform="translate(0 3.58)" fill="#fff"/>
    <path id="Path_703" data-name="Path 703" d="M978.943,622.42a1.253,1.253,0,1,0-1.253-1.253A1.253,1.253,0,0,0,978.943,622.42Z" transform="translate(-977.69 -619.914)" fill="#fff"/>
    <path id="Path_704" data-name="Path 704" d="M995.492,633.139c0-1.932-.417-3.225-2.669-3.225a2.243,2.243,0,0,0-2.106.966h-.031v-.966h-2v7.16h2.087v-3.549c0-.936.177-1.842,1.335-1.842,1.141,0,1.233,1.07,1.233,1.9v3.489h2.148Z" transform="translate(-984.752 -626.334)" fill="#fff"/>
  </g>
  <path id="Path_705" data-name="Path 705" d="M985.874,619.506a8.592,8.592,0,1,1-8.592-8.592A8.592,8.592,0,0,1,985.874,619.506Z" transform="translate(-968.69 -610.914)" fill="#0173b2"/>
  <g id="Group_480" data-name="Group 480" transform="translate(3.222 3.222)">
    <rect id="Rectangle_25" data-name="Rectangle 25" width="2.506" height="7.16" transform="translate(0 3.58)" fill="#fff"/>
    <path id="Path_706" data-name="Path 706" d="M978.943,622.42a1.253,1.253,0,1,0-1.253-1.253A1.253,1.253,0,0,0,978.943,622.42Z" transform="translate(-977.69 -619.914)" fill="#fff"/>
    <path id="Path_707" data-name="Path 707" d="M995.492,633.139c0-1.932-.417-3.225-2.669-3.225a2.243,2.243,0,0,0-2.106.966h-.031v-.966h-2v7.16h2.087v-3.549c0-.936.177-1.842,1.335-1.842,1.141,0,1.233,1.07,1.233,1.9v3.489h2.148Z" transform="translate(-984.752 -626.334)" fill="#fff"/>
  </g>
</svg>
