<svg id="logo-instagram" xmlns="http://www.w3.org/2000/svg" width="23" height="23" viewBox="0 0 23 23">
  <path id="Shape" d="M11.5,23c-3.1,0-3.509-.013-4.741-.069A6.857,6.857,0,0,1,1.931,21.07,6.852,6.852,0,0,1,.069,16.241C.013,15.009,0,14.6,0,11.5S.013,7.991.069,6.759A6.848,6.848,0,0,1,1.931,1.931,6.849,6.849,0,0,1,6.759.069C7.991.013,8.4,0,11.5,0s3.509.013,4.741.069A6.849,6.849,0,0,1,21.07,1.931a6.854,6.854,0,0,1,1.861,4.829C22.987,7.991,23,8.4,23,11.5s-.013,3.509-.069,4.741A6.857,6.857,0,0,1,21.07,21.07a6.857,6.857,0,0,1-4.829,1.861C15.009,22.987,14.6,23,11.5,23Zm0-20.929c-3.073,0-3.436.012-4.648.068A4.715,4.715,0,0,0,3.4,3.4,5,5,0,0,0,2.139,6.853c-.056,1.211-.068,1.575-.068,4.648s.012,3.436.068,4.647A4.716,4.716,0,0,0,3.4,19.6a5.008,5.008,0,0,0,3.457,1.256c1.194.055,1.555.067,4.648.067,3.069,0,3.433-.012,4.647-.067A4.724,4.724,0,0,0,19.6,19.6a5.009,5.009,0,0,0,1.256-3.458c.055-1.194.067-1.555.067-4.647,0-3.069-.012-3.433-.067-4.648A4.722,4.722,0,0,0,19.6,3.4a5,5,0,0,0-3.458-1.256C14.937,2.084,14.573,2.072,11.5,2.072Z" fill="#fff"/>
  <path id="Shape-2" data-name="Shape" d="M5.75,11.5A5.75,5.75,0,1,1,11.5,5.75,5.757,5.757,0,0,1,5.75,11.5Zm0-9.482A3.732,3.732,0,1,0,9.482,5.75,3.737,3.737,0,0,0,5.75,2.018Z" transform="translate(6.273 6.273)" fill="#fff"/>
  <circle id="Oval" cx="1.568" cy="1.568" r="1.568" transform="translate(15.682 4.182)" fill="#fff"/>
</svg>
