<svg xmlns="http://www.w3.org/2000/svg" width="21" height="19" viewBox="0 0 21 19">
  <path id="Path" d="M21,2.2a8.815,8.815,0,0,1-2.494.784A4.668,4.668,0,0,0,20.388.343a8.893,8.893,0,0,1-2.756,1.175A4.157,4.157,0,0,0,14.481,0a4.572,4.572,0,0,0-4.287,4.8,4.246,4.246,0,0,0,.131,1.077A11.88,11.88,0,0,1,1.444.832a5.482,5.482,0,0,0-.569,2.4A4.967,4.967,0,0,0,2.8,7.247,4.647,4.647,0,0,1,.831,6.66v.049a4.737,4.737,0,0,0,3.456,4.75,4.286,4.286,0,0,1-1.137.147,4.811,4.811,0,0,1-.831-.1,4.371,4.371,0,0,0,4.025,3.33,8.179,8.179,0,0,1-5.337,2.057A6.632,6.632,0,0,1,0,16.845,11.251,11.251,0,0,0,6.606,19c7.919,0,12.25-7.345,12.25-13.711V4.652A8.416,8.416,0,0,0,21,2.2Z" fill="#fff"/>
</svg>
