<svg id="logo-linkedin" xmlns="http://www.w3.org/2000/svg" width="23" height="23" viewBox="0 0 23 23">
  <path id="Shape" d="M22.042,23H.959A.96.96,0,0,1,0,22.042V.959A.96.96,0,0,1,.959,0H22.042A.96.96,0,0,1,23,.959V22.042A.96.96,0,0,1,22.042,23ZM14.423,11.356c1.773,0,1.773,1.621,1.773,2.923V19.6H19.55V13.56a6.946,6.946,0,0,0-.743-3.725,3.589,3.589,0,0,0-3.33-1.5,3.564,3.564,0,0,0-3.21,1.773h-.049V8.625H8.96V19.6h3.4V14.183a4.02,4.02,0,0,1,.366-1.952A1.761,1.761,0,0,1,14.423,11.356ZM3.4,8.625V19.6H6.8V8.625ZM5.127,3.21a1.965,1.965,0,0,0,0,3.929A1.967,1.967,0,0,0,7.092,5.175,1.944,1.944,0,0,0,5.127,3.21Z" fill="#fff"/>
</svg>
