<svg xmlns="http://www.w3.org/2000/svg" width="14.114" height="9.358" viewBox="0 0 14.114 9.358">
  <path id="users-bold-svgrepo-com" d="M11.078,50.337a3.62,3.62,0,1,0-4.662,0,5.667,5.667,0,0,0-2.3,1.9.679.679,0,1,0,1.11.781,4.3,4.3,0,0,1,7.035,0,.679.679,0,0,0,1.11-.782A5.666,5.666,0,0,0,11.078,50.337ZM6.484,47.57a2.263,2.263,0,1,1,2.263,2.263A2.263,2.263,0,0,1,6.484,47.57Zm11.337,5.611a.679.679,0,0,1-.946-.164,4.308,4.308,0,0,0-3.518-1.827.679.679,0,0,1,0-1.358,2.263,2.263,0,1,0-.614-4.441.679.679,0,0,1-.368-1.307,3.619,3.619,0,0,1,3.313,6.252,5.666,5.666,0,0,1,2.3,1.9.679.679,0,0,1-.164.946Z" transform="translate(-3.995 -43.947)" fill="#16697a"/>
</svg>
