<svg xmlns="http://www.w3.org/2000/svg" width="28.189" height="14.098" viewBox="0 0 28.189 14.098">
  <path id="financial-currency-svgrepo-com" d="M28.094,88.37a.677.677,0,0,0-.262-.527l-5.67-4.388a.676.676,0,0,0-.414-.141H6.442a.676.676,0,0,0-.414.141L.358,87.842a.676.676,0,0,0-.262.527L0,96.727a.677.677,0,0,0,.676.684H27.513a.677.677,0,0,0,.677-.684ZM8.1,84.666h3.46L10.686,87.7H5.88c.72-.948-.448-1.2-1.516-1.248l1.2-.926C6.621,85.537,8.217,85.428,8.1,84.666Zm14.529.86,1.2.926c-1.068.048-2.236.3-1.515,1.248H17.5l-.874-3.035H20.09C19.973,85.428,21.569,85.537,22.628,85.526Zm-12.18,3.528v.737H1.432l.008-.737Zm0,2.09v.825H1.408l.009-.825Zm0,2.178v.606H1.385l.007-.606Zm7.293.606v-.606H26.8l.007.606Zm0-1.959v-.825h9.031l.009.825Zm0-2.178v-.737h9.008l.008.737ZM1.37,95.28h9.078v.778H1.361Zm16.371.778V95.28H26.82l.009.778Z" transform="translate(0 -83.313)" fill="#5a5a5a"/>
</svg>
