<svg xmlns="http://www.w3.org/2000/svg" width="17.543" height="16.813" viewBox="0 0 17.543 16.813">
  <path id="scroll-svgrepo-com" d="M18.62,14.965V6.193A2.193,2.193,0,0,0,16.427,4H6.193A2.193,2.193,0,0,0,4,6.193V9.848H6.924V18.62a2.193,2.193,0,0,0,2.193,2.193H19.351a2.193,2.193,0,0,0,2.193-2.193V14.965ZM6.924,8.386H5.462V6.193a.731.731,0,1,1,1.462,0ZM8.386,18.62V6.193a2.184,2.184,0,0,0-.125-.731h8.166a.732.732,0,0,1,.731.731v8.772H9.848V18.62a.731.731,0,1,1-1.462,0Zm11.7,0a.732.732,0,0,1-.731.731H11.185a2.184,2.184,0,0,0,.125-.731V16.427h8.772ZM15.7,9.848H9.848V8.386H15.7Zm0,2.924H9.848V11.31H15.7Z" transform="translate(-4 -4)" fill="#104e5b"/>
</svg>
