<svg xmlns="http://www.w3.org/2000/svg" width="18.016" height="20.276" viewBox="0 0 18.016 20.276">
  <g id="Nuclear" transform="translate(-3.567 0)">
    <path id="Path_7516" data-name="Path 7516" d="M27.635,25.593a1.9,1.9,0,1,0,1.9,1.9A1.9,1.9,0,0,0,27.635,25.593Zm0,3.168A1.267,1.267,0,1,1,28.9,27.493,1.269,1.269,0,0,1,27.635,28.761Z" transform="translate(-15.144 -17.484)"/>
    <path id="Path_7517" data-name="Path 7517" d="M19.132,10.138c2-1.96,2.914-3.871,2.223-5.069A2.612,2.612,0,0,0,19.054,4a.789.789,0,0,0-1.488.087c-.1.015-.205.03-.311.048a14.283,14.283,0,0,0-1.4.323C15.155,1.753,13.959,0,12.575,0S10,1.753,9.3,4.462a14.273,14.273,0,0,0-1.4-.323c-2.09-.36-3.545-.03-4.1.93A2.384,2.384,0,0,0,3.858,7.22a.787.787,0,0,0,.77,1.325,12.686,12.686,0,0,0,1.39,1.593c-2,1.96-2.914,3.871-2.223,5.069a2.782,2.782,0,0,0,2.583,1.072,8.991,8.991,0,0,0,1.516-.142,14.273,14.273,0,0,0,1.4-.323c.7,2.709,1.895,4.461,3.279,4.461a2.515,2.515,0,0,0,1.962-1.311.786.786,0,0,0,.7-1.3,13.026,13.026,0,0,0,.618-1.854,14.284,14.284,0,0,0,1.4.323,8.992,8.992,0,0,0,1.516.142,2.782,2.782,0,0,0,2.583-1.072C22.046,14.009,21.127,12.1,19.132,10.138ZM17.363,4.763c.1-.017.192-.03.287-.044a.788.788,0,0,0,1.393-.081,2.038,2.038,0,0,1,1.763.748c.5.864-.275,2.513-2.129,4.323a21.778,21.778,0,0,0-2.259-1.79A21.792,21.792,0,0,0,16,5.078,13.712,13.712,0,0,1,17.363,4.763ZM14.226,13c-.549.317-1.1.61-1.651.876-.549-.267-1.1-.559-1.651-.876s-1.09-.656-1.586-.991c-.042-.6-.065-1.22-.065-1.869S9.3,8.867,9.338,8.27q.744-.5,1.586-.991c.549-.317,1.1-.61,1.651-.876.549.267,1.1.559,1.651.876s1.089.656,1.586.991c.042.6.065,1.22.065,1.869s-.023,1.272-.065,1.869Q15.067,12.509,14.226,13Zm1.516-.186a20.631,20.631,0,0,1-.344,2.2,20.721,20.721,0,0,1-2.091-.8c.412-.21.825-.429,1.235-.667S15.356,13.061,15.742,12.811Zm-3.9,1.4a20.721,20.721,0,0,1-2.091.8,20.642,20.642,0,0,1-.344-2.2q.579.375,1.2.735C11.018,13.784,11.431,14,11.843,14.213ZM8.677,11.545a20.628,20.628,0,0,1-1.745-1.407A20.624,20.624,0,0,1,8.677,8.732c-.024.459-.037.928-.037,1.407S8.653,11.086,8.677,11.545Zm.731-4.079a20.632,20.632,0,0,1,.344-2.2,20.725,20.725,0,0,1,2.091.8c-.412.21-.825.429-1.235.666S9.794,7.215,9.408,7.466Zm3.9-1.4a20.735,20.735,0,0,1,2.091-.8,20.631,20.631,0,0,1,.344,2.2q-.579-.375-1.2-.735C14.132,6.493,13.719,6.274,13.307,6.064Zm3.166,2.668a20.621,20.621,0,0,1,1.745,1.407,20.624,20.624,0,0,1-1.745,1.407c.024-.459.037-.928.037-1.407S16.5,9.191,16.473,8.732Zm-3.9-8.1c1,0,2.04,1.5,2.68,4.009A21.944,21.944,0,0,0,12.575,5.7,21.945,21.945,0,0,0,9.9,4.643C10.535,2.13,11.577.634,12.575.634ZM5.109,8.15A.782.782,0,0,0,5.2,7.789.791.791,0,0,0,4.439,7a1.822,1.822,0,0,1-.095-1.614c.287-.5,1-.756,2.024-.756a8.445,8.445,0,0,1,1.419.134,13.712,13.712,0,0,1,1.363.315,21.788,21.788,0,0,0-.418,2.841,21.786,21.786,0,0,0-2.259,1.79A12.043,12.043,0,0,1,5.109,8.15Zm2.679,7.363c-1.783.307-3.038.08-3.443-.623-.5-.864.275-2.513,2.129-4.323a21.782,21.782,0,0,0,2.259,1.789A21.783,21.783,0,0,0,9.15,15.2,13.716,13.716,0,0,1,7.787,15.513ZM14.674,17.4c-.012,0-.024,0-.036,0A.789.789,0,0,0,14,18.649a1.914,1.914,0,0,1-1.425.994c-1,0-2.039-1.5-2.68-4.009a21.932,21.932,0,0,0,2.68-1.061,21.926,21.926,0,0,0,2.679,1.061A12.457,12.457,0,0,1,14.674,17.4Zm6.132-2.5c-.406.7-1.661.929-3.443.623A13.721,13.721,0,0,1,16,15.2a21.8,21.8,0,0,0,.418-2.841,21.779,21.779,0,0,0,2.259-1.79C20.531,12.378,21.3,14.027,20.806,14.89Z" transform="translate(0)"/>
  </g>
</svg>
