<svg xmlns="http://www.w3.org/2000/svg" width="261.988" height="279.583" viewBox="0 0 261.988 279.583">
  <g id="Group_2478" data-name="Group 2478" transform="translate(20888.311 -5540.826)">
    <path id="XMLID_468_" d="M35.747,26.1H31.775V18.724a1.7,1.7,0,0,0-1.7-1.7H20.427V11.348H24.4a1.7,1.7,0,0,0,1.7-1.7V1.7A1.7,1.7,0,0,0,24.4,0H13.05a1.7,1.7,0,0,0-1.7,1.7V9.646a1.7,1.7,0,0,0,1.7,1.7h3.972v5.674H7.376a1.7,1.7,0,0,0-1.7,1.7V26.1H1.7A1.7,1.7,0,0,0,0,27.8v7.944a1.7,1.7,0,0,0,1.7,1.7H35.747a1.7,1.7,0,0,0,1.7-1.7V27.8A1.7,1.7,0,0,0,35.747,26.1ZM14.753,3.4H22.7V7.944H14.753ZM28.37,20.427V26.1H20.427V20.427Zm-19.292,0h7.944V26.1H9.079ZM3.4,29.505h7.944v4.539H3.4Zm11.348,0H22.7v4.539H14.753Zm19.292,4.539H26.1V29.505h7.944Z" transform="matrix(0.875, 0.485, -0.485, 0.875, -20659.076, 5540.826)" fill="#157870"/>
    <path id="XMLID_468_2" data-name="XMLID_468_" d="M35.747,26.1H31.775V18.724a1.7,1.7,0,0,0-1.7-1.7H20.427V11.348H24.4a1.7,1.7,0,0,0,1.7-1.7V1.7A1.7,1.7,0,0,0,24.4,0H13.05a1.7,1.7,0,0,0-1.7,1.7V9.646a1.7,1.7,0,0,0,1.7,1.7h3.972v5.674H7.376a1.7,1.7,0,0,0-1.7,1.7V26.1H1.7A1.7,1.7,0,0,0,0,27.8v7.944a1.7,1.7,0,0,0,1.7,1.7H35.747a1.7,1.7,0,0,0,1.7-1.7V27.8A1.7,1.7,0,0,0,35.747,26.1ZM14.753,3.4H22.7V7.944H14.753ZM28.37,20.427V26.1H20.427V20.427Zm-19.292,0h7.944V26.1H9.079ZM3.4,29.505h7.944v4.539H3.4Zm11.348,0H22.7v4.539H14.753Zm19.292,4.539H26.1V29.505h7.944Z" transform="matrix(0.875, 0.485, -0.485, 0.875, -20659.076, 5769.5)" fill="#157870"/>
    <path id="XMLID_468_3" data-name="XMLID_468_" d="M35.747,26.1H31.775V18.724a1.7,1.7,0,0,0-1.7-1.7H20.427V11.348H24.4a1.7,1.7,0,0,0,1.7-1.7V1.7A1.7,1.7,0,0,0,24.4,0H13.05a1.7,1.7,0,0,0-1.7,1.7V9.646a1.7,1.7,0,0,0,1.7,1.7h3.972v5.674H7.376a1.7,1.7,0,0,0-1.7,1.7V26.1H1.7A1.7,1.7,0,0,0,0,27.8v7.944a1.7,1.7,0,0,0,1.7,1.7H35.747a1.7,1.7,0,0,0,1.7-1.7V27.8A1.7,1.7,0,0,0,35.747,26.1ZM14.753,3.4H22.7V7.944H14.753ZM28.37,20.427V26.1H20.427V20.427Zm-19.292,0h7.944V26.1H9.079ZM3.4,29.505h7.944v4.539H3.4Zm11.348,0H22.7v4.539H14.753Zm19.292,4.539H26.1V29.505h7.944Z" transform="translate(-20888.311 5570.709) rotate(-31)" fill="#157870"/>
    <path id="XMLID_468_4" data-name="XMLID_468_" d="M35.747,26.1H31.775V18.724a1.7,1.7,0,0,0-1.7-1.7H20.427V11.348H24.4a1.7,1.7,0,0,0,1.7-1.7V1.7A1.7,1.7,0,0,0,24.4,0H13.05a1.7,1.7,0,0,0-1.7,1.7V9.646a1.7,1.7,0,0,0,1.7,1.7h3.972v5.674H7.376a1.7,1.7,0,0,0-1.7,1.7V26.1H1.7A1.7,1.7,0,0,0,0,27.8v7.944a1.7,1.7,0,0,0,1.7,1.7H35.747a1.7,1.7,0,0,0,1.7-1.7V27.8A1.7,1.7,0,0,0,35.747,26.1ZM14.753,3.4H22.7V7.944H14.753ZM28.37,20.427V26.1H20.427V20.427Zm-19.292,0h7.944V26.1H9.079ZM3.4,29.505h7.944v4.539H3.4Zm11.348,0H22.7v4.539H14.753Zm19.292,4.539H26.1V29.505h7.944Z" transform="translate(-20883.121 5780.115) rotate(-31)" fill="#157870"/>
  </g>
</svg>
