<svg xmlns="http://www.w3.org/2000/svg" width="21.824" height="21.015" viewBox="0 0 21.824 21.015">
  <g id="Group_2592" data-name="Group 2592" transform="translate(0 -7.415)">
    <path id="XMLID_474_" d="M140.481,354.788a7.368,7.368,0,0,1-4.881,0,5.394,5.394,0,0,1-1.133,1.313,9,9,0,0,0,7.144,0A5.418,5.418,0,0,1,140.481,354.788Z" transform="translate(-127.127 -328.412)" fill="#16697a"/>
    <path id="XMLID_475_" d="M40.168,96.712a5.419,5.419,0,0,1-.575-1.636,9.009,9.009,0,0,0-3.573,6.184,5.452,5.452,0,0,1,1.7-.324A7.37,7.37,0,0,1,40.168,96.712Z" transform="translate(-34.055 -82.876)" fill="#16697a"/>
    <path id="XMLID_476_" d="M290.27,100.937a5.45,5.45,0,0,1,1.7.324,9.009,9.009,0,0,0-3.573-6.184,5.418,5.418,0,0,1-.575,1.636A7.371,7.371,0,0,1,290.27,100.937Z" transform="translate(-272.117 -82.876)" fill="#16697a"/>
    <circle id="XMLID_477_" cx="3.821" cy="3.821" r="3.821" transform="translate(7.091 7.415)" fill="#16697a"/>
    <path id="XMLID_478_" d="M1.911,232.915a3.819,3.819,0,1,0,1.907-.513A3.821,3.821,0,0,0,1.911,232.915Z" transform="translate(0 -212.707)" fill="#16697a"/>
    <path id="XMLID_479_" d="M260.319,234.313a3.819,3.819,0,1,0,3.313-1.911A3.821,3.821,0,0,0,260.319,234.313Z" transform="translate(-245.626 -212.707)" fill="#16697a"/>
  </g>
</svg>
