<svg xmlns="http://www.w3.org/2000/svg" width="20.75" height="21.25" viewBox="0 0 20.75 21.25">
  <g id="organization-svgrepo-com" transform="translate(-2.875 -0.875)">
    <path id="Tracé_7680" data-name="Tracé 7680" d="M7.25,12a.75.75,0,0,0,0,1.5h.5a.75.75,0,0,0,0-1.5ZM6.5,9.25a.75.75,0,0,1,.75-.75h.5a.75.75,0,0,1,0,1.5h-.5A.75.75,0,0,1,6.5,9.25ZM7.25,5a.75.75,0,0,0,0,1.5h.5a.75.75,0,0,0,0-1.5ZM10,12.75a.75.75,0,0,1,.75-.75h.5a.75.75,0,0,1,0,1.5h-.5A.75.75,0,0,1,10,12.75Zm.75-4.25a.75.75,0,0,0,0,1.5h.5a.75.75,0,0,0,0-1.5ZM10,5.75A.75.75,0,0,1,10.75,5h.5a.75.75,0,0,1,0,1.5h-.5A.75.75,0,0,1,10,5.75ZM14.25,12a.75.75,0,0,0,0,1.5h.5a.75.75,0,1,0,0-1.5ZM13.5,9.25a.75.75,0,0,1,.75-.75h.5a.75.75,0,1,1,0,1.5h-.5A.75.75,0,0,1,13.5,9.25ZM14.25,5a.75.75,0,0,0,0,1.5h.5a.75.75,0,1,0,0-1.5Z" fill="#16697a" stroke="#16697a" stroke-width="0.25"/>
    <path id="Tracé_7681" data-name="Tracé 7681" d="M3,20a2,2,0,0,0,2,2H8.75a.75.75,0,0,0,.75-.75V19h3v2.25a.75.75,0,0,0,.75.75H17a2.037,2.037,0,0,0,.272-.018.758.758,0,0,0,.166.018H21.5a2,2,0,0,0,2-2V12.375a2,2,0,0,0-.8-1.6l-1-.75a.75.75,0,0,0-.9,1.2l1,.75a.5.5,0,0,1,.2.4V20a.5.5,0,0,1-.5.5H18.937A2.009,2.009,0,0,0,19,20V3a2,2,0,0,0-2-2H5A2,2,0,0,0,3,3Zm2,.5a.5.5,0,0,1-.5-.5V3A.5.5,0,0,1,5,2.5H17a.5.5,0,0,1,.5.5V20a.5.5,0,0,1-.5.5H14V18.25a.75.75,0,0,0-.75-.75H8.75a.75.75,0,0,0-.75.75V20.5Z" fill="#16697a" stroke="#16697a" stroke-width="0.25" fill-rule="evenodd"/>
  </g>
</svg>
