<svg xmlns="http://www.w3.org/2000/svg" width="24" height="24" viewBox="0 0 24 24">
  <g id="grid-svgrepo-com" transform="translate(-0.162 -0.162)">
    <path id="Tracé_7663" data-name="Tracé 7663" d="M10.081,4H5.52A1.52,1.52,0,0,0,4,5.52v4.561A1.52,1.52,0,0,0,5.52,11.6h4.561a1.52,1.52,0,0,0,1.52-1.52V5.52A1.52,1.52,0,0,0,10.081,4Zm0,6.081H5.52V5.52h4.561Z" transform="translate(-0.96 -0.96)" fill="#5a5a5a" stroke="#5a5a5a" stroke-width="1"/>
    <path id="Tracé_7664" data-name="Tracé 7664" d="M24.081,4H19.52A1.52,1.52,0,0,0,18,5.52v4.561a1.52,1.52,0,0,0,1.52,1.52h4.561a1.52,1.52,0,0,0,1.52-1.52V5.52A1.52,1.52,0,0,0,24.081,4Zm0,6.081H19.52V5.52h4.561Z" transform="translate(-4.318 -0.96)" fill="#5a5a5a" stroke="#5a5a5a" stroke-width="1"/>
    <path id="Tracé_7665" data-name="Tracé 7665" d="M10.081,18H5.52A1.52,1.52,0,0,0,4,19.52v4.561A1.52,1.52,0,0,0,5.52,25.6h4.561a1.52,1.52,0,0,0,1.52-1.52V19.52A1.52,1.52,0,0,0,10.081,18Zm0,6.081H5.52V19.52h4.561Z" transform="translate(-0.96 -4.318)" fill="#5a5a5a" stroke="#5a5a5a" stroke-width="1"/>
    <path id="Tracé_7666" data-name="Tracé 7666" d="M24.081,18H19.52A1.52,1.52,0,0,0,18,19.52v4.561a1.52,1.52,0,0,0,1.52,1.52h4.561a1.52,1.52,0,0,0,1.52-1.52V19.52A1.52,1.52,0,0,0,24.081,18Zm0,6.081H19.52V19.52h4.561Z" transform="translate(-4.318 -4.318)" fill="#5a5a5a" stroke="#5a5a5a" stroke-width="1"/>
    <rect id="_Transparent_Rectangle_" data-name="&lt;Transparent Rectangle&gt;" width="24" height="24" transform="translate(0.162 0.162)" fill="none"/>
  </g>
</svg>
