<svg xmlns="http://www.w3.org/2000/svg" width="50" height="50" viewBox="0 0 50 50">
  <g id="Group_2592" data-name="Group 2592" transform="translate(-151.5 -763)">
    <path id="Path_7622" data-name="Path 7622" d="M25,0A25,25,0,1,1,0,25,25,25,0,0,1,25,0Z" transform="translate(151.5 763)" fill="#069a8e"/>
    <path id="Path_7618" data-name="Path 7618" d="M322.829,193.977a5.814,5.814,0,0,1-4.247,2.428,10.827,10.827,0,0,1,2.587,6.23,5.74,5.74,0,0,1-.051,1.679,12.569,12.569,0,0,0,2.386-.592c2.339-.861,2.83-2.134,2.83-3.05A8.151,8.151,0,0,0,322.829,193.977Z" transform="translate(-137.834 592.765)" fill="#fff"/>
    <path id="Path_7619" data-name="Path 7619" d="M261.41,25.256a3.858,3.858,0,0,0,1.894.5c2.515,0,4.451-2.431,4.451-5.3s-1.936-5.3-4.451-5.3a4,4,0,0,0-2.783,1.16,8.442,8.442,0,0,1,1.725,5.194A8.692,8.692,0,0,1,261.41,25.256Z" transform="translate(-82.959 761.784)" fill="#fff"/>
    <path id="Path_7620" data-name="Path 7620" d="M14.266,226.279a6.372,6.372,0,0,1-5.039,2.55,6.379,6.379,0,0,1-5.039-2.55A9.226,9.226,0,0,0,0,234c0,.995.545,2.381,3.139,3.336a18.284,18.284,0,0,0,6.088.924,18.284,18.284,0,0,0,6.088-.924c2.595-.955,3.139-2.341,3.139-3.336A9.226,9.226,0,0,0,14.266,226.279Z" transform="translate(163.268 562.236)" fill="#fff"/>
    <path id="Path_7621" data-name="Path 7621" d="M79.5,31.424c2.908,0,5.147-2.811,5.147-6.135s-2.239-6.135-5.147-6.135-5.147,2.811-5.147,6.135S76.593,31.424,79.5,31.424Z" transform="translate(92.993 757.995)" fill="#fff"/>
  </g>
</svg>
