<svg xmlns="http://www.w3.org/2000/svg" width="22" height="22" viewBox="0 0 22 22">
  <g id="Group_2200" data-name="Group 2200" transform="translate(-831 -68.445)">
    <rect id="Rectangle_858" data-name="Rectangle 858" width="22" height="22" rx="6" transform="translate(831 68.445)" fill="#fff"/>
    <path id="Icon_awesome-phone-alt" data-name="Icon awesome-phone-alt" d="M12.835,9.336,9.945,8.1a.619.619,0,0,0-.723.178L7.942,9.839A9.565,9.565,0,0,1,3.37,5.267l1.564-1.28a.618.618,0,0,0,.178-.723L3.873.375a.623.623,0,0,0-.71-.359L.48.635a.619.619,0,0,0-.48.6A11.972,11.972,0,0,0,11.973,13.212a.619.619,0,0,0,.6-.48l.619-2.684a.627.627,0,0,0-.362-.712Z" transform="translate(835.617 72.616)" fill="#212121"/>
  </g>
</svg>
