<svg xmlns="http://www.w3.org/2000/svg" width="17.9" height="17.307" viewBox="0 0 17.9 17.307">
  <g id="phone-svgrepo-com" transform="translate(0 -0.992)">
    <path id="Path_7520" data-name="Path 7520" d="M52.9,32.594a2,2,0,0,1-2-2,.3.3,0,1,0-.6,0A2.6,2.6,0,0,0,52.9,33.191a.3.3,0,1,0,0-.6Z" transform="translate(-35.301 -20.564)"/>
    <path id="Path_7521" data-name="Path 7521" d="M55.726,32.419a.3.3,0,1,0,0-.6.479.479,0,0,1-.479-.479.3.3,0,1,0-.6,0A1.076,1.076,0,0,0,55.726,32.419Z" transform="translate(-38.348 -21.088)"/>
    <path id="Path_7522" data-name="Path 7522" d="M19.3,1.589a2,2,0,0,1,2,2,.3.3,0,1,0,.6,0A2.6,2.6,0,0,0,19.3.992a.3.3,0,0,0,0,.6Z" transform="translate(-13.334)"/>
    <path id="Path_7523" data-name="Path 7523" d="M19.748,5.632a.3.3,0,0,0,.3.3.479.479,0,0,1,.479.479.3.3,0,0,0,.6,0,1.077,1.077,0,0,0-1.075-1.075A.3.3,0,0,0,19.748,5.632Z" transform="translate(-13.857 -3.047)"/>
    <path id="Path_7524" data-name="Path 7524" d="M13.148,14.862a1.47,1.47,0,0,0-1.11-.193.993.993,0,0,0-.6.461,10,10,0,0,1-.773.855A1.291,1.291,0,0,1,8.792,15.8L5.366,12.372A1.291,1.291,0,0,1,5.177,10.5a10,10,0,0,1,.856-.774.993.993,0,0,0,.461-.6A1.475,1.475,0,0,0,6.3,8.013,9.008,9.008,0,0,0,3.888,5.245a1.464,1.464,0,0,0-1.729.26L1.4,6.262A4.138,4.138,0,0,0,.113,10.3a8.531,8.531,0,0,0,2.471,3.9L6.97,18.58c1.719,1.719,3.358,2.582,4.862,2.582a4.286,4.286,0,0,0,3.07-1.4l.757-.757a1.464,1.464,0,0,0,.26-1.729A9.017,9.017,0,0,0,13.148,14.862Zm2.089,3.721-.757.757c-1.96,1.959-4.344,1.562-7.088-1.182L3.005,13.772A7.97,7.97,0,0,1,.694,10.161,3.532,3.532,0,0,1,1.824,6.684l.757-.757a.871.871,0,0,1,1.028-.155A8.676,8.676,0,0,1,5.783,8.312a.917.917,0,0,1,.136.655.4.4,0,0,1-.2.249l-.045.031a8.827,8.827,0,0,0-.987.913,2.467,2.467,0,0,0-.367.8A4.225,4.225,0,0,1,3.877,9.5a.3.3,0,1,0-.594.062,5.7,5.7,0,0,0,1.9,3.481.27.27,0,0,0,.024.013L8.37,16.221l.041.038a.289.289,0,0,0,.031.046,6.225,6.225,0,0,0,3.46,1.576h.031a.3.3,0,0,0,.03-.6,5.256,5.256,0,0,1-1.655-.465,2.57,2.57,0,0,0,.7-.342,8.8,8.8,0,0,0,.913-.987l.031-.045a.4.4,0,0,1,.249-.2.922.922,0,0,1,.652.134,8.682,8.682,0,0,1,2.542,2.177A.87.87,0,0,1,15.237,18.583Z" transform="translate(0 -2.863)"/>
  </g>
</svg>
