<svg id="pin_2_" data-name="pin (2)" xmlns="http://www.w3.org/2000/svg" width="11.758" height="15.915" viewBox="0 0 11.758 15.915">
  <g id="Group_1752" data-name="Group 1752" transform="translate(0)">
    <g id="Group_1751" data-name="Group 1751">
      <path id="Path_1263" data-name="Path 1263" d="M53.959,0A5.886,5.886,0,0,0,48.08,5.879a6.783,6.783,0,0,0,.5,2.263,9.481,9.481,0,0,0,.68,1.271l4.031,6.108a.767.767,0,0,0,1.34,0L58.66,9.413a9.441,9.441,0,0,0,.68-1.271,6.781,6.781,0,0,0,.5-2.263A5.886,5.886,0,0,0,53.959,0ZM58.7,7.874a8.684,8.684,0,0,1-.619,1.159l-4.031,6.108c-.08.121-.1.121-.184,0L49.836,9.033a8.69,8.69,0,0,1-.619-1.159,6.156,6.156,0,0,1-.445-1.995,5.187,5.187,0,1,1,10.375,0A6.162,6.162,0,0,1,58.7,7.874Z" transform="translate(-48.08 0)"/>
      <path id="Path_1264" data-name="Path 1264" d="M115.192,64.008A3.112,3.112,0,1,0,118.3,67.12,3.116,3.116,0,0,0,115.192,64.008Zm0,5.533a2.421,2.421,0,1,1,2.421-2.421A2.424,2.424,0,0,1,115.192,69.541Z" transform="translate(-109.313 -61.241)"/>
    </g>
  </g>
</svg>
