<svg xmlns="http://www.w3.org/2000/svg" width="25.5" height="24.125" viewBox="0 0 25.5 24.125">
  <g id="desk-education-svgrepo-com_1_" data-name="desk-education-svgrepo-com (1)" transform="translate(1.25 -12.832)">
    <g id="Groupe_2593" data-name="Groupe 2593" transform="translate(-1 13.082)">
      <g id="Groupe_2592" data-name="Groupe 2592" transform="translate(0 0)">
        <path id="Tracé_7648" data-name="Tracé 7648" d="M23.583,22.54h-.417v-.417a1.254,1.254,0,0,0-1.25-1.25h-.242l1.4-3.49a.4.4,0,0,0,.012-.552l-2.606-2.871a1.88,1.88,0,0,0-.269-.338,2.007,2.007,0,0,0-1.333-.542,1.76,1.76,0,0,0-1.333.542l-.75.75a.4.4,0,0,0,0,.583l2.083,2.083a.378.378,0,0,0,.292.125.45.45,0,0,0,.292-.125l.75-.75a2.155,2.155,0,0,0,.471-.835l1.565,1.724-1.478,3.694H20.25A1.254,1.254,0,0,0,19,22.124v.417H15.637L15.083,15.5A2.416,2.416,0,0,0,14,13.79a2.878,2.878,0,0,0-1.5-.417H10.708A2.879,2.879,0,0,0,9,13.915,2.174,2.174,0,0,0,8.042,15.5L7.369,22.54H5.408a.589.589,0,0,1-.158-.417.658.658,0,0,1,.162-.417h.671a.4.4,0,0,0,.375-.292.47.47,0,0,0-.125-.458.594.594,0,0,1-.25-.5.651.651,0,0,1,.25-.5.47.47,0,0,0,.125-.458.4.4,0,0,0-.375-.292h-5a1.228,1.228,0,0,0-1.25,1.25,1.3,1.3,0,0,0,.082.459A1.223,1.223,0,0,0-1,22.124a1.289,1.289,0,0,0,.113.533.417.417,0,0,0-.113.3v1.667a.394.394,0,0,0,.417.417h.417V36.29a.394.394,0,0,0,.417.417H1.917a.394.394,0,0,0,.417-.417V34.207h8.626a1.434,1.434,0,0,1-.084.125c-.25.25-.917.708-2.708.708-.333,0-1.958-.042-2.625.583a.829.829,0,0,0-.292.667.417.417,0,0,0,.833,0,.129.129,0,0,1,.042-.083,3.69,3.69,0,0,1,2.042-.333c1.625,0,2.75-.333,3.333-1,.583.667,1.708,1,3.333,1a3.69,3.69,0,0,1,2.042.333.129.129,0,0,1,.042.083.394.394,0,0,0,.417.417.385.385,0,0,0,.417-.375.829.829,0,0,0-.292-.667c-.667-.625-2.333-.583-2.625-.583-1.792,0-2.458-.458-2.708-.708a.815.815,0,0,1-.13-.167h8.671V36.29a.394.394,0,0,0,.417.417H22.75a.394.394,0,0,0,.417-.417V25.04h.417A.394.394,0,0,0,24,24.624V22.957A.394.394,0,0,0,23.583,22.54Zm-3.708-7.625a1,1,0,0,1-.292.75l-.458.458-1.458-1.458.458-.5a1.094,1.094,0,0,1,1.365-.08.577.577,0,0,0,.093.163l.18.2A1.066,1.066,0,0,1,19.875,14.915Zm-.042,7.208a.417.417,0,0,1,.417-.417h1.667a.417.417,0,0,1,.417.417v.417h-2.5v-.417Zm-11-6.583a1.4,1.4,0,0,1,.625-.958,2.252,2.252,0,0,1,1.25-.375H12.5a1.706,1.706,0,0,1,1.042.292,1.453,1.453,0,0,1,.708,1.083l.542,6.958H8.208Zm-7.75,4.5h4.25a1.481,1.481,0,0,0-.083.417,1.418,1.418,0,0,0,.042.417H1.083a.417.417,0,0,1,0-.833ZM.25,21.707H4.5a1.481,1.481,0,0,0-.083.417,1.418,1.418,0,0,0,.042.417H.25a.417.417,0,1,1,0-.833ZM1.5,35.874H.667V34.207H1.5Zm20.833,0H21.5V34.207h.833v1.667Zm0-2.5H.667V25.04H22.333v8.333Zm.833-9.167H-.167v-.833H23.167v.833Z" transform="translate(1 -13.082)" fill="#16697a" stroke="#16697a" stroke-width="0.5"/>
        <path id="Tracé_7649" data-name="Tracé 7649" d="M69.142,289.419H83.725a1.924,1.924,0,0,0,1.917-1.833v-2.125a1.867,1.867,0,0,0-1.875-1.875H69.142a1.867,1.867,0,0,0-1.875,1.875v2.125A1.859,1.859,0,0,0,69.142,289.419ZM68.1,285.461a1.032,1.032,0,0,1,1.042-1.042H83.767a1.032,1.032,0,0,1,1.042,1.042v2.125a1.032,1.032,0,0,1-1.042,1.042H69.142a1.032,1.032,0,0,1-1.042-1.042Z" transform="translate(-63.934 -270.378)" fill="#16697a" stroke="#16697a" stroke-width="0.5"/>
      </g>
    </g>
  </g>
</svg>
