<svg xmlns="http://www.w3.org/2000/svg" width="24.701" height="18.923" viewBox="0 0 24.701 18.923">
  <g id="Group_2591" data-name="Group 2591" transform="translate(0 -29.255)">
    <path id="Path_7585" data-name="Path 7585" d="M22.655,33.615a.741.741,0,1,0,0,1.481.564.564,0,0,1,.564.563v9.6a1.44,1.44,0,1,1-2.879,0V31.3a2.047,2.047,0,0,0-2.046-2.044H2.044A2.046,2.046,0,0,0,0,31.3V46.132a2.046,2.046,0,0,0,1.968,2.042.743.743,0,0,0,.076,0H21.78A2.924,2.924,0,0,0,24.7,45.257v-9.6A2.047,2.047,0,0,0,22.655,33.615ZM1.481,46.132V31.3a.563.563,0,0,1,.563-.563H18.295a.564.564,0,0,1,.564.563V45.257a2.9,2.9,0,0,0,.381,1.44H2.044A.564.564,0,0,1,1.481,46.132Z" fill="#16697a"/>
    <path id="Path_7586" data-name="Path 7586" d="M107.4,92.182h-4.61a.741.741,0,1,0,0,1.481h4.61a.741.741,0,1,0,0-1.481Z" transform="translate(-91.974 -56.713)" fill="#16697a"/>
    <path id="Path_7587" data-name="Path 7587" d="M54.813,129.518H44.441a.741.741,0,0,0,0,1.481H54.813a.741.741,0,0,0,0-1.481Z" transform="translate(-39.385 -90.362)" fill="#16697a"/>
    <path id="Path_7588" data-name="Path 7588" d="M54.813,166.854H44.441a.741.741,0,1,0,0,1.481H54.813a.741.741,0,1,0,0-1.481Z" transform="translate(-39.385 -124.011)" fill="#16697a"/>
    <path id="Path_7589" data-name="Path 7589" d="M42.979,66.71h2.953a.741.741,0,0,0,.741-.741V63.016a.741.741,0,0,0-1.481,0v2.213H42.979a.741.741,0,1,0,0,1.481Z" transform="translate(-38.067 -29.759)" fill="#16697a"/>
  </g>
</svg>
