<svg xmlns="http://www.w3.org/2000/svg" width="25.554" height="22.391" viewBox="0 0 25.554 22.391">
  <g id="Group_2664" data-name="Group 2664" transform="translate(0.125 -0.875)">
    <path id="Path_7624" data-name="Path 7624" d="M0,3.372A2.372,2.372,0,0,1,2.372,1h17.4a2.372,2.372,0,0,1,2.372,2.372v16.65a3.007,3.007,0,0,1-.376,1.537h1.167a.791.791,0,0,0,.791-.791V6.535a.791.791,0,1,1,1.581,0V20.768a2.372,2.372,0,0,1-2.372,2.372H2.367A2.367,2.367,0,0,1,0,20.768ZM18.978,21.559a1.8,1.8,0,0,0,1.349-.7,1.262,1.262,0,0,0,.232-.84V3.372a.791.791,0,0,0-.791-.791H2.372a.791.791,0,0,0-.791.791v17.4a.787.787,0,0,0,.786.791Z" fill="#5a5a5a" stroke="#5a5a5a" stroke-width="0.25"/>
    <path id="Path_7625" data-name="Path 7625" d="M2,3H17.815V6.163H2ZM2,7.744H8.326v4.744H2ZM2,14.07H8.326v1.581H2Zm0,3.163H8.326v1.581H2ZM9.907,7.744H13.07V9.326H9.907Zm4.744,0h3.163V9.326H14.652ZM9.907,10.907H13.07v1.581H9.907Zm4.744,0h3.163v1.581H14.652ZM9.907,14.07H13.07v1.581H9.907Zm4.744,0h3.163v1.581H14.652ZM9.907,17.233H13.07v1.581H9.907Zm4.744,0h3.163v1.581H14.652Z" transform="translate(1.162 1.163)" fill="#5a5a5a" stroke="#5a5a5a" stroke-width="0.25"/>
  </g>
</svg>
