<svg xmlns="http://www.w3.org/2000/svg" width="46.316" height="39.507" viewBox="0 0 46.316 39.507">
  <g id="people-svgrepo-com" transform="matrix(0.914, 0.407, -0.407, 0.914, 11.208, -3.742)" opacity="0.5">
    <path id="Tracé_7644" data-name="Tracé 7644" d="M.221,24.827a25.571,25.571,0,0,0,3.037,3.225c0-.1-.017-.188-.017-.285a8.537,8.537,0,0,1,5.488-7.941,1.7,1.7,0,0,0,.3-3.028,5.081,5.081,0,1,1,6.135-8.043,10.1,10.1,0,0,1,3.432-1.214A8.477,8.477,0,1,0,5.161,17.87a12,12,0,0,0-4.94,6.956Zm39.99,0a12,12,0,0,0-4.94-6.96A8.477,8.477,0,1,0,21.839,7.536,10.1,10.1,0,0,1,25.271,8.75,5.081,5.081,0,1,1,31.406,16.8a1.7,1.7,0,0,0,.3,3.028,8.537,8.537,0,0,1,5.488,7.943c0,.1-.014.188-.017.283A25.573,25.573,0,0,0,40.211,24.827Z" transform="translate(0 0)" fill="#fff"/>
    <path id="Tracé_7645" data-name="Tracé 7645" d="M28.655,29.548a11.969,11.969,0,0,0-5.237-8.681,8.488,8.488,0,1,0-13.135,0,11.969,11.969,0,0,0-5.237,8.681,25.331,25.331,0,0,0,3.341,1.441c0-.076-.024-.148-.024-.226a8.54,8.54,0,0,1,5.488-7.941,1.7,1.7,0,0,0,.3-3.03,5.031,5.031,0,0,1-2.39-4.307,5.093,5.093,0,0,1,10.185,0,5.031,5.031,0,0,1-2.39,4.307,1.7,1.7,0,0,0,.3,3.03,8.54,8.54,0,0,1,5.488,7.941c0,.078-.02.149-.022.226a25.325,25.325,0,0,0,3.339-1.441Z" transform="translate(3.365 2.096)" fill="#fff"/>
  </g>
</svg>
