<svg xmlns="http://www.w3.org/2000/svg" width="55.275" height="55.274" viewBox="0 0 55.275 55.274">
  <path id="XMLID_468_" d="M38.624,28.2H34.333v-7.97a1.839,1.839,0,0,0-1.839-1.839H22.071V12.262h4.292A1.839,1.839,0,0,0,28.2,10.422V1.839A1.839,1.839,0,0,0,26.363,0H14.1a1.839,1.839,0,0,0-1.839,1.839v8.583A1.839,1.839,0,0,0,14.1,12.262h4.292v6.131H7.97a1.839,1.839,0,0,0-1.839,1.839V28.2H1.839A1.839,1.839,0,0,0,0,30.041v8.583a1.839,1.839,0,0,0,1.839,1.839H38.624a1.839,1.839,0,0,0,1.839-1.839V30.041A1.839,1.839,0,0,0,38.624,28.2ZM15.94,3.679h8.583v4.9H15.94ZM30.654,22.071V28.2H22.071V22.071Zm-20.845,0h8.583V28.2H9.809ZM3.679,31.88h8.583v4.9H3.679Zm12.262,0h8.583v4.9H15.94Zm20.845,4.9H28.2v-4.9h8.583Z" transform="translate(20.232) rotate(30)" fill="#157870"/>
</svg>
