<svg xmlns="http://www.w3.org/2000/svg" width="490" height="454.32" viewBox="0 0 490 454.32">
  <g id="Startup_life-pana" data-name="Startup life-pana" transform="translate(0 0)">
    <g id="freepik--background-complete--inject-189" transform="translate(46.679 0)">
      <path id="Path_5410" data-name="Path 5410" d="M424.943,132.187a5.11,5.11,0,0,1,1.6.5,6.836,6.836,0,0,1,2.757,9.8A6.483,6.483,0,0,1,428,144a6.386,6.386,0,0,1-1.756,1.065,6.994,6.994,0,0,1-4.258.426,6.909,6.909,0,0,1-3.7-2.225,6.292,6.292,0,0,1-1.065-1.756,6.187,6.187,0,0,1-.522-1.916,6.877,6.877,0,0,1,.522-3.609,6.76,6.76,0,0,1,6.153-4.077,5,5,0,0,1,1.661.224c0,.053-.6-.117-1.65-.075a6.717,6.717,0,0,0-4.077,1.607,6.525,6.525,0,0,0-1.8,2.448,6.7,6.7,0,0,0-.458,3.438,6.23,6.23,0,0,0,.511,1.81,6.131,6.131,0,0,0,1.064,1.661,6.483,6.483,0,0,0,3.5,2.129,6.579,6.579,0,0,0,4.056-.394,5.929,5.929,0,0,0,1.661-1.065,5.812,5.812,0,0,0,1.235-1.426,6.558,6.558,0,0,0,1.064-3.3,6.675,6.675,0,0,0-3.577-6.174C425.539,132.336,424.933,132.24,424.943,132.187Z" transform="translate(-40.927 -16.253)" fill="#e0e0e0"/>
      <path id="Path_5411" data-name="Path 5411" d="M431.11,125.706a1.874,1.874,0,0,1,0-.234v-3.566l.053.064-6.142-1.341.106-.053-1.618,3.438v.064h-.075a15.339,15.339,0,0,0-4,.713H419.3l-2.8-2.693h.213l-5.323,3.385v-.192l1.277,3.577v.085l-.064.075a15.613,15.613,0,0,0-2.331,3.321v.085h-3.9l.16-.138c-.426,1.927-.894,4-1.363,6.142l-.1-.2,3.428,1.618h.1v.106a15.5,15.5,0,0,0,.692,3.992v.106l-.085.085-2.683,2.693V146.6l3.364,5.323-.224-.085,3.577-1.277h.106l.1.075a15.04,15.04,0,0,0,3.3,2.331h0c.053.075-.1-.17.106.17h0v3.79l-.149-.192,6.132,1.384-.213.106c.543-1.16,1.065-2.3,1.629-3.438l.053-.1h.117a15.158,15.158,0,0,0,3.981-.692h.106l.085.085,2.693,2.683h-.234l5.323-3.353-.075.2-1.277-3.577v-.1l.075-.085a15.329,15.329,0,0,0,2.342-3.311v-.085h3.9l-.149.128c.49-2.129.947-4.194,1.384-6.142l.085.17-3.428-1.639h-.075V138.9a15.127,15.127,0,0,0-.681-4v-.128c.979-.979,1.852-1.863,2.693-2.693v.149l-3.343-5.323h.106l-3.587,1.245h0a16.709,16.709,0,0,0-2.438-1.874l-.66-.394-.213-.138.234.106.671.362a15.392,15.392,0,0,1,2.491,1.852h-.064l3.566-1.3H438v.064l3.385,5.323.053.085-.064.064-2.555,2.576v-.128a15.245,15.245,0,0,1,.713,4.077l-.074-.117,3.438,1.618.106.053v.117c-.426,1.937-.884,3.971-1.363,6.132v.128h-3.949l.149-.085a15.965,15.965,0,0,1-2.384,3.4v-.181c.415,1.171.852,2.363,1.277,3.577l.053.138-.128.075-5.323,3.375-.128.075-.106-.106-2.672-2.651h.192a15.457,15.457,0,0,1-4.088.713l.16-.106c-.532,1.128-1.065,2.278-1.629,3.428l-.064.138h-.149l-6.132-1.309h-.149v-3.949h0c.2.341.053.1.106.17h0a15.436,15.436,0,0,1-3.385-2.385h.192l-3.577,1.267-.149.053-.075-.128-3.364-5.323-.085-.128.106-.106L409.021,144v.192a15.8,15.8,0,0,1-.713-4.088l.107.16-3.406-1.682-.128-.064v-.138l1.384-6.132v-.138h3.928l-.149.085a15.819,15.819,0,0,1,2.4-3.375v.16l-1.267-3.587v-.106l.106-.075,5.323-3.353h.1l.075.075,2.693,2.693h-.128a15.361,15.361,0,0,1,4.066-.692l-.1.064c.6-1.235,1.15-2.4,1.639-3.428V120.5h.075l6.121,1.416h.053v3.545a2.312,2.312,0,0,1-.085.245Z" transform="translate(-41.686 -16.989)" fill="#e0e0e0"/>
      <path id="Path_5412" data-name="Path 5412" d="M471.187,417.35v-4.524c0-2.949,0-7.281-.053-12.838,0-11.1-.053-27.124-.085-46.775l.17.17-110.849.053h0l.234-.224V417.35l-.213-.213,79.733.1,22.9.064h.085l-22.855.064-79.839.1h-.2V353H471.474v.181c0,19.7-.064,35.747-.085,46.839v16.1A3.452,3.452,0,0,1,471.187,417.35Z" transform="translate(-44.568 -1.987)" fill="#e0e0e0"/>
      <path id="Path_5413" data-name="Path 5413" d="M471.21,360.5c0,.128-24.793.224-55.355.224s-55.355-.1-55.355-.224,24.782-.224,55.355-.224S471.21,360.376,471.21,360.5Z" transform="translate(-44.55 -1.517)" fill="#e0e0e0"/>
      <rect id="Rectangle_880" data-name="Rectangle 880" width="34.246" height="34.246" transform="translate(325.361 369.568)" fill="#f5f5f5"/>
      <path id="Path_5414" data-name="Path 5414" d="M459.915,375.738a1.855,1.855,0,0,1-.5,0h-1.448l-5.323.064-17.522.075L417.6,375.8l-5.323-.064H410.83a1.854,1.854,0,0,1-.5,0,2.287,2.287,0,0,1,.5,0h1.448l5.323-.075,17.522-.064,17.522.064,5.323.075h1.448a2.287,2.287,0,0,1,.5,0Z" transform="translate(-41.334 -0.529)" fill="#e0e0e0"/>
      <path id="Path_5415" data-name="Path 5415" d="M461.011,382.932a2.341,2.341,0,0,1-.511,0h-1.48l-5.429.075-17.905.064-17.916-.064-5.429-.075h-1.48a2.341,2.341,0,0,1-.511,0,1.894,1.894,0,0,1,.511-.053h1.48l5.429-.064,17.916-.075,17.905.075,5.429.064h1.48a1.9,1.9,0,0,1,.511.053Z" transform="translate(-41.333 -0.068)" fill="#e0e0e0"/>
      <path id="Path_5416" data-name="Path 5416" d="M461.011,390.108a1.9,1.9,0,0,1-.511,0h-1.48l-5.429.064-17.905.075-17.916-.075-5.429-.064h-1.48a1.9,1.9,0,0,1-.511,0,2.344,2.344,0,0,1,.511,0h1.48l5.429-.075,17.916-.064,17.937.032,5.429.075h1.48A2.341,2.341,0,0,1,461.011,390.108Z" transform="translate(-41.333 0.398)" fill="#e0e0e0"/>
      <path id="Path_5417" data-name="Path 5417" d="M461.011,397.3a2.341,2.341,0,0,1-.511,0h-1.48l-5.429.075-17.905.064-17.916-.064-5.429-.075h-1.48a2.341,2.341,0,0,1-.511,0,1.891,1.891,0,0,1,.511-.053h1.48l5.429-.064,17.916-.075,17.905.075,5.429.064h1.48a1.894,1.894,0,0,1,.511.053Z" transform="translate(-41.333 0.859)" fill="#e0e0e0"/>
      <circle id="Ellipse_136" data-name="Ellipse 136" cx="46.073" cy="46.073" r="46.073" transform="translate(40.911 65.157) rotate(-45)" fill="#f5f5f5"/>
      <path id="Path_5418" data-name="Path 5418" d="M184.3,87.442a9.922,9.922,0,0,1-1.629.106l-4.482.085c-3.8,0-9.091.1-15.063.1h-.3V84.461c0-6.675,0-12.71.085-17.032,0-2.129.075-3.854.1-5.184a10.869,10.869,0,0,1,.117-1.895,12.4,12.4,0,0,1,.117,1.895c0,1.331,0,3.076.1,5.184,0,4.375.085,10.411.085,17.032v2.991l-.287-.3c5.972,0,11.263,0,15.063.1l4.482.1a8.6,8.6,0,0,1,1.618.1Z" transform="translate(-57.304 -20.87)" fill="#e0e0e0"/>
      <path id="Path_5419" data-name="Path 5419" d="M163.25,48.3a12.945,12.945,0,0,1,.3,3.864,13.05,13.05,0,0,1-.3,3.875,13.052,13.052,0,0,1-.3-3.875,12.945,12.945,0,0,1,.3-3.864Z" transform="translate(-57.298 -21.647)" fill="#e0e0e0"/>
      <path id="Path_5420" data-name="Path 5420" d="M183.327,54.13a12.455,12.455,0,0,1-2.491,2.917,12.316,12.316,0,0,1-2.906,2.48,12.53,12.53,0,0,1,2.491-2.906,12.859,12.859,0,0,1,2.906-2.491Z" transform="translate(-56.33 -21.271)" fill="#e0e0e0"/>
      <path id="Path_5421" data-name="Path 5421" d="M194.876,66.73a15.9,15.9,0,0,1-3.194,2.129A16.214,16.214,0,0,1,188.34,70.7a10.283,10.283,0,0,1,3.034-2.353A9.964,9.964,0,0,1,194.876,66.73Z" transform="translate(-55.658 -20.458)" fill="#e0e0e0"/>
      <path id="Path_5422" data-name="Path 5422" d="M201.885,85.44a23.238,23.238,0,0,1-5.323.3,23.238,23.238,0,0,1-5.323-.3,24,24,0,0,1,5.323-.3,24,24,0,0,1,5.323.3Z" transform="translate(-55.471 -19.273)" fill="#e0e0e0"/>
      <path id="Path_5423" data-name="Path 5423" d="M133.094,84.78a21.355,21.355,0,0,1-4.982.3,21.429,21.429,0,0,1-4.982-.3,21.429,21.429,0,0,1,4.982-.3A21.354,21.354,0,0,1,133.094,84.78Z" transform="translate(-59.865 -19.315)" fill="#e0e0e0"/>
      <path id="Path_5424" data-name="Path 5424" d="M137.839,98.68a22.781,22.781,0,0,1-3.768,3.417,22.514,22.514,0,0,1-4.141,2.949,21.748,21.748,0,0,1,3.768-3.417A21.013,21.013,0,0,1,137.839,98.68Z" transform="translate(-59.427 -18.397)" fill="#e0e0e0"/>
      <path id="Path_5425" data-name="Path 5425" d="M149.67,109.44a34.427,34.427,0,0,1-2.566,4.439,35.348,35.348,0,0,1-2.715,4.354,16.511,16.511,0,0,1,2.2-4.663,16.617,16.617,0,0,1,3.076-4.13Z" transform="translate(-58.494 -17.702)" fill="#e0e0e0"/>
      <path id="Path_5426" data-name="Path 5426" d="M163.25,123.965a24,24,0,0,1-.3-5.323,24,24,0,0,1,.3-5.323,23.994,23.994,0,0,1,.3,5.323,23.994,23.994,0,0,1-.3,5.323Z" transform="translate(-57.298 -17.452)" fill="#e0e0e0"/>
      <path id="Path_5427" data-name="Path 5427" d="M185.079,117.127a15.287,15.287,0,0,1-4.354-2.981,15.723,15.723,0,0,1-3.545-3.9,47.842,47.842,0,0,1,3.939,3.449A48.817,48.817,0,0,1,185.079,117.127Z" transform="translate(-56.378 -17.65)" fill="#e0e0e0"/>
      <path id="Path_5428" data-name="Path 5428" d="M195.028,106.308a18.384,18.384,0,0,1-3.5-3.066,18.383,18.383,0,0,1-3.066-3.5,18.47,18.47,0,0,1,3.492,3.076,18.469,18.469,0,0,1,3.076,3.492Z" transform="translate(-55.65 -18.328)" fill="#e0e0e0"/>
      <path id="Path_5429" data-name="Path 5429" d="M137.248,71.778a14.019,14.019,0,0,1-3.087-2.661A14.02,14.02,0,0,1,131.5,66.03a14.02,14.02,0,0,1,3.087,2.661,14.019,14.019,0,0,1,2.661,3.087Z" transform="translate(-59.325 -20.503)" fill="#e0e0e0"/>
      <path id="Path_5430" data-name="Path 5430" d="M149.621,58.73a13.307,13.307,0,0,1-3.034-2.544A13.445,13.445,0,0,1,144,53.12a13.392,13.392,0,0,1,3.023,2.6,13.338,13.338,0,0,1,2.6,3.013Z" transform="translate(-58.519 -21.336)" fill="#e0e0e0"/>
      <g id="Group_2208" data-name="Group 2208" transform="translate(305.071 31.432)" opacity="0.8">
        <path id="Path_5431" data-name="Path 5431" d="M401.867,62.9a31.148,31.148,0,0,1,6.664,4.673l7.079-2.523,6.653,10.507-5.323,5.323a30.318,30.318,0,0,1,1.384,7.984l6.792,3.194-2.746,12.178h-7.452a30.465,30.465,0,0,1-4.663,6.632l2.523,7.079L402.271,124.6l-5.323-5.323a30.329,30.329,0,0,1-7.984,1.395l-3.194,6.781-12.136-2.715v-7.516A30.147,30.147,0,0,1,367,112.552l-7.079,2.523L353.176,104.6l5.323-5.323a30.49,30.49,0,0,1-1.426-7.941l-6.792-3.194,2.725-12.136h7.516a30.149,30.149,0,0,1,4.673-6.632L362.671,62.3l10.507-6.653,5.323,5.323a30.488,30.488,0,0,1,7.995-1.395l3.194-6.781,12.136,2.725v7.452Zm-10.7,14.286a13.328,13.328,0,1,0,8.363,5.887,13.338,13.338,0,0,0-8.363-5.887Z" transform="translate(-350.28 -52.79)" fill="#ebebeb" fill-rule="evenodd"/>
      </g>
      <path id="Path_5432" data-name="Path 5432" d="M63.7,163.679h78.775s-6.962-12.668-27.231-10.826c-19.353,1.767-20.343-6.227-30.19-7.217S66.979,152.2,63.7,163.679Z" transform="translate(-63.7 -15.373)" fill="#f5f5f5"/>
      <path id="Path_5433" data-name="Path 5433" d="M223.8,297.96h63.733S281.9,287.708,265.5,289.2c-15.67,1.426-16.468-5.046-24.484-5.844S226.451,288.666,223.8,297.96Z" transform="translate(-53.37 -6.485)" fill="#f5f5f5"/>
    </g>
    <g id="freepik--Floor--inject-189" transform="translate(0 448.481)">
      <path id="Path_5434" data-name="Path 5434" d="M509.85,444.837c0,.149-109.646.277-244.989.277s-245.011-.085-245.011-.277,109.646-.277,245.011-.277S509.85,444.688,509.85,444.837Z" transform="translate(-19.85 -444.56)" fill="#263238"/>
    </g>
    <g id="freepik--Screens--inject-189" transform="translate(25.708 129.315)">
      <rect id="Rectangle_881" data-name="Rectangle 881" width="154.654" height="103.557" transform="translate(283.067 0.415)" fill="#fff"/>
      <path id="Path_5435" data-name="Path 5435" d="M464.575,248.7v-7.345c0-4.79,0-11.827-.064-20.822,0-18-.064-43.858-.117-75.379l.224.213-154.643.064h0l.277-.277V248.7l-.255-.255,111.424.128,31.829.064h.106l-31.776.064L310,248.829h-.255V144.74h.287l154.643.064h.224v.224c0,31.584-.085,57.484-.117,75.507,0,8.985,0,15.968-.053,20.779v5.429A10.718,10.718,0,0,1,464.575,248.7Z" transform="translate(-26.854 -144.74)" fill="#16697a"/>
      <path id="Path_5436" data-name="Path 5436" d="M309.91,153.827c0-.16,34.6-.277,77.263-.277s77.263.117,77.263.277-34.586.277-77.263.277S309.91,154.029,309.91,153.827Z" transform="translate(-26.843 -144.172)" fill="#16697a"/>
      <g id="Group_2209" data-name="Group 2209" transform="translate(286.676 3.747)" opacity="0.3">
        <path id="Path_5437" data-name="Path 5437" d="M315.791,149.505a1.235,1.235,0,1,1-.358-.88A1.246,1.246,0,0,1,315.791,149.505Z" transform="translate(-313.3 -148.26)" fill="#16697a"/>
      </g>
      <g id="Group_2210" data-name="Group 2210" transform="translate(290.923 3.747)" opacity="0.3">
        <path id="Path_5438" data-name="Path 5438" d="M319.781,149.505a1.235,1.235,0,1,1-.358-.88,1.246,1.246,0,0,1,.358.88Z" transform="translate(-317.29 -148.26)" fill="#16697a"/>
      </g>
      <g id="Group_2211" data-name="Group 2211" transform="translate(295.107 3.747)" opacity="0.3">
        <path id="Path_5439" data-name="Path 5439" d="M323.711,149.505a1.235,1.235,0,1,1-.358-.88A1.246,1.246,0,0,1,323.711,149.505Z" transform="translate(-321.22 -148.26)" fill="#16697a"/>
      </g>
      <rect id="Rectangle_882" data-name="Rectangle 882" width="41.25" height="41.25" transform="translate(296.363 20.45)" fill="#16697a"/>
      <path id="Path_5440" data-name="Path 5440" d="M439.627,174.917c0,.16-16.1.277-35.938.277s-35.938-.117-35.938-.277,16.1-.277,35.938-.277S439.627,174.768,439.627,174.917Z" transform="translate(-23.111 -142.811)" fill="#16697a"/>
      <path id="Path_5441" data-name="Path 5441" d="M439.627,182.127c0,.149-16.1.277-35.938.277s-35.938-.128-35.938-.277,16.1-.277,35.938-.277S439.627,182.01,439.627,182.127Z" transform="translate(-23.111 -142.346)" fill="#16697a"/>
      <path id="Path_5442" data-name="Path 5442" d="M439.627,189.327c0,.149-16.1.277-35.938.277s-35.938-.128-35.938-.277,16.1-.277,35.938-.277S439.627,189.167,439.627,189.327Z" transform="translate(-23.111 -141.881)" fill="#16697a"/>
      <path id="Path_5443" data-name="Path 5443" d="M410.235,196.527a9.133,9.133,0,0,1-1.671.106l-4.556.085c-3.843.053-9.155.085-15.01.085s-11.177,0-15.02-.085l-4.556-.085a9.133,9.133,0,0,1-1.671-.106,9.133,9.133,0,0,1,1.671-.106l4.556-.085c3.843-.053,9.155-.085,15.02-.085s11.167,0,15.01.085l4.556.085A9.133,9.133,0,0,1,410.235,196.527Z" transform="translate(-23.111 -141.416)" fill="#16697a"/>
      <g id="Group_2212" data-name="Group 2212" transform="translate(298.939 75.613)" opacity="0.3">
        <rect id="Rectangle_883" data-name="Rectangle 883" width="19.385" height="19.385" fill="#16697a"/>
      </g>
      <rect id="Rectangle_884" data-name="Rectangle 884" width="19.385" height="19.385" transform="translate(334.101 75.613)" fill="#16697a"/>
      <rect id="Rectangle_885" data-name="Rectangle 885" width="19.385" height="19.385" transform="translate(369.262 75.613)" fill="#16697a"/>
      <rect id="Rectangle_886" data-name="Rectangle 886" width="19.385" height="19.385" transform="translate(404.423 75.613)" fill="#16697a"/>
      <g id="Group_2213" data-name="Group 2213" transform="translate(296.363 20.45)" opacity="0.3">
        <rect id="Rectangle_887" data-name="Rectangle 887" width="41.25" height="41.25" fill="#fff"/>
      </g>
      <g id="Group_2214" data-name="Group 2214" transform="translate(334.101 75.613)" opacity="0.3">
        <rect id="Rectangle_888" data-name="Rectangle 888" width="19.385" height="19.385" fill="#fff"/>
      </g>
      <g id="Group_2215" data-name="Group 2215" transform="translate(369.262 75.613)" opacity="0.3">
        <rect id="Rectangle_889" data-name="Rectangle 889" width="19.385" height="19.385" fill="#fff"/>
      </g>
      <g id="Group_2216" data-name="Group 2216" transform="translate(404.423 75.613)" opacity="0.3">
        <rect id="Rectangle_890" data-name="Rectangle 890" width="19.385" height="19.385" fill="#fff"/>
      </g>
      <rect id="Rectangle_891" data-name="Rectangle 891" width="137.771" height="55.962" transform="translate(0.224 37.716)" fill="#fff"/>
      <path id="Path_5444" data-name="Path 5444" d="M181.994,236.143V221.1c0-9.655,0-23.632-.085-40.92l.149.149-137.76.064h0l.224-.213v55.962l-.213-.213,98.777.1,28.657.064h.1l-28.6.053-98.926.1H44V180h.224l137.76.075h.16v.149c0,17.33-.064,31.329-.085,41.016v13.977A4.553,4.553,0,0,1,181.994,236.143Z" transform="translate(-44 -142.465)" fill="#16697a"/>
      <path id="Path_5445" data-name="Path 5445" d="M44.34,187.274c0-.117,30.8-.224,68.768-.224s68.789.106,68.789.224-30.8.213-68.789.213S44.34,187.391,44.34,187.274Z" transform="translate(-43.978 -142.01)" fill="#16697a"/>
      <g id="Group_2217" data-name="Group 2217" transform="translate(4.13 40.888)" opacity="0.3">
        <path id="Path_5446" data-name="Path 5446" d="M49.881,184.151a1,1,0,1,1-1-1A1,1,0,0,1,49.881,184.151Z" transform="translate(-47.88 -183.15)" fill="#16697a"/>
      </g>
      <g id="Group_2218" data-name="Group 2218" transform="translate(7.579 40.888)" opacity="0.3">
        <path id="Path_5447" data-name="Path 5447" d="M53.121,184.151a1,1,0,1,1-1-1A1,1,0,0,1,53.121,184.151Z" transform="translate(-51.12 -183.15)" fill="#16697a"/>
      </g>
      <g id="Group_2219" data-name="Group 2219" transform="translate(10.933 40.888)" opacity="0.3">
        <path id="Path_5448" data-name="Path 5448" d="M56.271,184.151a1,1,0,1,1-1-1A1,1,0,0,1,56.271,184.151Z" transform="translate(-54.27 -183.15)" fill="#16697a"/>
      </g>
      <rect id="Rectangle_892" data-name="Rectangle 892" width="33.277" height="33.277" transform="translate(11.933 54.355)" fill="#16697a"/>
      <path id="Path_5449" data-name="Path 5449" d="M169.317,204.193c0,.117-17.128.224-38.248.224s-38.248-.106-38.248-.224,17.128-.213,38.248-.213S169.317,204.076,169.317,204.193Z" transform="translate(-40.85 -140.918)" fill="#16697a"/>
      <path id="Path_5450" data-name="Path 5450" d="M169.317,210.564c0,.117-17.128.213-38.248.213s-38.248-.1-38.248-.213,17.128-.224,38.248-.224S169.317,210.446,169.317,210.564Z" transform="translate(-40.85 -140.507)" fill="#16697a"/>
      <path id="Path_5451" data-name="Path 5451" d="M142.067,216.928a3.675,3.675,0,0,1-.5,0H140.13l-5.269.064-17.416.064-17.4-.064-5.323-.064H93.28a3.952,3.952,0,0,1-.5,0,1.735,1.735,0,0,1,.5,0h1.437l5.323-.075,17.4-.064,17.416.064,5.269.075h1.437A1.671,1.671,0,0,1,142.067,216.928Z" transform="translate(-40.853 -140.091)" fill="#16697a"/>
      <g id="Group_2220" data-name="Group 2220" transform="translate(11.933 54.355)" opacity="0.3">
        <rect id="Rectangle_893" data-name="Rectangle 893" width="33.277" height="33.277" fill="#f5f5f5"/>
      </g>
    </g>
    <g id="freepik--Rocket--inject-189" transform="translate(185.172 58.831)">
      <path id="Path_5452" data-name="Path 5452" d="M271.475,114.158c-2.31-1.544-5.482-.607-7.792.937s-4.258,3.651-6.866,4.652c-4.854,1.884-11.231-.351-15,3.194-2.4,2.278-2.64,6.025-4.471,8.782-3.087,4.641-10.5,6.387-11.124,11.923-.373,3.194,2.182,6.323,5.323,7.228a11.38,11.38,0,0,0,9.261-1.852c3.194-2.129,5.653-5.323,9.251-6.536s8.229-.2,11.135-2.768,2.47-7.3,4.556-10.581a21.292,21.292,0,0,1,4.418-4.322c1.565-1.352,3.055-3.023,3.321-5.078s-.575-5.557-1.991-5.631" transform="translate(-191.709 -76.28)" fill="#f5f5f5"/>
      <path id="Path_5453" data-name="Path 5453" d="M212.382,326.561c.138-.075.564.351.969.958s.628,1.182.5,1.267-.554-.341-.969-.958S212.254,326.646,212.382,326.561Z" transform="translate(-192.602 -62.524)" fill="#263238"/>
      <path id="Path_5454" data-name="Path 5454" d="M208.1,317.54a6.824,6.824,0,0,1,1.267,2.363,6.749,6.749,0,0,1,.756,2.565,13.051,13.051,0,0,1-2.023-4.929Z" transform="translate(-192.876 -63.106)" fill="#263238"/>
      <path id="Path_5455" data-name="Path 5455" d="M205.783,307.82a12.955,12.955,0,0,1,.969,5.237,6.579,6.579,0,0,1-.756-2.565,6.728,6.728,0,0,1-.213-2.672Z" transform="translate(-193.028 -63.733)" fill="#263238"/>
      <path id="Path_5456" data-name="Path 5456" d="M205.452,297.83a13.19,13.19,0,0,1-.075,5.323,6.323,6.323,0,0,1-.245-2.661,6.388,6.388,0,0,1,.319-2.661Z" transform="translate(-193.07 -64.378)" fill="#263238"/>
      <path id="Path_5457" data-name="Path 5457" d="M207.07,288a6.643,6.643,0,0,1-.287,2.661,6.823,6.823,0,0,1-.83,2.544,6.653,6.653,0,0,1,.287-2.661,6.9,6.9,0,0,1,.83-2.544Z" transform="translate(-193.016 -65.012)" fill="#263238"/>
      <path id="Path_5458" data-name="Path 5458" d="M210.769,278.65a12.53,12.53,0,0,1-2.129,4.854,6.718,6.718,0,0,1,.841-2.544C210.088,279.608,210.631,278.576,210.769,278.65Z" transform="translate(-192.841 -65.616)" fill="#263238"/>
      <path id="Path_5459" data-name="Path 5459" d="M216.343,270.31a6.749,6.749,0,0,1-1.363,2.31,7.674,7.674,0,0,1-1.8,1.98c-.149-.1.468-1.128,1.352-2.31S216.183,270.215,216.343,270.31Z" transform="translate(-192.549 -66.154)" fill="#263238"/>
      <path id="Path_5460" data-name="Path 5460" d="M223.093,262.911c.117.106-.617,1.065-1.629,2.129s-1.927,1.831-2.044,1.735.617-1.065,1.639-2.129S222.987,262.794,223.093,262.911Z" transform="translate(-192.146 -66.632)" fill="#263238"/>
      <path id="Path_5461" data-name="Path 5461" d="M230.137,255.791c.117.106-.639,1.064-1.671,2.129s-1.959,1.81-2.065,1.7.639-1.065,1.671-2.129S230.031,255.684,230.137,255.791Z" transform="translate(-191.695 -67.091)" fill="#263238"/>
      <path id="Path_5462" data-name="Path 5462" d="M236.7,248.25a6.685,6.685,0,0,1-1.48,2.236c-.937,1.15-1.788,1.991-1.905,1.884a7.111,7.111,0,0,1,1.48-2.236C235.716,249.049,236.567,248.165,236.7,248.25Z" transform="translate(-191.249 -67.577)" fill="#263238"/>
      <path id="Path_5463" data-name="Path 5463" d="M241.738,239.67a5.791,5.791,0,0,1-.894,2.534,5.9,5.9,0,0,1-1.544,2.2,7.6,7.6,0,0,1,1.065-2.459,7.9,7.9,0,0,1,1.373-2.278Z" transform="translate(-190.862 -68.13)" fill="#263238"/>
      <path id="Path_5464" data-name="Path 5464" d="M244.054,230a5.418,5.418,0,0,1-.053,2.683,5.621,5.621,0,0,1-.82,2.566,8.1,8.1,0,0,1,.277-2.651,8.3,8.3,0,0,1,.6-2.6Z" transform="translate(-190.613 -68.754)" fill="#263238"/>
      <path id="Path_5465" data-name="Path 5465" d="M243.282,220.07a5.461,5.461,0,0,1,.788,2.566,5.609,5.609,0,0,1,0,2.693,8.068,8.068,0,0,1-.575-2.608A8.239,8.239,0,0,1,243.282,220.07Z" transform="translate(-190.607 -69.395)" fill="#263238"/>
      <path id="Path_5466" data-name="Path 5466" d="M239.35,210.92c.128-.085.9.841,1.607,2.129a5.589,5.589,0,0,1,.915,2.534,8.4,8.4,0,0,1-1.405-2.267,8.686,8.686,0,0,1-1.118-2.4Z" transform="translate(-190.859 -69.986)" fill="#263238"/>
      <path id="Path_5467" data-name="Path 5467" d="M232.38,203.82a5.631,5.631,0,0,1,2.3,1.395c1.139.958,1.884,1.916,1.778,2.023s-1.065-.66-2.129-1.6S232.285,203.948,232.38,203.82Z" transform="translate(-191.309 -70.444)" fill="#263238"/>
      <path id="Path_5468" data-name="Path 5468" d="M223.29,199.761a5.546,5.546,0,0,1,2.64.49,5.471,5.471,0,0,1,2.4,1.235,8.516,8.516,0,0,1-2.576-.713,7.867,7.867,0,0,1-2.459-1.011Z" transform="translate(-191.895 -70.706)" fill="#263238"/>
      <path id="Path_5469" data-name="Path 5469" d="M213.35,199.347a5.322,5.322,0,0,1,2.629-.554,5.461,5.461,0,0,1,2.683.277,8.889,8.889,0,0,1-2.651.277A8.516,8.516,0,0,1,213.35,199.347Z" transform="translate(-192.537 -70.772)" fill="#263238"/>
      <path id="Path_5470" data-name="Path 5470" d="M204.13,203.152c-.1-.128.82-.926,2.129-1.629a5.11,5.11,0,0,1,2.544-.884A9.327,9.327,0,0,1,206.515,202,8.888,8.888,0,0,1,204.13,203.152Z" transform="translate(-193.132 -70.649)" fill="#263238"/>
      <path id="Path_5471" data-name="Path 5471" d="M197.26,210.435a5.419,5.419,0,0,1,1.309-2.353c.9-1.182,1.842-1.959,1.948-1.852a8.546,8.546,0,0,1-1.512,2.193C198.122,209.552,197.388,210.51,197.26,210.435Z" transform="translate(-193.575 -70.289)" fill="#263238"/>
      <path id="Path_5472" data-name="Path 5472" d="M193.9,219.834a5.237,5.237,0,0,1,.2-2.683,5.323,5.323,0,0,1,1.065-2.491,8.825,8.825,0,0,1-.5,2.619,8.708,8.708,0,0,1-.766,2.555Z" transform="translate(-193.798 -69.744)" fill="#263238"/>
      <path id="Path_5473" data-name="Path 5473" d="M195.163,229.684a5.323,5.323,0,0,1-1.065-2.491,5.184,5.184,0,0,1-.213-2.683,9.634,9.634,0,0,1,.756,2.555A9.251,9.251,0,0,1,195.163,229.684Z" transform="translate(-193.798 -69.109)" fill="#263238"/>
      <path id="Path_5474" data-name="Path 5474" d="M200.338,238.192c-.117.106-1-.724-1.863-1.937a5.61,5.61,0,0,1-1.245-2.385c.138-.075.841.884,1.693,2.065A8.2,8.2,0,0,1,200.338,238.192Z" transform="translate(-193.577 -68.505)" fill="#263238"/>
      <path id="Path_5475" data-name="Path 5475" d="M207.762,244.883a5.972,5.972,0,0,1-2.289-1.405c-1.16-.926-1.959-1.831-1.852-1.948a7.845,7.845,0,0,1,2.193,1.522C206.953,243.968,207.857,244.755,207.762,244.883Z" transform="translate(-193.165 -68.01)" fill="#263238"/>
      <path id="Path_5476" data-name="Path 5476" d="M216.468,249.8a12.774,12.774,0,0,1-4.748-2.416,6.9,6.9,0,0,1,2.5.958,6.675,6.675,0,0,1,2.246,1.458Z" transform="translate(-192.642 -67.633)" fill="#263238"/>
      <path id="Path_5477" data-name="Path 5477" d="M226.013,252.761a5.833,5.833,0,0,1-2.672-.319,5.7,5.7,0,0,1-2.491-1.011,8.123,8.123,0,0,1,2.629.479,7.579,7.579,0,0,1,2.534.852Z" transform="translate(-192.053 -67.372)" fill="#263238"/>
      <path id="Path_5478" data-name="Path 5478" d="M235.983,253.2a9.7,9.7,0,0,1-5.323.106,7.824,7.824,0,0,1,2.651-.234,8.1,8.1,0,0,1,2.672.128Z" transform="translate(-191.42 -67.269)" fill="#263238"/>
      <path id="Path_5479" data-name="Path 5479" d="M245.583,250.62a9.517,9.517,0,0,1-5,1.8,7.961,7.961,0,0,1,2.448-1.065,7.814,7.814,0,0,1,2.555-.734Z" transform="translate(-190.78 -67.424)" fill="#263238"/>
      <path id="Path_5480" data-name="Path 5480" d="M253.876,245.15c.106.117-.7,1.065-1.884,1.916a5.76,5.76,0,0,1-2.331,1.331c-.085-.138.841-.873,2-1.767A8.41,8.41,0,0,1,253.876,245.15Z" transform="translate(-190.194 -67.777)" fill="#263238"/>
      <path id="Path_5481" data-name="Path 5481" d="M260.324,237.59a5.769,5.769,0,0,1-1.309,2.342c-.883,1.192-1.767,2.012-1.884,1.916a8.211,8.211,0,0,1,1.448-2.246C259.451,238.421,260.186,237.505,260.324,237.59Z" transform="translate(-189.713 -68.265)" fill="#263238"/>
      <path id="Path_5482" data-name="Path 5482" d="M264.581,228.59a5.642,5.642,0,0,1-.649,2.608c-.553,1.384-1.2,2.406-1.341,2.331a7.92,7.92,0,0,1,.82-2.534A8.186,8.186,0,0,1,264.581,228.59Z" transform="translate(-189.36 -68.845)" fill="#263238"/>
      <path id="Path_5483" data-name="Path 5483" d="M266.444,218.8a10.155,10.155,0,0,1-.724,5.269,17.437,17.437,0,0,1,.724-5.269Z" transform="translate(-189.158 -69.477)" fill="#263238"/>
      <path id="Path_5484" data-name="Path 5484" d="M266.146,208.811a6.388,6.388,0,0,1,.49,2.629,6.835,6.835,0,0,1-.075,2.683,13.189,13.189,0,0,1-.415-5.323Z" transform="translate(-189.137 -70.122)" fill="#263238"/>
      <path id="Path_5485" data-name="Path 5485" d="M264,199.05a6.5,6.5,0,0,1,.969,2.5,6.611,6.611,0,0,1,.426,2.64,6.7,6.7,0,0,1-.969-2.5A6.579,6.579,0,0,1,264,199.05Z" transform="translate(-189.269 -70.751)" fill="#263238"/>
      <path id="Path_5486" data-name="Path 5486" d="M260.14,189.81c.138-.075.777.947,1.416,2.278a6.547,6.547,0,0,1,.83,2.555A15.649,15.649,0,0,1,260.14,189.81Z" transform="translate(-189.518 -71.348)" fill="#263238"/>
      <path id="Path_5487" data-name="Path 5487" d="M255.22,181.1c.138-.085.841.884,1.586,2.129a6.558,6.558,0,0,1,1.064,2.438,6.844,6.844,0,0,1-1.586-2.129,6.92,6.92,0,0,1-1.064-2.438Z" transform="translate(-189.835 -71.91)" fill="#263238"/>
      <path id="Path_5488" data-name="Path 5488" d="M250.26,172.41c.138-.075.82.915,1.533,2.193a6.856,6.856,0,0,1,1.065,2.47,6.824,6.824,0,0,1-1.533-2.2A6.547,6.547,0,0,1,250.26,172.41Z" transform="translate(-190.155 -72.47)" fill="#263238"/>
      <path id="Path_5489" data-name="Path 5489" d="M246.35,163.21a12.828,12.828,0,0,1,1.863,4.993,6.387,6.387,0,0,1-1.192-2.406A6.621,6.621,0,0,1,246.35,163.21Z" transform="translate(-190.408 -73.064)" fill="#263238"/>
      <path id="Path_5490" data-name="Path 5490" d="M244.662,153.38a7.452,7.452,0,0,1,.468,2.629,7.759,7.759,0,0,1,.1,2.661,5.652,5.652,0,0,1-.639-2.608A5.823,5.823,0,0,1,244.662,153.38Z" transform="translate(-190.529 -73.698)" fill="#263238"/>
      <path id="Path_5491" data-name="Path 5491" d="M245.536,143.43a8.048,8.048,0,0,1-.192,2.661,7.527,7.527,0,0,1-.585,2.608,5.94,5.94,0,0,1,0-2.693,5.77,5.77,0,0,1,.777-2.576Z" transform="translate(-190.52 -74.34)" fill="#263238"/>
      <path id="Path_5492" data-name="Path 5492" d="M248.865,134a7.77,7.77,0,0,1-.852,2.534,7.974,7.974,0,0,1-1.2,2.385A9.975,9.975,0,0,1,248.865,134Z" transform="translate(-190.378 -74.949)" fill="#263238"/>
      <path id="Path_5493" data-name="Path 5493" d="M254.507,125.71c.117.106-.586,1.065-1.48,2.225s-1.65,2.129-1.778,1.991a5.642,5.642,0,0,1,1.341-2.331C253.5,126.424,254.4,125.615,254.507,125.71Z" transform="translate(-190.091 -75.484)" fill="#263238"/>
      <path id="Path_5494" data-name="Path 5494" d="M262.076,119.13c.085.128-.841.884-1.991,1.778a7.932,7.932,0,0,1-2.225,1.48c-.106-.117.713-1.064,1.884-1.916a5.791,5.791,0,0,1,2.331-1.341Z" transform="translate(-189.665 -75.908)" fill="#263238"/>
      <path id="Path_5495" data-name="Path 5495" d="M271.016,114.61a7.984,7.984,0,0,1-2.374,1.224,7.686,7.686,0,0,1-2.512.884c-.075-.138.937-.8,2.3-1.384a5.589,5.589,0,0,1,2.587-.724Z" transform="translate(-189.132 -76.2)" fill="#263238"/>
      <path id="Path_5496" data-name="Path 5496" d="M278.159,112.777c0,.149-.543.383-1.256.511s-1.331.128-1.363,0,.532-.383,1.256-.522S278.159,112.628,278.159,112.777Z" transform="translate(-188.524 -76.325)" fill="#263238"/>
      <path id="Path_5497" data-name="Path 5497" d="M298.38,83.64s12.5-8.921,29.807-3.194c0,0,1.416,14.328-12.455,25.719" transform="translate(-187.05 -78.528)" fill="#16697a"/>
      <path id="Path_5498" data-name="Path 5498" d="M261.35,109.941c.532.8,14.1,22.61,14.1,22.61l40.739-25.1a14.265,14.265,0,0,0,3.981-20.63h0a14.254,14.254,0,0,0-19.406-3.343Z" transform="translate(-189.44 -78.365)" fill="#16697a"/>
      <path id="Path_5499" data-name="Path 5499" d="M274.655,130.136l-.915,15.35s26.4-12.774,19.811-27Z" transform="translate(-188.64 -75.949)" fill="#263238"/>
      <path id="Path_5500" data-name="Path 5500" d="M281.058,96.449s-17.905-7.9-32.638,3.683l13.764,8.985Z" transform="translate(-190.274 -77.541)" fill="#263238"/>
      <path id="Path_5501" data-name="Path 5501" d="M280.544,108.217,255.07,124.185s.873,2.746,1.554,2.512,19.726-11.5,25.932-15.169a1.916,1.916,0,0,0,.5-2.864h0a1.927,1.927,0,0,0-2.512-.447Z" transform="translate(-189.845 -76.63)" fill="#263238"/>
      <ellipse id="Ellipse_137" data-name="Ellipse 137" cx="8.154" cy="8.154" rx="8.154" ry="8.154" transform="translate(104.331 25.577) rotate(-76.76)" fill="#fafafa"/>
      <path id="Path_5502" data-name="Path 5502" d="M309.68,97.359a14.875,14.875,0,0,0-.362-1.959,8.069,8.069,0,0,0-2.981-4.365,7.9,7.9,0,0,0-3.353-1.458,8.005,8.005,0,0,0-4.152.362,7.877,7.877,0,0,0-3.7,12.082,7.909,7.909,0,0,0,3.662,2.768,8.016,8.016,0,0,0,4.152.362,7.9,7.9,0,0,0,3.353-1.458,8.112,8.112,0,0,0,2.981-4.365c.33-1.235.3-1.969.362-1.969a1.714,1.714,0,0,1,0,.532,6.57,6.57,0,0,1-.181,1.49A8.229,8.229,0,0,1,303,105.6a8.387,8.387,0,1,1,3.513-14.871,8.122,8.122,0,0,1,3.023,4.663,6.568,6.568,0,0,1,.181,1.49A1.608,1.608,0,0,1,309.68,97.359Z" transform="translate(-187.397 -77.854)" fill="#263238"/>
      <path id="Path_5503" data-name="Path 5503" d="M318.9,103.393c-.106,0-.224-1.586-.852-4.066a31.932,31.932,0,0,0-1.416-4.258,31.159,31.159,0,0,0-5.919-9.166,31.5,31.5,0,0,0-3.289-3.045c-2.012-1.586-3.406-2.353-3.353-2.448a4.715,4.715,0,0,1,1.011.479,12.342,12.342,0,0,1,1.139.671c.426.287.926.585,1.437.99a26.391,26.391,0,0,1,3.417,3,28.475,28.475,0,0,1,6.025,9.325,27.582,27.582,0,0,1,1.331,4.354c.16.628.224,1.214.309,1.725a11.706,11.706,0,0,1,.138,1.309,3.928,3.928,0,0,1,.021,1.128Z" transform="translate(-186.683 -78.406)" fill="#263238"/>
      <path id="Path_5504" data-name="Path 5504" d="M316.852,104.48c-.106,0-.234-1.607-.873-4.13a33,33,0,0,0-1.437-4.322,34.064,34.064,0,0,0-2.587-4.939,34.5,34.5,0,0,0-3.406-4.407,31.845,31.845,0,0,0-3.343-3.119c-2.033-1.629-3.449-2.416-3.4-2.512a4.791,4.791,0,0,1,1.065.5,10.911,10.911,0,0,1,1.139.692,11.572,11.572,0,0,1,1.458,1.065,29.219,29.219,0,0,1,3.449,3.013,31.71,31.71,0,0,1,3.5,4.46,32.436,32.436,0,0,1,2.587,5.046,28.516,28.516,0,0,1,1.352,4.428c.16.639.224,1.235.309,1.746a10.335,10.335,0,0,1,.149,1.331,5.152,5.152,0,0,1,.032,1.15Z" transform="translate(-186.829 -78.365)" fill="#263238"/>
    </g>
    <g id="freepik--Plant--inject-189" transform="translate(18.358 278.253)">
      <path id="Path_5505" data-name="Path 5505" d="M82.3,425.39c-.915-3.619,1.48-7.239,4.152-9.847s5.855-4.939,7.26-8.4c2.267-5.6-.7-12.891,3.194-17.554,2.257-2.746,6.3-3.641,8.3-6.579a14.967,14.967,0,0,0,1.831-5.248,53.428,53.428,0,0,1,13.434-24.8,46.254,46.254,0,0,1-5.323,23.941c-1.565,2.938-3.481,5.8-4,9.091-.873,5.323,2.129,10.848.745,16.085-1.544,5.983-8.293,9.964-8.655,16.128-.3,5.227,4.258,9.826,3.854,15.042a13.988,13.988,0,0,1-2.353,6.174c-4.173,6.653-10.1,11.241-19.076,11.039l-11.007.319Z" transform="translate(-34.671 -280.242)" fill="#16697a"/>
      <g id="Group_2221" data-name="Group 2221" transform="translate(39.989 72.718)" opacity="0.3">
        <path id="Path_5506" data-name="Path 5506" d="M82.3,425.39c-.915-3.619,1.48-7.239,4.152-9.847s5.855-4.939,7.26-8.4c2.267-5.6-.7-12.891,3.194-17.554,2.257-2.746,6.3-3.641,8.3-6.579a14.967,14.967,0,0,0,1.831-5.248,53.428,53.428,0,0,1,13.434-24.8,46.254,46.254,0,0,1-5.323,23.941c-1.565,2.938-3.481,5.8-4,9.091-.873,5.323,2.129,10.848.745,16.085-1.544,5.983-8.293,9.964-8.655,16.128-.3,5.227,4.258,9.826,3.854,15.042a13.988,13.988,0,0,1-2.353,6.174c-4.173,6.653-10.1,11.241-19.076,11.039l-11.007.319Z" transform="translate(-74.66 -352.96)"/>
      </g>
      <path id="Path_5507" data-name="Path 5507" d="M74.848,453.378a8.579,8.579,0,0,1-3.034-.085,18.524,18.524,0,0,1-3.566-.915,15.384,15.384,0,0,1-4.407-2.448,6.079,6.079,0,0,1-1.8-2.427,11.434,11.434,0,0,1-.5-3.289,34.551,34.551,0,0,0-.234-3.566,9.751,9.751,0,0,0-1.331-3.545c-1.277-2.289-3.428-4.45-4.1-7.558s-.181-6.387.351-9.634,1.065-6.9-.2-10.347-3.556-6.568-4.737-10.454-.6-8.133-.83-12.3a16.181,16.181,0,0,0-1.395-6.121c-.884-1.948-2.129-3.79-3.055-5.844-1.927-4.162-2.246-8.857-2.757-13.466-.245-2.321-.5-4.673-.745-7.036a34.352,34.352,0,0,0-1.192-7.047,61.253,61.253,0,0,0-2.587-6.824,22.355,22.355,0,0,1-1.256-3.566,35.522,35.522,0,0,1-.341-3.79,44.509,44.509,0,0,1,.341-7.611c.309-2.534.788-5.056,1.065-7.6v-.436l.053-.5.447.224a16.872,16.872,0,0,1,5.9,5.035,27.028,27.028,0,0,1,3.609,6.728c1.81,4.737,2.438,9.7,3.343,14.424s2.044,9.4,4.439,13.338c1.2,1.969,2.651,3.768,3.917,5.685a15.723,15.723,0,0,1,2.693,6.281c.617,4.663-1.969,8.74-1.458,12.859a14.361,14.361,0,0,0,2.044,5.716c.99,1.767,2.129,3.4,3.257,5.046a31.607,31.607,0,0,1,2.927,5.088,15.969,15.969,0,0,1,1.352,5.536c.245,3.715-.3,7.228,0,10.56a24.2,24.2,0,0,0,2.661,9.059c1.309,2.715,2.778,5.174,4,7.547a37.265,37.265,0,0,1,1.65,3.524,16.809,16.809,0,0,1,.947,3.481,21.833,21.833,0,0,1,0,6.281,15.808,15.808,0,0,1-3.194,7.995,7.242,7.242,0,0,1-.894.958,4.2,4.2,0,0,1-.724.607l-.628.436a14,14,0,0,0,2.129-2.129,15.968,15.968,0,0,0,3.034-7.931,21.781,21.781,0,0,0-.106-6.2,16.714,16.714,0,0,0-.958-3.406c-.458-1.139-1.065-2.289-1.65-3.47-1.245-2.353-2.725-4.8-4.066-7.537a24.676,24.676,0,0,1-2.757-9.219c-.277-3.4.255-6.919,0-10.549a15.489,15.489,0,0,0-1.3-5.323,31.608,31.608,0,0,0-2.9-4.993c-1.065-1.639-2.278-3.279-3.3-5.078a15.074,15.074,0,0,1-2.065-5.961c-.5-4.4,2.065-8.516,1.426-12.827a14.9,14.9,0,0,0-2.619-5.983c-1.245-1.884-2.7-3.683-3.939-5.7-2.47-4.056-3.662-8.8-4.546-13.562s-1.544-9.666-3.321-14.307a26.251,26.251,0,0,0-3.513-6.547,16.234,16.234,0,0,0-5.642-4.822l.511-.287-.053.447c-.3,2.576-.766,5.1-1.065,7.6a43.326,43.326,0,0,0-.341,7.5c.064,1.224.138,2.512.319,3.673a23.632,23.632,0,0,0,1.214,3.438,62.042,62.042,0,0,1,2.619,6.9,34.979,34.979,0,0,1,1.182,7.143c.255,2.363.5,4.716.745,7.036.5,4.631.82,9.251,2.672,13.264.926,2,2.129,3.843,3.045,5.866a17.032,17.032,0,0,1,1.448,6.387c.213,4.258-.362,8.4.766,12.168s3.5,6.877,4.695,10.443.713,7.3.17,10.592-1.065,6.536-.4,9.464,2.693,5.11,4,7.452a10.1,10.1,0,0,1,1.352,3.683,33,33,0,0,1,.213,3.609,10.868,10.868,0,0,0,.447,3.194,5.9,5.9,0,0,0,1.693,2.331A15.148,15.148,0,0,0,68.28,452.2a18.7,18.7,0,0,0,3.513.979,15.062,15.062,0,0,0,2.235.234A7.944,7.944,0,0,1,74.848,453.378Z" transform="translate(-37.095 -282.565)" fill="#263238"/>
      <path id="Path_5508" data-name="Path 5508" d="M40.59,323.15a1.383,1.383,0,0,1,.106.33c.053.266.138.586.234.99.213.873.458,2.182.862,3.822s1.416,3.481,2.257,5.759,1.756,4.875,2.566,7.814,1.554,6.206,2.31,9.7a40.772,40.772,0,0,0,3.46,10.816c.894,1.788,1.895,3.609,2.693,5.589a26.176,26.176,0,0,1,1.554,6.323,128.451,128.451,0,0,0,2.289,13.328c2.129,9.027,4.258,17.629,6.078,25.463s3.641,14.839,5.1,20.769,2.566,10.645,3.375,14.009l.884,3.822c.085.4.16.735.213,1a1.651,1.651,0,0,1,0,.341,1.267,1.267,0,0,1-.117-.33l-.287-.979c-.245-.915-.585-2.182-1.065-3.79l-3.6-13.956c-1.49-5.919-3.268-12.945-5.237-20.726S60.3,396.8,58.123,387.767a127.081,127.081,0,0,1-2.193-13.424,24.942,24.942,0,0,0-1.49-6.174c-.766-1.927-1.756-3.736-2.651-5.546a41.293,41.293,0,0,1-3.438-10.89c-.735-3.5-1.426-6.76-2.214-9.687s-1.618-5.557-2.459-7.814a54.007,54.007,0,0,1-2.129-5.834c-.383-1.693-.575-2.97-.735-3.854-.075-.4-.128-.745-.17-1.011A1.373,1.373,0,0,1,40.59,323.15Z" transform="translate(-36.869 -282.166)" fill="#263238"/>
      <path id="Path_5509" data-name="Path 5509" d="M71.184,455.485c-7.164-4.311-9.155-17.288-6.11-25.08s8.335-14.9,9.187-23.207c.66-6.387-1.395-12.966.128-19.161,2.065-8.431,10.337-14.9,10.294-23.59,0-4.865-2.768-9.464-2.523-14.328.309-5.961,4.907-10.645,7.771-15.9,4.386-8.016,4.726-17.522,6.259-26.528s5.025-18.65,13.04-23.036c1.139,7.665,3.13,12.923,2.438,23.292-.255,3.715-4.62,10.826-5.259,18.98-.373,4.875-.649,9.762-.969,14.648s-.66,9.581-2.385,14.02c-1.32,3.4-3.438,6.472-4.428,9.985-1.863,6.611.5,13.786-1.065,20.481-1.277,5.674-5.237,10.539-6.078,16.287-1.171,8.09,4.013,16.521,1.288,24.229-1.352,3.822-4.514,6.877-5.429,10.826-.713,3.066,0,6.313-.617,9.389-1.065,4.961-10.539,8.761-15.6,8.431" transform="translate(-35.378 -284.65)" fill="#16697a"/>
      <path id="Path_5510" data-name="Path 5510" d="M106.752,291.73a2.246,2.246,0,0,1,0,.436,11.308,11.308,0,0,1-.17,1.256c-.17,1.065-.362,2.725-.745,4.822s-1.522,4.482-2.406,7.335-1.863,6.142-2.693,9.836-1.544,7.76-2.289,12.146-1.565,9.166-3.768,13.732c-1.065,2.289-2.129,4.588-3.023,7.026a31.935,31.935,0,0,0-1.565,7.76,155.641,155.641,0,0,1-2.2,16.734c-2.267,11.327-4.418,22.121-6.387,31.936l-5.493,26.017c-1.586,7.367-2.874,13.338-3.768,17.522-.458,2.033-.809,3.63-1.065,4.758l-.287,1.235a2.351,2.351,0,0,1-.128.415,2.521,2.521,0,0,1,0-.426c.064-.319.138-.735.224-1.256.224-1.139.532-2.736.937-4.78.841-4.194,2.055-10.187,3.545-17.575s3.332-16.255,5.323-26.049l6.387-31.936a159.673,159.673,0,0,0,2.2-16.67A32.212,32.212,0,0,1,91,348.086c.884-2.491,2.044-4.8,3.066-7.068,2.193-4.492,2.981-9.2,3.779-13.573s1.512-8.516,2.4-12.157,1.831-6.983,2.8-9.836,2.065-5.227,2.5-7.281.671-3.694.884-4.78c.1-.522.181-.926.234-1.245A2.671,2.671,0,0,1,106.752,291.73Z" transform="translate(-34.923 -284.193)" fill="#263238"/>
    </g>
    <g id="freepik--Chart--inject-189" transform="translate(407.308 262.232)">
      <rect id="Rectangle_894" data-name="Rectangle 894" width="7.42" height="23.973" transform="translate(0 19.332)" fill="#16697a"/>
      <rect id="Rectangle_895" data-name="Rectangle 895" width="7.42" height="33.831" transform="translate(13.658 9.464)" fill="#16697a"/>
      <rect id="Rectangle_896" data-name="Rectangle 896" width="7.42" height="38.44" transform="translate(28.189 4.854)" fill="#16697a"/>
      <rect id="Rectangle_897" data-name="Rectangle 897" width="7.42" height="43.305" transform="translate(42.73)" fill="#16697a"/>
    </g>
    <g id="freepik--Gears--inject-189" transform="translate(109.806 252.012)">
      <path id="Path_5511" data-name="Path 5511" d="M168.025,317.014a5.11,5.11,0,0,1,1.6.5,6.836,6.836,0,0,1,2.757,9.8,6.951,6.951,0,0,1-3.055,2.629,6.866,6.866,0,0,1-7.995-1.8,6.546,6.546,0,0,1-1.065-1.756,6.185,6.185,0,0,1-.522-1.916,6.877,6.877,0,0,1,.522-3.609,6.76,6.76,0,0,1,6.153-4.077,4.93,4.93,0,0,1,1.661.224,7.822,7.822,0,0,0-1.65-.075,6.653,6.653,0,0,0-4.077,1.607,6.525,6.525,0,0,0-1.8,2.448,6.7,6.7,0,0,0-.458,3.438,6.227,6.227,0,0,0,.511,1.81,6.131,6.131,0,0,0,1.065,1.661,6.536,6.536,0,0,0,7.558,1.693,5.929,5.929,0,0,0,1.661-1.065,6.1,6.1,0,0,0,1.245-1.426,6.653,6.653,0,0,0-2.534-9.474A7.2,7.2,0,0,0,168.025,317.014Z" transform="translate(-120.633 -256.336)" fill="#263238"/>
      <path id="Path_5512" data-name="Path 5512" d="M174.2,310.509a1.873,1.873,0,0,1,0-.234v-3.566l.053.064-6.142-1.341.106-.053-1.618,3.438v.064h-.075a15.342,15.342,0,0,0-4,.713h-.075l-.053-.053-2.7-2.672h.032l-5.323,3.385.064-.181,1.277,3.577v.085l-.064.075a15.616,15.616,0,0,0-2.331,3.321v.085h-3.8l.16-.138c-.426,1.927-.894,4-1.363,6.132l-.1-.2,3.428,1.629.1.053v.106a15.968,15.968,0,0,0,.692,3.992v.106l-.085.085-2.683,2.693v-.234l3.364,5.323-.224-.085,3.577-1.277h.117l.085.075a15.041,15.041,0,0,0,3.3,2.331h0c.053.075-.1-.17.106.17h0v3.79l-.149-.192L166,342.955l-.213.106c.543-1.16,1.065-2.3,1.629-3.438l.053-.1h.117a15.085,15.085,0,0,0,3.981-.692h.117l.075.075,2.693,2.693h-.234l5.323-3.353-.075.2c-.436-1.214-.852-2.406-1.277-3.577v-.1l.075-.085a15.329,15.329,0,0,0,2.342-3.311V331.3h3.9l-.149.128c.49-2.129.947-4.194,1.384-6.142l.085.17-3.428-1.639h-.075v-.085a15.127,15.127,0,0,0-.681-4V319.6l2.693-2.693v.149l-3.343-5.323h.106l-3.587,1.245h0a16.716,16.716,0,0,0-2.438-1.874l-.66-.394-.213-.138.234.106.671.362a15.854,15.854,0,0,1,2.491,1.842h-.064l3.566-1.3h.064v.064l3.385,5.323v.075l-.064.075-2.672,2.693v-.128a15.243,15.243,0,0,1,.713,4.077l-.075-.117,3.438,1.618.106.053v.117c-.426,1.937-.884,3.971-1.363,6.132v.128H180.7l.149-.085a15.607,15.607,0,0,1-2.385,3.385v-.17c.415,1.171.852,2.363,1.277,3.577l.053.138-.128.075-5.323,3.364-.128.085-.106-.106-2.693-2.683h.192a15.455,15.455,0,0,1-4.088.713l.16-.106c-.532,1.128-1.065,2.278-1.629,3.428l-.064.138h-.149l-6.132-1.373h-.149v-4.088h0c.2.341,0,.1.106.17h0a15.433,15.433,0,0,1-3.385-2.385h.192l-3.577,1.267-.149.053-.075-.128-3.364-5.323-.085-.128.106-.106,2.683-2.693v.192a15.8,15.8,0,0,1-.713-4.088l.106.149-3.4-1.576-.128-.064v-.138l1.384-6.132v-.138h4.066l-.138.085a15.424,15.424,0,0,1,2.385-3.375v.16L154.31,310.2v-.117l.106-.064,5.323-3.353.1-.053.085.075,2.683,2.693h-.128a15.361,15.361,0,0,1,4.066-.692l-.1.064,1.65-3.428v-.075h.075l6.121,1.416h.053v3.545a2.308,2.308,0,0,1-.149.3Z" transform="translate(-121.395 -257.08)" fill="#263238"/>
      <path id="Path_5513" data-name="Path 5513" d="M163.467,265.674a17.2,17.2,0,0,1,3.7,2.608l3.96-1.405,3.715,5.866-2.959,2.981a17.34,17.34,0,0,1,.777,4.471l3.79,1.8-1.522,6.749h-4.194a17.246,17.246,0,0,1-2.619,3.7l1.416,3.96-5.876,3.715-2.981-2.864a17.34,17.34,0,0,1-4.46.777l-1.8,3.79-6.781-1.522v-4.194a17.033,17.033,0,0,1-3.7-2.619l-3.96,1.416-3.726-5.876,2.97-2.97a17.5,17.5,0,0,1-.777-4.471l-3.79-1.8,1.512-6.781h4.184a16.948,16.948,0,0,1,2.608-3.7l-1.395-3.981,5.866-3.726,2.981,2.97a17.34,17.34,0,0,1,4.471-.777l1.8-3.79,6.781,1.522v4.194Zm-5.983,7.984a7.452,7.452,0,1,0,4.668,3.285,7.452,7.452,0,0,0-4.668-3.285Z" transform="translate(-122.248 -260)" fill="#16697a" fill-rule="evenodd"/>
      <g id="Group_2222" data-name="Group 2222" transform="translate(12.402)" opacity="0.8">
        <path id="Path_5514" data-name="Path 5514" d="M163.467,265.674a17.2,17.2,0,0,1,3.7,2.608l3.96-1.405,3.715,5.866-2.959,2.981a17.34,17.34,0,0,1,.777,4.471l3.79,1.8-1.522,6.749h-4.194a17.246,17.246,0,0,1-2.619,3.7l1.416,3.96-5.876,3.715-2.981-2.864a17.34,17.34,0,0,1-4.46.777l-1.8,3.79-6.781-1.522v-4.194a17.033,17.033,0,0,1-3.7-2.619l-3.96,1.416-3.726-5.876,2.97-2.97a17.5,17.5,0,0,1-.777-4.471l-3.79-1.8,1.512-6.781h4.184a16.948,16.948,0,0,1,2.608-3.7l-1.395-3.981,5.866-3.726,2.981,2.97a17.34,17.34,0,0,1,4.471-.777l1.8-3.79,6.781,1.522v4.194Zm-5.983,7.984a7.452,7.452,0,1,0,4.668,3.285,7.452,7.452,0,0,0-4.668-3.285Z" transform="translate(-134.65 -260)" fill="#fff" fill-rule="evenodd"/>
      </g>
      <path id="Path_5515" data-name="Path 5515" d="M139.692,303.073a9.9,9.9,0,0,1,2.129,1.512l2.31-.82,2.129,3.417-1.725,1.735a10.07,10.07,0,0,1,.458,2.6l2.2,1.065-.777,3.939h-2.448a10.069,10.069,0,0,1-1.512,2.129l.82,2.3-3.428,2.129-1.725-1.725a10.22,10.22,0,0,1-2.608.447l-1.065,2.214-3.949-.894V320.68a9.75,9.75,0,0,1-2.129-1.522l-2.31.82-2.129-3.417,1.725-1.735a10.06,10.06,0,0,1-.447-2.6L123,311.163l.884-3.949h2.31a10.272,10.272,0,0,1,1.522-2.129l-.82-2.3,3.417-2.129,1.735,1.735a9.635,9.635,0,0,1,2.6-.458l1.065-2.2,3.949.884v2.448Zm-3.481,4.641a4.343,4.343,0,1,0,3.279,5.184,4.343,4.343,0,0,0-3.279-5.184Z" transform="translate(-123 -257.436)" fill="#16697a" fill-rule="evenodd"/>
      <g id="Group_2223" data-name="Group 2223" transform="translate(0 42.294)" opacity="0.4">
        <path id="Path_5516" data-name="Path 5516" d="M139.692,303.073a9.9,9.9,0,0,1,2.129,1.512l2.31-.82,2.129,3.417-1.725,1.735a10.07,10.07,0,0,1,.458,2.6l2.2,1.065-.777,3.939h-2.448a10.069,10.069,0,0,1-1.512,2.129l.82,2.3-3.428,2.129-1.725-1.725a10.22,10.22,0,0,1-2.608.447l-1.065,2.214-3.949-.894V320.68a9.75,9.75,0,0,1-2.129-1.522l-2.31.82-2.129-3.417,1.725-1.735a10.06,10.06,0,0,1-.447-2.6L123,311.163l.884-3.949h2.31a10.272,10.272,0,0,1,1.522-2.129l-.82-2.3,3.417-2.129,1.735,1.735a9.635,9.635,0,0,1,2.6-.458l1.065-2.2,3.949.884v2.448Zm-3.481,4.641a4.343,4.343,0,1,0,3.279,5.184,4.343,4.343,0,0,0-3.279-5.184Z" transform="translate(-123 -299.73)" fill="#fff" fill-rule="evenodd"/>
      </g>
    </g>
    <g id="freepik--Character--inject-189" transform="translate(161.126 189.678)">
      <path id="Path_5517" data-name="Path 5517" d="M359.844,269.057a10.411,10.411,0,0,0,7.526-10.379c-.128-2.129-.9-4.109-.82-6.2.138-3.194,2.289-5.972,3.907-8.782s2.693-6.5.809-9.144c-1.214-1.714-3.375-2.48-4.854-3.971s-2.129-3.481-2.917-5.386-1.778-3.875-3.566-4.886-4.524-.575-5.259,1.352" transform="translate(-159.373 -200.261)" fill="#263238"/>
      <path id="Path_5518" data-name="Path 5518" d="M345.207,217.727c3.194-2.033,3.96-6.728,2.225-10.081s-5.4-5.4-9.123-6a17.394,17.394,0,0,0-14.978,4.961c-2.055,2.129-3.726,4.886-6.515,5.855-2.448.862-5.163.085-7.739.426a11.71,11.71,0,0,0-8.186,5.9,25.165,25.165,0,0,0-2.906,9.953c-.373,3.194-.628,6.653-2.821,8.963s-5.546,2.736-8.207,4.343a11.241,11.241,0,0,0-3.343,15.35c1.065,1.533,2.576,2.949,2.693,4.812s-.979,3.194-1.5,4.854a7.579,7.579,0,0,0,6.494,9.41c2.214.128,4.577-.734,6.568.255s2.7,3.364,3.96,5.174a9.506,9.506,0,0,0,11.571,2.981c1.629-.8,3.194-2.129,4.971-1.991s3.194,1.661,5,2c2.331.447,4.535-1.267,5.919-3.194s2.353-4.194,4.12-5.77c2.321-2.065,5.578-2.565,8.516-3.577a24.005,24.005,0,0,0,13.53-33.618" transform="translate(-164.068 -201.444)" fill="#263238"/>
      <path id="Path_5519" data-name="Path 5519" d="M350.586,221.092a5.1,5.1,0,0,1,4.546,5.184h0l-3.045,68.843c-.128,8.133-12.008,12.7-20.716,12.5h0c-8.793-.2-9.07-4.514-9.187-12.253-.181-12.923-.16-17.778-.17-17.7s-11.1-1.863-13.37-16.362c-1.128-7.217-.745-19.034-.117-28.689.575-8.7,6.387-19.353,15.02-18.416Z" transform="translate(-162.389 -200.625)" fill="#ffbe9d"/>
      <path id="Path_5520" data-name="Path 5520" d="M311.44,240.4a1.874,1.874,0,0,0,1.788,1.884,1.778,1.778,0,0,0,1.916-1.671,1.852,1.852,0,0,0-1.778-1.884,1.788,1.788,0,0,0-1.927,1.671Z" transform="translate(-162.162 -199.039)" fill="#263238"/>
      <path id="Path_5521" data-name="Path 5521" d="M310.842,237.388c.234.245,1.639-.8,3.641-.788s3.46,1.011,3.683.766-.128-.543-.766-1.011a5.1,5.1,0,0,0-2.949-.915,4.865,4.865,0,0,0-2.9.926C310.938,236.835,310.725,237.282,310.842,237.388Z" transform="translate(-162.203 -199.251)" fill="#263238"/>
      <path id="Path_5522" data-name="Path 5522" d="M330.17,240.4a1.874,1.874,0,0,0,1.788,1.884,1.778,1.778,0,0,0,1.916-1.671,1.852,1.852,0,0,0-1.788-1.884,1.778,1.778,0,0,0-1.916,1.671Z" transform="translate(-160.953 -199.039)" fill="#263238"/>
      <path id="Path_5523" data-name="Path 5523" d="M329.312,237.778c.234.245,1.639-.8,3.641-.788s3.46,1.065,3.683.766-.128-.543-.766-1.011a5.1,5.1,0,0,0-2.949-.916,4.94,4.94,0,0,0-2.9.926C329.408,237.235,329.195,237.672,329.312,237.778Z" transform="translate(-161.011 -199.225)" fill="#263238"/>
      <path id="Path_5524" data-name="Path 5524" d="M322.765,252.59a13.192,13.192,0,0,0-3.194-.6c-.511-.053-1-.16-1.065-.5a2.566,2.566,0,0,1,.351-1.512c.479-1.235.99-2.534,1.512-3.885,2.129-5.536,3.641-10.092,3.417-10.166s-2.129,4.333-4.258,9.857c-.5,1.373-.99,2.672-1.448,3.917a2.917,2.917,0,0,0-.277,2,1.267,1.267,0,0,0,.841.745,3.525,3.525,0,0,0,.873.128,13.178,13.178,0,0,0,3.247.011Z" transform="translate(-161.756 -199.219)" fill="#263238"/>
      <path id="Path_5525" data-name="Path 5525" d="M321.11,274.12A36.918,36.918,0,0,0,340.538,269s-4.918,10.219-19.428,8.825Z" transform="translate(-161.538 -197.085)" fill="#eb996e"/>
      <path id="Path_5526" data-name="Path 5526" d="M323.255,256.192a3.619,3.619,0,0,1,3.194-1.331,3.247,3.247,0,0,1,2.267,1.224,2.129,2.129,0,0,1,.16,2.385,2.449,2.449,0,0,1-2.629.66,7.792,7.792,0,0,1-2.555-1.533,2.49,2.49,0,0,1-.564-.6.671.671,0,0,1,0-.745" transform="translate(-161.415 -197.999)" fill="#16697a"/>
      <path id="Path_5527" data-name="Path 5527" d="M328.387,252.89c-.33,0-.341,2.129-2.2,3.694s-4.173,1.288-4.184,1.6c0,.128.511.415,1.49.447a5.323,5.323,0,0,0,3.492-1.214,4.684,4.684,0,0,0,1.7-3.087C328.76,253.422,328.515,252.879,328.387,252.89Z" transform="translate(-161.481 -198.125)" fill="#263238"/>
      <path id="Path_5528" data-name="Path 5528" d="M328.471,234.46c.192.543,2.193.287,4.535.575s4.258.937,4.556.447c.149-.234-.181-.745-.947-1.277a8.016,8.016,0,0,0-6.93-.777C328.822,233.768,328.385,234.2,328.471,234.46Z" transform="translate(-161.064 -199.41)" fill="#263238"/>
      <path id="Path_5529" data-name="Path 5529" d="M311.543,231.953c.351.458,1.735,0,3.385,0s3.066.309,3.385-.16c.149-.234-.075-.692-.692-1.118a4.865,4.865,0,0,0-5.45.16C311.586,231.261,311.394,231.73,311.543,231.953Z" transform="translate(-162.158 -199.607)" fill="#263238"/>
      <path id="Path_5530" data-name="Path 5530" d="M339.18,216.394a14.084,14.084,0,0,1,11.486-2.129c3.864,1.065,7.068,4.6,7.207,8.516.085,2.555-1.065,5.323.117,7.59s3.736,3.087,5.631,4.684a8.644,8.644,0,0,1,2,10.454c-1.586,2.906-4.907,5.035-5.184,8.314-.266,3.087,2.331,5.7,2.97,8.729.692,3.343-1.16,6.8-3.811,9.027s-6.015,3.449-9.293,4.62c-2.555.926-5.323,1.863-7.952,1.256a8.144,8.144,0,0,1-5.961-6.792,11.082,11.082,0,0,1,3.013-8.75c1.863-2.055,4.482-3.79,4.929-6.5.692-4.258-4.333-7.675-4.024-11.933.16-2.193,1.714-4.013,3-5.823s2.416-4.077,1.618-6.132c-1.065-2.683-4.546-3.385-6.675-5.323a6.5,6.5,0,0,1-1.778-6.589,6.707,6.707,0,0,1,5.259-4.482" transform="translate(-160.564 -200.644)" fill="#263238"/>
      <path id="Path_5531" data-name="Path 5531" d="M343.162,213.428a9.911,9.911,0,0,1-11.71,9.794c-2.214-.4-4.641-1.522-6.557-.341s-2.129,4.258-3.885,5.823c-2.555,2.225-6.611.138-9.857,1.065-2.5.745-4.066,3.13-5.738,5.152s-4.152,3.928-6.664,3.194a29.412,29.412,0,0,1,1-6.685,9.889,9.889,0,0,1,3.79-5.44,36.546,36.546,0,0,0,3.194-1.874c2.129-1.671,2.566-4.6,3.843-6.941a10.879,10.879,0,0,1,8.282-5.493c2.853-.287,5.791.564,8.516-.138,2.055-.511,3.854-1.842,5.929-2.246,4.056-.766,7.824,2.129,10.762,5.035" transform="translate(-162.981 -200.945)" fill="#263238"/>
      <path id="Path_5532" data-name="Path 5532" d="M366.836,247.627a3.045,3.045,0,0,0,.33-1.671,4.258,4.258,0,0,0-2.927-3.353,21.715,21.715,0,0,0-3.194-.862,9.272,9.272,0,0,1-3.609-1.49,5.046,5.046,0,0,1-1.874-3.875,38.5,38.5,0,0,1,.224-4.556,10.33,10.33,0,0,0-.117-2.236,4.77,4.77,0,0,0-.852-1.905,7.3,7.3,0,0,0-3.492-2,15.127,15.127,0,0,1-3.556-1.533,11.859,11.859,0,0,1-2.619-2.129,12.177,12.177,0,0,1-2.555-4.13,7.451,7.451,0,0,1-.373-1.267c-.064-.3-.085-.447-.064-.458s.192.607.628,1.65a12.891,12.891,0,0,0,8.7,7.4,7.675,7.675,0,0,1,3.747,2.129,5.323,5.323,0,0,1,.979,2.129,10.976,10.976,0,0,1,.128,2.363,41.74,41.74,0,0,0-.234,4.5,4.546,4.546,0,0,0,1.65,3.513,8.974,8.974,0,0,0,3.4,1.437,20.982,20.982,0,0,1,3.194.947,5.174,5.174,0,0,1,2.257,1.682,3.928,3.928,0,0,1,.735,1.991,2.608,2.608,0,0,1-.266,1.32C366.975,247.521,366.847,247.638,366.836,247.627Z" transform="translate(-160.18 -200.495)" fill="#455a64"/>
      <path id="Path_5533" data-name="Path 5533" d="M285.212,257.443l-.245-.117a1.714,1.714,0,0,1-.543-.543,2.928,2.928,0,0,1,.3-2.864,3.758,3.758,0,0,1,1.554-1.49,19.95,19.95,0,0,1,2.331-.979,7.27,7.27,0,0,0,2.438-1.384,5.322,5.322,0,0,0,1.395-2.746c.234-1.065.309-2.278.511-3.513a7.654,7.654,0,0,1,1.437-3.662c1.682-2.214,4.45-3.4,6.515-5.482a10.176,10.176,0,0,0,2.267-3.843,26.781,26.781,0,0,0,1.064-4.641c.447-3.194.9-6.749,3.045-9.666a7.026,7.026,0,0,1,4.375-2.821,15.371,15.371,0,0,1,5.046.117,17.83,17.83,0,0,0,4.716.277,6.132,6.132,0,0,0,3.854-1.991c1.98-2.129,3.108-5,5.546-6.472a9.261,9.261,0,0,1,7.324-1.011,8.133,8.133,0,0,1,4.812,3.747,9.091,9.091,0,0,1,1.256,4.471,7.931,7.931,0,0,1-.458,2.9,4.718,4.718,0,0,1-.436.937s.128-.33.33-.969A8.517,8.517,0,0,0,344,212.84a9.048,9.048,0,0,0-1.3-4.322,7.824,7.824,0,0,0-4.663-3.524,8.857,8.857,0,0,0-6.973,1.065,10.208,10.208,0,0,0-2.8,2.885,33.278,33.278,0,0,1-2.619,3.545,7.333,7.333,0,0,1-1.852,1.458,7.026,7.026,0,0,1-2.31.713,18.587,18.587,0,0,1-4.854-.266,14.9,14.9,0,0,0-4.865-.128,6.547,6.547,0,0,0-4.035,2.619,13.445,13.445,0,0,0-2.076,4.546,45.031,45.031,0,0,0-.884,4.876,26.707,26.707,0,0,1-1.064,4.726,10.507,10.507,0,0,1-2.406,4.024c-2.182,2.129-4.918,3.321-6.515,5.418a7.335,7.335,0,0,0-1.384,3.438c-.2,1.214-.287,2.406-.554,3.534a5.5,5.5,0,0,1-1.533,2.917,7.451,7.451,0,0,1-2.565,1.416,20.228,20.228,0,0,0-2.321.926,3.651,3.651,0,0,0-1.49,1.363,2.885,2.885,0,0,0-.383,2.7,2.5,2.5,0,0,0,.66.671Z" transform="translate(-163.921 -201.262)" fill="#455a64"/>
      <path id="Path_5534" data-name="Path 5534" d="M252.115,351.281l25.708-2.353s15.819-41.676,35.321-51.778l12.636,22.068-27.05,50.81h-52.8Z" transform="translate(-166.389 -195.269)" fill="#16697a"/>
      <path id="Path_5535" data-name="Path 5535" d="M252.115,351.281l25.708-2.353s15.819-41.676,35.321-51.778l12.636,22.068-27.05,50.81h-52.8Z" transform="translate(-166.389 -195.269)" opacity="0.3"/>
      <path id="Path_5536" data-name="Path 5536" d="M261.28,359.488a38.482,38.482,0,0,1,4.812-8.048A40.535,40.535,0,0,1,261.28,359.488Z" transform="translate(-165.398 -191.766)" fill="#fafafa"/>
      <path id="Path_5537" data-name="Path 5537" d="M278.745,358.971a39.609,39.609,0,0,1-5.855-7.271,18.511,18.511,0,0,1,3.14,3.46,20.227,20.227,0,0,1,2.714,3.811Z" transform="translate(-164.649 -191.749)" fill="#fafafa"/>
      <path id="Path_5538" data-name="Path 5538" d="M281.377,349.969a20.7,20.7,0,0,1,0-6.749,20.706,20.706,0,0,1,0,6.749Z" transform="translate(-164.12 -192.296)" fill="#fafafa"/>
      <path id="Path_5539" data-name="Path 5539" d="M273.139,363.733a6.834,6.834,0,0,1-2.459-1.267c-1.277-.841-2.236-1.618-2.129-1.746A7.2,7.2,0,0,1,271.01,362C272.223,362.828,273.224,363.6,273.139,363.733Z" transform="translate(-164.93 -191.167)" fill="#fafafa"/>
      <path id="Path_5540" data-name="Path 5540" d="M286.976,327.57a22.8,22.8,0,0,1-1.778,4.641,22.471,22.471,0,0,1-2.278,4.418,21.654,21.654,0,0,1,1.767-4.641,22.835,22.835,0,0,1,2.289-4.418Z" transform="translate(-164.002 -193.306)" fill="#fafafa"/>
      <path id="Path_5541" data-name="Path 5541" d="M296.79,311.71c.085.117-.83.969-2.055,1.905a7.292,7.292,0,0,1-2.4,1.458c-.085-.128.83-.979,2.055-1.906A7.078,7.078,0,0,1,296.79,311.71Z" transform="translate(-163.395 -194.329)" fill="#fafafa"/>
      <path id="Path_5542" data-name="Path 5542" d="M332.64,366.555,345.9,313a18.2,18.2,0,0,1,20.907-13.551h0a18.235,18.235,0,0,1,14.776,20.726l-8.112,52.343a26.187,26.187,0,0,1-21.738,21.216L341.2,395.372Z" transform="translate(-160.794 -195.139)" fill="#16697a"/>
      <path id="Path_5543" data-name="Path 5543" d="M373.5,296.376A12.072,12.072,0,0,0,368.762,294a12.593,12.593,0,0,0-5.706,0,15.447,15.447,0,0,0-6.206,3.194c-3.885,3.257-5.993,7.452-7.452,10.454-.713,1.5-1.256,2.736-1.639,3.587a8.067,8.067,0,0,1-.649,1.309,7.567,7.567,0,0,1,.447-1.384c.33-.884.809-2.129,1.48-3.683a42.5,42.5,0,0,1,2.725-5.227,23.323,23.323,0,0,1,4.716-5.482,15.543,15.543,0,0,1,6.44-3.311,12.636,12.636,0,0,1,5.919.075,10.166,10.166,0,0,1,3.6,1.735,6.542,6.542,0,0,1,.8.734A3.112,3.112,0,0,1,373.5,296.376Z" transform="translate(-159.86 -195.527)" fill="#263238"/>
      <path id="Path_5544" data-name="Path 5544" d="M302.387,307.5a2.829,2.829,0,0,1-.373.5l-1.128,1.363c-.99,1.182-2.385,2.906-3.981,5.131a54.855,54.855,0,0,0-9.059,19.225c-1.842,8.165-1.937,15.808-2.246,21.29-.138,2.746-.266,4.971-.383,6.5-.064.724-.117,1.309-.16,1.767a4.176,4.176,0,0,1-.085.617,2.13,2.13,0,0,1,0-.617c0-.468,0-1.065.053-1.778,0-1.607.117-3.811.2-6.5.213-5.472.234-13.147,2.129-21.4a52.886,52.886,0,0,1,9.272-19.321c1.65-2.214,3.1-3.917,4.13-5.056.511-.575.937-1,1.214-1.288a3.35,3.35,0,0,1,.415-.436Z" transform="translate(-163.871 -194.601)" fill="#263238"/>
      <path id="Path_5545" data-name="Path 5545" d="M387.411,309.413c-1.458-9.581-6.738-11.869-12.221-14.85-1.788-.979-10.422-3.194-17.267-4.865-.66-4.141-1.831-11.571-2.129-13.136-.362-2.2-34.874,3.3-35.31,4.13-.287.543-1.065,9.144-1.586,14.9l-8.261,2.885L299.9,312.191l-5.61,7.963a42.836,42.836,0,0,0-6.951,15.308,83.309,83.309,0,0,0-1.544,18.544l-1.671,35.129,72.26,20.418,5.536-35.619,18.629-25.357C382.131,338.325,389.2,321.186,387.411,309.413Z" transform="translate(-163.925 -196.631)" fill="#16697a"/>
      <path id="Path_5546" data-name="Path 5546" d="M323.369,296.425a10.868,10.868,0,0,1-.479-2.438c-.224-1.512-.5-3.609-.766-5.929-.128-1.15-.245-2.246-.362-3.279a26.614,26.614,0,0,1-.192-2.7,3.194,3.194,0,0,1,.522-1.8c.277-.362.511-.458.532-.436s-.16.192-.351.554a3.481,3.481,0,0,0-.309,1.682c0,.745.192,1.639.309,2.651s.255,2.129.4,3.268c.266,2.321.479,4.428.607,5.951a10.818,10.818,0,0,1,.085,2.48Z" transform="translate(-161.508 -196.386)" fill="#263238"/>
      <path id="Path_5547" data-name="Path 5547" d="M332.026,294.342a8.453,8.453,0,0,1-.766-2.235,35.279,35.279,0,0,1-1.064-11.305,8.688,8.688,0,0,1,.341-2.331c.17,0-.138,3.587.277,7.973S332.2,294.3,332.026,294.342Z" transform="translate(-160.957 -196.474)" fill="#263238"/>
      <path id="Path_5548" data-name="Path 5548" d="M348.163,291.939a36.971,36.971,0,0,0-.2-7.941,35.294,35.294,0,0,0-2.491-7.548,6.931,6.931,0,0,1,1.267,2.012,20.226,20.226,0,0,1,1.937,11.167A7.664,7.664,0,0,1,348.163,291.939Z" transform="translate(-159.966 -196.604)" fill="#263238"/>
      <path id="Path_5549" data-name="Path 5549" d="M302,320.972a33,33,0,0,1,6.334-8.442q-2.959,4.373-6.334,8.442Z" transform="translate(-162.771 -194.276)" fill="#fafafa"/>
      <path id="Path_5550" data-name="Path 5550" d="M317.553,308.421a34.065,34.065,0,0,1-5.323-6.941,18.247,18.247,0,0,1,2.864,3.3A17.523,17.523,0,0,1,317.553,308.421Z" transform="translate(-162.111 -194.989)" fill="#fafafa"/>
      <path id="Path_5551" data-name="Path 5551" d="M333.609,300.22a30.538,30.538,0,0,1-3.4,3.438,32.149,32.149,0,0,1-3.524,3.311,16.36,16.36,0,0,1,3.14-3.7A15.968,15.968,0,0,1,333.609,300.22Z" transform="translate(-161.178 -195.071)" fill="#fafafa"/>
      <path id="Path_5552" data-name="Path 5552" d="M329.009,290.971a9.941,9.941,0,0,1-2.651-2.023,10.431,10.431,0,0,1-2.289-2.448,10.58,10.58,0,0,1,2.661,2.033,10.261,10.261,0,0,1,2.278,2.438Z" transform="translate(-161.347 -195.956)" fill="#fafafa"/>
      <path id="Path_5553" data-name="Path 5553" d="M343.141,283.24a12.586,12.586,0,0,1-3.587,1.065,13.007,13.007,0,0,1-3.694.511,12.835,12.835,0,0,1,3.577-1.065,13.063,13.063,0,0,1,3.7-.511Z" transform="translate(-160.586 -196.166)" fill="#fafafa"/>
      <path id="Path_5554" data-name="Path 5554" d="M345.534,305.842a12.508,12.508,0,0,1-.468-3.715,12.926,12.926,0,0,1,.085-3.736,12.508,12.508,0,0,1,.468,3.715,12.926,12.926,0,0,1-.085,3.737Z" transform="translate(-159.999 -195.189)" fill="#fafafa"/>
      <path id="Path_5555" data-name="Path 5555" d="M340.595,316.531a19.907,19.907,0,0,1-1.874-4.258,20.544,20.544,0,0,1-1.341-4.5,40.641,40.641,0,0,1,3.194,8.8Z" transform="translate(-160.488 -194.584)" fill="#fafafa"/>
      <path id="Path_5556" data-name="Path 5556" d="M326.757,324.109a22.078,22.078,0,0,1-2.044-4.5,21.634,21.634,0,0,1-1.533-4.716,23.067,23.067,0,0,1,2.044,4.514,22.581,22.581,0,0,1,1.533,4.705Z" transform="translate(-161.404 -194.124)" fill="#fafafa"/>
      <path id="Path_5557" data-name="Path 5557" d="M313.612,332.607a37.8,37.8,0,0,1-1.852-9.027,19.437,19.437,0,0,1,1.192,4.46,19.642,19.642,0,0,1,.66,4.567Z" transform="translate(-162.141 -193.564)" fill="#fafafa"/>
      <path id="Path_5558" data-name="Path 5558" d="M298.24,332.893a37.821,37.821,0,0,1-3.96-8.133A37.819,37.819,0,0,1,298.24,332.893Z" transform="translate(-163.269 -193.487)" fill="#fafafa"/>
      <path id="Path_5559" data-name="Path 5559" d="M298.209,342.34a23.707,23.707,0,0,1-4.322,2.438,22.2,22.2,0,0,1-4.577,1.948,22.565,22.565,0,0,1,4.333-2.448,22.27,22.27,0,0,1,4.567-1.937Z" transform="translate(-163.59 -192.353)" fill="#fafafa"/>
      <path id="Path_5560" data-name="Path 5560" d="M297.989,358.544a12,12,0,0,1-1.5-3.886,11.869,11.869,0,0,1-.628-4.1,21.824,21.824,0,0,1,1.16,3.96,22.152,22.152,0,0,1,.969,4.024Z" transform="translate(-163.167 -191.823)" fill="#fafafa"/>
      <path id="Path_5561" data-name="Path 5561" d="M295.048,369.464a19.246,19.246,0,0,1-3.47-2.81,17.524,17.524,0,0,1-3.1-3.194,19.243,19.243,0,0,1,3.47,2.81,17.522,17.522,0,0,1,3.1,3.194Z" transform="translate(-163.643 -190.99)" fill="#fafafa"/>
      <path id="Path_5562" data-name="Path 5562" d="M315.7,361.56c0,.16-2.406.862-5.259,2.129s-5.025,2.566-5.12,2.427a16.862,16.862,0,0,1,4.9-2.938,16.6,16.6,0,0,1,5.482-1.618Z" transform="translate(-162.557 -191.113)" fill="#fafafa"/>
      <path id="Path_5563" data-name="Path 5563" d="M309.259,356.543a14.593,14.593,0,0,1-1.565-3.651,14.2,14.2,0,0,1-1.065-3.822,14.393,14.393,0,0,1,1.554,3.641,14.021,14.021,0,0,1,1.075,3.832Z" transform="translate(-162.472 -191.919)" fill="#fafafa"/>
      <path id="Path_5564" data-name="Path 5564" d="M321.591,342.57a31.06,31.06,0,0,1-2.906,5.142,32.04,32.04,0,0,1-3.385,4.9,63.875,63.875,0,0,1,6.291-9.985Z" transform="translate(-161.913 -192.338)" fill="#fafafa"/>
      <path id="Path_5565" data-name="Path 5565" d="M334.6,344.48a21.441,21.441,0,0,1-3.545-4.833,21.927,21.927,0,0,1-2.6-5.4c.149-.064,1.384,2.3,3.076,5.12S334.73,344.395,334.6,344.48Z" transform="translate(-161.064 -192.875)" fill="#fafafa"/>
      <path id="Path_5566" data-name="Path 5566" d="M342.494,331a10.539,10.539,0,0,1-4.056.724,10.646,10.646,0,0,1-4.1-.319,27.3,27.3,0,0,1,4.077-.234,28.414,28.414,0,0,1,4.077-.17Z" transform="translate(-160.684 -193.086)" fill="#fafafa"/>
      <path id="Path_5567" data-name="Path 5567" d="M361.175,316.39a61.872,61.872,0,0,1-10.645,5.088,64.033,64.033,0,0,1,10.645-5.088Z" transform="translate(-159.64 -194.027)" fill="#fafafa"/>
      <path id="Path_5568" data-name="Path 5568" d="M361.76,307.606a41.217,41.217,0,0,1,4.258-8.516,20.228,20.228,0,0,1-1.874,4.375,21.017,21.017,0,0,1-2.384,4.141Z" transform="translate(-158.915 -195.144)" fill="#fafafa"/>
      <path id="Path_5569" data-name="Path 5569" d="M373.7,314.98a35.518,35.518,0,0,1-1.618-4.844,35.2,35.2,0,0,1-1.426-4.9,28.562,28.562,0,0,1,3.044,9.74Z" transform="translate(-158.341 -194.747)" fill="#fafafa"/>
      <path id="Path_5570" data-name="Path 5570" d="M375.951,324.07a16.6,16.6,0,0,1-4.673,1.7,16.062,16.062,0,0,1-4.918.756,36.03,36.03,0,0,1,4.78-1.288A36.427,36.427,0,0,1,375.951,324.07Z" transform="translate(-158.618 -193.532)" fill="#fafafa"/>
      <path id="Path_5571" data-name="Path 5571" d="M355.212,336.6c-.16,0,.3-2.619.426-5.844s-.085-5.844.075-5.866a17.522,17.522,0,0,1,.479,5.887,17.277,17.277,0,0,1-.979,5.823Z" transform="translate(-159.34 -193.479)" fill="#fafafa"/>
      <path id="Path_5572" data-name="Path 5572" d="M351.609,348.566a26.2,26.2,0,0,1-6.919-8.346c.138-.085,1.544,1.884,3.46,4.184a51.1,51.1,0,0,1,3.46,4.162Z" transform="translate(-160.017 -192.49)" fill="#fafafa"/>
      <path id="Path_5573" data-name="Path 5573" d="M371.951,345.492a21.568,21.568,0,0,1-4.439,2.129,22.493,22.493,0,0,1-4.652,1.639,44.772,44.772,0,0,1,9.091-3.8Z" transform="translate(-158.844 -192.152)" fill="#fafafa"/>
      <path id="Path_5574" data-name="Path 5574" d="M364.173,369.1a63.288,63.288,0,0,1,.117-11.71,60.908,60.908,0,0,1-.117,11.71Z" transform="translate(-158.773 -191.382)" fill="#fafafa"/>
      <path id="Path_5575" data-name="Path 5575" d="M348.65,367.784A34.065,34.065,0,0,1,351.6,356c.149.053-.66,2.64-1.469,5.887S348.81,367.816,348.65,367.784Z" transform="translate(-159.761 -191.472)" fill="#fafafa"/>
      <path id="Path_5576" data-name="Path 5576" d="M350.072,373.083c0,.16-2.64.415-5.876.958a58.56,58.56,0,0,1-5.876.979,21.693,21.693,0,0,1,5.78-1.533A21.193,21.193,0,0,1,350.072,373.083Z" transform="translate(-160.428 -190.373)" fill="#fafafa"/>
      <path id="Path_5577" data-name="Path 5577" d="M332.2,369.651a21.994,21.994,0,0,1,3.194-3.673,20.962,20.962,0,0,1,3.556-3.279,21.989,21.989,0,0,1-3.194,3.673,21.426,21.426,0,0,1-3.556,3.279Z" transform="translate(-160.822 -191.039)" fill="#fafafa"/>
      <path id="Path_5578" data-name="Path 5578" d="M321.267,380.5a35.949,35.949,0,0,1-1.437-4.162,37.672,37.672,0,0,1-1.49-4.152A17.032,17.032,0,0,1,321.267,380.5Z" transform="translate(-161.717 -190.427)" fill="#fafafa"/>
      <path id="Path_5579" data-name="Path 5579" d="M339.634,386.5a58.879,58.879,0,0,1-10.464-4.641,30.011,30.011,0,0,1,5.323,2.065,31.093,31.093,0,0,1,5.142,2.576Z" transform="translate(-161.018 -189.803)" fill="#fafafa"/>
      <path id="Path_5580" data-name="Path 5580" d="M307.76,384.871a14.37,14.37,0,0,1,1-3.9,14.819,14.819,0,0,1,1.522-3.715,14.467,14.467,0,0,1-1,3.9,15.531,15.531,0,0,1-1.522,3.715Z" transform="translate(-162.399 -190.1)" fill="#fafafa"/>
      <path id="Path_5581" data-name="Path 5581" d="M329.188,387.971c0,.16-3.055-.33-6.824-.522s-6.824,0-6.834-.213a24.239,24.239,0,0,1,6.866-.341A23.943,23.943,0,0,1,329.188,387.971Z" transform="translate(-161.898 -189.485)" fill="#fafafa"/>
      <path id="Path_5582" data-name="Path 5582" d="M332.641,361.028a1.5,1.5,0,0,1,0-.426,3.93,3.93,0,0,1,.181-1.2,2.64,2.64,0,0,1,1.15-1.586,3.715,3.715,0,0,1,2.6-.426l-.213.128c1.16-4.088,3.023-10.049,4.886-16.734,1.746-6.259,2.927-12.018,3.747-16.2.4-2.012.724-3.683.979-4.95a13.192,13.192,0,0,1,.415-1.8,10.528,10.528,0,0,1-.2,1.842c-.17,1.182-.447,2.885-.809,4.982a163.76,163.76,0,0,1-3.6,16.277c-1.863,6.7-3.79,12.636-5.067,16.692l-.053.16h-.16a3.417,3.417,0,0,0-2.374.319A2.555,2.555,0,0,0,333,359.5,12.486,12.486,0,0,0,332.641,361.028Z" transform="translate(-160.795 -193.935)" fill="#263238"/>
      <path id="Path_5583" data-name="Path 5583" d="M356.293,373.439c-.085,0-.745-1.405-2.129-3.555a36.737,36.737,0,0,0-14.478-13.158c-2.267-1.139-3.768-1.661-3.736-1.756a5.2,5.2,0,0,1,1.065.287,23.814,23.814,0,0,1,2.821,1.118,33.235,33.235,0,0,1,14.648,13.307,24.075,24.075,0,0,1,1.373,2.7,3.555,3.555,0,0,1,.436,1.054Z" transform="translate(-160.58 -191.538)" fill="#263238"/>
      <g id="Group_2224" data-name="Group 2224" transform="translate(175.71 162.655)" opacity="0.2">
        <path id="Path_5584" data-name="Path 5584" d="M336.568,354.24a37.111,37.111,0,0,1,11.22,2.033c3.822,1.426,7.356,4.173,8.761,8.005a2.608,2.608,0,0,1-.2,2.757,1.959,1.959,0,0,1-2.012.33,5.247,5.247,0,0,1-1.767-1.214c-2.342-2.129-4.78-4.088-7.2-6.174s-5.951-4.258-9.1-4.758" transform="translate(-336.27 -354.24)"/>
      </g>
      <path id="Path_5585" data-name="Path 5585" d="M331.079,348.31a4.844,4.844,0,0,1-1.065.639,18.607,18.607,0,0,1-3.268,1.235,21.833,21.833,0,0,1-21.44-5.567,19.489,19.489,0,0,1-2.257-2.672,4.771,4.771,0,0,1-.66-1.065c.085-.064,1.065,1.49,3.194,3.492a22.579,22.579,0,0,0,21.056,5.472C329.418,349.1,331.026,348.2,331.079,348.31Z" transform="translate(-162.746 -192.447)" fill="#263238"/>
      <g id="Group_2225" data-name="Group 2225" transform="translate(140.166 149.22)" opacity="0.2">
        <path id="Path_5586" data-name="Path 5586" d="M302.88,341.62c1.8,3.9,3.9,7.824,7.3,10.443a11.71,11.71,0,0,0,6.717,2.81c3.555.064,6.611-2.363,9.325-4.663-8.793,1.384-18.693-2.608-23.345-8.591" transform="translate(-302.88 -341.62)"/>
      </g>
      <path id="Path_5587" data-name="Path 5587" d="M339.955,293.6c-.17,0,0-3.662-.4-8.122s-1.309-8.005-1.15-8.048a8.567,8.567,0,0,1,.735,2.289,39.116,39.116,0,0,1,.958,5.706,39.886,39.886,0,0,1,.149,5.791,9.165,9.165,0,0,1-.287,2.385Z" transform="translate(-160.424 -196.541)" fill="#263238"/>
      <path id="Path_5588" data-name="Path 5588" d="M224.468,426.44s-11.571,2.5-21.9.947c-9.687-1.448-31.372.053-31.361,12.774,0,14.233,28.923,10.72,40.2,8.463s22.515-4.258,22.515-4.258Z" transform="translate(-171.21 -186.927)" fill="#16697a"/>
      <path id="Path_5589" data-name="Path 5589" d="M196.976,444.178a24.632,24.632,0,0,1-1.395-4.95,24.27,24.27,0,0,1-.852-5.078,24.629,24.629,0,0,1,1.352,4.95,24.272,24.272,0,0,1,.894,5.078Z" transform="translate(-169.692 -186.429)" fill="#263238"/>
      <path id="Path_5590" data-name="Path 5590" d="M200.635,444.371a47.842,47.842,0,0,1-1.405-10.241,24.1,24.1,0,0,1,.979,5.078,24.888,24.888,0,0,1,.426,5.163Z" transform="translate(-169.402 -186.43)" fill="#263238"/>
      <path id="Path_5591" data-name="Path 5591" d="M204.2,442.892a18.863,18.863,0,0,1-.809-4.439,18.1,18.1,0,0,1-.266-4.5,37.257,37.257,0,0,1,1.065,8.942Z" transform="translate(-169.153 -186.442)" fill="#263238"/>
      <path id="Path_5592" data-name="Path 5592" d="M209.868,441.478a10.4,10.4,0,0,1-1.48-3.811,10.23,10.23,0,0,1-.426-4.077,30.263,30.263,0,0,1,.958,3.939,28.619,28.619,0,0,1,.947,3.949Z" transform="translate(-168.842 -186.465)" fill="#263238"/>
      <path id="Path_5593" data-name="Path 5593" d="M211,436.6a4.854,4.854,0,0,1,1.512-.106,12.988,12.988,0,0,1,4.056.8,4.8,4.8,0,0,1,1.256.671,1.906,1.906,0,0,1,.777,1.416,2.129,2.129,0,0,1-2.619,1.906,5.408,5.408,0,0,1-3.013-2.129,9.421,9.421,0,0,1-.436-10.933,1.533,1.533,0,0,1,.852-.522,1.2,1.2,0,0,1,.969.309,2.6,2.6,0,0,1,.724,1.554,7.761,7.761,0,0,1-.149,2.885,7.941,7.941,0,0,1-1.959,3.651,5.7,5.7,0,0,1-.841.756,1.193,1.193,0,0,1-.341.2s.4-.362,1.065-1.065a8.314,8.314,0,0,0,1.735-3.6,7.516,7.516,0,0,0,.075-2.736,2.193,2.193,0,0,0-.585-1.256.745.745,0,0,0-1.118.192,9.017,9.017,0,0,0,.479,10.251,4.907,4.907,0,0,0,2.683,1.98,1.661,1.661,0,0,0,2.065-1.384,1.469,1.469,0,0,0-.6-1.065,4.163,4.163,0,0,0-1.118-.639,14.1,14.1,0,0,0-3.928-.937C211.49,436.621,211,436.643,211,436.6Z" transform="translate(-168.643 -186.846)" fill="#263238"/>
      <path id="Path_5594" data-name="Path 5594" d="M232.675,442.469l-.287.1-.873.213-3.353.766c-2.917.639-7.154,1.544-12.412,2.555s-11.539,2.129-18.587,3.119a49.865,49.865,0,0,1-11.167.564,24.481,24.481,0,0,1-5.844-1.118,16.551,16.551,0,0,1-2.81-1.256,8.516,8.516,0,0,1-2.459-1.98h0a5.9,5.9,0,0,1-1-1.2A7.452,7.452,0,0,1,173.3,438a9.964,9.964,0,0,1,3.7-4.854,19.162,19.162,0,0,1,5.269-2.608c.926-.266,1.82-.586,2.736-.788s1.82-.426,2.725-.554c7.249-1.139,13.839-.564,19.332-.564,2.746.053,5.227,0,7.4-.149a51.381,51.381,0,0,0,5.536-.7l2-.426,1.437-.4.884-.245a1.162,1.162,0,0,1,.309-.064,1.868,1.868,0,0,1-.287.117l-.873.3-1.426.458-1.991.479a49.616,49.616,0,0,1-5.567.8c-2.182.16-4.673.266-7.452.234-5.493.053-12.082-.49-19.236.671-.894.128-1.778.373-2.683.564s-1.778.522-2.693.777a18.565,18.565,0,0,0-5.12,2.544,9.442,9.442,0,0,0-3.5,4.588,6.951,6.951,0,0,0,.532,5.759,5.4,5.4,0,0,0,.9,1.064h0a8.388,8.388,0,0,0,2.289,1.82,15.789,15.789,0,0,0,2.7,1.214,23.791,23.791,0,0,0,5.716,1.065,50.424,50.424,0,0,0,11.06-.522c7.026-.926,13.317-2.044,18.576-3s9.506-1.81,12.444-2.385l3.375-.66.873-.16a.979.979,0,0,1,.4.106Z" transform="translate(-171.103 -186.914)" fill="#263238"/>
      <path id="Path_5595" data-name="Path 5595" d="M189.473,449.214a18.75,18.75,0,0,1-.287-2.959c-.128-1.82-.341-4.343-.713-7.1s-.82-5.248-1.182-7.047a17.746,17.746,0,0,1-.5-2.927,13.838,13.838,0,0,1,.884,2.842,64.707,64.707,0,0,1,1.352,7.058,66.406,66.406,0,0,1,.554,7.154,14.487,14.487,0,0,1-.106,2.981Z" transform="translate(-170.205 -186.75)" fill="#263238"/>
      <path id="Path_5596" data-name="Path 5596" d="M217.89,427.057l7.335,18.363,5.685-1.054-10.89-17.927Z" transform="translate(-168.198 -186.927)" opacity="0.4"/>
      <path id="Path_5597" data-name="Path 5597" d="M316.435,381.591c-1.182.383-76.944-20.843-107.581-29.455a29.072,29.072,0,0,0-23.7,3.587l-.373.234a29.083,29.083,0,0,0-12.529,31.031h0a29.125,29.125,0,0,0,13.136,18.225c20.226,12.38,62.967,38.419,64.276,37.908,1.714-.66,55.11-2.044,55.11-2.044l-64.244-46.211L271.1,414.624l45.338-33Z" transform="translate(-171.192 -191.791)" fill="#263238"/>
      <path id="Path_5598" data-name="Path 5598" d="M248.412,358.585l16.106-8.335,15.8,9.9,59.124,1.937,8.516,28.742-85.588-19.843s-15.574,1.384-16.745-2.129S248.412,358.585,248.412,358.585Z" transform="translate(-166.423 -191.843)" fill="#ffbe9d"/>
      <path id="Path_5599" data-name="Path 5599" d="M294.223,402.722l-7.963,26.166.99,7.973h0a40.91,40.91,0,0,0,53.95,3.63h0a40.079,40.079,0,0,0,15.67-31.936l-.117-27.316Z" transform="translate(-163.787 -189.843)" fill="#263238"/>
      <path id="Path_5600" data-name="Path 5600" d="M251.682,403.431c-.085.117-9.325-6.621-20.63-15.052s-20.407-15.372-20.311-15.489,9.325,6.611,20.641,15.042S251.777,403.3,251.682,403.431Z" transform="translate(-168.659 -190.382)" fill="#455a64"/>
      <path id="Path_5601" data-name="Path 5601" d="M263.305,355.15a63.769,63.769,0,0,1-7.877,2.821,65.994,65.994,0,0,1-8.048,2.289,62.966,62.966,0,0,1,7.877-2.821A65.366,65.366,0,0,1,263.305,355.15Z" transform="translate(-166.295 -191.527)" fill="#eb996e"/>
      <path id="Path_5602" data-name="Path 5602" d="M264.591,359.761a15.628,15.628,0,0,1-2.746.522c-1.693.277-4.024.692-6.579,1.277s-4.833,1.235-6.483,1.725a17.314,17.314,0,0,1-2.693.735,12.083,12.083,0,0,1,2.566-1.065,58.051,58.051,0,0,1,13.136-3.023A13.276,13.276,0,0,1,264.591,359.761Z" transform="translate(-166.379 -191.23)" fill="#eb996e"/>
      <path id="Path_5603" data-name="Path 5603" d="M263.282,364a72.621,72.621,0,0,1-8.867,2.044,75.019,75.019,0,0,1-8.985,1.5,74.959,74.959,0,0,1,8.878-2.044A75.43,75.43,0,0,1,263.282,364Z" transform="translate(-166.421 -190.955)" fill="#eb996e"/>
      <path id="Path_5604" data-name="Path 5604" d="M247.135,321.864l14.85,48.883a1.426,1.426,0,0,0,1.245,1l40.452,3.034A1.416,1.416,0,0,1,305,376.2v2.523a1.416,1.416,0,0,1-1.448,1.416l-110.71-2.129a1.416,1.416,0,0,1-1.3-.915l-19.459-50.98a1.416,1.416,0,0,1,1.256-1.927l72.292-3.375a1.426,1.426,0,0,1,1.5,1.054Z" transform="translate(-171.16 -193.743)" fill="#455a64"/>
      <path id="Path_5605" data-name="Path 5605" d="M213.414,341.594a3.513,3.513,0,0,0-2.193,2.491,3.364,3.364,0,0,0,1.437,3.045,3.641,3.641,0,0,0,4.045.149,3.364,3.364,0,0,0,1.065-4.077c-.49-1.352-2.959-2.3-4.386-1.607" transform="translate(-168.629 -192.416)" fill="#e0e0e0"/>
      <path id="Path_5606" data-name="Path 5606" d="M230.83,449.008l-11.71-19.247,86.013-67.416a34.554,34.554,0,0,1,18.789-7.7h0A34.565,34.565,0,0,1,361.5,391.907l-1.373,16.447L303.09,426.738Z" transform="translate(-168.119 -191.568)" fill="#263238"/>
      <path id="Path_5607" data-name="Path 5607" d="M340.428,400.36a2.361,2.361,0,0,1-.224.213l-.7.575-2.736,2.193-1.991,1.565c-.724.575-1.586,1.065-2.47,1.735l-2.853,1.959c-.511.341-1.065.713-1.565,1.065l-1.714,1.065c-2.331,1.395-4.854,2.991-7.718,4.439-1.416.745-2.864,1.554-4.386,2.31l-4.758,2.246a232.51,232.51,0,0,1-21.748,8.665c-15.712,5.418-30.232,9.315-40.633,12.466-2.608.766-4.961,1.49-7.026,2.129s-3.832,1.182-5.323,1.671l-3.321,1.065-.873.266a1.521,1.521,0,0,1-.309.075l.287-.128.852-.319,3.3-1.182c1.426-.522,3.194-1.065,5.259-1.767s4.4-1.426,6.994-2.214c10.379-3.257,24.889-7.207,40.569-12.615,7.856-2.672,15.169-5.653,21.716-8.6l4.748-2.225c1.533-.745,2.981-1.544,4.4-2.278,2.864-1.426,5.386-3,7.728-4.365l1.714-1.011c.543-.341,1.065-.7,1.576-1.065l2.97-1.927c.884-.607,1.746-1.128,2.48-1.693l2.012-1.533,2.8-2.129.745-.532Z" transform="translate(-167.412 -188.609)" fill="#455a64"/>
      <path id="Path_5608" data-name="Path 5608" d="M337.161,408.81a3.352,3.352,0,0,1-.862.458c-.575.256-1.416.607-2.47.99a62.316,62.316,0,0,1-8.431,2.448,63.486,63.486,0,0,1-8.7,1.235c-1.118.075-2.033.106-2.661.106a3.842,3.842,0,0,1-.979-.053,33.273,33.273,0,0,1,3.609-.447,86.106,86.106,0,0,0,8.612-1.384c3.289-.713,6.291-1.586,8.42-2.267A33.423,33.423,0,0,1,337.161,408.81Z" transform="translate(-162.057 -188.064)" fill="#455a64"/>
      <path id="Path_5609" data-name="Path 5609" d="M301.7,364.91c.1.128-18.31,14.595-41.112,32.308s-41.367,32-41.453,31.872,18.31-14.584,41.112-32.308S301.619,364.793,301.7,364.91Z" transform="translate(-168.117 -190.897)" fill="#455a64"/>
      <path id="Path_5610" data-name="Path 5610" d="M295.384,432.686c-4.12-2.193-8.75-.894-12.7.436-2.629.884-5.323,2.289-8.027,1.533-1.927-.543-3.364-2.129-4.844-3.46a30.382,30.382,0,0,0-22.227-7.973,9.134,9.134,0,0,0-6.11,2.757c-4.056,4.4-1,10.1,2.629,13.839a39.994,39.994,0,0,0,24.175,11.71c7.547.788,17.927-.255,25.549-3.534,4.716-2.023,7.132-7.59,4.663-12.082A7.76,7.76,0,0,0,295.384,432.686Z" transform="translate(-166.801 -187.137)" fill="#16697a"/>
      <g id="Group_2226" data-name="Group 2226" transform="translate(72.962 239.553)" opacity="0.4">
        <path id="Path_5611" data-name="Path 5611" d="M295.371,435.986c-4.13-2.193-8.761-.894-12.71.436-2.629.884-5.323,2.289-8.027,1.533-1.927-.543-3.364-2.129-4.844-3.46a30.381,30.381,0,0,0-22.227-7.973,9.134,9.134,0,0,0-6.11,2.757,7.153,7.153,0,0,0-1.7,3.087,16.085,16.085,0,0,0,4.333,7.2,39.994,39.994,0,0,0,24.175,11.71c7.547.788,17.927-.255,25.549-3.534a9.336,9.336,0,0,0,5.44-6.483,7.878,7.878,0,0,0-3.907-5.227Z" transform="translate(-239.75 -426.477)"/>
      </g>
      <path id="Path_5612" data-name="Path 5612" d="M299.322,441.224a7.025,7.025,0,0,0-1.011-2.448,8.049,8.049,0,0,0-2.2-2.129,8.9,8.9,0,0,0-3.8-1.448c-3.055-.362-6.611.926-10.549,1.991-1.948.522-4.077,1.309-6.387,1.065a8.516,8.516,0,0,1-3.3-1.15,20.3,20.3,0,0,1-2.832-2.129,29.583,29.583,0,0,0-11.284-6.706,28.858,28.858,0,0,0-5.61-1.3,17.543,17.543,0,0,0-5,0,11.1,11.1,0,0,0-3.854,1.341,10.144,10.144,0,0,0-2.4,1.927c-1.065,1.331-1.458,2.236-1.522,2.193a8.708,8.708,0,0,1,1.363-2.331,9.581,9.581,0,0,1,2.363-2.129,10.943,10.943,0,0,1,3.971-1.469,17.385,17.385,0,0,1,5.11,0,29.667,29.667,0,0,1,5.716,1.267,33.863,33.863,0,0,1,5.919,2.619,24.242,24.242,0,0,1,2.885,1.874c.926.724,1.788,1.512,2.683,2.278a20.223,20.223,0,0,0,2.757,2.129,8.059,8.059,0,0,0,3.076,1.064c2.129.287,4.258-.458,6.206-.969,3.928-1.065,7.537-2.31,10.741-1.895a8.867,8.867,0,0,1,6.132,3.885,5.76,5.76,0,0,1,.766,1.863,2.907,2.907,0,0,1,.064.607Z" transform="translate(-166.799 -186.935)" fill="#263238"/>
      <path id="Path_5613" data-name="Path 5613" d="M299.322,441.224a7.025,7.025,0,0,0-1.011-2.448,8.049,8.049,0,0,0-2.2-2.129,8.9,8.9,0,0,0-3.8-1.448c-3.055-.362-6.611.926-10.549,1.991-1.948.522-4.077,1.309-6.387,1.065a8.516,8.516,0,0,1-3.3-1.15,20.3,20.3,0,0,1-2.832-2.129,29.583,29.583,0,0,0-11.284-6.706,28.858,28.858,0,0,0-5.61-1.3,17.543,17.543,0,0,0-5,0,11.1,11.1,0,0,0-3.854,1.341,10.144,10.144,0,0,0-2.4,1.927c-1.065,1.331-1.458,2.236-1.522,2.193a8.708,8.708,0,0,1,1.363-2.331,9.581,9.581,0,0,1,2.363-2.129,10.943,10.943,0,0,1,3.971-1.469,17.385,17.385,0,0,1,5.11,0,29.667,29.667,0,0,1,5.716,1.267,33.863,33.863,0,0,1,5.919,2.619,24.242,24.242,0,0,1,2.885,1.874c.926.724,1.788,1.512,2.683,2.278a20.223,20.223,0,0,0,2.757,2.129,8.059,8.059,0,0,0,3.076,1.064c2.129.287,4.258-.458,6.206-.969,3.928-1.065,7.537-2.31,10.741-1.895a8.867,8.867,0,0,1,6.132,3.885,5.76,5.76,0,0,1,.766,1.863,2.907,2.907,0,0,1,.064.607Z" transform="translate(-166.799 -186.935)" fill="#263238"/>
      <path id="Path_5614" data-name="Path 5614" d="M247.63,439.83a10.922,10.922,0,0,1,2.129-1.458,58.088,58.088,0,0,1,5.461-2.917,60.374,60.374,0,0,1,5.738-2.353,11.218,11.218,0,0,1,2.47-.692,13.843,13.843,0,0,1-2.331,1.064c-1.458.607-3.46,1.458-5.642,2.48s-4.109,2.023-5.5,2.757A12.858,12.858,0,0,1,247.63,439.83Z" transform="translate(-166.279 -186.541)" fill="#263238"/>
      <path id="Path_5615" data-name="Path 5615" d="M249,443.739a74.858,74.858,0,0,1,8.058-4.2,75.695,75.695,0,0,1,8.3-3.7,74.867,74.867,0,0,1-8.058,4.2A73.712,73.712,0,0,1,249,443.739Z" transform="translate(-166.191 -186.321)" fill="#263238"/>
      <path id="Path_5616" data-name="Path 5616" d="M266.176,445.679c-.085.128-4.482-2.491-9.815-5.855s-9.581-6.206-9.581-6.334,4.471,2.491,9.815,5.866S266.282,445.551,266.176,445.679Z" transform="translate(-166.334 -186.472)" fill="#263238"/>
      <path id="Path_5617" data-name="Path 5617" d="M268.218,441.529a14.041,14.041,0,0,1-2.129-1.437c-1.288-.937-3.077-2.225-5.078-3.609s-3.822-2.608-5.152-3.492a13.033,13.033,0,0,1-2.129-1.512,12.082,12.082,0,0,1,2.31,1.182c1.384.8,3.268,1.98,5.323,3.364s3.768,2.736,5,3.758a10.263,10.263,0,0,1,1.852,1.746Z" transform="translate(-165.886 -186.601)" fill="#263238"/>
    </g>
  </g>
</svg>
