<svg xmlns="http://www.w3.org/2000/svg" width="22.281" height="21.405" viewBox="0 0 22.281 21.405">
  <path id="Tracé_7646" data-name="Tracé 7646" d="M20.7,13.921a1.783,1.783,0,0,0-.988-3.042l-5.163-.75a.029.029,0,0,1-.022-.016L12.221,5.434a1.783,1.783,0,0,0-3.2,0L6.714,10.113a.029.029,0,0,1-.022.016l-5.163.75a1.783,1.783,0,0,0-.988,3.042l3.736,3.642a.029.029,0,0,1,.008.026L3.4,22.73a1.783,1.783,0,0,0,2.588,1.88l4.618-2.428a.029.029,0,0,1,.027,0l4.618,2.428a1.783,1.783,0,0,0,2.588-1.88l-.882-5.142a.029.029,0,0,1,.008-.026ZM15.23,17.884l.882,5.142c0,.014,0,.018-.012.028s-.018.009-.03,0l-4.618-2.428a1.784,1.784,0,0,0-1.66,0L5.174,23.057c-.012.006-.016.008-.03,0s-.014-.015-.012-.028l.882-5.142A1.783,1.783,0,0,0,5.5,16.306L1.765,12.664c-.01-.01-.013-.012-.007-.03s.01-.018.023-.02l5.163-.75a1.783,1.783,0,0,0,1.343-.976L10.6,6.211c.006-.012.008-.016.026-.016s.02,0,.026.016l2.309,4.679a1.783,1.783,0,0,0,1.343.976l5.163.75c.014,0,.018,0,.023.02s0,.02-.007.03l-3.736,3.642A1.784,1.784,0,0,0,15.23,17.884Z" transform="translate(0.518 -3.94)" fill="#16697a" stroke="#16697a" stroke-width="1"/>
</svg>
