<svg xmlns="http://www.w3.org/2000/svg" width="22.655" height="20.893" viewBox="0 0 22.655 20.893">
  <g id="studying-work-svgrepo-com" transform="translate(0 -19.911)">
    <g id="Group_2286" data-name="Group 2286" transform="translate(0 19.911)">
      <path id="Path_7503" data-name="Path 7503" d="M21.9,30.181H13.858l-.17-.856h2.428a1.706,1.706,0,0,0,1.706-1.706v-6a1.706,1.706,0,0,0-1.706-1.706H6.589a1.706,1.706,0,0,0-1.706,1.706v6a1.706,1.706,0,0,0,1.706,1.706H9.042l-.17.856H.775A.768.768,0,0,0,0,30.85a.755.755,0,0,0,.75.841h1.41v8.337a.768.768,0,0,0,.669.77.755.755,0,0,0,.841-.75V34.913h15.3v5.115a.768.768,0,0,0,.669.77.755.755,0,0,0,.841-.75V31.691h1.39a.768.768,0,0,0,.77-.669A.755.755,0,0,0,21.9,30.181ZM6.393,21.617a.2.2,0,0,1,.2-.2h9.527a.2.2,0,0,1,.2.2V25.8H6.393Zm.2,6.2a.2.2,0,0,1-.2-.2v-.308h9.918v.308a.2.2,0,0,1-.2.2Zm5.729,2.366H10.386l.17-.856h1.591ZM18.979,33.4H3.675V31.691h15.3V33.4Z" transform="translate(0 -19.911)" fill="#16697a"/>
    </g>
  </g>
</svg>
