<svg xmlns="http://www.w3.org/2000/svg" width="37" height="37" viewBox="0 0 37 37">
  <g id="suitcase-svgrepo-com" transform="translate(-10.5 -10.5)">
    <path id="Tracé_7679" data-name="Tracé 7679" d="M43.936,15.21H35.891v-1.3A2.845,2.845,0,0,0,33.055,11H24.864a2.892,2.892,0,0,0-2.836,2.909v1.3H14.064A3.076,3.076,0,0,0,11,18.273V43.936A3.076,3.076,0,0,0,14.064,47H43.936A3.076,3.076,0,0,0,47,43.936V18.273A3.076,3.076,0,0,0,43.936,15.21Zm-20.373-1.3a1.375,1.375,0,0,1,1.381-1.381h8.118a1.375,1.375,0,0,1,1.381,1.381v1.3H23.563v-1.3Zm-9.5,2.836H43.936a1.54,1.54,0,0,1,1.536,1.536v7.156L32.842,32.909a4.054,4.054,0,0,0-7.685.015L12.535,25.429V18.273a1.532,1.532,0,0,1,1.528-1.528ZM31.527,34.209A2.528,2.528,0,1,1,29,31.608,2.563,2.563,0,0,1,31.527,34.209ZM43.936,45.464H14.064a1.54,1.54,0,0,1-1.536-1.536V27.207l12.431,7.376a4.057,4.057,0,0,0,8.082-.015l12.424-7.354V43.936A1.527,1.527,0,0,1,43.936,45.464Z" fill="#069a8e" stroke="#069a8e" stroke-width="1"/>
  </g>
</svg>
