<svg xmlns="http://www.w3.org/2000/svg" width="22.608" height="27.424" viewBox="0 0 22.608 27.424">
  <g id="Group_2665" data-name="Group 2665" transform="translate(0)">
    <path id="Path_7627" data-name="Path 7627" d="M251.5,6.476a3.238,3.238,0,1,0-3.239-3.238A3.238,3.238,0,0,0,251.5,6.476Z" transform="translate(-236.867)" fill="#5a5a5a"/>
    <path id="Path_7628" data-name="Path 7628" d="M114.886,17.588h-1.771l-1.56,2.552L110,17.588h-1.844s-4.265-.056-4.574,3.623h0v.481l-1.666-1.139-.195-.136a1.578,1.578,0,0,0-.971-.4L97.48,11.422l-.562.214,3.224,8.465a1.319,1.319,0,0,0-.458.3,1.441,1.441,0,0,0,.02,2.039l.925.627,1.288.861,2.45,1.632a1.266,1.266,0,0,0,.634.166h0a1.417,1.417,0,0,0,1.412-1.416V21.791h.923l0,6.034h8.482l0-6h.885v7.628h0c0,.021,0,.047,0,.063a1.414,1.414,0,1,0,2.827,0c0-.016,0-.042,0-.063h0V21.21S119.7,17.677,114.886,17.588Zm-3.33,8.647-.936-4.766.936-1.2,1.072,1.2Z" transform="translate(-96.918 -10.562)" fill="#5a5a5a"/>
    <path id="Path_7629" data-name="Path 7629" d="M234.852,242.514l-.006,8.238c0,.507.854.92,1.9.92s1.889-.407,1.9-.909l.014-.007V243.25h.854v7.5c0,.509.858.924,1.913.924s1.91-.415,1.91-.924l-.008-8.231Z" transform="translate(-224.457 -224.248)" fill="#5a5a5a"/>
  </g>
</svg>
