<svg id="Group_2288" data-name="Group 2288" xmlns="http://www.w3.org/2000/svg" width="21.152" height="21.152" viewBox="0 0 21.152 21.152">
  <g id="Group_2287" data-name="Group 2287">
    <path id="Path_7506" data-name="Path 7506" d="M0,0V13.213H.663v.671h.644v-.671H19.848v.671h.644v-.671h.662V0ZM20.51,12.57H.645v-.349H20.51v.349Zm0-.992H.645V10.236H20.51v1.341Zm0-1.985H.645V.644H20.51V9.593Z" transform="translate(-0.001)"/>
    <rect id="Rectangle_1811" data-name="Rectangle 1811" width="0.662" height="0.644" transform="translate(8.922 10.585)"/>
    <rect id="Rectangle_1812" data-name="Rectangle 1812" width="0.662" height="0.644" transform="translate(10.245 10.585)"/>
    <rect id="Rectangle_1813" data-name="Rectangle 1813" width="0.662" height="0.644" transform="translate(11.569 10.585)"/>
    <rect id="Rectangle_1814" data-name="Rectangle 1814" width="0.644" height="2.339" transform="translate(4.726 2.74) rotate(45)"/>
    <rect id="Rectangle_1815" data-name="Rectangle 1815" width="0.644" height="6.081" transform="translate(7.372 2.41) rotate(45)"/>
    <rect id="Rectangle_1816" data-name="Rectangle 1816" width="0.644" height="1.637" transform="translate(6.876 4.891) rotate(45)"/>
    <rect id="Rectangle_1817" data-name="Rectangle 1817" width="9.356" height="0.644" transform="translate(13.119 1.872) rotate(135)"/>
    <rect id="Rectangle_1818" data-name="Rectangle 1818" width="2.807" height="0.644" transform="translate(13.781 3.857) rotate(135)"/>
    <rect id="Rectangle_1819" data-name="Rectangle 1819" width="0.644" height="1.637" transform="translate(12.126 8.489) rotate(-135)"/>
    <rect id="Rectangle_1820" data-name="Rectangle 1820" width="0.644" height="7.251" transform="translate(19.115 2.905) rotate(45)"/>
    <path id="Path_7507" data-name="Path 7507" d="M0,358.9H14.538v-6.6H0Zm.644-5.954H13.894v5.311H.645Z" transform="translate(-0.001 -337.745)"/>
    <rect id="Rectangle_1821" data-name="Rectangle 1821" width="0.662" height="0.644" transform="translate(1.645 16.208)"/>
    <rect id="Rectangle_1822" data-name="Rectangle 1822" width="0.662" height="0.644" transform="translate(2.968 16.208)"/>
    <rect id="Rectangle_1823" data-name="Rectangle 1823" width="0.662" height="0.644" transform="translate(4.291 16.208)"/>
    <rect id="Rectangle_1824" data-name="Rectangle 1824" width="0.662" height="0.644" transform="translate(5.614 16.208)"/>
    <rect id="Rectangle_1825" data-name="Rectangle 1825" width="0.662" height="0.644" transform="translate(6.937 16.208)"/>
    <rect id="Rectangle_1826" data-name="Rectangle 1826" width="0.662" height="0.644" transform="translate(8.261 16.208)"/>
    <rect id="Rectangle_1827" data-name="Rectangle 1827" width="0.662" height="0.644" transform="translate(9.584 16.208)"/>
    <rect id="Rectangle_1828" data-name="Rectangle 1828" width="0.662" height="0.644" transform="translate(10.907 16.208)"/>
    <rect id="Rectangle_1829" data-name="Rectangle 1829" width="0.662" height="0.644" transform="translate(12.23 16.208)"/>
    <rect id="Rectangle_1830" data-name="Rectangle 1830" width="0.662" height="0.644" transform="translate(1.645 17.532)"/>
    <rect id="Rectangle_1831" data-name="Rectangle 1831" width="0.662" height="0.644" transform="translate(2.968 17.532)"/>
    <rect id="Rectangle_1832" data-name="Rectangle 1832" width="0.662" height="0.644" transform="translate(4.291 17.532)"/>
    <rect id="Rectangle_1833" data-name="Rectangle 1833" width="0.662" height="0.644" transform="translate(5.614 17.532)"/>
    <rect id="Rectangle_1834" data-name="Rectangle 1834" width="0.662" height="0.644" transform="translate(6.937 17.532)"/>
    <rect id="Rectangle_1835" data-name="Rectangle 1835" width="0.662" height="0.644" transform="translate(8.261 17.532)"/>
    <rect id="Rectangle_1836" data-name="Rectangle 1836" width="0.662" height="0.644" transform="translate(9.584 17.532)"/>
    <rect id="Rectangle_1837" data-name="Rectangle 1837" width="0.662" height="0.644" transform="translate(10.907 17.532)"/>
    <rect id="Rectangle_1838" data-name="Rectangle 1838" width="0.662" height="0.644" transform="translate(12.23 17.532)"/>
    <rect id="Rectangle_1839" data-name="Rectangle 1839" width="0.662" height="0.644" transform="translate(1.645 18.855)"/>
    <rect id="Rectangle_1840" data-name="Rectangle 1840" width="0.662" height="0.644" transform="translate(2.968 18.855)"/>
    <rect id="Rectangle_1841" data-name="Rectangle 1841" width="0.662" height="0.644" transform="translate(10.907 18.855)"/>
    <rect id="Rectangle_1842" data-name="Rectangle 1842" width="0.662" height="0.644" transform="translate(12.23 18.855)"/>
    <rect id="Rectangle_1843" data-name="Rectangle 1843" width="5.954" height="0.644" transform="translate(4.291 18.855)"/>
    <path id="Path_7508" data-name="Path 7508" d="M409.992,384.327a1.647,1.647,0,0,0-1.645,1.645v1.985a1.645,1.645,0,0,0,3.29,0v-1.985A1.647,1.647,0,0,0,409.992,384.327Zm1,3.63a1,1,0,0,1-2,0v-1.985a1,1,0,0,1,2,0Z" transform="translate(-391.477 -368.449)"/>
    <rect id="Rectangle_1844" data-name="Rectangle 1844" width="0.644" height="0.662" transform="translate(18.193 17.192)"/>
  </g>
</svg>
