<svg xmlns="http://www.w3.org/2000/svg" width="19.829" height="19.829" viewBox="0 0 19.829 19.829">
  <g id="time-svgrepo-com_2_" data-name="time-svgrepo-com (2)" transform="translate(0.1 0.1)">
    <path id="Path_7683" data-name="Path 7683" d="M9.814,0a9.814,9.814,0,1,0,9.814,9.814A9.826,9.826,0,0,0,9.814,0Zm0,18.975a9.16,9.16,0,1,1,9.16-9.16A9.171,9.171,0,0,1,9.814,18.975Z" stroke="#000" stroke-width="0.2"/>
    <path id="Path_7684" data-name="Path 7684" d="M18.562,6a.327.327,0,0,0-.327.327v7.524H13.327a.327.327,0,0,0,0,.654h5.234a.327.327,0,0,0,.327-.327V6.327A.327.327,0,0,0,18.562,6Z" transform="translate(-8.747 -4.037)" stroke="#000" stroke-width="0.2"/>
  </g>
</svg>
