<svg xmlns="http://www.w3.org/2000/svg" width="23.5" height="23.5" viewBox="0 0 23.5 23.5">
  <g id="Groupe_2733" data-name="Groupe 2733" transform="translate(-13.024 -17.75)">
    <g id="time-svgrepo-com" transform="translate(13.273 18)">
      <path id="Tracé_7650" data-name="Tracé 7650" d="M11.5,0A11.5,11.5,0,1,0,23,11.5,11.513,11.513,0,0,0,11.5,0Zm0,21.337A9.837,9.837,0,1,1,21.338,11.5,9.849,9.849,0,0,1,11.5,21.337Z" fill="#16697a" stroke="#16697a" stroke-width="0.5"/>
      <path id="Tracé_7651" data-name="Tracé 7651" d="M43.02,26.928h-.014l-2.7.04V19.9a.9.9,0,1,0-1.807,0v7.982s0,0,0,.005,0,.006,0,.008a.881.881,0,0,0,.012.107c0,.022,0,.045.008.066a.854.854,0,0,0,.035.111c.007.019.011.039.019.057a.935.935,0,0,0,.057.105c.009.015.016.032.026.047a.953.953,0,0,0,.077.094c.011.013.021.027.033.039a.95.95,0,0,0,.095.078c.013.01.025.022.039.031a.875.875,0,0,0,.113.062c.014.006.026.015.039.021a.927.927,0,0,0,.142.044c.009,0,.017.006.027.008a.918.918,0,0,0,.181.018h.014l3.617-.054a.9.9,0,0,0-.013-1.807Z" transform="translate(-28.087 -14.03)" fill="#16697a" stroke="#16697a" stroke-width="0.5"/>
    </g>
  </g>
</svg>
