<svg xmlns="http://www.w3.org/2000/svg" width="529" height="481.658" viewBox="0 0 529 481.658">
  <g id="Group_2287" data-name="Group 2287" transform="translate(-698 -3829)">
    <g id="Group_2284" data-name="Group 2284">
      <g id="Group_2286" data-name="Group 2286">
        <g id="Group_2285" data-name="Group 2285">
          <g id="Path_7497" data-name="Path 7497" transform="translate(698 3829)" fill="#fff" opacity="0.16">
            <path d="M 259.0458679199219 481.15771484375 C 223.6364593505859 481.15771484375 190.6134033203125 477.4057922363281 160.8939361572266 470.0062561035156 C 129.0705261230469 462.0827941894531 101.326530456543 450.0241088867188 78.43266296386719 434.1650695800781 C 72.46293640136719 430.0297241210938 66.74666595458984 425.57666015625 61.44266510009766 420.9293823242188 C 56.03680038452148 416.1929931640625 50.91293334960938 411.1268005371094 46.21340179443359 405.87158203125 C 41.42333221435547 400.51513671875 36.94386672973633 394.8165893554688 32.89946746826172 388.9343872070312 C 28.77700042724609 382.9385986328125 24.99399948120117 376.5881958007812 21.65546607971191 370.0595092773438 C 18.25259971618652 363.4049987792969 15.21826648712158 356.3827209472656 12.63673305511475 349.1879272460938 C 10.00559997558594 341.8549194335938 7.772533416748047 334.140869140625 5.999533176422119 326.2601318359375 C 4.192733287811279 318.2290649414062 2.81386661529541 309.8033142089844 1.901266694068909 301.2169799804688 C 0.9714666604995728 292.4684448242188 0.5 283.3113098144531 0.5 274 C 0.5 255.4430541992188 2.369466781616211 236.8978576660156 6.056533336639404 218.8796539306641 C 9.649867057800293 201.3196563720703 15.01159954071045 184.0469970703125 21.99279975891113 167.5415954589844 C 28.84726715087891 151.3357238769531 37.33133316040039 135.7051239013672 47.20920181274414 121.0839233398438 C 56.99333190917969 106.6014556884766 68.229736328125 92.98285675048828 80.60633087158203 80.6063232421875 C 92.98286437988281 68.22972106933594 106.6014633178711 56.99332427978516 121.0839309692383 47.20919036865234 C 135.7051391601562 37.33132553100586 151.3357391357422 28.84725761413574 167.5415954589844 21.99279022216797 C 184.0469970703125 15.0115909576416 201.3196716308594 9.649857521057129 218.8796691894531 6.056524276733398 C 236.8978729248047 2.369457483291626 255.4430694580078 0.4999907612800598 274 0.4999907612800598 C 292.5400085449219 0.4999907612800598 310.8095397949219 2.36925745010376 328.3009948730469 6.055923938751221 C 345.3136596679688 9.641657829284668 361.8599243164062 15.00225734710693 377.4802551269531 21.98872375488281 C 392.7546691894531 28.82045745849609 407.3594665527344 37.3022575378418 420.8890686035156 47.19845581054688 C 434.2068786621094 56.93972396850586 446.6512145996094 68.17366027832031 457.8764038085938 80.58805847167969 C 469.0101318359375 92.90145874023438 479.0738525390625 106.5185241699219 487.7879333496094 121.0609893798828 C 496.5018005371094 135.6031951904297 503.9639892578125 151.2341918945312 509.9673461914062 167.5197906494141 C 516.0195922851562 183.9382629394531 520.6591796875 201.2135925292969 523.7572021484375 218.8658599853516 C 526.9043579101562 236.7976531982422 528.5 255.3474578857422 528.5 274 C 528.5 283.3009948730469 527.9874877929688 292.4566040039062 526.9767456054688 301.2125244140625 C 525.9866943359375 309.7890014648438 524.4918212890625 318.21337890625 522.5337524414062 326.2515869140625 C 520.6162719726562 334.1232604980469 518.2030029296875 341.8362426757812 515.3610229492188 349.17626953125 C 512.5782470703125 356.3630676269531 509.31005859375 363.3847351074219 505.6471862792969 370.0462646484375 C 502.0610656738281 376.5680541992188 498.0011291503906 382.91845703125 493.5799865722656 388.9211120605469 C 489.2518615722656 394.7975769042969 484.4628601074219 400.4965209960938 479.3461303710938 405.8597106933594 C 469.4246520996094 416.2590637207031 457.9106750488281 425.7799377441406 445.1239318847656 434.1578674316406 C 420.9805297851562 449.9768676757812 391.9725952148438 462.0377197265625 358.906005859375 470.0053100585938 C 343.3961181640625 473.7425231933594 326.9165344238281 476.5819091796875 309.9249877929688 478.4446716308594 C 293.5029907226562 480.2449340820312 276.3847961425781 481.15771484375 259.0458679199219 481.15771484375 Z" stroke="none"/>
            <path d="M 274 1 C 255.4766540527344 1 236.9652099609375 2.866058349609375 218.9799194335938 6.54638671875 C 201.4522094726562 10.133056640625 184.2113952636719 15.48492431640625 167.7363891601562 22.4532470703125 C 151.5602722167969 29.29519653320312 135.958251953125 37.76373291015625 121.3638000488281 47.62353515625 C 106.9078063964844 57.38986206054688 93.31393432617188 68.60580444335938 80.95986938476562 80.95986938476562 C 68.60580444335938 93.31393432617188 57.38986206054688 106.9077758789062 47.62353515625 121.3638000488281 C 37.76373291015625 135.958251953125 29.29519653320312 151.5602722167969 22.45327758789062 167.7363891601562 C 15.48492431640625 184.2113952636719 10.133056640625 201.4521789550781 6.54638671875 218.9799194335938 C 2.8660888671875 236.9651947021484 1 255.4766540527344 1 274 C 1 283.2937927246094 1.47052001953125 292.43310546875 2.3984375 301.1641235351562 C 3.30908203125 309.7313842773438 4.68475341796875 318.1380004882812 6.4873046875 326.150390625 C 8.255859375 334.0111694335938 10.483154296875 341.705322265625 13.10736083984375 349.01904296875 C 15.681640625 356.19384765625 18.70745849609375 363.1962585449219 22.10067749023438 369.8318481445312 C 25.4293212890625 376.3414001464844 29.20120239257812 382.6730651855469 33.31146240234375 388.6510620117188 C 37.3438720703125 394.5159301757812 41.81011962890625 400.1976013183594 46.58612060546875 405.5382690429688 C 51.27212524414062 410.7784423828125 56.3814697265625 415.8302612304688 61.77212524414062 420.5533142089844 C 67.06201171875 425.1881103515625 72.76321411132812 429.6294555664062 78.7174072265625 433.7540588378906 C 101.5613403320312 449.5785217285156 129.2502136230469 461.6122436523438 161.0146789550781 469.5210571289062 C 190.6946716308594 476.9107971191406 223.6771240234375 480.65771484375 259.0458679199219 480.65771484375 C 276.3666687011719 480.65771484375 293.466552734375 479.7459106445312 309.8704833984375 477.9476013183594 C 326.8410034179688 476.0871887207031 343.2995300292969 473.2515258789062 358.788818359375 469.5192565917969 C 391.7994689941406 461.5651245117188 420.7546081542969 449.5271301269531 444.849853515625 433.7396545410156 C 457.604736328125 425.3825988769531 469.0892028808594 415.8862609863281 478.9843444824219 405.5145874023438 C 484.0865478515625 400.1666564941406 488.8617248535156 394.4840698242188 493.1773986816406 388.6245727539062 C 497.5854797363281 382.6395874023438 501.633544921875 376.3079223632812 505.208984375 369.8053283691406 C 508.8612670898438 363.1632080078125 512.1199951171875 356.161865234375 514.8946533203125 348.9957275390625 C 517.7288818359375 341.6759033203125 520.1356201171875 333.9838562011719 522.0479125976562 326.1331787109375 C 524.0011596679688 318.1150512695312 525.4923095703125 309.711181640625 526.47998046875 301.1552124023438 C 527.4885864257812 292.4182739257812 528 283.2819213867188 528 274 C 528 255.3763275146484 526.4067993164062 236.8555908203125 523.2647094726562 218.9523315429688 C 520.171875 201.3293762207031 515.5401611328125 184.0831909179688 509.4981994628906 167.6927185058594 C 503.505615234375 151.4362487792969 496.0569458007812 135.8335266113281 487.3590087890625 121.3179931640625 C 478.6616821289062 106.8034057617188 468.6174621582031 93.212646484375 457.5055236816406 80.9234619140625 C 446.3031311035156 68.5341796875 433.88427734375 57.3232421875 420.5939331054688 47.60198974609375 C 407.0926513671875 37.72653198242188 392.5184631347656 29.26251220703125 377.276123046875 22.44512939453125 C 361.6881408691406 15.47311401367188 345.1758728027344 10.12359619140625 328.1979370117188 6.545196533203125 C 310.7402648925781 2.86566162109375 292.5054016113281 1 274 1 M 274 0 C 425.3259887695312 0 529 122.6739807128906 529 274 C 529 425.3259887695312 396.0458679199219 481.65771484375 259.0458679199219 481.65771484375 C 122.0458679199219 481.65771484375 0 425.3259887695312 0 274 C 0 122.6739807128906 122.6740112304688 0 274 0 Z" stroke="none" fill="#707070"/>
          </g>
        </g>
      </g>
    </g>
    <g id="To_the_stars-rafiki" data-name="To the stars-rafiki" transform="translate(718.078 3878.5)">
      <g id="freepik--background-complete--inject-169">
        <rect id="Rectangle_850" data-name="Rectangle 850" width="500" height="0.25" transform="translate(0 382.4)" fill="#ebebeb"/>
        <rect id="Rectangle_851" data-name="Rectangle 851" width="33.12" height="0.25" transform="translate(416.78 398.49)" fill="#ebebeb"/>
        <rect id="Rectangle_852" data-name="Rectangle 852" width="8.69" height="0.25" transform="translate(322.53 401.21)" fill="#ebebeb"/>
        <rect id="Rectangle_853" data-name="Rectangle 853" width="19.19" height="0.25" transform="translate(396.59 389.21)" fill="#ebebeb"/>
        <rect id="Rectangle_854" data-name="Rectangle 854" width="43.19" height="0.25" transform="translate(52.46 390.89)" fill="#ebebeb"/>
        <rect id="Rectangle_855" data-name="Rectangle 855" width="6.33" height="0.25" transform="translate(104.56 390.89)" fill="#ebebeb"/>
        <rect id="Rectangle_856" data-name="Rectangle 856" width="93.68" height="0.25" transform="translate(131.47 395.11)" fill="#ebebeb"/>
        <path id="Path_5078" data-name="Path 5078" d="M237,337.8H43.91a5.71,5.71,0,0,1-5.7-5.71V60.66A5.71,5.71,0,0,1,43.91,55H237a5.71,5.71,0,0,1,5.71,5.71V332.09A5.71,5.71,0,0,1,237,337.8ZM43.91,55.2a5.46,5.46,0,0,0-5.45,5.46V332.09a5.46,5.46,0,0,0,5.45,5.46H237a5.47,5.47,0,0,0,5.46-5.46V60.66A5.47,5.47,0,0,0,237,55.2Z" fill="#ebebeb"/>
        <path id="Path_5079" data-name="Path 5079" d="M453.31,337.8H260.21a5.72,5.72,0,0,1-5.71-5.71V60.66A5.72,5.72,0,0,1,260.21,55h193.1A5.71,5.71,0,0,1,459,60.66V332.09A5.71,5.71,0,0,1,453.31,337.8ZM260.21,55.2a5.47,5.47,0,0,0-5.46,5.46V332.09a5.47,5.47,0,0,0,5.46,5.46h193.1a5.47,5.47,0,0,0,5.46-5.46V60.66a5.47,5.47,0,0,0-5.46-5.46Z" fill="#ebebeb"/>
        <path id="Path_5080" data-name="Path 5080" d="M215.37,75.34l.84,1.71a.67.67,0,0,0,.52.37l1.89.28a.68.68,0,0,1,.37,1.16l-1.36,1.34a.67.67,0,0,0-.2.6l.32,1.88a.68.68,0,0,1-1,.72l-1.69-.89a.7.7,0,0,0-.63,0l-1.7.89a.68.68,0,0,1-1-.72l.33-1.88a.7.7,0,0,0-.2-.6l-1.37-1.34a.68.68,0,0,1,.38-1.16l1.89-.28a.69.69,0,0,0,.52-.37l.84-1.71a.69.69,0,0,1,1.25,0Z" fill="#f5f5f5"/>
        <path id="Path_5081" data-name="Path 5081" d="M90.86,216.19l.85,1.72a.68.68,0,0,0,.51.37l1.89.28a.68.68,0,0,1,.38,1.16l-1.37,1.33a.69.69,0,0,0-.19.61l.32,1.88a.68.68,0,0,1-1,.72l-1.69-.89a.72.72,0,0,0-.64,0l-1.69.89a.68.68,0,0,1-1-.72l.32-1.88a.69.69,0,0,0-.19-.61L86,219.72a.68.68,0,0,1,.38-1.16l1.89-.28a.68.68,0,0,0,.51-.37l.85-1.72a.68.68,0,0,1,1.23,0Z" fill="#f0f0f0"/>
        <path id="Path_5082" data-name="Path 5082" d="M75.16,121.69,76,123.4a.69.69,0,0,0,.51.38l1.89.27a.69.69,0,0,1,.38,1.17l-1.37,1.33a.71.71,0,0,0-.2.6l.33,1.89a.68.68,0,0,1-1,.72l-1.69-.89a.66.66,0,0,0-.64,0l-1.69.89a.68.68,0,0,1-1-.72l.32-1.89a.65.65,0,0,0-.2-.6l-1.36-1.33a.68.68,0,0,1,.37-1.17l1.89-.27a.71.71,0,0,0,.52-.38l.84-1.71a.69.69,0,0,1,1.26,0Z" fill="#f0f0f0"/>
        <path id="Path_5083" data-name="Path 5083" d="M150.93,164.67l.5,1a.42.42,0,0,0,.31.22l1.13.16a.41.41,0,0,1,.22.7l-.81.8a.4.4,0,0,0-.12.36l.19,1.12a.4.4,0,0,1-.59.43l-1-.53a.42.42,0,0,0-.38,0l-1,.53a.4.4,0,0,1-.59-.43l.19-1.12a.4.4,0,0,0-.12-.36l-.82-.8a.41.41,0,0,1,.23-.7l1.13-.16a.42.42,0,0,0,.31-.22l.5-1a.42.42,0,0,1,.72,0Z" fill="#f0f0f0"/>
        <path id="Path_5084" data-name="Path 5084" d="M120.28,295.7l.5,1a.43.43,0,0,0,.31.23l1.13.16a.41.41,0,0,1,.23.7l-.82.79a.42.42,0,0,0-.12.37l.2,1.12a.41.41,0,0,1-.6.43l-1-.53a.42.42,0,0,0-.38,0l-1,.53a.41.41,0,0,1-.59-.43l.19-1.12a.42.42,0,0,0-.11-.37l-.82-.79a.41.41,0,0,1,.22-.7l1.13-.16a.41.41,0,0,0,.31-.23l.51-1a.41.41,0,0,1,.71,0Z" fill="#f5f5f5"/>
        <path id="Path_5085" data-name="Path 5085" d="M434.4,76.9l.5,1a.39.39,0,0,0,.31.22l1.13.17a.41.41,0,0,1,.23.7l-.82.79a.41.41,0,0,0-.12.36l.2,1.13a.41.41,0,0,1-.6.43l-1-.53a.42.42,0,0,0-.38,0l-1,.53a.41.41,0,0,1-.59-.43l.19-1.13a.41.41,0,0,0-.11-.36L431.5,79a.41.41,0,0,1,.22-.7l1.13-.17a.38.38,0,0,0,.31-.22l.51-1a.4.4,0,0,1,.73-.01Z" fill="#f5f5f5"/>
        <path id="Path_5086" data-name="Path 5086" d="M425.71,265.63l.87,1.77a.68.68,0,0,0,.53.38l2,.29a.7.7,0,0,1,.39,1.2l-1.5,1.38a.73.73,0,0,0-.2.63l.34,2a.71.71,0,0,1-1,.74l-1.75-.92a.7.7,0,0,0-.66,0L423,274a.7.7,0,0,1-1-.74l.33-2a.7.7,0,0,0-.2-.63l-1.42-1.38a.71.71,0,0,1,.4-1.2l1.95-.29a.68.68,0,0,0,.53-.38l.88-1.77a.71.71,0,0,1,1.24.02Z" fill="#f0f0f0"/>
        <path id="Path_5087" data-name="Path 5087" d="M318.59,99.89a1.33,1.33,0,1,1-1.33-1.33A1.33,1.33,0,0,1,318.59,99.89Z" fill="#f0f0f0"/>
        <path id="Path_5088" data-name="Path 5088" d="M356.76,357.67a1.32,1.32,0,1,1-.387-.943,1.33,1.33,0,0,1,.387.943Z" fill="#f5f5f5"/>
        <path id="Path_5089" data-name="Path 5089" d="M132.75,83.31a5.69,5.69,0,1,1-5.69-5.69,5.69,5.69,0,0,1,5.69,5.69Z" fill="#f0f0f0"/>
        <path id="Path_5090" data-name="Path 5090" d="M186.59,120.91a59,59,0,0,0,10.4.89,12.15,12.15,0,0,1-20.55-3.48,60.09,60.09,0,0,0,10.15,2.59Z" fill="#f5f5f5"/>
        <path id="Path_5091" data-name="Path 5091" d="M188.36,110.41a56.15,56.15,0,0,0-12-.84,12.16,12.16,0,0,1,23.52,4,55.94,55.94,0,0,0-11.52-3.16Z" fill="#f5f5f5"/>
        <ellipse id="Ellipse_132" data-name="Ellipse 132" cx="4.2" cy="19.13" rx="4.2" ry="19.13" transform="translate(168.209 114.831) rotate(-80.41)" fill="#f5f5f5"/>
        <path id="Path_5092" data-name="Path 5092" d="M433.64,202.8a79.31,79.31,0,0,1-106.42,35.5c-1.62-.8-3.19-1.65-4.69-2.55a98,98,0,0,0,46.6-147.52A79.37,79.37,0,0,1,433.64,202.8Z" fill="#f5f5f5"/>
        <path id="Path_5093" data-name="Path 5093" d="M397.36,109.35a18,18,0,0,1,7.28,13.51,45.61,45.61,0,0,0-9.92-10,46.441,46.441,0,0,0-12.44-6.58,18,18,0,0,1,15.08,3.07Z" fill="#f0f0f0"/>
        <path id="Path_5094" data-name="Path 5094" d="M377.33,229.59a18,18,0,0,1-15.2,2.18,45.389,45.389,0,0,0,12.76-5.88,46.37,46.37,0,0,0,10.47-9.41,18,18,0,0,1-8.03,13.11Z" fill="#f0f0f0"/>
        <path id="Path_5095" data-name="Path 5095" d="M404.66,154.09a17.93,17.93,0,0,1,0,15.35,45.069,45.069,0,0,0-4-13.47,46.371,46.371,0,0,0-7.82-11.69,18,18,0,0,1,11.82,9.81Z" fill="#f0f0f0"/>
        <path id="Path_5096" data-name="Path 5096" d="M417.55,208.54a18,18,0,0,1-13.81,6.72,45.12,45.12,0,0,0,10.35-9.5,46.471,46.471,0,0,0,7.1-12.15A18,18,0,0,1,417.55,208.54Z" fill="#f0f0f0"/>
      </g>
      <g id="freepik--Shadow--inject-169">
        <ellipse id="freepik--path--inject-169" cx="193.89" cy="11.32" rx="193.89" ry="11.32" transform="translate(56.11 404.92)" fill="#f5f5f5"/>
      </g>
      <g id="freepik--Rocket--inject-169">
        <path id="Path_5097" data-name="Path 5097" d="M254.35,132.83l-.7-.55c3.15-4,6.46-7.76,9.84-11.28l.63.62C260.76,125.11,257.47,128.89,254.35,132.83Z" fill="#16697a"/>
        <rect id="Rectangle_857" data-name="Rectangle 857" width="5.19" height="0.88" transform="translate(247.39 140.18) rotate(-51.58)" fill="#16697a"/>
        <path id="Path_5098" data-name="Path 5098" d="M320,179.22c21.73-34.93,24.69-69.35,8.87-80.49s-47.23,3.24-72.8,35.47L183,226.37l74.92,52.76Z" fill="#16697a"/>
        <path id="Path_5099" data-name="Path 5099" d="M311.45,173.2l-63.6,98.87-7.78-14.87L303.24,167c17.86-25.51,27.87-48.82,27.91-61.8a1.06,1.06,0,0,1,2.06-.36C337.71,117.79,329.91,144.51,311.45,173.2Z" fill="#fff" opacity="0.1"/>
        <ellipse id="Ellipse_133" data-name="Ellipse 133" cx="31.81" cy="45.82" rx="31.81" ry="45.82" transform="matrix(0.576, -0.818, 0.818, 0.576, 164.633, 252.357)" fill="#16697a"/>
        <ellipse id="Ellipse_134" data-name="Ellipse 134" cx="31.81" cy="45.82" rx="31.81" ry="45.82" transform="matrix(0.576, -0.818, 0.818, 0.576, 164.633, 252.357)" fill="#fff" opacity="0.5"/>
        <path id="Path_5100" data-name="Path 5100" d="M250.1,210.44c-16.44-11.58-35.09-14.89-47-9.48l-18.55,23.38c11-12.28,34.51-11.44,54.17,2.4s28.39,35.73,20.51,50.2l15.57-25C276.14,238.81,266.72,222.14,250.1,210.44Z" opacity="0.1"/>
        <path id="Path_5101" data-name="Path 5101" d="M276.43,135.06c-4.56,7.22-8,20.73,5.55,30.26s25.11,1.76,30.36-5Z" opacity="0.2"/>
        <path id="Path_5102" data-name="Path 5102" d="M315.54,152c-1.55,12.9-16.46,22.31-32.11,11.29s-11.82-28.23-.2-34c7.16-3.58,16.28-2,22.52,2.34S316.5,144,315.54,152Z" fill="#fff"/>
        <path id="Path_5103" data-name="Path 5103" d="M285.56,160.24c-6.09-4.28-9.21-9.88-8.77-15.74a14.7,14.7,0,0,1,8.1-12c5.44-2.72,13.14-1.87,18.73,2.06s9,10.91,8.25,16.95a14.68,14.68,0,0,1-8.53,11.65C298,165.58,291.65,164.53,285.56,160.24Z" fill="#16697a"/>
        <path id="Path_5104" data-name="Path 5104" d="M285.56,160.24c-6.09-4.28-9.21-9.88-8.77-15.74a14.7,14.7,0,0,1,8.1-12c5.44-2.72,13.14-1.87,18.73,2.06s9,10.91,8.25,16.95a14.68,14.68,0,0,1-8.53,11.65C298,165.58,291.65,164.53,285.56,160.24Z" opacity="0.3"/>
        <path id="Path_5105" data-name="Path 5105" d="M285.56,160.24c-6.09-4.28-9.32-9.72-9.08-15.3A12.89,12.89,0,0,1,284,133.78c5.23-2.42,12.78-1.36,18.37,2.58s9.13,10.69,8.61,16.43a12.87,12.87,0,0,1-8,10.84C297.85,165.74,291.65,164.53,285.56,160.24Z" fill="#16697a"/>
        <path id="Path_5106" data-name="Path 5106" d="M285.56,160.24c-6.09-4.28-9.32-9.72-9.08-15.3A12.89,12.89,0,0,1,284,133.78c5.23-2.42,12.78-1.36,18.37,2.58s9.13,10.69,8.61,16.43a12.87,12.87,0,0,1-8,10.84C297.85,165.74,291.65,164.53,285.56,160.24Z" fill="#fff" opacity="0.2"/>
        <path id="Path_5107" data-name="Path 5107" d="M306.61,140.31l-28.15,12.42a14.34,14.34,0,0,1-2-7.79,12.452,12.452,0,0,1,.75-3.77l18.17-8a21.13,21.13,0,0,1,11.21,7.16Z" fill="#fff" opacity="0.3"/>
        <path id="Path_5108" data-name="Path 5108" d="M310.65,148.32,284.82,159.7a24.94,24.94,0,0,1-4.22-3.92l28.1-12.4a19,19,0,0,1,1.95,4.94Z" fill="#fff" opacity="0.3"/>
        <path id="Path_5109" data-name="Path 5109" d="M338.81,126.05c-.86-6.9-6.16-14.88-14.54-20.78s-17.67-8.2-24.46-6.69c11.55-4.71,21.9-4.89,29.06.15S339.35,113.59,338.81,126.05Z" opacity="0.1"/>
        <ellipse id="Ellipse_135" data-name="Ellipse 135" cx="9.91" cy="13.95" rx="9.91" ry="13.95" transform="matrix(0.576, -0.818, 0.818, 0.576, 210.192, 243.019)" fill="#16697a" opacity="0.5"/>
        <path id="Path_5110" data-name="Path 5110" d="M209,246.78c-3.15,4.47-10.81,4.51-17.11.07s-8.86-11.66-5.71-16.13,10.82-4.51,17.12-.07S212.11,242.31,209,246.78Z" fill="#16697a" opacity="0.5"/>
        <path id="Path_5111" data-name="Path 5111" d="M252.71,277.59c-3.15,4.48-10.81,4.51-17.11.07s-8.85-11.66-5.7-16.13,10.81-4.51,17.11-.07S255.86,273.12,252.71,277.59Z" fill="#16697a" opacity="0.5"/>
        <path id="Path_5112" data-name="Path 5112" d="M223,273.38c-3.15,4.47-10.81,4.5-17.11.07s-8.85-11.66-5.7-16.14,10.81-4.5,17.11-.07S226.11,268.9,223,273.38Z" fill="#16697a" opacity="0.5"/>
        <path id="Path_5113" data-name="Path 5113" d="M238.72,251a7.1,7.1,0,0,1-1.16,1.28c1.75-4.46-.89-10.65-6.52-14.61s-12.34-4.36-15.95-1.22a7.589,7.589,0,0,1,.81-1.51c3.15-4.47,10.82-4.51,17.12-.07S241.86,246.52,238.72,251Z" fill="#16697a" opacity="0.5"/>
        <path id="Path_5114" data-name="Path 5114" d="M209,246.78a7.359,7.359,0,0,1-1.15,1.28c1.75-4.47-.88-10.65-6.52-14.62s-12.34-4.36-15.95-1.21a7.32,7.32,0,0,1,.81-1.51c3.15-4.48,10.81-4.51,17.11-.07S212.11,242.3,209,246.78Z" fill="#16697a" opacity="0.5"/>
        <path id="Path_5115" data-name="Path 5115" d="M252.71,277.6a7.3,7.3,0,0,1-1.15,1.27c1.75-4.47-.89-10.65-6.52-14.61s-12.34-4.37-15.95-1.21a7.151,7.151,0,0,1,.81-1.52c3.15-4.48,10.81-4.51,17.11-.07S255.87,273.12,252.71,277.6Z" fill="#16697a" opacity="0.5"/>
        <path id="Path_5116" data-name="Path 5116" d="M223,273.38a6.609,6.609,0,0,1-1.15,1.27c1.75-4.46-.89-10.65-6.52-14.61s-12.34-4.36-15.95-1.21a6.939,6.939,0,0,1,.81-1.52c3.15-4.48,10.81-4.5,17.11-.07S226.11,268.9,223,273.38Z" fill="#16697a" opacity="0.5"/>
        <path id="Path_5117" data-name="Path 5117" d="M232.58,168.23s-13.5,17.52-25.26,32.6a15.48,15.48,0,0,1-14.21,5.71c-10.27-1.27-27,6-27,6S197.76,160.55,232.58,168.23Z" fill="#16697a"/>
        <path id="Path_5118" data-name="Path 5118" d="M232.58,168.23s-13.5,17.52-25.26,32.6a15.48,15.48,0,0,1-14.21,5.71c-10.27-1.27-27,6-27,6S197.76,160.55,232.58,168.23Z" opacity="0.3"/>
        <path id="Path_5119" data-name="Path 5119" d="M295.89,212.82S284,231.43,273.71,247.58a15.47,15.47,0,0,0-.58,15.3c4.66,9.25,3.44,27.49,3.44,27.49S314.86,243,295.89,212.82Z" fill="#16697a"/>
        <path id="Path_5120" data-name="Path 5120" d="M295.89,212.82S284,231.43,273.71,247.58a15.47,15.47,0,0,0-.58,15.3c4.66,9.25,3.44,27.49,3.44,27.49S314.86,243,295.89,212.82Z" opacity="0.3"/>
        <path id="Path_5121" data-name="Path 5121" d="M339.51,346.61C352,316.05,298,307.39,276.63,315.06s-43.16,13.37-44-7.08,15.62-33.13,7.77-37.85c-4.35-2.62-5.59,2-7.74,8.74-6.58,20.65-43.85,25.57-26.7,55.46s8,23.4-20.85,35.39-14,46.52,13.91,46.52H367.1C444.14,416.24,371.2,268.78,339.51,346.61Z" fill="#16697a"/>
        <path id="Path_5122" data-name="Path 5122" d="M339.51,346.61C352,316.05,298,307.39,276.63,315.06s-43.16,13.37-44-7.08,15.62-33.13,7.77-37.85c-4.35-2.62-5.59,2-7.74,8.74-6.58,20.65-43.85,25.57-26.7,55.46s8,23.4-20.85,35.39-14,46.52,13.91,46.52H367.1C444.14,416.24,371.2,268.78,339.51,346.61Z" fill="#fff" opacity="0.6"/>
        <path id="Path_5123" data-name="Path 5123" d="M197.55,240.09c-2.24-7.78-14.36,2-26.3,13.85s-17.83,38.9-29.38,53S97.25,333.78,110.18,355c19.07,31.27-24.76,61.27,27.15,61.27H243.8c19.47,0,40.58-23.81,10.26-40s-75.74,21.56-88-14.45c-6.08-17.87,16-9.67,5.77-38.93s-9.55-37.23-4.34-50.27C180.17,240.84,201,251.91,197.55,240.09Z" fill="#16697a"/>
        <path id="Path_5124" data-name="Path 5124" d="M197.55,240.09c-2.24-7.78-14.36,2-26.3,13.85s-17.83,38.9-29.38,53S97.25,333.78,110.18,355c19.07,31.27-24.76,61.27,27.15,61.27H243.8c19.47,0,40.58-23.81,10.26-40s-75.74,21.56-88-14.45c-6.08-17.87,16-9.67,5.77-38.93s-9.55-37.23-4.34-50.27C180.17,240.84,201,251.91,197.55,240.09Z" fill="#fff" opacity="0.6"/>
        <path id="Path_5125" data-name="Path 5125" d="M219.62,243.68c2.64-4.82,11.7-1.93,11.5,4.38s-23.66,14.58-19.3,36.37,46.24,23.35,56.07,45.18S239.64,354.5,251,368.15s46.42-17.7,71.4-9.64,49.94,57.73,4.12,57.73H185.33c-30.7,0-53.12-63.39-23.62-89.47s5.7-17.61,16.71-34.32S209.49,262.16,219.62,243.68Z" fill="#16697a"/>
        <path id="Path_5126" data-name="Path 5126" d="M219.62,243.68c2.64-4.82,11.7-1.93,11.5,4.38s-23.66,14.58-19.3,36.37,46.24,23.35,56.07,45.18S239.64,354.5,251,368.15s46.42-17.7,71.4-9.64,49.94,57.73,4.12,57.73H185.33c-30.7,0-53.12-63.39-23.62-89.47s5.7-17.61,16.71-34.32S209.49,262.16,219.62,243.68Z" fill="#fff" opacity="0.8"/>
      </g>
    </g>
  </g>
</svg>
