<svg xmlns="http://www.w3.org/2000/svg" width="25.12" height="23.802" viewBox="0 0 25.12 23.802">
  <path id="Shape" d="M22.4,10q.18.017.36.05l-1.886,3.266a1.333,1.333,0,1,0,2.309,1.333l1.886-3.266a4,4,0,0,1-3.4,6.584l-3.463,6A1.666,1.666,0,1,1,15.322,22.3l3.457-5.988A4,4,0,0,1,22.4,10ZM18.568,2a3.984,3.984,0,0,1,2.628.984l.171.158h.058V3.2A3.986,3.986,0,0,1,22.559,5.75l.008.25V8.866a5.155,5.155,0,0,0-2.01.189l-.275.091V7.713h-16V18.568a1.714,1.714,0,0,0,1.549,1.706L6,20.282h9.168l-.834,1.444a2.821,2.821,0,0,0-.267.626l-.053.215H6a4,4,0,0,1-3.993-3.78L2,18.568V6a3.984,3.984,0,0,1,.984-2.628L3.143,3.2V3.143H3.2A3.986,3.986,0,0,1,5.75,2.008L6,2ZM13.6,10.2a.571.571,0,0,1,.729-.066l.079.066,2.615,2.618a5.132,5.132,0,0,0-.043,2.111l.064.294-2.636,2.64a.571.571,0,0,1-.875-.728l.066-.079,3.02-3.024L13.6,11.009A.571.571,0,0,1,13.6,10.2Zm-2.621,0a.571.571,0,0,1,0,.808L7.95,14.034l3.027,3.024a.571.571,0,0,1-.807.808L6.738,14.438a.571.571,0,0,1,0-.808L10.17,10.2A.571.571,0,0,1,10.978,10.2Z" transform="translate(-1.5 -1.5)" fill="#5a5a5a" stroke="#5a5a5a" stroke-width="1"/>
</svg>
