<svg id="Group_445" data-name="Group 445" xmlns="http://www.w3.org/2000/svg" width="17.185" height="17.185" viewBox="0 0 17.185 17.185">
  <circle id="Ellipse_28" data-name="Ellipse 28" cx="8.593" cy="8.593" r="8.593" transform="translate(0 0)" fill="#2daae1"/>
  <g id="Group_442" data-name="Group 442" transform="translate(4.655 3.223)">
    <path id="Path_630" data-name="Path 630" d="M549.7,623.523c0,.5.012,1.013.015,1.52q0,.819,0,1.638a3.916,3.916,0,0,0,3.344,3.924c.539,0,2.648.049,3.028.049s1.474-.1,1.474-1.195a1.349,1.349,0,0,0-1.3-1.487h-2.094c-1.49,0-1.728-.653-1.728-1.258,0-.287.019-.761.036-1.341h3.5c.524,0,1.522-.213,1.522-1.161s-.46-1.569-1.078-1.569h-3.9c0-1.367-.094-2.73-1.443-2.73a1.151,1.151,0,0,0-1.2.79,7.489,7.489,0,0,0-.182,2.378C549.7,623.229,549.7,623.376,549.7,623.523Z" transform="translate(-549.692 -619.914)" fill="#fff"/>
  </g>
  <circle id="Ellipse_29" data-name="Ellipse 29" cx="8.593" cy="8.593" r="8.593" transform="translate(0 0)" fill="#2daae1"/>
  <g id="Group_443" data-name="Group 443" transform="translate(4.655 3.223)">
    <path id="Path_631" data-name="Path 631" d="M549.7,623.523c0,.5.012,1.013.015,1.52q0,.819,0,1.638a3.916,3.916,0,0,0,3.344,3.924c.539,0,2.648.049,3.028.049s1.474-.1,1.474-1.195a1.349,1.349,0,0,0-1.3-1.487h-2.094c-1.49,0-1.728-.653-1.728-1.258,0-.287.019-.761.036-1.341h3.5c.524,0,1.522-.213,1.522-1.161s-.46-1.569-1.078-1.569h-3.9c0-1.367-.094-2.73-1.443-2.73a1.151,1.151,0,0,0-1.2.79,7.489,7.489,0,0,0-.182,2.378C549.7,623.229,549.7,623.376,549.7,623.523Z" transform="translate(-549.692 -619.914)" fill="#fff"/>
  </g>
  <circle id="Ellipse_30" data-name="Ellipse 30" cx="8.593" cy="8.593" r="8.593" transform="translate(0 0)" fill="#2daae1"/>
  <g id="Group_444" data-name="Group 444" transform="translate(4.655 3.223)">
    <path id="Path_632" data-name="Path 632" d="M549.7,623.523c0,.5.012,1.013.015,1.52q0,.819,0,1.638a3.916,3.916,0,0,0,3.344,3.924c.539,0,2.648.049,3.028.049s1.474-.1,1.474-1.195a1.349,1.349,0,0,0-1.3-1.487h-2.094c-1.49,0-1.728-.653-1.728-1.258,0-.287.019-.761.036-1.341h3.5c.524,0,1.522-.213,1.522-1.161s-.46-1.569-1.078-1.569h-3.9c0-1.367-.094-2.73-1.443-2.73a1.151,1.151,0,0,0-1.2.79,7.489,7.489,0,0,0-.182,2.378C549.7,623.229,549.7,623.376,549.7,623.523Z" transform="translate(-549.692 -619.914)" fill="#fff"/>
  </g>
</svg>
