<svg xmlns="http://www.w3.org/2000/svg" width="23.757" height="15.565" viewBox="0 0 23.757 15.565">
  <g id="united-states-svgrepo-com" transform="translate(0 0)">
    <path id="Path_7527" data-name="Path 7527" d="M21.978,88.276H1.779A1.779,1.779,0,0,0,0,90.055v12.006a1.779,1.779,0,0,0,1.779,1.779h20.2a1.779,1.779,0,0,0,1.779-1.779V90.055A1.779,1.779,0,0,0,21.978,88.276Z" transform="translate(0 -88.276)" fill="#f5f5f5"/>
    <g id="Group_2319" data-name="Group 2319" transform="translate(0 0)">
      <path id="Path_7528" data-name="Path 7528" d="M2.109,89.473H25.67a1.779,1.779,0,0,0-1.681-1.2H3.79A1.78,1.78,0,0,0,2.109,89.473Z" transform="translate(-2.011 -88.276)" fill="#ff4b55"/>
      <rect id="Rectangle_1849" data-name="Rectangle 1849" width="23.757" height="1.197" transform="translate(0 4.789)" fill="#ff4b55"/>
      <rect id="Rectangle_1850" data-name="Rectangle 1850" width="23.757" height="1.197" transform="translate(0 2.394)" fill="#ff4b55"/>
      <path id="Path_7529" data-name="Path 7529" d="M0,243.886a.41.41,0,0,0,.41.41H23.757v-1.2H0Z" transform="translate(0 -235.914)" fill="#ff4b55"/>
      <rect id="Rectangle_1851" data-name="Rectangle 1851" width="23.757" height="1.197" transform="translate(0 11.973)" fill="#ff4b55"/>
      <path id="Path_7530" data-name="Path 7530" d="M25.67,397.92H2.109a1.78,1.78,0,0,0,1.681,1.2h20.2A1.78,1.78,0,0,0,25.67,397.92Z" transform="translate(-2.011 -383.552)" fill="#ff4b55"/>
      <rect id="Rectangle_1852" data-name="Rectangle 1852" width="23.757" height="1.197" transform="translate(0 9.579)" fill="#ff4b55"/>
    </g>
    <path id="Path_7531" data-name="Path 7531" d="M.41,96.656H10.65a.41.41,0,0,0,.41-.41V88.685a.41.41,0,0,0-.41-.41H1.779A1.779,1.779,0,0,0,0,90.054v6.192A.41.41,0,0,0,.41,96.656Z" transform="translate(0 -88.275)" fill="#41479b"/>
    <g id="Group_2320" data-name="Group 2320" transform="translate(0.661 0.914)">
      <path id="Path_7532" data-name="Path 7532" d="M14.742,107.994l.091.272.287,0a.039.039,0,0,1,.023.07l-.231.17.086.273a.039.039,0,0,1-.059.043l-.233-.167-.233.167a.039.039,0,0,1-.059-.043l.086-.273-.231-.17a.039.039,0,0,1,.023-.07l.287,0,.091-.272A.039.039,0,0,1,14.742,107.994Z" transform="translate(-14.253 -107.968)" fill="#f5f5f5"/>
      <path id="Path_7533" data-name="Path 7533" d="M14.742,138.649l.091.272.287,0a.039.039,0,0,1,.023.07l-.231.17.086.273a.039.039,0,0,1-.059.043l-.233-.167-.233.167a.039.039,0,0,1-.059-.043l.086-.273-.231-.17a.039.039,0,0,1,.023-.07l.287,0,.091-.272A.039.039,0,0,1,14.742,138.649Z" transform="translate(-14.253 -137.2)" fill="#f5f5f5"/>
      <path id="Path_7534" data-name="Path 7534" d="M14.742,169.3l.091.272.287,0a.039.039,0,0,1,.023.07l-.231.17.086.273a.039.039,0,0,1-.059.043l-.233-.167-.233.167a.039.039,0,0,1-.059-.043l.086-.273-.231-.17a.039.039,0,0,1,.023-.07l.287,0,.091-.272A.039.039,0,0,1,14.742,169.3Z" transform="translate(-14.253 -166.432)" fill="#f5f5f5"/>
      <path id="Path_7535" data-name="Path 7535" d="M14.742,199.957l.091.272.287,0a.039.039,0,0,1,.023.07l-.231.17.086.273a.039.039,0,0,1-.059.043l-.233-.167-.233.167a.039.039,0,0,1-.059-.043l.086-.273-.231-.17a.039.039,0,0,1,.023-.07l.287,0,.091-.272A.039.039,0,0,1,14.742,199.957Z" transform="translate(-14.253 -195.664)" fill="#f5f5f5"/>
      <path id="Path_7536" data-name="Path 7536" d="M14.742,230.612l.091.272.287,0a.039.039,0,0,1,.023.07l-.231.17L15,231.4a.039.039,0,0,1-.059.043l-.233-.167-.233.167a.039.039,0,0,1-.059-.043l.086-.273-.231-.17a.039.039,0,0,1,.023-.07l.287,0,.091-.272A.039.039,0,0,1,14.742,230.612Z" transform="translate(-14.253 -224.896)" fill="#f5f5f5"/>
      <path id="Path_7537" data-name="Path 7537" d="M38.535,123.024l.091.272.287,0a.039.039,0,0,1,.023.07l-.231.17.086.273a.039.039,0,0,1-.059.043l-.233-.167-.233.167a.039.039,0,0,1-.059-.043l.086-.273-.231-.17a.039.039,0,0,1,.023-.07l.287,0,.091-.272A.039.039,0,0,1,38.535,123.024Z" transform="translate(-36.942 -122.3)" fill="#f5f5f5"/>
      <path id="Path_7538" data-name="Path 7538" d="M38.535,153.678l.091.272.287,0a.039.039,0,0,1,.023.07l-.231.17.086.273a.039.039,0,0,1-.059.043l-.233-.167-.233.167a.039.039,0,0,1-.059-.043l.086-.273-.231-.17a.039.039,0,0,1,.023-.07l.287,0,.091-.272A.039.039,0,0,1,38.535,153.678Z" transform="translate(-36.942 -151.532)" fill="#f5f5f5"/>
      <path id="Path_7539" data-name="Path 7539" d="M38.535,184.332l.091.272.287,0a.039.039,0,0,1,.023.07l-.231.17.086.273a.039.039,0,0,1-.059.043L38.5,185l-.233.167a.039.039,0,0,1-.059-.043l.086-.273-.231-.17a.039.039,0,0,1,.023-.07l.287,0,.091-.272A.039.039,0,0,1,38.535,184.332Z" transform="translate(-36.942 -180.764)" fill="#f5f5f5"/>
      <path id="Path_7540" data-name="Path 7540" d="M38.535,214.987l.091.272.287,0a.039.039,0,0,1,.023.07l-.231.17.086.273a.039.039,0,0,1-.059.043l-.233-.167-.233.167a.039.039,0,0,1-.059-.043l.086-.273-.231-.17a.039.039,0,0,1,.023-.07l.287,0,.091-.272A.039.039,0,0,1,38.535,214.987Z" transform="translate(-36.942 -209.996)" fill="#f5f5f5"/>
      <path id="Path_7541" data-name="Path 7541" d="M62.328,107.994l.091.272.287,0a.039.039,0,0,1,.023.07l-.231.17.086.273a.039.039,0,0,1-.059.043l-.233-.167-.233.167a.039.039,0,0,1-.059-.043l.086-.273-.231-.17a.039.039,0,0,1,.023-.07l.287,0,.091-.272A.039.039,0,0,1,62.328,107.994Z" transform="translate(-59.631 -107.968)" fill="#f5f5f5"/>
      <path id="Path_7542" data-name="Path 7542" d="M62.328,138.649l.091.272.287,0a.039.039,0,0,1,.023.07l-.231.17.086.273a.039.039,0,0,1-.059.043l-.233-.167-.233.167a.039.039,0,0,1-.059-.043l.086-.273-.231-.17a.039.039,0,0,1,.023-.07l.287,0,.091-.272A.039.039,0,0,1,62.328,138.649Z" transform="translate(-59.631 -137.2)" fill="#f5f5f5"/>
      <path id="Path_7543" data-name="Path 7543" d="M62.328,169.3l.091.272.287,0a.039.039,0,0,1,.023.07l-.231.17.086.273a.039.039,0,0,1-.059.043l-.233-.167-.233.167A.039.039,0,0,1,62,170.09l.086-.273-.231-.17a.039.039,0,0,1,.023-.07l.287,0,.091-.272A.039.039,0,0,1,62.328,169.3Z" transform="translate(-59.631 -166.432)" fill="#f5f5f5"/>
      <path id="Path_7544" data-name="Path 7544" d="M62.328,199.957l.091.272.287,0a.039.039,0,0,1,.023.07l-.231.17.086.273a.039.039,0,0,1-.059.043l-.233-.167-.233.167a.039.039,0,0,1-.059-.043l.086-.273-.231-.17a.039.039,0,0,1,.023-.07l.287,0,.091-.272A.039.039,0,0,1,62.328,199.957Z" transform="translate(-59.631 -195.664)" fill="#f5f5f5"/>
      <path id="Path_7545" data-name="Path 7545" d="M62.328,230.612l.091.272.287,0a.039.039,0,0,1,.023.07l-.231.17.086.273a.039.039,0,0,1-.059.043l-.233-.167-.233.167A.039.039,0,0,1,62,231.4l.086-.273-.231-.17a.039.039,0,0,1,.023-.07l.287,0,.091-.272A.039.039,0,0,1,62.328,230.612Z" transform="translate(-59.631 -224.896)" fill="#f5f5f5"/>
      <path id="Path_7546" data-name="Path 7546" d="M86.122,123.024l.091.272.287,0a.039.039,0,0,1,.023.07l-.231.17.086.273a.039.039,0,0,1-.059.043l-.233-.167-.233.167a.039.039,0,0,1-.059-.043l.086-.273-.231-.17a.039.039,0,0,1,.023-.07l.287,0,.091-.272A.039.039,0,0,1,86.122,123.024Z" transform="translate(-82.321 -122.3)" fill="#f5f5f5"/>
      <path id="Path_7547" data-name="Path 7547" d="M86.122,153.678l.091.272.287,0a.039.039,0,0,1,.023.07l-.231.17.086.273a.039.039,0,0,1-.059.043l-.233-.167-.233.167a.039.039,0,0,1-.059-.043l.086-.273-.231-.17a.039.039,0,0,1,.023-.07l.287,0,.091-.272A.039.039,0,0,1,86.122,153.678Z" transform="translate(-82.321 -151.532)" fill="#f5f5f5"/>
      <path id="Path_7548" data-name="Path 7548" d="M86.122,184.332l.091.272.287,0a.039.039,0,0,1,.023.07l-.231.17.086.273a.039.039,0,0,1-.059.043L86.085,185l-.233.167a.039.039,0,0,1-.059-.043l.086-.273-.231-.17a.039.039,0,0,1,.023-.07l.287,0,.091-.272A.039.039,0,0,1,86.122,184.332Z" transform="translate(-82.321 -180.764)" fill="#f5f5f5"/>
      <path id="Path_7549" data-name="Path 7549" d="M86.122,214.987l.091.272.287,0a.039.039,0,0,1,.023.07l-.231.17.086.273a.039.039,0,0,1-.059.043l-.233-.167-.233.167a.039.039,0,0,1-.059-.043l.086-.273-.231-.17a.039.039,0,0,1,.023-.07l.287,0,.091-.272A.039.039,0,0,1,86.122,214.987Z" transform="translate(-82.321 -209.996)" fill="#f5f5f5"/>
      <path id="Path_7550" data-name="Path 7550" d="M109.914,107.994l.091.272.287,0a.039.039,0,0,1,.023.07l-.231.17.086.273a.039.039,0,0,1-.059.043l-.233-.167-.233.167a.039.039,0,0,1-.059-.043l.086-.273-.231-.17a.039.039,0,0,1,.023-.07l.287,0,.091-.272A.039.039,0,0,1,109.914,107.994Z" transform="translate(-105.009 -107.968)" fill="#f5f5f5"/>
      <path id="Path_7551" data-name="Path 7551" d="M109.914,138.649l.091.272.287,0a.039.039,0,0,1,.023.07l-.231.17.086.273a.039.039,0,0,1-.059.043l-.233-.167-.233.167a.039.039,0,0,1-.059-.043l.086-.273-.231-.17a.039.039,0,0,1,.023-.07l.287,0,.091-.272A.039.039,0,0,1,109.914,138.649Z" transform="translate(-105.009 -137.2)" fill="#f5f5f5"/>
      <path id="Path_7552" data-name="Path 7552" d="M109.914,169.3l.091.272.287,0a.039.039,0,0,1,.023.07l-.231.17.086.273a.039.039,0,0,1-.059.043l-.233-.167-.233.167a.039.039,0,0,1-.059-.043l.086-.273-.231-.17a.039.039,0,0,1,.023-.07l.287,0,.091-.272A.039.039,0,0,1,109.914,169.3Z" transform="translate(-105.009 -166.432)" fill="#f5f5f5"/>
      <path id="Path_7553" data-name="Path 7553" d="M109.914,199.957l.091.272.287,0a.039.039,0,0,1,.023.07l-.231.17.086.273a.039.039,0,0,1-.059.043l-.233-.167-.233.167a.039.039,0,0,1-.059-.043l.086-.273-.231-.17a.039.039,0,0,1,.023-.07l.287,0,.091-.272A.039.039,0,0,1,109.914,199.957Z" transform="translate(-105.009 -195.664)" fill="#f5f5f5"/>
      <path id="Path_7554" data-name="Path 7554" d="M109.914,230.612l.091.272.287,0a.039.039,0,0,1,.023.07l-.231.17.086.273a.039.039,0,0,1-.059.043l-.233-.167-.233.167a.039.039,0,0,1-.059-.043l.086-.273-.231-.17a.039.039,0,0,1,.023-.07l.287,0,.091-.272A.039.039,0,0,1,109.914,230.612Z" transform="translate(-105.009 -224.896)" fill="#f5f5f5"/>
      <path id="Path_7555" data-name="Path 7555" d="M133.708,123.024l.091.272.287,0a.039.039,0,0,1,.023.07l-.231.17.087.273a.039.039,0,0,1-.059.043l-.233-.167-.233.167a.039.039,0,0,1-.059-.043l.086-.273-.231-.17a.039.039,0,0,1,.023-.07l.287,0,.091-.272A.039.039,0,0,1,133.708,123.024Z" transform="translate(-127.699 -122.3)" fill="#f5f5f5"/>
      <path id="Path_7556" data-name="Path 7556" d="M133.708,153.678l.091.272.287,0a.039.039,0,0,1,.023.07l-.231.17.087.273a.039.039,0,0,1-.059.043l-.233-.167-.233.167a.039.039,0,0,1-.059-.043l.086-.273-.231-.17a.039.039,0,0,1,.023-.07l.287,0,.091-.272A.039.039,0,0,1,133.708,153.678Z" transform="translate(-127.699 -151.532)" fill="#f5f5f5"/>
      <path id="Path_7557" data-name="Path 7557" d="M133.708,184.332l.091.272.287,0a.039.039,0,0,1,.023.07l-.231.17.087.273a.039.039,0,0,1-.059.043l-.233-.167-.233.167a.039.039,0,0,1-.059-.043l.086-.273-.231-.17a.039.039,0,0,1,.023-.07l.287,0,.091-.272A.039.039,0,0,1,133.708,184.332Z" transform="translate(-127.699 -180.764)" fill="#f5f5f5"/>
      <path id="Path_7558" data-name="Path 7558" d="M133.708,214.987l.091.272.287,0a.039.039,0,0,1,.023.07l-.231.17.087.273a.039.039,0,0,1-.059.043l-.233-.167-.233.167a.039.039,0,0,1-.059-.043l.086-.273-.231-.17a.039.039,0,0,1,.023-.07l.287,0,.091-.272A.039.039,0,0,1,133.708,214.987Z" transform="translate(-127.699 -209.996)" fill="#f5f5f5"/>
      <path id="Path_7559" data-name="Path 7559" d="M157.5,107.994l.091.272.287,0a.039.039,0,0,1,.023.07l-.231.17.086.273a.039.039,0,0,1-.059.043l-.233-.167-.233.167a.039.039,0,0,1-.059-.043l.086-.273-.231-.17a.039.039,0,0,1,.023-.07l.287,0,.091-.272A.039.039,0,0,1,157.5,107.994Z" transform="translate(-150.389 -107.968)" fill="#f5f5f5"/>
      <path id="Path_7560" data-name="Path 7560" d="M157.5,138.649l.091.272.287,0a.039.039,0,0,1,.023.07l-.231.17.086.273a.039.039,0,0,1-.059.043l-.233-.167-.233.167a.039.039,0,0,1-.059-.043l.086-.273-.231-.17a.039.039,0,0,1,.023-.07l.287,0,.091-.272A.039.039,0,0,1,157.5,138.649Z" transform="translate(-150.389 -137.2)" fill="#f5f5f5"/>
      <path id="Path_7561" data-name="Path 7561" d="M157.5,169.3l.091.272.287,0a.039.039,0,0,1,.023.07l-.231.17.086.273a.039.039,0,0,1-.059.043l-.233-.167-.233.167a.039.039,0,0,1-.059-.043l.086-.273-.231-.17a.039.039,0,0,1,.023-.07l.287,0,.091-.272A.039.039,0,0,1,157.5,169.3Z" transform="translate(-150.389 -166.432)" fill="#f5f5f5"/>
      <path id="Path_7562" data-name="Path 7562" d="M157.5,199.957l.091.272.287,0a.039.039,0,0,1,.023.07l-.231.17.086.273a.039.039,0,0,1-.059.043l-.233-.167-.233.167a.039.039,0,0,1-.059-.043l.086-.273-.231-.17a.039.039,0,0,1,.023-.07l.287,0,.091-.272A.039.039,0,0,1,157.5,199.957Z" transform="translate(-150.389 -195.664)" fill="#f5f5f5"/>
      <path id="Path_7563" data-name="Path 7563" d="M157.5,230.612l.091.272.287,0a.039.039,0,0,1,.023.07l-.231.17.086.273a.039.039,0,0,1-.059.043l-.233-.167-.233.167a.039.039,0,0,1-.059-.043l.086-.273-.231-.17a.039.039,0,0,1,.023-.07l.287,0,.091-.272A.039.039,0,0,1,157.5,230.612Z" transform="translate(-150.389 -224.896)" fill="#f5f5f5"/>
      <path id="Path_7564" data-name="Path 7564" d="M181.295,123.024l.091.272.287,0a.039.039,0,0,1,.023.07l-.231.17.086.273a.039.039,0,0,1-.059.043l-.233-.167-.233.167a.039.039,0,0,1-.059-.043l.086-.273-.231-.17a.039.039,0,0,1,.023-.07l.287,0,.091-.272A.039.039,0,0,1,181.295,123.024Z" transform="translate(-173.078 -122.3)" fill="#f5f5f5"/>
      <path id="Path_7565" data-name="Path 7565" d="M181.295,153.678l.091.272.287,0a.039.039,0,0,1,.023.07l-.231.17.086.273a.039.039,0,0,1-.059.043l-.233-.167-.233.167a.039.039,0,0,1-.059-.043l.086-.273-.231-.17a.039.039,0,0,1,.023-.07l.287,0,.091-.272A.039.039,0,0,1,181.295,153.678Z" transform="translate(-173.078 -151.532)" fill="#f5f5f5"/>
      <path id="Path_7566" data-name="Path 7566" d="M181.295,184.332l.091.272.287,0a.039.039,0,0,1,.023.07l-.231.17.086.273a.039.039,0,0,1-.059.043l-.233-.167-.233.167a.039.039,0,0,1-.059-.043l.086-.273-.231-.17a.039.039,0,0,1,.023-.07l.287,0,.091-.272A.039.039,0,0,1,181.295,184.332Z" transform="translate(-173.078 -180.764)" fill="#f5f5f5"/>
      <path id="Path_7567" data-name="Path 7567" d="M181.295,214.987l.091.272.287,0a.039.039,0,0,1,.023.07l-.231.17.086.273a.039.039,0,0,1-.059.043l-.233-.167-.233.167a.039.039,0,0,1-.059-.043l.086-.273-.231-.17a.039.039,0,0,1,.023-.07l.287,0,.091-.272A.039.039,0,0,1,181.295,214.987Z" transform="translate(-173.078 -209.996)" fill="#f5f5f5"/>
      <path id="Path_7568" data-name="Path 7568" d="M205.089,107.994l.091.272.287,0a.039.039,0,0,1,.023.07l-.231.17.087.273a.039.039,0,0,1-.059.043l-.233-.167-.233.167a.039.039,0,0,1-.059-.043l.087-.273-.231-.17a.039.039,0,0,1,.023-.07l.287,0,.091-.272A.039.039,0,0,1,205.089,107.994Z" transform="translate(-195.768 -107.968)" fill="#f5f5f5"/>
      <path id="Path_7569" data-name="Path 7569" d="M205.089,138.649l.091.272.287,0a.039.039,0,0,1,.023.07l-.231.17.087.273a.039.039,0,0,1-.059.043l-.233-.167-.233.167a.039.039,0,0,1-.059-.043l.087-.273-.231-.17a.039.039,0,0,1,.023-.07l.287,0,.091-.272A.039.039,0,0,1,205.089,138.649Z" transform="translate(-195.768 -137.2)" fill="#f5f5f5"/>
      <path id="Path_7570" data-name="Path 7570" d="M205.089,169.3l.091.272.287,0a.039.039,0,0,1,.023.07l-.231.17.087.273a.039.039,0,0,1-.059.043l-.233-.167-.233.167a.039.039,0,0,1-.059-.043l.087-.273-.231-.17a.039.039,0,0,1,.023-.07l.287,0,.091-.272A.039.039,0,0,1,205.089,169.3Z" transform="translate(-195.768 -166.432)" fill="#f5f5f5"/>
      <path id="Path_7571" data-name="Path 7571" d="M205.089,199.957l.091.272.287,0a.039.039,0,0,1,.023.07l-.231.17.087.273a.039.039,0,0,1-.059.043l-.233-.167-.233.167a.039.039,0,0,1-.059-.043l.087-.273-.231-.17a.039.039,0,0,1,.023-.07l.287,0,.091-.272A.039.039,0,0,1,205.089,199.957Z" transform="translate(-195.768 -195.664)" fill="#f5f5f5"/>
      <path id="Path_7572" data-name="Path 7572" d="M205.089,230.612l.091.272.287,0a.039.039,0,0,1,.023.07l-.231.17.087.273a.039.039,0,0,1-.059.043l-.233-.167-.233.167a.039.039,0,0,1-.059-.043l.087-.273-.231-.17a.039.039,0,0,1,.023-.07l.287,0,.091-.272A.039.039,0,0,1,205.089,230.612Z" transform="translate(-195.768 -224.896)" fill="#f5f5f5"/>
    </g>
  </g>
</svg>
