<svg xmlns="http://www.w3.org/2000/svg" width="15.6" height="16.379" viewBox="0 0 15.6 16.379">
  <path id="university-svgrepo-com_3_" data-name="university-svgrepo-com (3)" d="M16.82,8.24a.78.78,0,0,0,.78-.78V5.12a.779.779,0,0,0-.533-.74l-7.02-2.34a.782.782,0,0,0-.494,0L2.533,4.38A.779.779,0,0,0,2,5.12V7.46a.78.78,0,0,0,.78.78h.78v5.6A2.336,2.336,0,0,0,2,16.04V17.6a.78.78,0,0,0,.78.78H16.82a.78.78,0,0,0,.78-.78V16.04a2.336,2.336,0,0,0-1.56-2.2V8.24Zm-.78,8.58H3.56v-.78a.781.781,0,0,1,.78-.78H15.26a.781.781,0,0,1,.78.78ZM5.12,13.7V8.24H6.68V13.7Zm3.12,0V8.24h3.12V13.7Zm4.68,0V8.24h1.56V13.7ZM3.56,6.68v-1L9.8,3.6l6.24,2.08v1Z" transform="translate(-2 -2)" fill="#16697a"/>
</svg>
