<svg xmlns="http://www.w3.org/2000/svg" width="269.047" height="200.472" viewBox="0 0 269.047 200.472">
  <g id="Education-rafiki_2_" data-name="Education-rafiki (2)" transform="translate(0 -55)">
    <g id="freepik--background-complete--inject-32" transform="translate(0 55)">
      <rect id="Rectangle_963" data-name="Rectangle 963" width="269.047" height="0.135" transform="translate(0 176.172)" fill="#ebebeb"/>
      <rect id="Rectangle_964" data-name="Rectangle 964" width="17.822" height="0.135" transform="translate(224.267 184.83)" fill="#ebebeb"/>
      <rect id="Rectangle_965" data-name="Rectangle 965" width="4.676" height="0.135" transform="translate(173.552 186.294)" fill="#ebebeb"/>
      <rect id="Rectangle_966" data-name="Rectangle 966" width="10.326" height="0.135" transform="translate(213.403 179.837)" fill="#ebebeb"/>
      <rect id="Rectangle_967" data-name="Rectangle 967" width="23.24" height="0.135" transform="translate(28.228 180.741)" fill="#ebebeb"/>
      <rect id="Rectangle_968" data-name="Rectangle 968" width="3.406" height="0.135" transform="translate(56.263 180.741)" fill="#ebebeb"/>
      <rect id="Rectangle_969" data-name="Rectangle 969" width="50.409" height="0.135" transform="translate(70.743 183.011)" fill="#ebebeb"/>
      <path id="Path_6652" data-name="Path 6652" d="M145.178,207.173H41.277A3.073,3.073,0,0,1,38.21,204.1V58.046A3.073,3.073,0,0,1,41.277,55h103.9a3.073,3.073,0,0,1,3.073,3.073V204.1A3.073,3.073,0,0,1,145.178,207.173ZM41.277,55.108a2.938,2.938,0,0,0-2.933,2.938V204.1a2.938,2.938,0,0,0,2.933,2.938h103.9a2.943,2.943,0,0,0,2.938-2.938V58.046a2.943,2.943,0,0,0-2.938-2.938Z" transform="translate(-17.649 -55)" fill="#ebebeb"/>
      <path id="Path_6653" data-name="Path 6653" d="M361.479,207.173H257.573A3.078,3.078,0,0,1,254.5,204.1V58.046A3.078,3.078,0,0,1,257.573,55H361.479a3.073,3.073,0,0,1,3.062,3.046V204.1A3.073,3.073,0,0,1,361.479,207.173ZM257.573,55.108a2.943,2.943,0,0,0-2.938,2.938V204.1a2.943,2.943,0,0,0,2.938,2.938H361.479a2.943,2.943,0,0,0,2.938-2.938V58.046a2.943,2.943,0,0,0-2.938-2.938Z" transform="translate(-117.555 -55)" fill="#ebebeb"/>
      <rect id="Rectangle_970" data-name="Rectangle 970" width="190.889" height="136.617" transform="translate(39.076 39.555)" fill="#e0e0e0"/>
      <path id="Path_6654" data-name="Path 6654" d="M250,254.435V115.213s24.327-8.523,89.367-8.523V254.435Z" transform="translate(-115.476 -78.876)" fill="#f5f5f5"/>
      <path id="Path_6655" data-name="Path 6655" d="M173.287,254.435V115.213S148.96,106.69,83.92,106.69V254.435Z" transform="translate(-38.763 -78.876)" fill="#f0f0f0"/>
      <path id="Path_6656" data-name="Path 6656" d="M261.855,142.2a1.281,1.281,0,0,1-1.232-1.146,1.334,1.334,0,0,1,1.044-1.539A508.181,508.181,0,0,1,335.24,134a1.351,1.351,0,0,1,0,2.69,504.559,504.559,0,0,0-73.181,5.5,1.113,1.113,0,0,1-.2.011Z" transform="translate(-120.373 -91.491)" fill="#f0f0f0"/>
      <path id="Path_6657" data-name="Path 6657" d="M261.855,161.2a1.286,1.286,0,0,1-1.238-1.178,1.329,1.329,0,0,1,1.076-1.507c.371-.054,37.419-5.026,73.541-5.026a1.356,1.356,0,0,1,0,2.69c-35.961,0-72.858,4.95-73.229,5A.763.763,0,0,1,261.855,161.2Z" transform="translate(-120.373 -100.493)" fill="#f0f0f0"/>
      <path id="Path_6658" data-name="Path 6658" d="M261.854,180.22a1.286,1.286,0,0,1-1.243-1.211,1.329,1.329,0,0,1,1.114-1.48c.409-.048,41.014-4.52,73.514-4.52a1.356,1.356,0,0,1,0,2.69c-32.377,0-72.853,4.455-73.256,4.5Z" transform="translate(-120.373 -109.509)" fill="#f0f0f0"/>
      <path id="Path_6659" data-name="Path 6659" d="M261.856,199.24A1.291,1.291,0,0,1,260.613,198a1.324,1.324,0,0,1,1.141-1.458c.441-.038,44.6-4.014,73.488-4.014a1.356,1.356,0,0,1,0,2.69c-28.783,0-72.836,3.96-73.278,4Z" transform="translate(-120.375 -118.526)" fill="#f0f0f0"/>
      <path id="Path_6660" data-name="Path 6660" d="M261.857,218.254A1.291,1.291,0,0,1,260.614,217a1.308,1.308,0,0,1,1.157-1.437c.479-.038,48.2-3.514,73.471-3.514a1.351,1.351,0,0,1,0,2.69c-25.188,0-72.82,3.471-73.3,3.508Z" transform="translate(-120.375 -127.542)" fill="#f0f0f0"/>
      <path id="Path_6661" data-name="Path 6661" d="M261.854,237.274A1.3,1.3,0,0,1,260.606,236a1.318,1.318,0,0,1,1.184-1.421c.511-.032,51.792-3.008,73.45-3.008a1.351,1.351,0,0,1,0,2.69c-21.594,0-72.8,2.976-73.315,3.008Z" transform="translate(-120.373 -136.559)" fill="#f0f0f0"/>
      <path id="Path_6662" data-name="Path 6662" d="M261.887,256.3a1.356,1.356,0,0,1-.054-2.69c.538-.027,55.391-2.508,73.439-2.508a1.351,1.351,0,0,1,0,2.69c-17.994,0-72.783,2.481-73.332,2.508Z" transform="translate(-120.406 -145.58)" fill="#f0f0f0"/>
      <path id="Path_6663" data-name="Path 6663" d="M261.9,275.322a1.356,1.356,0,0,1-.038-2.69c.587,0,58.986-2,73.423-2a1.351,1.351,0,0,1,0,2.69c-14.4,0-72.756,1.986-73.342,2.007Z" transform="translate(-120.414 -154.601)" fill="#f0f0f0"/>
      <path id="Path_6664" data-name="Path 6664" d="M261.862,294.327a1.351,1.351,0,0,1-.027-2.69c.624,0,62.586-1.507,73.412-1.507a1.356,1.356,0,0,1,0,2.69c-10.8,0-72.734,1.491-73.358,1.5Z" transform="translate(-120.381 -163.608)" fill="#f0f0f0"/>
      <path id="Path_6665" data-name="Path 6665" d="M261.874,313.347a1.351,1.351,0,0,1,0-2.69c.662,0,66.186-1.006,73.4-1.006a1.356,1.356,0,0,1,0,2.69c-7.2,0-72.707.99-73.369,1Z" transform="translate(-120.393 -172.624)" fill="#f0f0f0"/>
      <path id="Path_6666" data-name="Path 6666" d="M261.912,332.371a1.356,1.356,0,0,1,0-2.69c.694,0,69.78-.5,73.391-.5a1.356,1.356,0,0,1,0,2.69c-3.6,0-72.68.5-73.375.5Z" transform="translate(-120.431 -181.645)" fill="#f0f0f0"/>
      <path id="Path_6667" data-name="Path 6667" d="M335.3,351.39H261.912a1.356,1.356,0,0,1,0-2.69H335.3a1.356,1.356,0,0,1,0,2.69Z" transform="translate(-120.431 -190.662)" fill="#f0f0f0"/>
      <path id="Path_6668" data-name="Path 6668" d="M173.019,142.2a1.281,1.281,0,0,0,1.232-1.146,1.334,1.334,0,0,0-1.044-1.539A508.175,508.175,0,0,0,99.634,134a1.351,1.351,0,0,0,0,2.69,504.565,504.565,0,0,1,73.181,5.5,1.114,1.114,0,0,0,.2.011Z" transform="translate(-45.453 -91.491)" fill="#ebebeb"/>
      <path id="Path_6669" data-name="Path 6669" d="M173.062,161.2a1.286,1.286,0,0,0,1.238-1.178,1.329,1.329,0,0,0-1.076-1.507c-.371-.054-37.419-5.026-73.541-5.026a1.356,1.356,0,0,0,0,2.69c35.961,0,72.858,4.95,73.229,5A.763.763,0,0,0,173.062,161.2Z" transform="translate(-45.496 -100.493)" fill="#ebebeb"/>
      <path id="Path_6670" data-name="Path 6670" d="M173.058,180.22a1.286,1.286,0,0,0,1.243-1.211,1.329,1.329,0,0,0-1.114-1.48c-.409-.048-41.014-4.52-73.514-4.52a1.356,1.356,0,0,0,0,2.69c32.377,0,72.853,4.455,73.256,4.5Z" transform="translate(-45.492 -109.509)" fill="#ebebeb"/>
      <path id="Path_6671" data-name="Path 6671" d="M173.058,199.24A1.291,1.291,0,0,0,174.3,198a1.324,1.324,0,0,0-1.141-1.458c-.441-.038-44.6-4.014-73.488-4.014a1.356,1.356,0,0,0,0,2.69c28.783,0,72.837,3.96,73.278,4Z" transform="translate(-45.492 -118.526)" fill="#ebebeb"/>
      <path id="Path_6672" data-name="Path 6672" d="M173.019,218.254A1.291,1.291,0,0,0,174.262,217a1.308,1.308,0,0,0-1.157-1.437c-.479-.038-48.2-3.514-73.471-3.514a1.351,1.351,0,0,0,0,2.69c25.188,0,72.82,3.471,73.3,3.508Z" transform="translate(-45.453 -127.542)" fill="#ebebeb"/>
      <path id="Path_6673" data-name="Path 6673" d="M173.019,237.274A1.3,1.3,0,0,0,174.268,236a1.318,1.318,0,0,0-1.184-1.421c-.511-.032-51.792-3.008-73.45-3.008a1.351,1.351,0,0,0,0,2.69c21.594,0,72.8,2.976,73.315,3.008Z" transform="translate(-45.453 -136.559)" fill="#ebebeb"/>
      <path id="Path_6674" data-name="Path 6674" d="M173.019,256.3a1.356,1.356,0,0,0,.054-2.69c-.538-.027-55.391-2.508-73.439-2.508a1.351,1.351,0,0,0,0,2.69c17.994,0,72.783,2.481,73.332,2.508Z" transform="translate(-45.453 -145.58)" fill="#ebebeb"/>
      <path id="Path_6675" data-name="Path 6675" d="M173.019,275.322a1.356,1.356,0,0,0,.038-2.69c-.587,0-58.986-2-73.423-2a1.351,1.351,0,0,0,0,2.69c14.4,0,72.756,1.986,73.342,2.007Z" transform="translate(-45.453 -154.601)" fill="#ebebeb"/>
      <path id="Path_6676" data-name="Path 6676" d="M173.058,294.327a1.351,1.351,0,0,0,.027-2.69c-.624,0-62.586-1.507-73.412-1.507a1.356,1.356,0,0,0,0,2.69c10.8,0,72.734,1.491,73.358,1.5Z" transform="translate(-45.492 -163.608)" fill="#ebebeb"/>
      <path id="Path_6677" data-name="Path 6677" d="M173.044,313.347a1.351,1.351,0,0,0,0-2.69c-.662,0-66.186-1.006-73.4-1.006a1.356,1.356,0,0,0,0,2.69c7.2,0,72.707.99,73.369,1Z" transform="translate(-45.478 -172.624)" fill="#ebebeb"/>
      <path id="Path_6678" data-name="Path 6678" d="M173.053,332.371a1.356,1.356,0,0,0,0-2.69c-.694,0-69.78-.5-73.391-.5a1.356,1.356,0,0,0,0,2.69c3.6,0,72.68.5,73.375.5Z" transform="translate(-45.487 -181.645)" fill="#ebebeb"/>
      <path id="Path_6679" data-name="Path 6679" d="M99.672,351.39h73.385a1.356,1.356,0,0,0,0-2.69H99.672a1.356,1.356,0,0,0,0,2.69Z" transform="translate(-45.492 -190.662)" fill="#ebebeb"/>
      <path id="Path_6680" data-name="Path 6680" d="M257.907,167.8l-4.111-4.316L249.69,167.8V118.61l8.217-1.62Z" transform="translate(-115.333 -83.633)" fill="#e0e0e0"/>
      <path id="Path_6681" data-name="Path 6681" d="M286.68,239.349c-.285,0-.4-.328-.576-1.006a.274.274,0,0,1,.2-.328.258.258,0,0,1,.323.194h0c.048-.355.091-.818.14-1.291a63.827,63.827,0,0,1,1.13-7.63c.592-2.69,1.458-4.235,2.567-4.542a1.91,1.91,0,0,1,1.76.538.274.274,0,0,1,0,.382.269.269,0,0,1-.382,0,1.356,1.356,0,0,0-1.227-.409c-.613.172-1.5,1.028-2.179,4.138a63.074,63.074,0,0,0-1.114,7.56c-.2,1.975-.237,2.33-.6,2.357Z" transform="translate(-132.149 -133.388)" fill="#e0e0e0"/>
      <path id="Path_6682" data-name="Path 6682" d="M285.491,236.056a.274.274,0,1,1-.1-.538l4.466-1.835a.27.27,0,0,1,.2.5l-4.466,1.83a.232.232,0,0,1-.1.043Z" transform="translate(-131.72 -137.525)" fill="#e0e0e0"/>
      <path id="Path_6683" data-name="Path 6683" d="M301.33,238.03a.242.242,0,0,1-.135-.038c-4.2-2.443-1.491-8.163-1.464-8.222a.27.27,0,1,1,.484.237c-.1.215-2.513,5.327,1.248,7.533a.269.269,0,0,1-.135.5Z" transform="translate(-138.04 -135.657)" fill="#e0e0e0"/>
      <path id="Path_6684" data-name="Path 6684" d="M309.357,235.023a.269.269,0,0,1-.237-.393c2.6-5-1.367-7.3-1.539-7.393a.264.264,0,0,1-.1-.366.258.258,0,0,1,.361-.1c.048,0,4.606,2.637,1.76,8.109a.274.274,0,0,1-.242.145Z" transform="translate(-142.009 -134.324)" fill="#e0e0e0"/>
      <path id="Path_6685" data-name="Path 6685" d="M305.3,235.947a.291.291,0,0,1-.161-.054l-3.159-2.308a.274.274,0,0,1-.059-.377.269.269,0,0,1,.377-.054l3.159,2.3a.269.269,0,0,1,.059.377A.28.28,0,0,1,305.3,235.947Z" transform="translate(-139.434 -137.265)" fill="#e0e0e0"/>
      <path id="Path_6686" data-name="Path 6686" d="M302.148,235.682a.28.28,0,0,1-.145-.038.274.274,0,0,1-.086-.371l2.475-3.933a.264.264,0,0,1,.371-.086.269.269,0,0,1,.081.371l-2.47,3.933A.264.264,0,0,1,302.148,235.682Z" transform="translate(-139.439 -136.392)" fill="#e0e0e0"/>
      <path id="Path_6687" data-name="Path 6687" d="M97.905,318.348h0a.269.269,0,0,1-.269-.269,5.978,5.978,0,0,1,1.722-4.434c2.26-2.228,5.919-2.2,6.059-2.2a.269.269,0,0,1,.264.269.253.253,0,0,1-.274.269s-3.573,0-5.672,2.045a5.451,5.451,0,0,0-1.56,4.046.269.269,0,0,1-.269.269Z" transform="translate(-45.097 -173.456)" fill="#e0e0e0"/>
      <path id="Path_6688" data-name="Path 6688" d="M106.4,321.621a.264.264,0,0,1-.172-.065.678.678,0,0,1-.237-.538,2.739,2.739,0,0,1,.63-1.415c-1.114.538-2.438.834-3.164.414-.323-.188-.667-.592-.463-1.474a2.023,2.023,0,0,1,2.152-1.679c1.108.038,2.222.683,2.33,1.361a.269.269,0,0,1-.221.307.264.264,0,0,1-.307-.221c-.059-.339-.893-.877-1.819-.909a1.491,1.491,0,0,0-1.614,1.259c-.156.683.118.839.21.893.813.468,3.229-.506,4.09-1.318a.269.269,0,1,1,.366.387c-.646.635-1.668,1.835-1.652,2.378a.14.14,0,0,0,.048.124.274.274,0,0,1,.027.382A.28.28,0,0,1,106.4,321.621Z" transform="translate(-47.547 -175.954)" fill="#e0e0e0"/>
      <path id="Path_6689" data-name="Path 6689" d="M108.35,327.384a1.459,1.459,0,0,1-.721-.188.27.27,0,1,1,.258-.474c.856.468,1.679-.538,1.711-.581a.27.27,0,0,1,.425.334,2.362,2.362,0,0,1-1.673.909Z" transform="translate(-49.65 -180.194)" fill="#e0e0e0"/>
      <path id="Path_6690" data-name="Path 6690" d="M116.635,325.068a2.642,2.642,0,0,1-1.851-.856.274.274,0,0,1,0-.382.269.269,0,0,1,.382,0,1.851,1.851,0,0,0,2.039.592,1.512,1.512,0,0,0,1.022-1.211.985.985,0,0,0-.592-.947c-1.216-.667-3.406,1.152-4.143,1.91a.269.269,0,0,1-.463-.188.291.291,0,0,1,.075-.188l5.623-5.736a.264.264,0,0,1,.377,0,.269.269,0,0,1,0,.382l-3.4,3.471a2.454,2.454,0,0,1,2.19-.118,1.517,1.517,0,0,1,.872,1.453,2.072,2.072,0,0,1-1.378,1.679A2.152,2.152,0,0,1,116.635,325.068Z" transform="translate(-52.209 -176.473)" fill="#e0e0e0"/>
      <path id="Path_6691" data-name="Path 6691" d="M117.5,328.461a.269.269,0,0,1-.269-.258.274.274,0,0,1,.258-.28c2.314-.07,3.993-.759,4.994-2.039a6.337,6.337,0,0,0,.958-4.708.275.275,0,1,1,.538-.113,6.834,6.834,0,0,1-1.076,5.15c-1.076,1.415-2.922,2.152-5.381,2.249Z" transform="translate(-54.149 -177.795)" fill="#e0e0e0"/>
      <path id="Path_6692" data-name="Path 6692" d="M344.316,146.585h-.065a.264.264,0,0,1-.2-.258l-.038-5.919L341.523,140a.272.272,0,1,1,.086-.538l2.69.447a.274.274,0,0,1,.226.264l.032,5.128,5.44-9.928a.269.269,0,0,1,.28-.135l9.368,1.539a.269.269,0,0,1,.221.312.264.264,0,0,1-.307.221l-9.185-1.512-5.844,10.67A.274.274,0,0,1,344.316,146.585Z" transform="translate(-157.645 -92.06)" fill="#e0e0e0"/>
      <path id="Path_6693" data-name="Path 6693" d="M363.75,151.821a.28.28,0,0,1-.237-.135l-4.122-7.275a.28.28,0,0,1,.1-.371.269.269,0,0,1,.366.1l4.149,7.28a.264.264,0,0,1-.1.366.307.307,0,0,1-.161.032Z" transform="translate(-165.99 -96.112)" fill="#e0e0e0"/>
      <path id="Path_6694" data-name="Path 6694" d="M355.543,151.521a.264.264,0,0,1-.215-.113.269.269,0,0,1,.059-.371l7.377-5.381a.27.27,0,1,1,.317.436l-7.377,5.381a.253.253,0,0,1-.161.048Z" transform="translate(-164.105 -96.85)" fill="#e0e0e0"/>
      <path id="Path_6695" data-name="Path 6695" d="M298.724,138.02H298.7c-.42,0-.979-.226-1.259-1.216a2.314,2.314,0,0,1,1.259-2.884c1.119-.57,2.62-.538,3.089.065a.264.264,0,0,1-.043.377.269.269,0,0,1-.377-.043,2.469,2.469,0,0,0-2.421.081,1.781,1.781,0,0,0-.99,2.26c.231.813.624.818.753.823,1.114.038,3.024-2.3,3.481-3.67a.264.264,0,0,1,.334-.172.269.269,0,0,1,.178.334c-.312,1.017-.678,2.83-.35,3.39a.226.226,0,0,0,.151.124.264.264,0,0,1,.2.317.269.269,0,0,1-.318.21.753.753,0,0,1-.5-.377,3.385,3.385,0,0,1-.129-1.937C300.909,136.879,299.725,138.02,298.724,138.02Z" transform="translate(-137.328 -91.265)" fill="#e0e0e0"/>
      <path id="Path_6696" data-name="Path 6696" d="M309.04,132.54a.161.161,0,0,1-.07,0,.269.269,0,0,1-.188-.328h0l.893-3.191a.274.274,0,0,1,.334-.188.269.269,0,0,1,.183.334l-.387,1.388a.931.931,0,0,1,.468-.135.78.78,0,0,1,.748.447,1.017,1.017,0,0,1-.188,1.049,1.157,1.157,0,0,1-1.254.307.264.264,0,0,1-.178-.167c-.043.113-.075.215-.1.307h0A.264.264,0,0,1,309.04,132.54Zm.613-.861h.081a.63.63,0,0,0,.689-.14.49.49,0,0,0,.108-.474c0-.032-.065-.135-.258-.135s-.538.371-.726.764A.264.264,0,0,1,309.654,131.679Z" transform="translate(-142.624 -89.099)" fill="#e0e0e0"/>
      <path id="Path_6697" data-name="Path 6697" d="M218.133,346.259h-.059a.743.743,0,0,1-.5-.377,3.369,3.369,0,0,1-.124-1.932c-.845,1.189-2.039,2.357-3.062,2.314-.42,0-.979-.226-1.259-1.211a2.314,2.314,0,0,1,1.259-2.884c1.114-.57,2.615-.538,3.089.065a.269.269,0,1,1-.42.328,2.488,2.488,0,0,0-2.421.086,1.781,1.781,0,0,0-.99,2.255c.231.813.624.823.753.823h0c1.135,0,3.008-2.308,3.46-3.67a.282.282,0,0,1,.538.167c-.312,1.012-.678,2.83-.35,3.39a.215.215,0,0,0,.151.124.271.271,0,1,1-.059.538Z" transform="translate(-98.385 -187.456)" fill="#e0e0e0"/>
      <path id="Path_6698" data-name="Path 6698" d="M224.768,340.8h-.07a.264.264,0,0,1-.188-.334l.893-3.2a.269.269,0,0,1,.334-.183.264.264,0,0,1,.183.328l-.387,1.394a.877.877,0,0,1,.463-.135.775.775,0,0,1,.748.447,1.006,1.006,0,0,1-.183,1.049,1.157,1.157,0,0,1-1.254.307.274.274,0,0,1-.178-.167c-.043.113-.075.215-.1.3h0a.269.269,0,0,1-.258.188Zm.613-.861h.075a.635.635,0,0,0,.694-.14.479.479,0,0,0,.1-.479c0-.032-.059-.129-.258-.129s-.538.371-.721.759a.348.348,0,0,1,.086-.027Z" transform="translate(-103.697 -185.294)" fill="#e0e0e0"/>
      <path id="Path_6699" data-name="Path 6699" d="M96.482,234.413a.264.264,0,0,1-.2-.086l-4.122-4.5a.274.274,0,0,1-.059-.253l1.883-6.807a.279.279,0,0,1,.538.145l-1.846,6.662,4.02,4.4a.269.269,0,0,1-.2.447Z" transform="translate(-42.538 -132.395)" fill="#e0e0e0"/>
      <path id="Path_6700" data-name="Path 6700" d="M104.96,232.152a.264.264,0,0,1-.172-.065l-4.719-3.939a.274.274,0,0,1-.032-.382.264.264,0,0,1,.377-.032l4.719,3.944a.264.264,0,0,1,.032.377A.258.258,0,0,1,104.96,232.152Z" transform="translate(-46.178 -134.757)" fill="#e0e0e0"/>
      <path id="Path_6701" data-name="Path 6701" d="M102.486,231.464a.311.311,0,0,1-.1,0,.269.269,0,0,1-.151-.35l2.045-5.01a.269.269,0,0,1,.35-.151.274.274,0,0,1,.145.355l-2.039,5a.264.264,0,0,1-.248.151Z" transform="translate(-47.213 -133.956)" fill="#e0e0e0"/>
      <path id="Path_6702" data-name="Path 6702" d="M111.334,236.152a.272.272,0,0,1-.075-.538c.269-.081.393-.829.382-1.34A.269.269,0,0,1,111.9,234a.285.285,0,0,1,.28.258c0,.274,0,1.641-.764,1.873Z" transform="translate(-51.283 -137.681)" fill="#e0e0e0"/>
      <path id="Path_6703" data-name="Path 6703" d="M116.392,227.453a.248.248,0,0,1-.156-.054l-2.847-2.115a.274.274,0,0,1-.054-.377.269.269,0,0,1,.377-.054l2.841,2.115a.267.267,0,0,1-.161.484Z" transform="translate(-52.326 -133.432)" fill="#e0e0e0"/>
      <path id="Path_6704" data-name="Path 6704" d="M115.579,232.217a.183.183,0,0,1-.075,0,.264.264,0,0,1-.183-.328l2.809-10.116a.279.279,0,1,1,.538.145l-2.83,10.105A.264.264,0,0,1,115.579,232.217Z" transform="translate(-53.262 -131.938)" fill="#e0e0e0"/>
      <path id="Path_6705" data-name="Path 6705" d="M123.663,226.407a.242.242,0,0,1-.086,0,.269.269,0,0,1-.167-.344l1.894-5.5-4.461-5.047a.261.261,0,1,1,.382-.355l4.563,5.166a.264.264,0,0,1,.054.264l-1.948,5.65a.264.264,0,0,1-.231.167Z" transform="translate(-55.783 -128.937)" fill="#e0e0e0"/>
      <path id="Path_6706" data-name="Path 6706" d="M358.566,239.748a.253.253,0,0,1-.161-.054.264.264,0,0,1-.1-.3l6.6-19.651a.264.264,0,0,1,.452-.091l8.007,8.932a.268.268,0,0,1-.038.4l-14.609,10.724A.247.247,0,0,1,358.566,239.748Zm6.7-19.371-6.183,18.408,13.684-10.035Z" transform="translate(-165.497 -131.01)" fill="#e0e0e0"/>
      <path id="Path_6707" data-name="Path 6707" d="M380.618,236.38a.28.28,0,0,1-.2-.091l-1.69-1.932a.269.269,0,0,1-.065-.2.274.274,0,0,1,.091-.183l1.8-1.56a.274.274,0,0,1,.382.027.264.264,0,0,1-.027.377l-1.614,1.388,1.512,1.727a.269.269,0,0,1,0,.382A.28.28,0,0,1,380.618,236.38Z" transform="translate(-174.904 -136.919)" fill="#e0e0e0"/>
      <path id="Path_6708" data-name="Path 6708" d="M159.555,154.7a7,7,0,1,1,7-7A7,7,0,0,1,159.555,154.7Zm0-13.452a6.454,6.454,0,1,1,0,.005Z" transform="translate(-70.468 -94.59)" fill="#e0e0e0"/>
      <path id="Path_6709" data-name="Path 6709" d="M172.788,143.875a7.732,7.732,0,1,1,7.727-7.731A7.732,7.732,0,0,1,172.788,143.875Zm0-14.921a7.194,7.194,0,1,0,7.189,7.189A7.194,7.194,0,0,0,172.788,128.953Z" transform="translate(-76.237 -88.908)" fill="#e0e0e0"/>
      <path id="Path_6710" data-name="Path 6710" d="M166.1,144.675a.194.194,0,0,1-.075,0,.269.269,0,0,1-.183-.328l.909-3.164a.264.264,0,0,1,.334-.183.258.258,0,0,1,.183.328l-.909,3.164A.264.264,0,0,1,166.1,144.675Z" transform="translate(-76.599 -94.718)" fill="#e0e0e0"/>
      <path id="Path_6711" data-name="Path 6711" d="M167.771,146.8a.161.161,0,0,1-.07,0,.269.269,0,0,1-.188-.328l1.291-4.552a.264.264,0,0,1,.328-.188.274.274,0,0,1,.188.334l-1.291,4.552A.264.264,0,0,1,167.771,146.8Z" transform="translate(-77.371 -95.057)" fill="#e0e0e0"/>
      <path id="Path_6712" data-name="Path 6712" d="M170.186,148.818h-.07a.269.269,0,0,1-.194-.328l1.345-5.15a.27.27,0,0,1,.522.14l-1.345,5.144A.269.269,0,0,1,170.186,148.818Z" transform="translate(-78.484 -95.714)" fill="#e0e0e0"/>
      <path id="Path_6713" data-name="Path 6713" d="M173.7,151.347h-.054a.274.274,0,0,1-.215-.317l.963-4.881a.274.274,0,0,1,.538.1l-.958,4.886A.274.274,0,0,1,173.7,151.347Z" transform="translate(-80.104 -96.999)" fill="#e0e0e0"/>
      <path id="Path_6714" data-name="Path 6714" d="M175.478,153.068h-.059a.269.269,0,0,1-.2-.323l.85-3.627a.269.269,0,0,1,.323-.2.264.264,0,0,1,.2.323l-.845,3.632A.274.274,0,0,1,175.478,153.068Z" transform="translate(-80.929 -98.376)" fill="#e0e0e0"/>
      <path id="Path_6715" data-name="Path 6715" d="M151.74,140.013a1.076,1.076,0,0,1-.678-.291,1.383,1.383,0,0,1-.361-1.846c.317-.592,1.044-1.135,1.544-1a.155.155,0,0,1,0-.048.28.28,0,0,1,.538-.156,3.177,3.177,0,0,0,.85,1.571.269.269,0,0,1,.35.145.28.28,0,0,1-.151.355.538.538,0,0,1-.441,0,1.329,1.329,0,0,1-.506-.538,2.315,2.315,0,0,1-.7,1.679A.721.721,0,0,1,151.74,140.013Zm.328-2.621a1.426,1.426,0,0,0-.893.743.856.856,0,0,0,.226,1.173c.291.237.414.156.452.129.35-.226.538-1.27.468-2.066a.264.264,0,0,1-.221.027Z" transform="translate(-69.514 -92.633)" fill="#e0e0e0"/>
      <path id="Path_6716" data-name="Path 6716" d="M171.641,125.639a.264.264,0,0,1-.237-.14h0l-2.152-3.912a.27.27,0,1,1,.474-.258l1.076,1.937a1.205,1.205,0,0,1,.339-.775.952.952,0,0,1,1.044-.253,1.259,1.259,0,0,1,.743,1.108,1.458,1.458,0,0,1-.866,1.378.274.274,0,0,1-.366-.108.28.28,0,0,1,.113-.366.92.92,0,0,0,.587-.877.748.748,0,0,0-.409-.635.425.425,0,0,0-.468.135c-.5.484.113,1.91.366,2.373h0a.274.274,0,0,1-.108.366.285.285,0,0,1-.135.027Z" transform="translate(-78.163 -85.573)" fill="#e0e0e0"/>
      <path id="Path_6717" data-name="Path 6717" d="M199.379,234.189a.29.29,0,0,1-.188-.075l-3.04-2.879a.269.269,0,0,1,.371-.387l3.04,2.873a.269.269,0,0,1,0,.382A.28.28,0,0,1,199.379,234.189Z" transform="translate(-90.571 -136.196)" fill="#e0e0e0"/>
      <path id="Path_6718" data-name="Path 6718" d="M197.248,233.7a.29.29,0,0,1-.151-.043.274.274,0,0,1-.075-.377l2.545-3.8a.269.269,0,0,1,.377-.075.264.264,0,0,1,.07.371l-2.545,3.8A.264.264,0,0,1,197.248,233.7Z" transform="translate(-90.985 -135.539)" fill="#e0e0e0"/>
      <path id="Path_6719" data-name="Path 6719" d="M207.537,230.959a.264.264,0,0,1-.253-.172.269.269,0,0,1,.156-.35l3.04-1.13a.28.28,0,0,1,.35.161.269.269,0,0,1-.161.344l-3.04,1.13Z" transform="translate(-95.737 -135.507)" fill="#e0e0e0"/>
      <path id="Path_6720" data-name="Path 6720" d="M217.722,225.577a.291.291,0,0,1-.178-.065L215.7,223.9a.269.269,0,1,1,.355-.4l1.851,1.614a.269.269,0,0,1,0,.377A.28.28,0,0,1,217.722,225.577Z" transform="translate(-99.578 -132.788)" fill="#e0e0e0"/>
      <path id="Path_6721" data-name="Path 6721" d="M217.618,228.318h-.075a.264.264,0,0,1-.183-.334l2.341-8.039a.279.279,0,1,1,.538.151l-2.341,8.039a.274.274,0,0,1-.28.183Z" transform="translate(-100.394 -131.095)" fill="#e0e0e0"/>
      <path id="Path_6722" data-name="Path 6722" d="M275.075,327.2a.242.242,0,0,1-.183-.075l-3.04-2.873a.269.269,0,0,1,0-.382.264.264,0,0,1,.377,0l3.04,2.879a.264.264,0,0,1,0,.377A.258.258,0,0,1,275.075,327.2Z" transform="translate(-125.533 -179.157)" fill="#e0e0e0"/>
      <path id="Path_6723" data-name="Path 6723" d="M272.948,326.73a.263.263,0,0,1-.151-.048.269.269,0,0,1-.075-.371l2.545-3.8a.272.272,0,1,1,.452.3l-2.551,3.8a.258.258,0,0,1-.221.124Z" transform="translate(-125.951 -178.507)" fill="#e0e0e0"/>
      <path id="Path_6724" data-name="Path 6724" d="M283.194,323.963a.273.273,0,1,1-.1-.538l3.04-1.13a.269.269,0,1,1,.188.5l-3.04,1.135Z" transform="translate(-130.66 -178.451)" fill="#e0e0e0"/>
      <path id="Path_6725" data-name="Path 6725" d="M293.443,318.613a.3.3,0,0,1-.183-.07l-1.846-1.614a.269.269,0,1,1,.355-.4l1.851,1.614a.269.269,0,0,1-.178.474Z" transform="translate(-134.559 -175.765)" fill="#e0e0e0"/>
      <path id="Path_6726" data-name="Path 6726" d="M293.319,321.338h-.075a.269.269,0,0,1-.183-.334l2.341-8.039a.279.279,0,1,1,.538.151l-2.378,8.028A.274.274,0,0,1,293.319,321.338Z" transform="translate(-135.361 -174.061)" fill="#e0e0e0"/>
      <path id="Path_6727" data-name="Path 6727" d="M315.821,290.406a1.484,1.484,0,0,1-.339-.038c-.743-.167-1.34-.872-1.776-2.093a4.048,4.048,0,0,1,.872-4.547h-3.594l.118,5.865a.264.264,0,0,1-.264.274.274.274,0,0,1-.274-.264l-.124-6.14a.269.269,0,0,1,.269-.274h4.644a.269.269,0,0,1,.129.5,3.446,3.446,0,0,0-1.27,4.4c.366,1.022.845,1.614,1.383,1.749a1.566,1.566,0,0,0,1.27-.43.269.269,0,1,1,.377.382A2.238,2.238,0,0,1,315.821,290.406Z" transform="translate(-143.394 -160.402)" fill="#e0e0e0"/>
      <path id="Path_6728" data-name="Path 6728" d="M234.936,264.754h0l-6.339-.463a.258.258,0,0,1-.248-.231l-1.243-8.932a.258.258,0,0,1,.113-.258l5.284-3.638a.269.269,0,0,1,.172-.043l7,.49a.269.269,0,0,1,.248.253l.441,8.868a.291.291,0,0,1-.113.237l-5.128,3.67a.258.258,0,0,1-.183.048Zm-6.1-.985,6.027.441,4.934-3.53-.414-8.48-6.667-.468-5.069,3.487Z" transform="translate(-104.9 -145.62)" fill="#e0e0e0"/>
      <path id="Path_6729" data-name="Path 6729" d="M229.658,271.918a.267.267,0,0,1-.161-.484l5.117-3.686a.285.285,0,0,1,.178-.048l6.355.474a.27.27,0,1,1-.038.538l-6.263-.468-5.031,3.627A.279.279,0,0,1,229.658,271.918Z" transform="translate(-105.955 -153.247)" fill="#e0e0e0"/>
      <path id="Path_6730" data-name="Path 6730" d="M238.234,260.61a.274.274,0,0,1-.269-.237l-1.076-8.884a.271.271,0,1,1,.538-.065l1.076,8.884a.28.28,0,0,1-.237.3Z" transform="translate(-109.419 -145.62)" fill="#e0e0e0"/>
      <path id="Path_6731" data-name="Path 6731" d="M234.312,256.588h-.032l-7-.807a.264.264,0,0,1-.237-.3.274.274,0,0,1,.3-.237l6.877.8,5.214-3.885a.269.269,0,0,1,.377.054.274.274,0,0,1-.059.377l-5.295,3.95a.253.253,0,0,1-.145.054Z" transform="translate(-104.873 -146.042)" fill="#e0e0e0"/>
      <path id="Path_6732" data-name="Path 6732" d="M240.916,268.547a.269.269,0,0,1-.269-.247l-.6-8.61a.269.269,0,0,1,.248-.291.274.274,0,0,1,.291.253l.6,8.61a.269.269,0,0,1-.248.285Z" transform="translate(-110.88 -149.413)" fill="#e0e0e0"/>
      <path id="Path_6733" data-name="Path 6733" d="M174.859,302.366a.248.248,0,0,1-.151-.043.264.264,0,0,1-.118-.231l.221-11.838a.269.269,0,0,1,.151-.237.264.264,0,0,1,.274,0l10.138,7.119a.285.285,0,0,1,.113.242.274.274,0,0,1-.156.221l-10.364,4.768a.242.242,0,0,1-.108,0Zm.484-11.58-.21,10.891,9.546-4.337Z" transform="translate(-80.644 -163.538)" fill="#e0e0e0"/>
      <path id="Path_6734" data-name="Path 6734" d="M180.21,299.98a.269.269,0,0,1-.242-.14l-4.934-9.411a.271.271,0,1,1,.479-.253l4.934,9.411a.274.274,0,0,1-.113.366A.318.318,0,0,1,180.21,299.98Z" transform="translate(-80.834 -163.562)" fill="#e0e0e0"/>
      <path id="Path_6735" data-name="Path 6735" d="M184.986,305.786a.264.264,0,0,1-.242-.151l-.689-1.367-.963.463a.264.264,0,0,1-.355-.124.269.269,0,0,1,.124-.361l1.2-.581a.269.269,0,0,1,.361.124l.8,1.614a.264.264,0,0,1-.118.361A.318.318,0,0,1,184.986,305.786Z" transform="translate(-84.394 -169.848)" fill="#e0e0e0"/>
      <path id="Path_6736" data-name="Path 6736" d="M367.521,307.586a.264.264,0,0,1-.2-.086l-4.3-4.59a.269.269,0,1,1,.393-.366l4.3,4.59a.264.264,0,0,1,0,.377A.274.274,0,0,1,367.521,307.586Z" transform="translate(-167.64 -169.296)" fill="#e0e0e0"/>
      <path id="Path_6737" data-name="Path 6737" d="M364.6,306.747a.243.243,0,0,1-.156-.054.264.264,0,0,1-.059-.377l3.6-4.924a.258.258,0,0,1,.371-.059.264.264,0,0,1,.059.377l-3.6,4.924A.258.258,0,0,1,364.6,306.747Z" transform="translate(-168.286 -168.758)" fill="#e0e0e0"/>
      <path id="Path_6738" data-name="Path 6738" d="M376.442,300.324h-2.416a.274.274,0,0,1-.258-.183.264.264,0,0,1,.091-.3c.436-.35,1.534-1.4,1.388-2.115a.608.608,0,0,0-.264-.436.786.786,0,0,0-.587,0,.264.264,0,0,1-.344-.156.269.269,0,0,1,.151-.344,1.307,1.307,0,0,1,1.033.038,1.108,1.108,0,0,1,.538.8c.156.78-.538,1.614-1.049,2.152h1.716a.269.269,0,1,1,0,.538Z" transform="translate(-172.639 -166.645)" fill="#e0e0e0"/>
      <path id="Path_6739" data-name="Path 6739" d="M112.213,143.177a.269.269,0,0,1-.2-.086l-4.3-4.59a.27.27,0,0,1,.4-.366l4.3,4.59a.274.274,0,0,1,0,.382.258.258,0,0,1-.2.07Z" transform="translate(-49.718 -93.36)" fill="#e0e0e0"/>
      <path id="Path_6740" data-name="Path 6740" d="M109.282,142.369a.28.28,0,0,1-.156-.048.274.274,0,0,1-.059-.377l3.6-4.929a.27.27,0,0,1,.436.317l-3.6,4.929A.274.274,0,0,1,109.282,142.369Z" transform="translate(-50.356 -92.832)" fill="#e0e0e0"/>
      <path id="Path_6741" data-name="Path 6741" d="M121.132,135.946H118.71a.269.269,0,0,1-.167-.479c.436-.344,1.534-1.4,1.388-2.109a.6.6,0,0,0-.264-.441.8.8,0,0,0-.581,0,.268.268,0,1,1-.194-.5,1.335,1.335,0,0,1,1.033.038,1.076,1.076,0,0,1,.538.807c.161.78-.538,1.614-1.076,2.152h1.722a.274.274,0,0,1,.269.269A.269.269,0,0,1,121.132,135.946Z" transform="translate(-54.709 -90.719)" fill="#e0e0e0"/>
    </g>
    <g id="freepik--Shadow--inject-32" transform="translate(30.192 243.29)">
      <ellipse id="freepik--path--inject-32" cx="104.331" cy="6.091" rx="104.331" ry="6.091" fill="#f5f5f5"/>
    </g>
    <g id="freepik--Text--inject-32" transform="translate(62.957 100.234)">
      <path id="Path_6742" data-name="Path 6742" d="M253.09,144.219a.151.151,0,0,1,0,.291l-14.426,3.309-.689.161-7.383,1.69-22.5-5.16a.151.151,0,0,1,0-.291l22.186-5.09a1.361,1.361,0,0,1,.624,0l7.065,1.614.689.161Z" transform="translate(-159.026 -139.076)" fill="#263238"/>
      <path id="Path_6743" data-name="Path 6743" d="M251.784,147.6c-.253-.839-5.79-1.507-12.6-1.507s-12.344.667-12.6,1.507h0v10.557a.355.355,0,0,0,.361.355h24.494a.355.355,0,0,0,.361-.355V147.6Z" transform="translate(-167.62 -142.309)" fill="#263238"/>
      <path id="Path_6744" data-name="Path 6744" d="M251.784,147.6c-.253-.839-5.79-1.507-12.6-1.507s-12.344.667-12.6,1.507h0v10.557a.355.355,0,0,0,.361.355h24.494a.355.355,0,0,0,.361-.355V147.6Z" transform="translate(-167.62 -142.309)" fill="#fff" opacity="0.2"/>
      <path id="Path_6745" data-name="Path 6745" d="M253.281,144.351l-1.173.269-13.894-3.186-.689-.161-7.383-1.706-21.96,5.037-1.173-.269,22.821-5.236a1.361,1.361,0,0,1,.624,0l7.065,1.614.689.161Z" transform="translate(-158.576 -139.063)" fill="#fff" opacity="0.2"/>
      <path id="Path_6746" data-name="Path 6746" d="M264.513,153.056v2.228h-.178l-.129-1.372-.135,1.372h-.291l-.135-1.372-.135,1.372h-.291l-.135-1.372-.129,1.372h-.178v-2.228a.866.866,0,0,1,.538-.791V142.17l.689.161v9.933A.866.866,0,0,1,264.513,153.056Z" transform="translate(-184.337 -140.498)" fill="#16697a"/>
      <path id="Path_6747" data-name="Path 6747" d="M129.317,189.083v2.561H117V175.2h12v2.583H120.04v4.272h7.937v2.513H120.04v4.515Z" transform="translate(-117 -155.755)" fill="#16697a"/>
      <path id="Path_6748" data-name="Path 6748" d="M146.22,175.2H153.4c5.333,0,8.97,3.288,8.97,8.222s-3.638,8.217-8.97,8.217H146.22Zm7.044,13.883c3.664,0,6.037-2.233,6.037-5.634s-2.373-5.666-6.037-5.666h-3.993v11.3Z" transform="translate(-130.497 -155.755)" fill="#16697a"/>
      <path id="Path_6749" data-name="Path 6749" d="M182,184.477V175.2h3.056v9.148c0,3.385,1.523,4.843,4.181,4.843s4.154-1.453,4.154-4.843V175.2H196.4v9.277c0,4.789-2.69,7.4-7.189,7.4S182,189.266,182,184.477Z" transform="translate(-147.024 -155.755)" fill="#16697a"/>
      <path id="Path_6750" data-name="Path 6750" d="M214.52,183.223c0-4.907,3.767-8.453,8.8-8.453a8.313,8.313,0,0,1,6.506,2.744l-1.969,1.856a5.779,5.779,0,0,0-4.391-1.926,5.777,5.777,0,1,0,0,11.553,5.731,5.731,0,0,0,4.391-1.948l1.969,1.878a8.33,8.33,0,0,1-6.527,2.75C218.276,191.677,214.52,188.131,214.52,183.223Z" transform="translate(-162.045 -155.556)" fill="#16697a"/>
      <path id="Path_6751" data-name="Path 6751" d="M256.444,187.834h-8.222l-1.614,3.8H243.46l7.393-16.439h3.008l7.42,16.439h-3.2Zm-1.012-2.395-3.073-7.184-3.078,7.184Z" transform="translate(-175.413 -155.755)" fill="#16697a"/>
      <path id="Path_6752" data-name="Path 6752" d="M280.451,177.783H275V175.2h13.947v2.583h-5.44v13.856h-3.056Z" transform="translate(-189.981 -155.755)" fill="#16697a"/>
      <path id="Path_6753" data-name="Path 6753" d="M305.21,175.2h3.051v16.439H305.21Z" transform="translate(-203.935 -155.755)" fill="#16697a"/>
      <path id="Path_6754" data-name="Path 6754" d="M317,183.223c0-4.843,3.767-8.453,8.852-8.453s8.852,3.568,8.852,8.453-3.767,8.453-8.852,8.453S317,188.082,317,183.223Zm14.625,0A5.779,5.779,0,1,0,325.852,189a5.6,5.6,0,0,0,5.747-5.774Z" transform="translate(-209.381 -155.556)" fill="#16697a"/>
      <path id="Path_6755" data-name="Path 6755" d="M370.464,175.2v16.439h-2.513l-9.062-11.128v11.128H355.86V175.2h2.513l9.061,11.133V175.2Z" transform="translate(-227.331 -155.755)" fill="#16697a"/>
      <g id="Group_2261" data-name="Group 2261" transform="translate(0 19.214)" opacity="0.3">
        <path id="Path_6756" data-name="Path 6756" d="M129.317,189.083v2.561H117V175.2h12v2.583H120.04v4.272h7.937v2.513H120.04v4.515Z" transform="translate(-117 -174.969)" fill="#fff"/>
        <path id="Path_6757" data-name="Path 6757" d="M146.22,175.2H153.4c5.333,0,8.97,3.288,8.97,8.222s-3.638,8.217-8.97,8.217H146.22Zm7.044,13.883c3.664,0,6.037-2.233,6.037-5.634s-2.373-5.666-6.037-5.666h-3.993v11.3Z" transform="translate(-130.497 -174.969)" fill="#fff"/>
        <path id="Path_6758" data-name="Path 6758" d="M182,184.477V175.2h3.056v9.148c0,3.385,1.523,4.843,4.181,4.843s4.154-1.453,4.154-4.843V175.2H196.4v9.277c0,4.789-2.69,7.4-7.189,7.4S182,189.266,182,184.477Z" transform="translate(-147.024 -174.969)" fill="#fff"/>
        <path id="Path_6759" data-name="Path 6759" d="M214.52,183.223c0-4.907,3.767-8.453,8.8-8.453a8.313,8.313,0,0,1,6.506,2.744l-1.969,1.856a5.779,5.779,0,0,0-4.391-1.926,5.777,5.777,0,1,0,0,11.553,5.731,5.731,0,0,0,4.391-1.948l1.969,1.878a8.33,8.33,0,0,1-6.527,2.75C218.276,191.677,214.52,188.131,214.52,183.223Z" transform="translate(-162.045 -174.77)" fill="#fff"/>
        <path id="Path_6760" data-name="Path 6760" d="M256.444,187.834h-8.222l-1.614,3.8H243.46l7.393-16.439h3.008l7.42,16.439h-3.2Zm-1.012-2.395-3.073-7.184-3.078,7.184Z" transform="translate(-175.413 -174.969)" fill="#fff"/>
        <path id="Path_6761" data-name="Path 6761" d="M280.451,177.783H275V175.2h13.947v2.583h-5.44v13.856h-3.056Z" transform="translate(-189.981 -174.969)" fill="#fff"/>
        <path id="Path_6762" data-name="Path 6762" d="M305.21,175.2h3.051v16.439H305.21Z" transform="translate(-203.935 -174.969)" fill="#fff"/>
        <path id="Path_6763" data-name="Path 6763" d="M317,183.223c0-4.843,3.767-8.453,8.852-8.453s8.852,3.568,8.852,8.453-3.767,8.453-8.852,8.453S317,188.082,317,183.223Zm14.625,0A5.779,5.779,0,1,0,325.852,189a5.6,5.6,0,0,0,5.747-5.774Z" transform="translate(-209.381 -174.77)" fill="#fff"/>
        <path id="Path_6764" data-name="Path 6764" d="M370.464,175.2v16.439h-2.513l-9.062-11.128v11.128H355.86V175.2h2.513l9.061,11.133V175.2Z" transform="translate(-227.331 -174.969)" fill="#fff"/>
      </g>
    </g>
    <g id="freepik--Globe--inject-32" transform="translate(180.908 174.185)">
      <rect id="Rectangle_971" data-name="Rectangle 971" width="3.229" height="10.622" transform="translate(21.997 58.58)" fill="#263238"/>
      <g id="Group_2262" data-name="Group 2262" transform="translate(21.997 58.58)" opacity="0.2">
        <rect id="Rectangle_972" data-name="Rectangle 972" width="3.229" height="10.622" fill="#fff"/>
      </g>
      <path id="Path_6765" data-name="Path 6765" d="M367.634,339.083a30.457,30.457,0,0,1-14.405-3.619l1.534-2.843a27.378,27.378,0,0,0,39.017-32.372,26.9,26.9,0,0,0-3.885-7.765,27.5,27.5,0,0,0-9.309-8.158l1.523-2.847a31.206,31.206,0,0,1,4.811,3.191,30.536,30.536,0,0,1,5.6,5.919,30.015,30.015,0,0,1,4.342,8.685,30.612,30.612,0,0,1-29.224,39.819Z" transform="translate(-344.066 -278.797)" fill="#263238"/>
      <g id="Group_2263" data-name="Group 2263" transform="translate(9.162 2.683)" opacity="0.3">
        <path id="Path_6766" data-name="Path 6766" d="M367.634,339.083a30.457,30.457,0,0,1-14.405-3.619l1.534-2.843a27.378,27.378,0,0,0,39.017-32.372,26.9,26.9,0,0,0-3.885-7.765,27.5,27.5,0,0,0-9.309-8.158l1.523-2.847a31.206,31.206,0,0,1,4.811,3.191,30.536,30.536,0,0,1,5.6,5.919,30.015,30.015,0,0,1,4.342,8.685,30.612,30.612,0,0,1-29.224,39.819Z" transform="translate(-353.229 -281.48)" fill="#fff"/>
      </g>
      <path id="Path_6767" data-name="Path 6767" d="M350.623,335.854a.764.764,0,0,1-.382-.1.807.807,0,0,1-.328-1.076l30.962-57.759a.808.808,0,1,1,1.426.759l-30.967,57.738a.813.813,0,0,1-.71.436Z" transform="translate(-342.493 -276.494)" fill="#263238"/>
      <g id="Group_2264" data-name="Group 2264" transform="translate(7.33)" opacity="0.4">
        <path id="Path_6768" data-name="Path 6768" d="M350.623,335.854a.764.764,0,0,1-.382-.1.807.807,0,0,1-.328-1.076l30.962-57.759a.808.808,0,1,1,1.426.759l-30.967,57.738a.813.813,0,0,1-.71.436Z" transform="translate(-349.824 -276.494)" fill="#fff"/>
      </g>
      <path id="Path_6769" data-name="Path 6769" d="M367.886,403.64h11.806a1.431,1.431,0,0,1,1.431,1.431v2.637H366.46v-2.637a1.431,1.431,0,0,1,1.426-1.431Z" transform="translate(-350.178 -335.223)" fill="#263238"/>
      <path id="Path_6770" data-name="Path 6770" d="M361.023,287.793a23.612,23.612,0,1,1-24.79,22.369A23.612,23.612,0,0,1,361.023,287.793Z" transform="translate(-336.201 -281.698)" fill="#16697a"/>
      <path id="Path_6771" data-name="Path 6771" d="M383.427,312.606a23.59,23.59,0,1,1-16.2-23.617,23.245,23.245,0,0,1,6.651,3.444,23.558,23.558,0,0,1,9.551,20.173Z" transform="translate(-336.236 -281.721)" fill="#fff" opacity="0.2"/>
      <path id="Path_6772" data-name="Path 6772" d="M373.708,294.166a.659.659,0,0,1-.1-.065,1.076,1.076,0,0,0-.215-.145c-.979-.538-.7,1.361-1.614,1.792s-2.513-.344-2.319-.9-1.647-2.115-2.152-2.362a1.577,1.577,0,0,0-2.109,1.485c-.075,1.614.813,2.572.565,3.062s-.242.64-1.873,1.421-2.809-.215-3.794.673.291,1.383-.1,3.535-.974.608-2.152.839-.506-1.189-.355-2.018-1.076-1.076-1.614-1.141-1.883-.226-1.711-1.894.086-3.229-2.2-3.1c-1.178.075-1.819-1.614-2.152-3.315a23.676,23.676,0,0,0-12.495,14.577c.124-.027.231.145.4.576a14.015,14.015,0,0,0,1.722,3.508,2.459,2.459,0,0,1,.538,2.454c-.285.662-1.673,1.076-1.7,1.534s-1.329,1.076-1.534,1.5a.231.231,0,0,1-.231.151,23.531,23.531,0,0,0,9.6,16.143c.587-1.528,1.614-2.739,2.3-2.777,1.442-.075,5.892-.78,4.256-2.744s-3.385-3.767-3.385-3.767a11.082,11.082,0,0,1,1.152-1.458c.264-.167-.592-.656.909-.818s1.614-.172.985-.893-1.668-.172-.979-1.076,1.442-1.614,2.185-.613.291,1.534.538,1.83,2.47-.161,2.47-.161.576.8.328.979a12.788,12.788,0,0,0-1.114,1.512,3.492,3.492,0,0,1-.856,1.329c-.452.264,1.238,1.98,1.743,2.244s.716.479,1.152.366,1.281-1.022,1.587-1.3,2.152.4,2.152.4a11.946,11.946,0,0,1,1.942,1.4,1.862,1.862,0,0,0,2.3.258c.382-.344.361-1.281,1.076-.958s.958.656,1.453,2.395,3.438,4.289,3.073,5.365a23.319,23.319,0,0,0,5.838-4.558,5.835,5.835,0,0,1-3.169-1.953c-.4-.6-.167-.6.059-1.614s2.125-1.614,2.432-1.889,1.786-2.115,2.513-2.308.673-1.162.673-1.162.135.253.43-.387-.027-1.3.952-2.185a5.079,5.079,0,0,1,2.152-.958,22.722,22.722,0,0,0,.253-2.448,23.246,23.246,0,0,0-.172-4.3l-2.561.974a7.926,7.926,0,0,1-1.786-.172c-.28-.161-1.614-1.022-2.647-.5s-1.135-.35-3.073-.667.952-3.056,1.4-3.465.538-.194,1.846-.845,1.076-1.663,1.076-1.663a17.086,17.086,0,0,0-2.771-3.121c-1.27-1,.538-1.1,3.686-2.012A23.386,23.386,0,0,0,373.708,294.166Zm-8.61,29.864c-.452.683-1.076-.135-1.076-.135-1.835-.538-2.012-2.029-1.388-2.594s.931-2.491,1.91-1.722a24,24,0,0,0,2.47,1.614s1.076-2.777,1.125-.194,1.517,1.8.032,2.588-2.61-.258-3.062.425Zm7.173.7a7.907,7.907,0,0,1-.221,1.959l-1.378.7c-1.028-.856-.63-2.152-.07-2.271s1.6-1.152,1.684-.409Zm-2.524-19.953c.361.7-.737,1.162-1.953,2.943s-1.964.328-1.964.328-2.464-1.969-1.663-2.83.2-2,1.383-2.653c.737-.409,1.469-.054,2.152.7s1.7.791,2.055,1.491Z" transform="translate(-336.344 -283.67)" fill="#fff" opacity="0.5"/>
      <path id="Path_6773" data-name="Path 6773" d="M367.2,288.991a33.059,33.059,0,0,1-6.931,21.357,32.6,32.6,0,0,1-20.91,12.855A23.622,23.622,0,0,1,367.2,288.991Z" transform="translate(-336.209 -281.723)" fill="#fff" opacity="0.2"/>
      <g id="Group_2265" data-name="Group 2265" transform="translate(16.282 68.417)" opacity="0.3">
        <path id="Path_6774" data-name="Path 6774" d="M367.886,403.64h11.806a1.431,1.431,0,0,1,1.431,1.431v2.637H366.46v-2.637a1.431,1.431,0,0,1,1.426-1.431Z" transform="translate(-366.46 -403.64)" fill="#fff"/>
      </g>
      <path id="Path_6775" data-name="Path 6775" d="M355.838,409.76h24.548a1.668,1.668,0,0,1,1.668,1.668v2.739H354.17v-2.739A1.668,1.668,0,0,1,355.838,409.76Z" transform="translate(-344.501 -338.05)" fill="#263238"/>
      <g id="Group_2266" data-name="Group 2266" transform="translate(9.669 71.71)" opacity="0.4">
        <path id="Path_6776" data-name="Path 6776" d="M355.838,409.76h24.548a1.668,1.668,0,0,1,1.668,1.668v2.739H354.17v-2.739A1.668,1.668,0,0,1,355.838,409.76Z" transform="translate(-354.17 -409.76)" fill="#fff"/>
      </g>
    </g>
    <g id="freepik--Books--inject-32" transform="translate(59.809 193.93)">
      <rect id="Rectangle_973" data-name="Rectangle 973" width="23.526" height="10.202" transform="translate(24.951 33.346) rotate(180)" fill="#16697a"/>
      <rect id="Rectangle_974" data-name="Rectangle 974" width="23.526" height="10.202" transform="translate(24.951 33.346) rotate(180)" fill="#fff" opacity="0.8"/>
      <path id="Path_6777" data-name="Path 6777" d="M135.441,357.2H113.81v-1h21.61Z" transform="translate(-112.379 -333.056)" opacity="0.2"/>
      <path id="Path_6778" data-name="Path 6778" d="M137.262,359.67l-19.522.414,19.522.42Z" transform="translate(-114.194 -334.659)" opacity="0.2"/>
      <path id="Path_6779" data-name="Path 6779" d="M136.274,366.68l-20.674.35,20.674.3Z" transform="translate(-113.205 -337.897)" opacity="0.2"/>
      <path id="Path_6780" data-name="Path 6780" d="M136.431,370.78l-20.491.414,20.491.414Z" transform="translate(-113.363 -339.791)" opacity="0.2"/>
      <path id="Path_6781" data-name="Path 6781" d="M113.81,362.37l19.818.6-19.818.409Z" transform="translate(-112.379 -335.906)" opacity="0.2"/>
      <path id="Path_6782" data-name="Path 6782" d="M165.078,360.693a4.628,4.628,0,0,1-4.622,4.622H111.489a.339.339,0,0,0-.339.339v.366a.339.339,0,0,0,.339.339H160.7a5.677,5.677,0,0,0,5.672-5.715,5.768,5.768,0,0,0-5.8-5.645h-49.08a.339.339,0,0,0-.339.339v.366a.344.344,0,0,0,.339.344h48.821A4.751,4.751,0,0,1,165.078,360.693Z" transform="translate(-111.15 -332.502)" fill="#263238"/>
      <path id="Path_6783" data-name="Path 6783" d="M165.078,360.693a4.628,4.628,0,0,1-4.622,4.622H111.489a.339.339,0,0,0-.339.339v.366a.339.339,0,0,0,.339.339H160.7a5.677,5.677,0,0,0,5.672-5.715,5.768,5.768,0,0,0-5.8-5.645h-49.08a.339.339,0,0,0-.339.339v.366a.344.344,0,0,0,.339.344h48.821A4.751,4.751,0,0,1,165.078,360.693Z" transform="translate(-111.15 -332.502)" fill="#fff" opacity="0.4"/>
      <path id="Path_6784" data-name="Path 6784" d="M202.724,361.3h0a5.107,5.107,0,0,1-5.107,5.112H154V356.19h43.586a5.107,5.107,0,0,1,5.139,5.112Z" transform="translate(-130.943 -333.052)" fill="#16697a"/>
      <path id="Path_6785" data-name="Path 6785" d="M154,356.2v10.224h43.613a5.112,5.112,0,1,0,0-10.224Z" transform="translate(-130.943 -333.056)" fill="#fff" opacity="0.7"/>
      <path id="Path_6786" data-name="Path 6786" d="M154.02,360.5v-.834l43.467.35Z" transform="translate(-130.952 -334.659)" opacity="0.2"/>
      <path id="Path_6787" data-name="Path 6787" d="M154.02,367.326v-.646l19.511.7Z" transform="translate(-130.952 -337.897)" opacity="0.2"/>
      <path id="Path_6788" data-name="Path 6788" d="M154.02,371.609v-.829l31.462.484Z" transform="translate(-130.952 -339.791)" opacity="0.2"/>
      <path id="Path_6789" data-name="Path 6789" d="M197.688,357.2a3.406,3.406,0,0,1,2.271.877,8.437,8.437,0,0,0-.64,1.657l-43.586.339,43.5.108a5.861,5.861,0,0,0-.1,1.076,5.715,5.715,0,0,0,.145,1.259l-29.369.646,29.644.339a10.505,10.505,0,0,0,.985,2.029,5.112,5.112,0,0,0-2.9-9.314H154v1Z" transform="translate(-130.943 -333.066)" opacity="0.2"/>
      <path id="Path_6790" data-name="Path 6790" d="M201.406,360.693a4.628,4.628,0,0,1-4.622,4.622H152.359a.339.339,0,0,0-.339.339v.366a.339.339,0,0,0,.339.339h44.662a5.677,5.677,0,0,0,5.672-5.715,5.768,5.768,0,0,0-5.8-5.645H152.359a.339.339,0,0,0-.339.339v.366a.344.344,0,0,0,.339.344h44.312A4.751,4.751,0,0,1,201.406,360.693Z" transform="translate(-130.028 -332.502)" fill="#263238"/>
      <path id="Path_6791" data-name="Path 6791" d="M232.292,363.17v4.095l-1.485-1.48-1.437,1.437V363.17Z" transform="translate(-165.756 -336.276)" fill="#16697a"/>
      <rect id="Rectangle_975" data-name="Rectangle 975" width="63.484" height="10.218" transform="translate(71.324 55.871) rotate(180)" fill="#16697a"/>
      <rect id="Rectangle_976" data-name="Rectangle 976" width="63.484" height="10.218" transform="translate(71.324 55.871) rotate(180)" fill="#fff" opacity="0.7"/>
      <path id="Path_6792" data-name="Path 6792" d="M125.72,402.344v-.834l43.467.35Z" transform="translate(-117.88 -353.985)" opacity="0.2"/>
      <path id="Path_6793" data-name="Path 6793" d="M125.72,409.16v-.64l19.517.7Z" transform="translate(-117.88 -357.223)" opacity="0.2"/>
      <path id="Path_6794" data-name="Path 6794" d="M125.72,413.449v-.829l31.462.479Z" transform="translate(-117.88 -359.117)" opacity="0.2"/>
      <path id="Path_6795" data-name="Path 6795" d="M175.015,398l.9,7.636-1.076-1.178a9.336,9.336,0,0,1-2,3.767,11.176,11.176,0,0,1-1.614-2.933l-29.649-.339,29.369-.646a6.144,6.144,0,0,1-.145-1.259,5.769,5.769,0,0,1,.108-1.076l-43.5-.108,43.586-.344a8.072,8.072,0,0,1,.64-1.652,3.4,3.4,0,0,0-2.276-.877H125.72V398Z" transform="translate(-117.88 -352.364)" opacity="0.2"/>
      <path id="Path_6796" data-name="Path 6796" d="M173.112,402.547a4.622,4.622,0,0,1-4.628,4.617h-44.42a.344.344,0,0,0-.344.344v.366a.344.344,0,0,0,.344.339h69.108a5.677,5.677,0,0,0,5.672-5.715,5.763,5.763,0,0,0-5.817-5.628H124.064a.344.344,0,0,0-.344.339v.366a.344.344,0,0,0,.344.339H168.35a4.757,4.757,0,0,1,4.762,4.633Z" transform="translate(-116.956 -351.842)" fill="#16697a"/>
      <path id="Path_6797" data-name="Path 6797" d="M173.112,402.547a4.622,4.622,0,0,1-4.628,4.617h-44.42a.344.344,0,0,0-.344.344v.366a.344.344,0,0,0,.344.339h69.108a5.677,5.677,0,0,0,5.672-5.715,5.763,5.763,0,0,0-5.817-5.628H124.064a.344.344,0,0,0-.344.339v.366a.344.344,0,0,0,.344.339H168.35a4.757,4.757,0,0,1,4.762,4.633Z" transform="translate(-116.956 -351.842)" opacity="0.2"/>
      <path id="Path_6798" data-name="Path 6798" d="M173.112,402.547a4.622,4.622,0,0,1-4.628,4.617h-44.42a.344.344,0,0,0-.344.344v.366a.344.344,0,0,0,.344.339h44.662a5.666,5.666,0,0,0,5.666-5.715,5.763,5.763,0,0,0-5.817-5.628H124.064a.344.344,0,0,0-.344.339v.366a.344.344,0,0,0,.344.339H168.35a4.757,4.757,0,0,1,4.762,4.633Z" transform="translate(-116.956 -351.842)" fill="#16697a"/>
      <path id="Path_6799" data-name="Path 6799" d="M204,405.01V409.1l-1.48-1.48-1.437,1.437V405.01Z" transform="translate(-152.689 -355.602)" fill="#16697a"/>
      <path id="Path_6800" data-name="Path 6800" d="M173.112,402.547a4.622,4.622,0,0,1-4.628,4.617h-44.42a.344.344,0,0,0-.344.344v.366a.344.344,0,0,0,.344.339h44.662a5.666,5.666,0,0,0,5.666-5.715,5.763,5.763,0,0,0-5.817-5.628H124.064a.344.344,0,0,0-.344.339v.366a.344.344,0,0,0,.344.339H168.35a4.757,4.757,0,0,1,4.762,4.633Z" transform="translate(-116.956 -351.842)" fill="#fff" opacity="0.2"/>
      <rect id="Rectangle_977" data-name="Rectangle 977" width="63.484" height="10.218" transform="translate(69.457 44.619) rotate(180)" fill="#16697a"/>
      <rect id="Rectangle_978" data-name="Rectangle 978" width="63.484" height="10.218" transform="translate(69.457 44.619) rotate(180)" fill="#fff" opacity="0.8"/>
      <path id="Path_6801" data-name="Path 6801" d="M122.24,381.424v-.834l43.467.35Z" transform="translate(-116.273 -344.322)" opacity="0.2"/>
      <path id="Path_6802" data-name="Path 6802" d="M122.24,388.24v-.64l19.517.7Z" transform="translate(-116.273 -347.56)" opacity="0.2"/>
      <path id="Path_6803" data-name="Path 6803" d="M122.24,392.529V391.7l31.462.479Z" transform="translate(-116.273 -349.454)" opacity="0.2"/>
      <path id="Path_6804" data-name="Path 6804" d="M171.535,377.115l.92,7.614-1.076-1.157a9.336,9.336,0,0,1-2,3.767,11.068,11.068,0,0,1-1.614-2.933l-29.649-.339,29.369-.64a6.193,6.193,0,0,1-.14-1.265,5.86,5.86,0,0,1,.1-1.076l-43.5-.108,43.586-.339a8.114,8.114,0,0,1,.64-1.657,3.379,3.379,0,0,0-2.271-.872H122.24v-1Z" transform="translate(-116.273 -342.715)" opacity="0.2"/>
      <path id="Path_6805" data-name="Path 6805" d="M169.62,381.65a4.622,4.622,0,0,1-4.628,4.617h-44.4a.344.344,0,0,0-.339.344v.366a.339.339,0,0,0,.339.339h65.648a5.677,5.677,0,0,0,5.672-5.715,5.774,5.774,0,0,0-5.849-5.6h-65.47a.339.339,0,0,0-.339.339v.366a.344.344,0,0,0,.339.344h44.285a4.757,4.757,0,0,1,4.746,4.6Z" transform="translate(-115.353 -342.202)" fill="#16697a"/>
      <path id="Path_6806" data-name="Path 6806" d="M169.62,381.65a4.622,4.622,0,0,1-4.628,4.617h-44.4a.344.344,0,0,0-.339.344v.366a.339.339,0,0,0,.339.339h65.648a5.677,5.677,0,0,0,5.672-5.715,5.774,5.774,0,0,0-5.849-5.6h-65.47a.339.339,0,0,0-.339.339v.366a.344.344,0,0,0,.339.344h44.285a4.757,4.757,0,0,1,4.746,4.6Z" transform="translate(-115.353 -342.202)" fill="#fff" opacity="0.4"/>
      <path id="Path_6807" data-name="Path 6807" d="M169.62,381.65a4.622,4.622,0,0,1-4.628,4.617h-44.4a.344.344,0,0,0-.339.344v.366a.339.339,0,0,0,.339.339h44.662a5.677,5.677,0,0,0,5.672-5.715,5.774,5.774,0,0,0-5.8-5.6H120.589a.339.339,0,0,0-.339.339v.366a.344.344,0,0,0,.339.344h44.285a4.757,4.757,0,0,1,4.746,4.6Z" transform="translate(-115.353 -342.202)" fill="#16697a"/>
      <path id="Path_6808" data-name="Path 6808" d="M193.976,381.39v4.095L192.491,384l-1.431,1.437V381.39Z" transform="translate(-148.061 -344.692)" fill="#263238"/>
      <path id="Path_6809" data-name="Path 6809" d="M169.62,381.65a4.622,4.622,0,0,1-4.628,4.617h-44.4a.344.344,0,0,0-.339.344v.366a.339.339,0,0,0,.339.339h44.662a5.677,5.677,0,0,0,5.672-5.715,5.774,5.774,0,0,0-5.8-5.6H120.589a.339.339,0,0,0-.339.339v.366a.344.344,0,0,0,.339.344h44.285a4.757,4.757,0,0,1,4.746,4.6Z" transform="translate(-115.353 -342.202)" fill="#fff" opacity="0.6"/>
      <rect id="Rectangle_979" data-name="Rectangle 979" width="23.526" height="10.202" transform="translate(29.477 10.837) rotate(180)" fill="#16697a"/>
      <rect id="Rectangle_980" data-name="Rectangle 980" width="23.526" height="10.202" transform="translate(29.477 10.837) rotate(180)" fill="#fff" opacity="0.7"/>
      <path id="Path_6810" data-name="Path 6810" d="M143.851,315.361H122.22v-1h21.61Z" transform="translate(-116.263 -313.73)" opacity="0.2"/>
      <path id="Path_6811" data-name="Path 6811" d="M145.672,317.83l-19.522.42,19.522.414Z" transform="translate(-118.079 -315.333)" opacity="0.2"/>
      <path id="Path_6812" data-name="Path 6812" d="M144.684,324.85l-20.674.344,20.674.3Z" transform="translate(-117.09 -318.576)" opacity="0.2"/>
      <path id="Path_6813" data-name="Path 6813" d="M144.841,328.95l-20.491.414,20.491.414Z" transform="translate(-117.247 -320.469)" opacity="0.2"/>
      <path id="Path_6814" data-name="Path 6814" d="M122.22,320.54l19.813.6-19.813.414Z" transform="translate(-116.263 -316.585)" opacity="0.2"/>
      <path id="Path_6815" data-name="Path 6815" d="M173.483,318.872a4.628,4.628,0,0,1-4.628,4.617H119.889a.339.339,0,0,0-.339.339v.366a.339.339,0,0,0,.339.339H169.1a5.666,5.666,0,0,0,5.672-5.709,5.768,5.768,0,0,0-5.817-5.634H119.9a.344.344,0,0,0-.339.344v.366a.339.339,0,0,0,.339.339h48.821A4.757,4.757,0,0,1,173.483,318.872Z" transform="translate(-115.03 -313.19)" fill="#16697a"/>
      <path id="Path_6816" data-name="Path 6816" d="M173.483,318.872a4.628,4.628,0,0,1-4.628,4.617H119.889a.339.339,0,0,0-.339.339v.366a.339.339,0,0,0,.339.339H169.1a5.666,5.666,0,0,0,5.672-5.709,5.768,5.768,0,0,0-5.817-5.634H119.9a.344.344,0,0,0-.339.344v.366a.339.339,0,0,0,.339.339h48.821A4.757,4.757,0,0,1,173.483,318.872Z" transform="translate(-115.03 -313.19)" fill="#fff" opacity="0.4"/>
      <path id="Path_6817" data-name="Path 6817" d="M211.2,319.467h0a5.107,5.107,0,0,1-5.107,5.107H162.51V314.35H206.1a5.107,5.107,0,0,1,5.107,5.117Z" transform="translate(-134.873 -313.726)" fill="#16697a"/>
      <path id="Path_6818" data-name="Path 6818" d="M162.42,314.36v10.224h43.613a5.112,5.112,0,1,0,0-10.224Z" transform="translate(-134.832 -313.73)" fill="#fff" opacity="0.5"/>
      <path id="Path_6819" data-name="Path 6819" d="M162.43,318.664v-.834l43.467.35Z" transform="translate(-134.837 -315.333)" opacity="0.2"/>
      <path id="Path_6820" data-name="Path 6820" d="M162.43,325.49v-.64l19.511.694Z" transform="translate(-134.837 -318.576)" opacity="0.2"/>
      <path id="Path_6821" data-name="Path 6821" d="M162.43,329.779v-.829l31.462.479Z" transform="translate(-134.837 -320.469)" opacity="0.2"/>
      <path id="Path_6822" data-name="Path 6822" d="M206.1,315.361a3.4,3.4,0,0,1,2.271.872,8.57,8.57,0,0,0-.64,1.657l-43.586.344,43.5.108a5.565,5.565,0,0,0,.043,2.325l-29.369.64,29.644.344a10.6,10.6,0,0,0,.985,2.023,5.112,5.112,0,0,0-2.9-9.314H162.42v1Z" transform="translate(-134.832 -313.73)" opacity="0.2"/>
      <path id="Path_6823" data-name="Path 6823" d="M209.816,318.872a4.628,4.628,0,0,1-4.622,4.617H160.769a.339.339,0,0,0-.339.339v.366a.339.339,0,0,0,.339.339h44.662a5.666,5.666,0,0,0,5.672-5.709,5.768,5.768,0,0,0-5.817-5.634H160.769a.344.344,0,0,0-.339.344v.366a.339.339,0,0,0,.339.339h44.285A4.751,4.751,0,0,1,209.816,318.872Z" transform="translate(-133.913 -313.19)" fill="#16697a"/>
      <path id="Path_6824" data-name="Path 6824" d="M240.7,321.33v4.1l-1.485-1.485-1.437,1.437V321.33Z" transform="translate(-169.641 -316.95)" fill="#16697a"/>
      <rect id="Rectangle_981" data-name="Rectangle 981" width="63.484" height="10.218" transform="translate(71.206 22.105) rotate(180)" fill="#16697a"/>
      <rect id="Rectangle_982" data-name="Rectangle 982" width="63.484" height="10.218" transform="translate(71.206 22.105) rotate(180)" fill="#fff" opacity="0.7"/>
      <path id="Path_6825" data-name="Path 6825" d="M125.49,339.584v-.834l43.467.35Z" transform="translate(-117.774 -324.996)" opacity="0.2"/>
      <path id="Path_6826" data-name="Path 6826" d="M125.49,346.406v-.646l19.517.7Z" transform="translate(-117.774 -328.234)" opacity="0.2"/>
      <path id="Path_6827" data-name="Path 6827" d="M125.49,350.693v-.823l31.462.479Z" transform="translate(-117.774 -330.132)" opacity="0.2"/>
      <path id="Path_6828" data-name="Path 6828" d="M174.785,335.266l.92,7.619-1.076-1.162a9.336,9.336,0,0,1-2,3.767,11.068,11.068,0,0,1-1.614-2.933l-29.649-.339,29.369-.646a6.152,6.152,0,0,1-.14-1.265,5.758,5.758,0,0,1,.1-1.076l-43.5-.113,43.586-.339a8.24,8.24,0,0,1,.64-1.657,3.4,3.4,0,0,0-2.271-.872H125.49v-1Z" transform="translate(-117.774 -323.379)" opacity="0.2"/>
      <path id="Path_6829" data-name="Path 6829" d="M172.886,339.787a4.628,4.628,0,0,1-4.628,4.622h-44.42a.339.339,0,0,0-.339.339v.366a.339.339,0,0,0,.339.339h69.108a5.666,5.666,0,0,0,5.672-5.715,5.763,5.763,0,0,0-5.817-5.628H123.839a.344.344,0,0,0-.339.344v.366a.339.339,0,0,0,.339.339h44.285a4.757,4.757,0,0,1,4.762,4.628Z" transform="translate(-116.855 -322.853)" fill="#263238"/>
      <path id="Path_6830" data-name="Path 6830" d="M172.886,339.787a4.628,4.628,0,0,1-4.628,4.622h-44.42a.339.339,0,0,0-.339.339v.366a.339.339,0,0,0,.339.339h69.108a5.666,5.666,0,0,0,5.672-5.715,5.763,5.763,0,0,0-5.817-5.628H123.839a.344.344,0,0,0-.339.344v.366a.339.339,0,0,0,.339.339h44.285a4.757,4.757,0,0,1,4.762,4.628Z" transform="translate(-116.855 -322.853)" fill="#fff" opacity="0.2"/>
      <path id="Path_6831" data-name="Path 6831" d="M172.886,339.787a4.628,4.628,0,0,1-4.628,4.622h-44.42a.339.339,0,0,0-.339.339v.366a.339.339,0,0,0,.339.339H168.5a5.666,5.666,0,0,0,5.672-5.715,5.774,5.774,0,0,0-5.817-5.629H123.839a.344.344,0,0,0-.339.344v.366a.339.339,0,0,0,.339.339h44.285a4.757,4.757,0,0,1,4.762,4.628Z" transform="translate(-116.855 -322.853)" fill="#263238"/>
      <path id="Path_6832" data-name="Path 6832" d="M203.766,342.25v4.1l-1.48-1.485L200.85,346.3V342.25Z" transform="translate(-152.583 -326.613)" fill="#263238"/>
      <path id="Path_6833" data-name="Path 6833" d="M172.886,339.787a4.628,4.628,0,0,1-4.628,4.622h-44.42a.339.339,0,0,0-.339.339v.366a.339.339,0,0,0,.339.339H168.5a5.666,5.666,0,0,0,5.672-5.715,5.774,5.774,0,0,0-5.817-5.629H123.839a.344.344,0,0,0-.339.344v.366a.339.339,0,0,0,.339.339h44.285a4.757,4.757,0,0,1,4.762,4.628Z" transform="translate(-116.855 -322.853)" fill="#fff" opacity="0.4"/>
    </g>
    <g id="freepik--character-2--inject-32" transform="translate(132.132 189.169)">
      <g id="freepik--group--inject-32">
        <path id="Path_6834" data-name="Path 6834" d="M356.385,403.7l3.433.108,3.169.1.57,4.5-4.02.118-3.858.113Z" transform="translate(-296.423 -350.236)" fill="#e4897b"/>
        <path id="Path_6835" data-name="Path 6835" d="M356.385,403.7l3.433.108-.28,4.719-3.858.113Z" transform="translate(-296.423 -350.236)" opacity="0.2"/>
        <path id="Path_6836" data-name="Path 6836" d="M369.7,401.818a5.138,5.138,0,0,1-.538.974.081.081,0,0,1-.091.043.1.1,0,0,1-.081-.07c-.043-.151-.377-1.523,0-1.926a.371.371,0,0,1,.334-.113.538.538,0,0,1,.463.3,1.135,1.135,0,0,1-.086.8Zm-.538-.845c-.194.215-.108.974,0,1.528a2.027,2.027,0,0,0,.447-1.4.328.328,0,0,0-.3-.183.156.156,0,0,0-.161.054Z" transform="translate(-302.488 -348.859)" fill="#16697a"/>
        <path id="Path_6837" data-name="Path 6837" d="M368.173,403.266a.053.053,0,0,1,0,.038.086.086,0,0,1-.086,0c-.038,0-1.189-.339-1.426-.866a.538.538,0,0,1,0-.43.36.36,0,0,1,.393-.221c.452.065,1.044.942,1.13,1.41A.081.081,0,0,1,368.173,403.266Zm-1.351-1.1a.3.3,0,0,0,0,.226c.14.312.764.576,1.13.7-.161-.436-.63-1.028-.926-1.076a.19.19,0,0,0-.194.118Z" transform="translate(-301.475 -349.349)" fill="#16697a"/>
        <path id="Path_6838" data-name="Path 6838" d="M369.7,401.818a5.138,5.138,0,0,1-.538.974.081.081,0,0,1-.091.043.1.1,0,0,1-.081-.07c-.043-.151-.377-1.523,0-1.926a.371.371,0,0,1,.334-.113.538.538,0,0,1,.463.3,1.135,1.135,0,0,1-.086.8Zm-.538-.845c-.194.215-.108.974,0,1.528a2.027,2.027,0,0,0,.447-1.4.328.328,0,0,0-.3-.183.156.156,0,0,0-.161.054Z" transform="translate(-302.488 -348.859)" fill="#fff" opacity="0.6"/>
        <path id="Path_6839" data-name="Path 6839" d="M368.173,403.266a.053.053,0,0,1,0,.038.086.086,0,0,1-.086,0c-.038,0-1.189-.339-1.426-.866a.538.538,0,0,1,0-.43.36.36,0,0,1,.393-.221c.452.065,1.044.942,1.13,1.41A.081.081,0,0,1,368.173,403.266Zm-1.351-1.1a.3.3,0,0,0,0,.226c.14.312.764.576,1.13.7-.161-.436-.63-1.028-.926-1.076a.19.19,0,0,0-.194.118Z" transform="translate(-301.475 -349.349)" fill="#fff" opacity="0.6"/>
        <path id="Path_6840" data-name="Path 6840" d="M366.886,400.378l-1.614,4.3a.3.3,0,0,0,.156.382h0l3.347,1.485a.732.732,0,0,0,.931-.42c.538-1.523.716-2.271,1.41-4.181a38.374,38.374,0,0,0,1.733-5.128c.339-1.695-1.34-1.98-1.614-1.3a11.414,11.414,0,0,1-3.864,4.251A1.157,1.157,0,0,0,366.886,400.378Z" transform="translate(-300.843 -346.3)" fill="#263238"/>
        <path id="Path_6841" data-name="Path 6841" d="M287.929,390.77l2,2.061s22.718,2.19,35.046,4.412l-1.566,7.738H281.52Z" transform="translate(-262.168 -344.263)" fill="#263238"/>
        <path id="Path_6842" data-name="Path 6842" d="M287.929,390.77l2,2.061s22.718,2.19,35.046,4.412l-1.566,7.738H281.52Z" transform="translate(-262.168 -344.263)" fill="#fff" opacity="0.2"/>
        <path id="Path_6843" data-name="Path 6843" d="M334.5,398.52l1.06,3.272.979,3.013-4.041,2.066-1.469-3.751-1.415-3.589Z" transform="translate(-284.381 -347.843)" fill="#e4897b"/>
        <path id="Path_6844" data-name="Path 6844" d="M342.855,409.731a4.951,4.951,0,0,1-1.076-.221.086.086,0,0,1-.07-.075.1.1,0,0,1,.043-.1c.135-.081,1.351-.8,1.84-.576a.366.366,0,0,1,.2.285.538.538,0,0,1-.151.538A1.114,1.114,0,0,1,342.855,409.731Zm.651-.775c-.264-.124-.969.178-1.464.452.726.188,1.265.2,1.474,0a.344.344,0,0,0,.086-.334.167.167,0,0,0-.1-.14Z" transform="translate(-289.969 -352.554)" fill="#16697a"/>
        <path id="Path_6845" data-name="Path 6845" d="M341.786,408.645h-.038a.129.129,0,0,1-.048-.081c0-.038,0-1.238.42-1.614a.5.5,0,0,1,.414-.108.36.36,0,0,1,.328.307c.065.452-.6,1.275-1.022,1.491A.064.064,0,0,1,341.786,408.645Zm.667-1.614a.28.28,0,0,0-.21.075c-.264.221-.334.9-.35,1.281a2.007,2.007,0,0,0,.78-1.2c0-.054-.038-.124-.172-.151Z" transform="translate(-289.965 -351.683)" fill="#16697a"/>
        <path id="Path_6846" data-name="Path 6846" d="M342.855,409.731a4.951,4.951,0,0,1-1.076-.221.086.086,0,0,1-.07-.075.1.1,0,0,1,.043-.1c.135-.081,1.351-.8,1.84-.576a.366.366,0,0,1,.2.285.538.538,0,0,1-.151.538A1.114,1.114,0,0,1,342.855,409.731Zm.651-.775c-.264-.124-.969.178-1.464.452.726.188,1.265.2,1.474,0a.344.344,0,0,0,.086-.334.167.167,0,0,0-.1-.14Z" transform="translate(-289.969 -352.554)" fill="#fff" opacity="0.6"/>
        <path id="Path_6847" data-name="Path 6847" d="M341.786,408.645h-.038a.129.129,0,0,1-.048-.081c0-.038,0-1.238.42-1.614a.5.5,0,0,1,.414-.108.36.36,0,0,1,.328.307c.065.452-.6,1.275-1.022,1.491A.064.064,0,0,1,341.786,408.645Zm.667-1.614a.28.28,0,0,0-.21.075c-.264.221-.334.9-.35,1.281a2.007,2.007,0,0,0,.78-1.2c0-.054-.038-.124-.172-.151Z" transform="translate(-289.965 -351.683)" fill="#fff" opacity="0.6"/>
        <path id="Path_6848" data-name="Path 6848" d="M336.6,408.883l-4.606-.285a.291.291,0,0,0-.323.258h0l-.452,3.638a.732.732,0,0,0,.673.77c1.614.075,2.378.027,4.407.14a37.923,37.923,0,0,0,5.413.172c1.716-.167,1.507-1.862.764-1.943a11.35,11.35,0,0,1-5.187-2.47A1.157,1.157,0,0,0,336.6,408.883Z" transform="translate(-285.124 -352.497)" fill="#263238"/>
        <path id="Path_6849" data-name="Path 6849" d="M334.5,398.52l1.06,3.272-4.531,1.329-1.415-3.589Z" transform="translate(-284.381 -347.843)" opacity="0.2"/>
        <path id="Path_6850" data-name="Path 6850" d="M311.434,355.939l-1.114-.312a1.345,1.345,0,0,0-1.211.248l-1.582,1.275a2.524,2.524,0,0,0-.931,2.1l.032.506a8.567,8.567,0,0,0,4.246,0l.71-.1a1.114,1.114,0,0,0,.979-1.259l-.188-1.415A1.286,1.286,0,0,0,311.434,355.939Z" transform="translate(-273.749 -328.007)" fill="#e4897b"/>
        <path id="Path_6851" data-name="Path 6851" d="M311.434,355.939l-1.114-.312a1.345,1.345,0,0,0-1.211.248l-1.582,1.275a2.524,2.524,0,0,0-.931,2.1l.032.506a8.567,8.567,0,0,0,4.246,0l.71-.1a1.114,1.114,0,0,0,.979-1.259l-.188-1.415A1.286,1.286,0,0,0,311.434,355.939Z" transform="translate(-273.749 -328.007)" opacity="0.1"/>
        <path id="Path_6852" data-name="Path 6852" d="M251.709,392.985s-1.48,11.16,12.026,11.16c13.894,0,12.629-9.524,9.863-15.185Z" transform="translate(-248.376 -343.427)" fill="#263238"/>
        <path id="Path_6853" data-name="Path 6853" d="M251.709,392.985s-1.48,11.16,12.026,11.16c13.894,0,12.629-9.524,9.863-15.185Z" transform="translate(-248.376 -343.427)" fill="#fff" opacity="0.4"/>
        <path id="Path_6854" data-name="Path 6854" d="M277.5,345.645l4.224,2.475c1.4.818,2.82,1.641,4.176,2.3.172.091.328.156.484.226l.242.113.2.075c.145.059.264.1.382.135s.307.065.457.108c.7.145,1.5.242,2.3.344,1.614.194,3.266.377,4.913.613h0a1.178,1.178,0,0,1,.086,2.319,35.823,35.823,0,0,1-5.09.748,22.037,22.037,0,0,1-2.69.059,5.026,5.026,0,0,1-.775-.075l-.436-.07-.4-.1-.393-.113-.344-.113c-.231-.081-.463-.156-.673-.242a45.351,45.351,0,0,1-4.741-2.233c-1.507-.813-2.954-1.652-4.407-2.577a2.351,2.351,0,0,1,2.448-4.009Z" transform="translate(-258.688 -323.277)" fill="#e4897b"/>
        <path id="Path_6855" data-name="Path 6855" d="M277.5,344.934l4.224,2.481c1.4.818,2.82,1.641,4.176,2.3.172.091.328.156.484.226l.242.113.2.075c.145.059.264.1.382.135s.307.065.457.108c.7.145,1.5.242,2.3.344,1.614.194,3.266.377,4.913.613h0a1.184,1.184,0,0,1,.086,2.325,35.827,35.827,0,0,1-5.09.748,22.019,22.019,0,0,1-2.69.059,5.022,5.022,0,0,1-.775-.075l-.436-.07-.4-.1-.393-.113-.344-.113c-.231-.081-.463-.156-.673-.242a45.342,45.342,0,0,1-4.741-2.233c-1.507-.812-2.954-1.652-4.407-2.577a2.351,2.351,0,0,1,2.448-4.009Z" transform="translate(-258.688 -322.953)" opacity="0.1"/>
        <path id="Path_6856" data-name="Path 6856" d="M284.4,348.227l-2.733,5.532h-.274c-.178-.032-.436-.086-.753-.167a1.429,1.429,0,0,1-.312-.07h-.075l-.334-.086-.441-.124a16.048,16.048,0,0,1-2.545-.926c-.135-.075-.274-.145-.4-.221a4.3,4.3,0,0,1-.732-.49.489.489,0,0,1-.091-.091l-.065-.059a.984.984,0,0,1-.113-.14l-.081-.108a.679.679,0,0,1-.059-.091c-.038-.059-.081-.118-.118-.188l-.118-.221-.113-.237a.092.092,0,0,0-.027-.065h0c-.032-.059-.054-.118-.081-.178s-.07-.172-.1-.269-.07-.178-.1-.269-.07-.2-.1-.3c-.829-2.69-2.039-6.274-.6-6.274,4.843,0,8.491,3.492,9.922,4.724A2.713,2.713,0,0,1,284.4,348.227Z" transform="translate(-258.404 -322.286)" fill="#16697a"/>
        <path id="Path_6857" data-name="Path 6857" d="M282.839,355.548h-.032c-.178-.032-.436-.086-.753-.167a1.428,1.428,0,0,1-.312-.07h-.075l-.334-.086-.441-.124a16.044,16.044,0,0,1-2.545-.926c-.135-.075-.274-.145-.4-.221a4.308,4.308,0,0,1-.732-.49.489.489,0,0,1-.091-.091l-.065-.059a.982.982,0,0,1-.113-.14l-.081-.108a.681.681,0,0,1-.059-.091c-.038-.059-.081-.118-.118-.188l-.118-.221-.113-.237a.092.092,0,0,0-.027-.065h0l1.108-5.1a15.89,15.89,0,0,1,5.289,8.362Z" transform="translate(-259.817 -324.124)" opacity="0.2"/>
        <path id="Path_6858" data-name="Path 6858" d="M247.264,372.958s-2.325-17.859-1.55-21.718,2.276-9.2,15.476-8.3A6.726,6.726,0,0,1,266.953,349c.7,5.542,4.364,19.635,4.364,19.635Z" transform="translate(-245.556 -322.125)" fill="#16697a"/>
        <path id="Path_6859" data-name="Path 6859" d="M271.32,368.63l-24.047,4.332s-2.33-17.87-1.55-21.718c.662-3.293,1.846-7.673,10.4-8.314a34.9,34.9,0,0,1,5.08,0,6.678,6.678,0,0,1,5.628,5.306c.054.237.1.479.129.737.21,1.614.673,4,1.221,6.532.038.178.081.361.124.538.086.409.178.823.269,1.243.237,1.033.474,2.072.716,3.078.081.344.161.689.242,1.022.048.231.108.457.161.683C270.577,365.767,271.32,368.63,271.32,368.63Z" transform="translate(-245.559 -322.123)" fill="#fff" opacity="0.6"/>
        <path id="Path_6860" data-name="Path 6860" d="M272.56,367.7c-14.636,3.18-19.91-6.888-19.91-6.888a22.742,22.742,0,0,1,1.361-2.152,8.24,8.24,0,0,0,1.178,1.151,19.735,19.735,0,0,0,6.3,2.852,21.745,21.745,0,0,0,10.068.737c.086.409.178.823.269,1.243C272.081,365.655,272.317,366.694,272.56,367.7Z" transform="translate(-248.833 -329.431)" opacity="0.2"/>
        <path id="Path_6861" data-name="Path 6861" d="M257.533,357.793a37.8,37.8,0,0,0,10.52,4.617l-.452-.027a12.647,12.647,0,0,0,2.508-.447c1.916-.511,3.858-1.152,5.763-1.776l2.922-.963a1.173,1.173,0,0,1,1.012,2.093c-.893.581-1.8,1.076-2.69,1.614a40.686,40.686,0,0,1-7.372,3.315,6.619,6.619,0,0,1-2.362.361A31.694,31.694,0,0,1,255,361.737a2.347,2.347,0,0,1,2.561-3.933Z" transform="translate(-249.428 -328.86)" fill="#dc897c"/>
        <path id="Path_6862" data-name="Path 6862" d="M247.678,350.146c.135-1.523,1.614-4.515,6.016-5.306l1.5,1.8s-.366,2.464.662,3.126a44.126,44.126,0,0,1,5.725,4.574l-2.658,6.124S247.027,357.8,247.678,350.146Z" transform="translate(-246.524 -323.048)" fill="#16697a"/>
        <path id="Path_6863" data-name="Path 6863" d="M259.656,343.241c-1.679.291-1.851.931-1.248,1.711a5.971,5.971,0,0,0,6.6,1.017C267.883,344.457,266.484,342.068,259.656,343.241Z" transform="translate(-251.346 -322.164)" fill="#16697a"/>
        <path id="Path_6864" data-name="Path 6864" d="M275.207,348.258a15.27,15.27,0,0,0-6.888-3.858s-6.9.1-3.82-1.469a34.909,34.909,0,0,1,5.08,0A6.678,6.678,0,0,1,275.207,348.258Z" transform="translate(-253.94 -322.123)" fill="#16697a"/>
        <path id="Path_6865" data-name="Path 6865" d="M257.11,331.46a20.922,20.922,0,0,1,1.265,3.912,7.249,7.249,0,0,1,.129,2.739s-.656,1.738,2.325,2.255c1.776.307,4.445-.113,4.445-1.862l-1.227-.188s-.038-.086-.091-.247c-.237-.689-.791-2.906.963-4.3C267.318,331.88,257.11,331.46,257.11,331.46Z" transform="translate(-250.893 -316.867)" fill="#e4897b"/>
        <path id="Path_6866" data-name="Path 6866" d="M257.11,331.46a20.922,20.922,0,0,1,1.265,3.912,9.764,9.764,0,0,0,5.564,2.69c-.237-.689-.791-2.906.963-4.3C267.318,331.88,257.11,331.46,257.11,331.46Z" transform="translate(-250.893 -316.867)" opacity="0.2"/>
        <path id="Path_6867" data-name="Path 6867" d="M275.346,313.5a5.1,5.1,0,0,1,.99,5.467c-1.378,3.083-5.107-3.858-5.107-3.858Z" transform="translate(-257.415 -308.572)" fill="#263238"/>
        <path id="Path_6868" data-name="Path 6868" d="M254.349,317.167c.9,4.4,1.178,7,4,8.943,4.251,2.917,10.138.059,10.735-4.531.538-4.133-1.022-10.617-6.145-11.73S253.45,312.777,254.349,317.167Z" transform="translate(-249.563 -306.799)" fill="#e4897b"/>
        <path id="Path_6869" data-name="Path 6869" d="M269,325.939c.027.447.285.8.581.78s.506-.393.479-.845-.285-.791-.576-.775S269,325.492,269,325.939Z" transform="translate(-256.385 -313.929)" fill="#263238"/>
        <path id="Path_6870" data-name="Path 6870" d="M277.408,324.044c0,.447.285.8.581.78s.506-.4.479-.845-.285-.8-.576-.78S277.381,323.6,277.408,324.044Z" transform="translate(-260.268 -313.052)" fill="#263238"/>
        <path id="Path_6871" data-name="Path 6871" d="M268.448,320.224a.307.307,0,0,0,.059-.151.274.274,0,0,0-.28-.253,2.6,2.6,0,0,0-2.109,1.157.264.264,0,0,0,.091.361h0a.274.274,0,0,0,.361-.091h0a2.061,2.061,0,0,1,1.7-.888A.3.3,0,0,0,268.448,320.224Z" transform="translate(-255.037 -311.491)" fill="#263238"/>
        <path id="Path_6872" data-name="Path 6872" d="M278.617,318.755a.317.317,0,0,0,.135-.091.269.269,0,0,0-.075-.366,2.583,2.583,0,0,0-2.384-.307.264.264,0,0,0-.14.344h0a.285.285,0,0,0,.35.14h0a2.039,2.039,0,0,1,1.894.285.312.312,0,0,0,.221-.005Z" transform="translate(-259.679 -310.571)" fill="#263238"/>
        <path id="Path_6873" data-name="Path 6873" d="M275.408,327.16l1.367.931s-.307.538-1.544.764Z" transform="translate(-259.263 -314.881)" fill="#de5753"/>
        <path id="Path_6874" data-name="Path 6874" d="M251.584,319.307a7.428,7.428,0,0,0-.269,3.923,6.619,6.619,0,0,0,3.767,5.209l1.125-3.487s2.3-.7,2.3-4.488a2.282,2.282,0,0,0-.57-1.754Z" transform="translate(-248.16 -310.978)" fill="#263238"/>
        <path id="Path_6875" data-name="Path 6875" d="M259.3,326.834s-1.162-2.454-2.421-1.614-.85,4.977,1.076,4.907S260.212,328.142,259.3,326.834Z" transform="translate(-250.454 -313.904)" fill="#e4897b"/>
        <path id="Path_6876" data-name="Path 6876" d="M271.464,331.9c-.791,0-3.089-.129-4.369-1.566a.145.145,0,0,1,.215-.194c1.437,1.614,4.38,1.469,4.412,1.469a.145.145,0,0,1,0,.285Z" transform="translate(-255.491 -316.238)" fill="#263238"/>
        <path id="Path_6877" data-name="Path 6877" d="M256.682,312.073a2.926,2.926,0,0,0,2.1.2c.856-.4-.161-1.4-.161-1.4a5.147,5.147,0,0,0,2.89.393c1.205-.355.366-1.846.366-1.846a5.113,5.113,0,0,0,2.152,1.205c.99.129.791-1.361.791-1.361s1.216.807,1.69,0-1.835-1.8-1.835-1.8,1,.242,1.146-.538-2.056-1.717-4.2-1.324a.99.99,0,0,0-.2-.958c-.387-.463-3.654-.463-4.967.538,0,0,.038-.6-1.135-.834s-2.556,2.319-2.556,2.319a4.055,4.055,0,0,0-2.508.743c-.743.78.662.974.662.974a4.024,4.024,0,0,0-2.373,2.755c-.339,1.959,1.119,1.152,1.119,1.152a3.473,3.473,0,0,0-.237,2.717c.565,1.227,4.649-1.77,4.649-1.77s0,1.41.9,1.265C256.682,314.22,256.682,312.073,256.682,312.073Z" transform="translate(-246.914 -304.341)" fill="#263238"/>
        <rect id="Rectangle_983" data-name="Rectangle 983" width="1.152" height="9.406" transform="matrix(0.802, -0.598, 0.598, 0.802, 27.289, 24.165)" fill="#263238"/>
        <path id="Path_6878" data-name="Path 6878" d="M302.923,356.955l-1.146-.145a1.324,1.324,0,0,0-1.157.42l-1.383,1.49a2.5,2.5,0,0,0-.613,2.217l.1.5a8.561,8.561,0,0,0,4.2-.613l.694-.2a1.125,1.125,0,0,0,.786-1.388l-.393-1.372a1.3,1.3,0,0,0-1.087-.9Z" transform="translate(-270.043 -328.571)" fill="#e4897b"/>
        <path id="Path_6879" data-name="Path 6879" d="M290.11,368.225a64.278,64.278,0,0,1,4.708-5.634c2.276-2.341,5.413-3.7,7.533-2.276a4.8,4.8,0,0,1,3.137-.979c1.593.226,4.391,4.224,4.391,4.224l-2.69,1.426-9.6,3.514-5.984,3.557Z" transform="translate(-266.136 -329.73)" fill="#263238"/>
        <path id="Path_6880" data-name="Path 6880" d="M309.876,363.56l-2.69,1.431L297.57,368.5l-6,3.578-1.491-3.858a65.165,65.165,0,0,1,4.708-5.634,10.9,10.9,0,0,1,2.965-2.19,4.545,4.545,0,0,1,4.579-.086,4.8,4.8,0,0,1,3.137-.979c.856.118,2.05,1.318,2.976,2.411C309.268,362.693,309.876,363.56,309.876,363.56Z" transform="translate(-266.122 -329.73)" fill="#fff" opacity="0.9"/>
        <path id="Path_6881" data-name="Path 6881" d="M311.972,361.746l-.667,2.33-5.166.753h-7.964l-.5-.845A25.781,25.781,0,0,1,301.3,360.4a4.545,4.545,0,0,1,4.579-.086,4.8,4.8,0,0,1,3.137-.979C309.852,359.454,311.046,360.654,311.972,361.746Z" transform="translate(-269.632 -329.73)" opacity="0.1"/>
        <path id="Path_6882" data-name="Path 6882" d="M310.6,364.308l-4.041,3.229-15.39,6.021-.145.059-1.507-3.035,4.509-5.311s4.063-5,8.432-3.46c0,0,2.879-1.281,4.843-.759h.048C309.241,361.634,310.6,364.308,310.6,364.308Z" transform="translate(-265.863 -330.479)" fill="#16697a"/>
        <path id="Path_6883" data-name="Path 6883" d="M312.021,364.426l-4.041,3.229-15.389,6.021,11.66-11.343a8.4,8.4,0,0,1,4.5-1.146C310.659,361.752,312.021,364.426,312.021,364.426Z" transform="translate(-267.281 -330.597)" opacity="0.2"/>
        <path id="Path_6884" data-name="Path 6884" d="M268.13,381.019s17.709-17.332,25.075-16.8S307.6,384.667,307.6,384.667l-6.4,2.518s-7.98-10.3-8.927-10.3-7.307,9.869-10.52,12.651-6.081,3.229-7.415,3.229h-2.454Z" transform="translate(-255.983 -331.994)" fill="#263238"/>
        <path id="Path_6885" data-name="Path 6885" d="M268.13,381.019s17.709-17.332,25.075-16.8S307.6,384.667,307.6,384.667l-6.4,2.518s-7.98-10.3-8.927-10.3-7.307,9.869-10.52,12.651-6.081,3.229-7.415,3.229h-2.454Z" transform="translate(-255.983 -331.994)" fill="#fff" opacity="0.4"/>
      </g>
    </g>
    <g id="freepik--character-1--inject-32" transform="translate(59.817 139.684)">
      <g id="freepik--group--inject-32-2" data-name="freepik--group--inject-32" transform="translate(0 0)">
        <path id="Path_6886" data-name="Path 6886" d="M149.981,255.742a57.974,57.974,0,0,1-1.464,9.546c-1.2,3.277-3.336,5.731-5.639,8.217a1.089,1.089,0,1,1-1.765-1.275c.99-2.039,2.056-4.068,2.933-6.134a8.039,8.039,0,0,0,.737-2.8c.086-.71.269-2.647.339-3.385.145-1.528.3-3.078.484-4.6a2.2,2.2,0,0,1,4.375.43Z" transform="translate(-124.903 -231.343)" fill="#ebc0bb"/>
        <path id="Path_6887" data-name="Path 6887" d="M149.679,252.23c-2.852,2-3.229,7.232-3.229,7.232l5.2,1.205Z" transform="translate(-127.463 -230.785)" fill="#263238"/>
        <path id="Path_6888" data-name="Path 6888" d="M173.129,270.626s-2.33-16.143-4.3-19.269-5-7.35-15.416-3.368c0,0-3.923,1.663-2.594,6.592s3.2,17.924,3.2,17.924Z" transform="translate(-129.352 -228.077)" fill="#263238"/>
        <path id="Path_6889" data-name="Path 6889" d="M150.846,254.588c.393,1.453.829,3.6,1.254,5.919l.291,1.614c.226,1.27.441,2.551.635,3.767.038.215.07.425.108.63.538,3.368.92,6.005.92,6.005l19.092-1.873s-2.33-16.143-4.3-19.275-5.01-7.356-15.411-3.363C153.45,248,149.522,249.654,150.846,254.588Z" transform="translate(-129.368 -228.085)" fill="#fff" opacity="0.6"/>
        <path id="Path_6890" data-name="Path 6890" d="M130.36,333l3.492,9.288,2.448-1.539-1.862-9.438Z" transform="translate(-120.031 -267.313)" fill="#eec1bb"/>
        <path id="Path_6891" data-name="Path 6891" d="M158.821,287.79l-18.559.248v1.948s-13.506.786-17.337,4.617,4.251,22.385,4.251,22.385l4.843-.775-1.157-14.889S142.7,302.5,146.644,302.5C155.141,302.5,158.821,287.79,158.821,287.79Z" transform="translate(-116.121 -247.21)" fill="#16697a"/>
        <path id="Path_6892" data-name="Path 6892" d="M129.494,347.284l4.063-1.135a.264.264,0,0,1,.334.167h0l1.076,3.164a.662.662,0,0,1-.452.813c-1.426.371-2.12.479-3.912.963a34.252,34.252,0,0,1-4.805,1.189c-1.566.178-1.7-1.378-1.076-1.587a10.418,10.418,0,0,0,4.159-3.2,1.028,1.028,0,0,1,.613-.377Z" transform="translate(-117.266 -274.16)" fill="#263238"/>
        <path id="Path_6893" data-name="Path 6893" d="M130.266,349.376a.479.479,0,0,1-.237-.441.334.334,0,0,1,.129-.3c.4-.3,1.614.118,1.754.167a.1.1,0,0,1,.059.075.07.07,0,0,1-.048.081,4.723,4.723,0,0,1-.926.4,1.039,1.039,0,0,1-.732.011Zm0-.581a.156.156,0,0,0-.065.145.323.323,0,0,0,.145.285c.215.118.7,0,1.308-.3C131.159,348.774,130.475,348.639,130.266,348.8Z" transform="translate(-119.878 -275.268)" fill="#16697a"/>
        <path id="Path_6894" data-name="Path 6894" d="M132.409,348.066c-.42-.108-1.173-.716-1.2-1.135a.334.334,0,0,1,.237-.339.457.457,0,0,1,.393,0c.457.253.667,1.329.678,1.361a.091.091,0,0,1,0,.081h-.038a.043.043,0,0,1-.07.032Zm-.9-1.275c-.113.048-.129.113-.124.167.038.274.538.748.926.926-.086-.344-.28-.931-.538-1.076a.237.237,0,0,0-.2-.027Z" transform="translate(-120.423 -274.351)" fill="#16697a"/>
        <path id="Path_6895" data-name="Path 6895" d="M158.821,287.79l-18.559.248v1.948s-13.506.786-17.337,4.617,4.251,22.385,4.251,22.385l4.843-.775-1.157-14.889S142.7,302.5,146.644,302.5C155.141,302.5,158.821,287.79,158.821,287.79Z" transform="translate(-116.121 -247.21)" opacity="0.2"/>
        <path id="Path_6896" data-name="Path 6896" d="M139.63,333.6l1.636,9.788,2.7-1.033V332.73Z" transform="translate(-124.313 -267.968)" fill="#eec1bb"/>
        <path id="Path_6897" data-name="Path 6897" d="M137.511,349.514l3.767-1.9a.269.269,0,0,1,.366.1h0l1.695,2.884a.662.662,0,0,1-.285.888c-1.324.646-1.986.888-3.648,1.717a35.306,35.306,0,0,1-4.477,2.1c-1.5.479-1.937-1.017-1.34-1.351a10.407,10.407,0,0,0,3.455-3.955A1.044,1.044,0,0,1,137.511,349.514Z" transform="translate(-121.403 -274.825)" fill="#263238"/>
        <path id="Path_6898" data-name="Path 6898" d="M137.816,352.846a.473.473,0,0,1-.317-.387.334.334,0,0,1,.07-.312c.328-.366,1.614-.2,1.754-.183a.1.1,0,0,1,.07.065.081.081,0,0,1-.032.091,4.363,4.363,0,0,1-.829.57,1.017,1.017,0,0,1-.716.156Zm-.113-.57a.167.167,0,0,0-.032.156.323.323,0,0,0,.2.248c.237.075.683-.129,1.227-.538-.538-.054-1.216-.048-1.394.145Z" transform="translate(-123.323 -276.828)" fill="#16697a"/>
        <path id="Path_6899" data-name="Path 6899" d="M139.659,351.213c-.436-.027-1.291-.479-1.4-.877a.339.339,0,0,1,.161-.382.484.484,0,0,1,.393-.059c.5.156.915,1.168.931,1.2a.086.086,0,0,1,0,.081.032.032,0,0,1-.038,0,.043.043,0,0,1-.048.038Zm-1.135-1.1c-.1.07-.108.14-.086.188a1.819,1.819,0,0,0,1.076.726c-.151-.317-.452-.856-.753-.947a.247.247,0,0,0-.2,0Z" transform="translate(-123.675 -275.889)" fill="#16697a"/>
        <path id="Path_6900" data-name="Path 6900" d="M164.9,287.79s3.492,11.671-4.3,13.926-18.3-.393-18.3-.393l-.624,14.819-4.934.075s-4.342-15.433-3.229-20.173,17.354-6.167,17.354-6.167l.075-2.088Z" transform="translate(-121.403 -247.21)" fill="#16697a"/>
        <path id="Path_6901" data-name="Path 6901" d="M152.206,287.373l1-.42a1.248,1.248,0,0,1,1.152.086l1.614,1a2.373,2.373,0,0,1,1.114,1.851l.032.468a8.007,8.007,0,0,1-3.944.506H152.5a1.044,1.044,0,0,1-1.076-1.049v-1.34a1.211,1.211,0,0,1,.786-1.1Z" transform="translate(-129.759 -246.777)" fill="#eec1bb"/>
        <path id="Path_6902" data-name="Path 6902" d="M171.425,257.254c1.178,4.246,1.388,9.035-.856,13.006a9.2,9.2,0,0,1-2.69,2.26,39.148,39.148,0,0,1-7.442,3.471,1.089,1.089,0,1,1-.974-1.948c2.54-1.873,5.779-3.767,7.872-6.027l-.237.344c1.345-3.067.866-6.721.118-9.912a2.2,2.2,0,0,1,4.229-1.195Z" transform="translate(-133.196 -232.419)" fill="#ebc0bb"/>
        <path id="Path_6903" data-name="Path 6903" d="M119.1,294.44v1.27c0,.328.382.463.7.463H145.16c.323,0,.716-.135.716-.463v-1.27Z" transform="translate(-114.83 -250.282)" fill="#16697a"/>
        <path id="Path_6904" data-name="Path 6904" d="M119.1,294.44v1.27c0,.328.382.463.7.463H145.16c.323,0,.716-.135.716-.463v-1.27Z" transform="translate(-114.83 -250.282)" fill="#fff" opacity="0.4"/>
        <path id="Path_6905" data-name="Path 6905" d="M119.1,294.44v1.27c0,.328.382.463.7.463h16.724c.323,0,.71-.135.71-.463v-1.27Z" transform="translate(-114.83 -250.282)" opacity="0.2"/>
        <path id="Path_6906" data-name="Path 6906" d="M111.189,269.424l3.019,13.695a1.033,1.033,0,0,0,.985.775H131.68a.667.667,0,0,0,.619-.861l-3.013-13.608a.942.942,0,0,0-.985-.667H111.813C111.372,268.757,111.076,268.956,111.189,269.424Z" transform="translate(-111.165 -238.417)" fill="#16697a"/>
        <path id="Path_6907" data-name="Path 6907" d="M111.189,269.424l3.019,13.695a1.033,1.033,0,0,0,.985.775H131.12a.662.662,0,0,0,.619-.861l-3.019-13.608a.931.931,0,0,0-.979-.667H111.813C111.372,268.757,111.076,268.956,111.189,269.424Z" transform="translate(-111.165 -238.417)" fill="#fff" opacity="0.4"/>
        <path id="Path_6908" data-name="Path 6908" d="M126.32,281.08h0a2.357,2.357,0,0,0,2.179,2.152c.92,0,1.469-.952,1.205-2.152a2.537,2.537,0,0,0-2.082-2.12c.264,1.173-.3,2.12-1.216,2.12Z" transform="translate(-118.165 -243.132)" opacity="0.2"/>
        <path id="Path_6909" data-name="Path 6909" d="M158,248.68s-3.363-2.556-1.345-5.763c1.146-1.83,10.057-3.4,11.472-1.485a3.767,3.767,0,0,1,.393,3.858s-1.776-.038-3.035,0S161.768,249.154,158,248.68Z" transform="translate(-131.88 -225.395)" fill="#263238"/>
        <path id="Path_6910" data-name="Path 6910" d="M160.993,234.87a18.735,18.735,0,0,0,.317,3.686,4.7,4.7,0,0,0,1.835,3.164,4.545,4.545,0,0,1-2.233,2.631c-1.517.952-2.852,1.3-3.406.952s.135-2.335.135-2.335a1.552,1.552,0,0,0,0-.237,3.436,3.436,0,0,0-2.287-3.229C152.674,238.777,160.993,234.87,160.993,234.87Z" transform="translate(-131.33 -222.766)" fill="#eec1bb"/>
        <path id="Path_6911" data-name="Path 6911" d="M160.987,234.87a18.738,18.738,0,0,0,.317,3.686,8.83,8.83,0,0,1-3.681,4.176,3.436,3.436,0,0,0-2.287-3.229C152.668,238.777,160.987,234.87,160.987,234.87Z" transform="translate(-131.324 -222.766)" opacity="0.2"/>
        <path id="Path_6912" data-name="Path 6912" d="M142.673,224.6a4.678,4.678,0,0,0,.7,5.058c2.093,2.3,3.347-4.843,3.347-4.843Z" transform="translate(-125.51 -218.023)" fill="#263238"/>
        <path id="Path_6913" data-name="Path 6913" d="M156.275,222.185c.479,4.095.99,6.457-.92,8.954-2.868,3.767-8.825,2.965-10.665-.872-1.673-3.444-2.152-9.562,2-12S155.8,218.1,156.275,222.185Z" transform="translate(-126.085 -214.633)" fill="#eec1bb"/>
        <path id="Path_6914" data-name="Path 6914" d="M151.811,228.215a.312.312,0,0,1-.086-.1.221.221,0,0,1,.151-.264,2.093,2.093,0,0,1,1.916.355.215.215,0,0,1,0,.3h0a.226.226,0,0,1-.3,0h0a1.684,1.684,0,0,0-1.534-.253.231.231,0,0,1-.145-.038Z" transform="translate(-129.897 -219.48)" fill="#263238"/>
        <path id="Path_6915" data-name="Path 6915" d="M143.14,230.472a.183.183,0,0,1-.129-.032.221.221,0,0,1-.038-.3,2.1,2.1,0,0,1,1.76-.839.21.21,0,0,1,.194.231h0a.221.221,0,0,1-.231.194h0a1.668,1.668,0,0,0-1.388.7A.21.21,0,0,1,143.14,230.472Z" transform="translate(-125.838 -220.192)" fill="#263238"/>
        <path id="Path_6916" data-name="Path 6916" d="M148.533,236l-.813,1.076a1.7,1.7,0,0,0,1.378.2Z" transform="translate(-128.05 -223.288)" fill="#d4827d"/>
        <path id="Path_6917" data-name="Path 6917" d="M150.16,239.3a12.729,12.729,0,0,1,1.13,1.426l.285-.135c1.313-.624,1.711-1.351,1.76-1.959a1.959,1.959,0,0,0-.161-.872,1.759,1.759,0,0,0-.258-.436,6.812,6.812,0,0,1-2.314,1.754C150.338,239.224,150.16,239.3,150.16,239.3Z" transform="translate(-129.177 -223.903)" fill="#263238"/>
        <path id="Path_6918" data-name="Path 6918" d="M151,239.074l.344.414c1.232-.592,2.018-1.173,2.228-1.733a1.76,1.76,0,0,0-.258-.436A6.812,6.812,0,0,1,151,239.074Z" transform="translate(-129.565 -223.898)" fill="#fff"/>
        <path id="Path_6919" data-name="Path 6919" d="M152.79,241.709c1.313-.624,1.711-1.351,1.76-1.959a4.665,4.665,0,0,0-1.318.979A1.786,1.786,0,0,0,152.79,241.709Z" transform="translate(-130.392 -225.021)" fill="#de5753"/>
        <path id="Path_6920" data-name="Path 6920" d="M156.4,215.127a1.611,1.611,0,0,1-.28,0l.334,4.972a3.907,3.907,0,0,0,1.383,2.744,5.462,5.462,0,0,0,2.152,2.69c1.932-.043,2.152,2.857,2.152,2.857C165.59,226.513,165.128,213.007,156.4,215.127Z" transform="translate(-131.93 -213.543)" fill="#263238"/>
        <path id="Path_6921" data-name="Path 6921" d="M161.962,230.888s.312-2.475,1.647-2.109,2.152,4.1.49,4.59S161.542,232.292,161.962,230.888Z" transform="translate(-134.581 -219.936)" fill="#eec1bb"/>
        <path id="Path_6922" data-name="Path 6922" d="M152.516,232.861c.135.393.463.64.726.538s.366-.49.231-.882-.468-.646-.732-.538S152.376,232.463,152.516,232.861Z" transform="translate(-130.236 -221.419)" fill="#263238"/>
        <path id="Path_6923" data-name="Path 6923" d="M152.369,231.963l-.979-.043S152.068,232.5,152.369,231.963Z" transform="translate(-129.745 -221.404)" fill="#263238"/>
        <path id="Path_6924" data-name="Path 6924" d="M145.356,234.5c.135.4.463.646.726.538s.366-.49.231-.888-.468-.64-.732-.538S145.216,234.1,145.356,234.5Z" transform="translate(-126.929 -222.174)" fill="#263238"/>
        <path id="Path_6925" data-name="Path 6925" d="M145.209,233.568l-.979-.038S144.908,234.106,145.209,233.568Z" transform="translate(-126.438 -222.147)" fill="#263238"/>
        <path id="Path_6926" data-name="Path 6926" d="M144.188,220.956a5.668,5.668,0,0,0-.447,2.621c.689-.1,1.469-.221,2.271-.355a5,5,0,0,1,.048-2.626,6.656,6.656,0,0,0,.6,2.513c.619-.113,1.238-.237,1.835-.366a8.791,8.791,0,0,1-.231-2.335,5.1,5.1,0,0,0,1.243,2.1l.285-.075a3.405,3.405,0,0,1,0-3.153c.92-1.421-.635-3.923-.635-3.923s-9.148.151-8.018,8.566c0,0,.8-.091,1.964-.258a4.574,4.574,0,0,1,1.087-2.712Z" transform="translate(-124.965 -213.755)" fill="#263238"/>
        <path id="Path_6927" data-name="Path 6927" d="M169.443,221.058a16.677,16.677,0,0,1,.371,2.26,7.926,7.926,0,0,0,2.583-.8c.027-1.614-.151-3.492-.151-3.492a20.289,20.289,0,0,1,.619,3.229,3.443,3.443,0,0,0,.3-.194s-.888-9.842-4.482-9.686a4.393,4.393,0,0,0-4.3,3.051l1.028,1.528s1.351-1.351,2.152-.226,1.56,6.608,1.56,6.608h.312C169.47,222.306,169.443,221.058,169.443,221.058Z" transform="translate(-135.745 -212.377)" fill="#263238"/>
        <path id="Path_6928" data-name="Path 6928" d="M175.734,252.23c2.3,0,3.912,2.857,4.213,6.742l-7,1.555S170.482,252.268,175.734,252.23Z" transform="translate(-139.437 -230.785)" fill="#263238"/>
      </g>
    </g>
    <g id="freepik--Plant--inject-32" transform="translate(40.212 188.312)">
      <path id="Path_6929" data-name="Path 6929" d="M89.162,350.925s-.248-13.877,6.285-20.114-4.628-.979-7.06,5.569c0,0,.646-12.419,7.27-19.963s-4.046-2.362-6.527,6.253c0,0,.538-11.085,4.009-16.681S91.863,303.5,89.6,307s-2.072,13.3-2.072,13.3-.624-18.193-4.692-17.536,3.191,13.877,3.358,20.06c0,0-2.922-8.841-6.629-7.835s4.768,3.5,6.419,16.143l.312,5.844s-2.588-8.647-5.752-6.651,6.656,8.308,6.828,20.722Z" transform="translate(-76.533 -302.748)" fill="#16697a"/>
      <path id="Path_6930" data-name="Path 6930" d="M89.162,350.925s-.248-13.877,6.285-20.114-4.628-.979-7.06,5.569c0,0,.646-12.419,7.27-19.963s-4.046-2.362-6.527,6.253c0,0,.538-11.085,4.009-16.681S91.863,303.5,89.6,307s-2.072,13.3-2.072,13.3-.624-18.193-4.692-17.536,3.191,13.877,3.358,20.06c0,0-2.922-8.841-6.629-7.835s4.768,3.5,6.419,16.143l.312,5.844s-2.588-8.647-5.752-6.651,6.656,8.308,6.828,20.722Z" transform="translate(-76.533 -302.748)" opacity="0.2"/>
      <path id="Path_6931" data-name="Path 6931" d="M81.2,404.065H97.839l2.212-16.175H78.99Z" transform="translate(-76.698 -342.075)" fill="#263238"/>
      <path id="Path_6932" data-name="Path 6932" d="M81.2,404.065H97.839l2.212-16.175H78.99Z" transform="translate(-76.698 -342.075)" fill="#fff" opacity="0.2"/>
      <path id="Path_6933" data-name="Path 6933" d="M93.721,357.583s1.738-11.112-2.814-16.837,3.826-.274,5.053,5.246c0,0,.856-10.035-3.627-16.826s3.514-1.448,4.552,5.741c0,0,.786-8.954-1.372-13.851s1.3-1.856,2.734,1.205.183,10.907.183,10.907,2.529-14.529,5.709-13.538-4.1,10.762-4.918,15.729c0,0,3.325-6.775,6.188-5.553s-4.208,2.281-6.941,12.258l-.9,4.676s3.035-6.672,5.381-4.741-6.263,5.919-7.775,15.874Z" transform="translate(-81.582 -310.014)" fill="#16697a"/>
      <path id="Path_6934" data-name="Path 6934" d="M100.166,385.45v1.539a1.862,1.862,0,0,1-1.862,1.862H76.592a1.862,1.862,0,0,1-1.862-1.862V385.45Z" transform="translate(-74.73 -340.948)" fill="#263238"/>
    </g>
  </g>
</svg>
