<svg xmlns="http://www.w3.org/2000/svg" width="32.249" height="32.249" viewBox="0 0 32.249 32.249">
  <path id="XMLID_468_" d="M30.783,22.476h-3.42V16.124A1.466,1.466,0,0,0,25.9,14.658H17.59V9.772h3.42a1.466,1.466,0,0,0,1.466-1.466V1.466A1.466,1.466,0,0,0,21.01,0H11.238A1.466,1.466,0,0,0,9.772,1.466V8.306a1.466,1.466,0,0,0,1.466,1.466h3.42v4.886H6.352a1.466,1.466,0,0,0-1.466,1.466v6.352H1.466A1.466,1.466,0,0,0,0,23.942v6.841a1.466,1.466,0,0,0,1.466,1.466H30.783a1.466,1.466,0,0,0,1.466-1.466V23.942A1.466,1.466,0,0,0,30.783,22.476ZM12.7,2.932h6.841V6.841H12.7ZM24.431,17.59v4.886H17.59V17.59Zm-16.613,0h6.841v4.886H7.818ZM2.932,25.408H9.772v3.909H2.932Zm9.772,0h6.841v3.909H12.7Zm16.613,3.909H22.476V25.408h6.841Z" fill="#069a8e"/>
</svg>
