<svg xmlns="http://www.w3.org/2000/svg" width="15.43" height="15.708" viewBox="0 0 15.43 15.708">
  <path id="XMLID_468_" d="M14.729,10.948H13.092V7.854a.708.708,0,0,0-.7-.714H8.416V4.76h1.637a.708.708,0,0,0,.7-.714V.714a.708.708,0,0,0-.7-.714H5.377a.708.708,0,0,0-.7.714V4.046a.708.708,0,0,0,.7.714H7.014V7.14H3.039a.708.708,0,0,0-.7.714v3.094H.7a.708.708,0,0,0-.7.714v3.332a.708.708,0,0,0,.7.714H14.729a.708.708,0,0,0,.7-.714V11.662A.708.708,0,0,0,14.729,10.948Zm-8.65-9.52H9.352v1.9H6.078Zm5.611,7.14v2.38H8.416V8.568Zm-7.949,0H7.014v2.38H3.741ZM1.4,12.376H4.676v1.9H1.4Zm4.676,0H9.352v1.9H6.078Zm7.949,1.9H10.754v-1.9h3.273Z" fill="#16697a"/>
</svg>
