<svg xmlns="http://www.w3.org/2000/svg" width="17.184" height="17.184" viewBox="0 0 17.184 17.184">
  <g id="Groupe_2586" data-name="Groupe 2586" transform="translate(-790.565 -537)">
    <path id="Tracé_752" data-name="Tracé 752" d="M1590.874,619.506a8.592,8.592,0,1,1-8.592-8.592A8.592,8.592,0,0,1,1590.874,619.506Z" transform="translate(-783.125 -73.914)" fill="#e14e42"/>
    <g id="Groupe_502" data-name="Groupe 502" transform="translate(793.789 540.222)">
      <path id="Tracé_753" data-name="Tracé 753" d="M1605.279,640.1a.215.215,0,0,0-.186.077.416.416,0,0,0-.056.249v.281h.48v-.281a.42.42,0,0,0-.057-.249A.209.209,0,0,0,1605.279,640.1Z" transform="translate(-1597.037 -632.876)" fill="#fff"/>
      <g id="Groupe_501" data-name="Groupe 501">
        <path id="Tracé_754" data-name="Tracé 754" d="M1600.073,640.078a.266.266,0,0,0-.116.027.4.4,0,0,0-.112.085v1.732a.489.489,0,0,0,.128.1.317.317,0,0,0,.131.03.176.176,0,0,0,.147-.059.312.312,0,0,0,.047-.192v-1.435a.34.34,0,0,0-.057-.214A.208.208,0,0,0,1600.073,640.078Z" transform="translate(-1593.704 -632.859)" fill="#fff"/>
        <g id="Groupe_500" data-name="Groupe 500">
          <path id="Tracé_755" data-name="Tracé 755" d="M1591.468,633.914h-6.816a2.077,2.077,0,0,0-1.962,2.11v1.612a1.984,1.984,0,0,0,1.962,2.006h6.816a1.984,1.984,0,0,0,1.962-2.006v-1.612A2.078,2.078,0,0,0,1591.468,633.914Zm-5.384,1.359h-.634v3.219h-.612v-3.219h-.633v-.548h1.879Zm1.79,3.219h-.543v-.3a1.149,1.149,0,0,1-.313.256.642.642,0,0,1-.316.089.333.333,0,0,1-.283-.124.609.609,0,0,1-.1-.373v-2.323h.543v2.132a.242.242,0,0,0,.033.142.132.132,0,0,0,.112.044.308.308,0,0,0,.152-.058.728.728,0,0,0,.168-.149v-2.111h.543Zm1.972-.573a.7.7,0,0,1-.128.453.447.447,0,0,1-.369.157.637.637,0,0,1-.285-.06.7.7,0,0,1-.232-.188v.213h-.549v-3.766h.549v1.213a.857.857,0,0,1,.233-.193.524.524,0,0,1,.251-.066.465.465,0,0,1,.394.177.843.843,0,0,1,.136.519Zm1.884-.749h-1.039v.524a.612.612,0,0,0,.053.3.2.2,0,0,0,.184.085.222.222,0,0,0,.189-.072.614.614,0,0,0,.054-.317v-.127h.559v.143a.9.9,0,0,1-.205.644.8.8,0,0,1-.609.215.74.74,0,0,1-.575-.229.9.9,0,0,1-.21-.63V636.46a.791.791,0,0,1,.231-.589.809.809,0,0,1,.594-.227.754.754,0,0,1,.573.211.846.846,0,0,1,.2.606Z" transform="translate(-1582.69 -628.902)" fill="#fff"/>
          <path id="Tracé_756" data-name="Tracé 756" d="M1588.373,619.914l.82,2.506v1.644h.689v-1.722l.8-2.428h-.7l-.426,1.659h-.043l-.448-1.659Z" transform="translate(-1586.339 -619.914)" fill="#fff"/>
          <path id="Tracé_757" data-name="Tracé 757" d="M1595.211,622.951a.708.708,0,0,0-.246.567V625.1a.823.823,0,0,0,.24.621.893.893,0,0,0,.643.231.921.921,0,0,0,.655-.224.809.809,0,0,0,.237-.616v-1.581a.745.745,0,0,0-.242-.573.888.888,0,0,0-.623-.222A.992.992,0,0,0,1595.211,622.951Zm.906.543v1.668a.261.261,0,0,1-.073.194.276.276,0,0,1-.2.07.24.24,0,0,1-.187-.069.272.272,0,0,1-.065-.194v-1.668a.211.211,0,0,1,.069-.162.268.268,0,0,1,.183-.061.3.3,0,0,1,.2.061A.2.2,0,0,1,1596.117,623.494Z" transform="translate(-1590.571 -621.728)" fill="#fff"/>
          <path id="Tracé_758" data-name="Tracé 758" d="M1603.055,626.017v-3.061h-.612v2.324a.835.835,0,0,1-.188.165.353.353,0,0,1-.171.064.146.146,0,0,1-.125-.049.256.256,0,0,1-.039-.156v-2.347h-.611v2.559a.652.652,0,0,0,.108.409.38.38,0,0,0,.319.138.752.752,0,0,0,.354-.1,1.3,1.3,0,0,0,.353-.286v.339Z" transform="translate(-1594.643 -621.867)" fill="#fff"/>
        </g>
      </g>
    </g>
  </g>
</svg>
